<?xml version="1.0" encoding="UTF-8" standalone="no"?>
<!-- Created with Inkscape (http://www.inkscape.org/) -->

<svg
   xmlns:dc="http://purl.org/dc/elements/1.1/"
   xmlns:cc="http://creativecommons.org/ns#"
   xmlns:rdf="http://www.w3.org/1999/02/22-rdf-syntax-ns#"
   xmlns:svg="http://www.w3.org/2000/svg"
   xmlns="http://www.w3.org/2000/svg"
   xmlns:sodipodi="http://sodipodi.sourceforge.net/DTD/sodipodi-0.dtd"
   xmlns:inkscape="http://www.inkscape.org/namespaces/inkscape"
   id="svg2"
   version="1.1"
   inkscape:version="0.91 r13725"
   xml:space="preserve"
   width="680"
   height="927.5"
   viewBox="0 0 680 927.5"
   sodipodi:docname="CMNandRMSrawPast.svg"><metadata
     id="metadata8"><rdf:RDF><cc:Work
         rdf:about=""><dc:format>image/svg+xml</dc:format><dc:type
           rdf:resource="http://purl.org/dc/dcmitype/StillImage" /><dc:title></dc:title></cc:Work></rdf:RDF></metadata><defs
     id="defs6"><clipPath
       clipPathUnits="userSpaceOnUse"
       id="clipPath644"><path
         d="m 44.789,650.433 210.656,0 0,-161.999 -210.656,0 0,161.999 z"
         id="path646"
         inkscape:connector-curvature="0" /></clipPath><clipPath
       clipPathUnits="userSpaceOnUse"
       id="clipPath660"><path
         d="m 44.789,650.433 210.656,0 0,-161.999 -210.656,0 0,161.999 z"
         id="path662"
         inkscape:connector-curvature="0" /></clipPath><clipPath
       clipPathUnits="userSpaceOnUse"
       id="clipPath4888"><rect
         style="opacity:1;fill:#00ffff;fill-opacity:1;stroke:#ffffff;stroke-width:0.80000001;stroke-miterlimit:4;stroke-dasharray:2.4, 0.8;stroke-dashoffset:0;stroke-opacity:1"
         id="rect4890"
         width="245.45959"
         height="107.73991"
         x="26.232325"
         y="-591.16412"
         transform="scale(1,-1)" /></clipPath><clipPath
       clipPathUnits="userSpaceOnUse"
       id="clipPath4892"><rect
         style="opacity:1;fill:#00ffff;fill-opacity:1;stroke:#ffffff;stroke-width:0.80000001;stroke-miterlimit:4;stroke-dasharray:2.4, 0.8;stroke-dashoffset:0;stroke-opacity:1"
         id="rect4894"
         width="245.45959"
         height="107.73991"
         x="-185.91248"
         y="112.84837" /></clipPath><clipPath
       clipPathUnits="userSpaceOnUse"
       id="clipPath4896"><rect
         style="opacity:1;fill:#00ffff;fill-opacity:1;stroke:#ffffff;stroke-width:0.80000001;stroke-miterlimit:4;stroke-dasharray:2.4, 0.8;stroke-dashoffset:0;stroke-opacity:1"
         id="rect4898"
         width="245.45959"
         height="107.73991"
         x="-38.341583"
         y="-498.63821" /></clipPath><clipPath
       id="clipPath4918"
       clipPathUnits="userSpaceOnUse"><path
         inkscape:connector-curvature="0"
         id="path4920"
         d="m 342.969,1172.21 1521.09,0 0,602.379 -1521.09,0 0,-602.379 z" /></clipPath><clipPath
       id="clipPath5146"
       clipPathUnits="userSpaceOnUse"><path
         inkscape:connector-curvature="0"
         id="path5148"
         d="m 0,6.26953 1910,0 0,1769.99997 -1910,0 L 0,6.26953 Z" /></clipPath><clipPath
       id="clipPath5196"
       clipPathUnits="userSpaceOnUse"><path
         inkscape:connector-curvature="0"
         id="path5198"
         d="m 342.969,252.398 1521.09,0 0,602.383 -1521.09,0 0,-602.383 z" /></clipPath><clipPath
       id="clipPath5304"
       clipPathUnits="userSpaceOnUse"><path
         inkscape:connector-curvature="0"
         id="path5306"
         d="m 0,6.26953 1910,0 0,1769.99997 -1910,0 L 0,6.26953 Z" /></clipPath><clipPath
       id="clipPath5342"
       clipPathUnits="userSpaceOnUse"><path
         inkscape:connector-curvature="0"
         id="path5344"
         d="m 342.969,252.398 1521.09,0 0,602.383 -1521.09,0 0,-602.383 z" /></clipPath></defs><sodipodi:namedview
     pagecolor="#ffffff"
     bordercolor="#666666"
     borderopacity="1"
     objecttolerance="10"
     gridtolerance="10"
     guidetolerance="10"
     inkscape:pageopacity="0"
     inkscape:pageshadow="2"
     inkscape:window-width="1920"
     inkscape:window-height="981"
     id="namedview4"
     showgrid="false"
     inkscape:zoom="3.6597816"
     inkscape:cx="196.72644"
     inkscape:cy="712.48346"
     inkscape:window-x="0"
     inkscape:window-y="28"
     inkscape:window-maximized="1"
     inkscape:current-layer="g10" /><g
     id="g10"
     inkscape:groupmode="layer"
     inkscape:label="HIPpaper"
     transform="matrix(1.25,0,0,-1.25,0,927.5)"><text
       transform="matrix(1,0,0,-1,406.20522,510.97382)"
       style="font-variant:normal;font-weight:normal;font-size:9.96259975px;font-family:AdvMacMthSyN;-inkscape-font-specification:AdvMacMthSyN;writing-mode:lr-tb;fill:#000000;fill-opacity:1;fill-rule:nonzero;stroke:none"
       id="text144"><tspan
         x="0"
         y="0"
         id="tspan146"></tspan></text>
<text
       transform="matrix(1,0,0,-1,318.3873,478.7148)"
       style="font-variant:normal;font-weight:normal;font-size:6.97380018px;font-family:AdvMacMthSyN;-inkscape-font-specification:AdvMacMthSyN;writing-mode:lr-tb;fill:#000000;fill-opacity:1;fill-rule:nonzero;stroke:none"
       id="text174"><tspan
         x="0"
         y="0"
         id="tspan176"></tspan></text>
<text
       transform="matrix(1,0,0,-1,330.5763,406.9984)"
       style="font-variant:normal;font-weight:normal;font-size:6.97380018px;font-family:AdvMacMthSyN;-inkscape-font-specification:AdvMacMthSyN;writing-mode:lr-tb;fill:#000000;fill-opacity:1;fill-rule:nonzero;stroke:none"
       id="text230"><tspan
         x="0"
         y="0"
         id="tspan232"></tspan></text>
<text
       transform="matrix(1,0,0,-1,281.65159,236.01426)"
       style="font-variant:normal;font-weight:normal;font-size:9.96259975px;font-family:AdvMacMthSyN;-inkscape-font-specification:AdvMacMthSyN;writing-mode:lr-tb;fill:#000000;fill-opacity:1;fill-rule:nonzero;stroke:none"
       id="text282"><tspan
         x="0"
         y="0"
         id="tspan284"></tspan></text>
<text
       transform="matrix(1,0,0,-1,281.65159,200.12798)"
       style="font-variant:normal;font-weight:normal;font-size:9.96259975px;font-family:AdvMacMthSyN;-inkscape-font-specification:AdvMacMthSyN;writing-mode:lr-tb;fill:#000000;fill-opacity:1;fill-rule:nonzero;stroke:none"
       id="text294"><tspan
         x="0"
         y="0"
         id="tspan296"></tspan></text>
<text
       transform="matrix(1,0,0,-1,212.1448,704.0125)"
       style="font-variant:normal;font-weight:normal;font-size:13.94760036px;font-family:AdvT044;-inkscape-font-specification:AdvT044;writing-mode:lr-tb;fill:#ffffff;fill-opacity:1;fill-rule:nonzero;stroke:none"
       id="text332"
       clip-path="url(#clipPath4892)"><tspan
         x="0 8.5624313 17.009098 24.260456 27.549299 36.111732 43.255692 56.578438 60.036049 74.549919 82.089996 90.652428 98.475632 106.63917"
         y="0"
         sodipodi:role="line"
         id="tspan334">ARTICLEINPRESS</tspan></text>
<g
       id="g7211"><text
         clip-path="url(#clipPath4896)"
         id="text78"
         style="font-variant:normal;font-weight:normal;font-size:9.96259975px;font-family:AdvTimes;-inkscape-font-specification:AdvTimes;writing-mode:lr-tb;fill:#000000;fill-opacity:1;fill-rule:nonzero;stroke:none"
         transform="matrix(1,0,0,-1,64.573908,92.525921)"><tspan
           id="tspan80"
           sodipodi:role="line"
           y="0"
           x="0 17.177515 22.67687 34.978687 38.814289 41.504192 44.194092 46.883995 51.237652 56.737007 62.236362 74.606926 79.588226 85.087578 99.551277 102.24118 107.74054 111.05808 115.41174 119.24734 122.56489 126.40049 129.82463 133.66023 136.35014 150.80089 155.15454 160.13585 165.63519 170.6165 174.97015 177.66005 181.07423 183.76414 188.74544">mofsilicon)andinter-stripcapacitive</tspan><tspan
           id="tspan82"
           sodipodi:role="line"
           y="11.962094"
           x="-22.053211 -17.699554 -12.2002 -6.7008448 -1.1337439 1.5561581 4.2460599 9.7454157 19.728937 26.882084 29.649694 32.967239 38.466595 41.156498 51.702904 55.020451 60.519806 69.901588 73.73719 78.090843 83.590202 87.425797 92.925156 96.760757 104.54055 111.17564 116.675 126.08368 129.91928 132.60918 140.79843 146.29779 148.9877 153.96899 157.3772 160.06711 165.56645 171.06581 179.94049 184.9218 188.7574">couplingwithinthesensor.Thesimulationsare</tspan><tspan
           id="tspan84"
           sodipodi:role="line"
           y="-549.91858"
           x="217.07608 221.42975 225.26535 229.10095 233.45461 238.95396 242.2715 244.96141 249.9427 252.73521 255.42513 262.82632 265.51624 271.01559 275.36926 280.86862 284.18616 286.87607 291.22971 296.211 301.43341 304.75095 312.65826 315.9758 321.47516 326.97452 330.81012 337.65942 343.15878 346.99435 351.34802 359.3161 362.63367 370.54099 374.89462 378.73022 382.04779 384.82733 393.0166 397.99789 401.31546 408.12787 411.96347 414.65338 420.15274 425.13403 427.82394">essentiallyidenticaltothoseusedtoestimatesingle</tspan><tspan
           id="tspan86"
           sodipodi:role="line"
           y="-537.95648"
           x="217.07608 221.42975 226.41104 230.76469 236.26405 242.6441 248.14346 253.64282 257.55414 261.90778 268.26892 271.58646 277.08582 283.72089 291.91016 298.37289 302.2085 307.18979 310.50735 314.86099 321.78699 324.4769 333.06863 340.2218 350.0748">eventupset(SEU)ratesinCMS</tspan><tspan
           id="tspan88"
           sodipodi:role="line"
           y="-537.95648"
           x="358.63766 361.32758 366.30887">[7]</tspan><tspan
           id="tspan90"
           sodipodi:role="line"
           y="-537.95648"
           x="369.06949 374.79501 381.43008 386.92944 394.41037 399.90973 403.74533 406.43521 411.93457 416.28824 418.97815 424.57016 429.55145">.Theprincipal</tspan><tspan
           id="tspan92"
           sodipodi:role="line"
           y="-526.05121"
           x="217.07608 222.57544 225.26535 228.58289 231.90044 236.25409 240.08969 244.44334 249.9427 254.29636 261.86295 264.55286 271.50076 274.81833 280.31769 285.29898 291.73981 295.05734 300.5567 308.0675 313.56686 320.20193 331.53839 335.37399 338.0639 346.25314 351.7525 354.44241 359.42371 362.83191 365.52182 371.02118 376.52054 383.52423 388.50552 392.34113 399.79517 405.29449 409.1301 411.82001 420.09097 425.07227 428.90787">differenceisthattheSEUsimulationsareprimar-</tspan><tspan
           id="tspan94"
           sodipodi:role="line"
           y="-514.08911"
           x="217.07608 219.76599 222.45589 231.92932 236.28299 241.85008 247.34944 251.70309 256.05676 259.89236 265.39172 269.74536 279.7767 286.92984 289.69748 293.01501 303.02045 308.51981 312.87347 317.85477 322.83606 332.38721 337.88657 343.38593 347.73956 350.42947 354.78314 359.76443 368.15991 371.47745 375.31305 380.29437 385.27567 393.55756 397.91122 403.41058 406.72812 415.10071 418.41824 423.9176 428.8989">ilyconcernedwithheavynuclearfragmentsthat</tspan><tspan
           id="tspan96"
           sodipodi:role="line"
           y="-502.12701"
           x="217.07608 222.05739 226.41104 231.9104 236.26405 240.09966 245.08096 248.3985 255.40022 260.89957 263.58948 268.57077 274.07013 276.76004 284.42624 287.11615 292.61551 296.96918 301.95047 304.64038 307.33026 311.16586 315.51953 323.71378 328.06741 333.56677 337.92044 341.75604 346.73734 354.38461 359.88397 364.23764 369.737 375.23636 379.07196 381.76184 385.16806 387.85797 393.35733 398.85669 405.29352 412.44666 415.21426 418.53183 424.03116 426.72107">generatehighlylocalisedenergydepositionswithin</tspan><tspan
           id="tspan98"
           sodipodi:role="line"
           y="-490.16489"
           x="217.07608 224.72935 228.56496 236.75421 241.73552 244.42542 249.84407 253.67967 258.03333 263.53268 267.36829 270.0582 273.37573 276.06564 281.13858 288.16821 293.14951 298.64886 301.33878 306.8381 315.02737 322.12671 327.62607 333.63553 336.95306 342.45242 349.50894 355.00827 358.84387 364.34323 368.6969">asmallsensitivevolumeoftheorder</tspan></text>
<g
         id="g7007"><path
           d="m 79.083,513.995 171.518,0 0,48.214 -171.518,0 0,-48.214 z"
           style="fill:none;stroke:#231f20;stroke-width:0.5;stroke-linecap:butt;stroke-linejoin:miter;stroke-miterlimit:10;stroke-dasharray:none;stroke-opacity:1"
           id="path492"
           inkscape:connector-curvature="0" /><path
           d="m 98.916,550.498 0,-13.552 m 2.551,2.125 -2.551,-2.125 -2.549,2.125"
           style="fill:none;stroke:#231f20;stroke-width:0.75;stroke-linecap:butt;stroke-linejoin:miter;stroke-miterlimit:10;stroke-dasharray:none;stroke-opacity:1"
           id="path494"
           inkscape:connector-curvature="0" /><path
           d="m 106.536,552.123 0,4.121 0.625,0 0,-0.575 c 0.129,0.202 0.301,0.362 0.515,0.485 0.214,0.122 0.458,0.182 0.731,0.182 0.304,0 0.553,-0.062 0.749,-0.188 0.194,-0.125 0.332,-0.303 0.412,-0.53 0.326,0.48 0.752,0.718 1.276,0.718 0.409,0 0.725,-0.112 0.945,-0.339 0.221,-0.225 0.331,-0.574 0.331,-1.046 l 0,-2.828 -0.697,0 0,2.597 c 0,0.28 -0.022,0.483 -0.068,0.605 -0.045,0.123 -0.128,0.222 -0.247,0.297 -0.12,0.076 -0.259,0.113 -0.42,0.113 -0.291,0 -0.532,-0.097 -0.724,-0.289 -0.192,-0.194 -0.288,-0.503 -0.288,-0.927 l 0,-2.396 -0.697,0 0,2.68 c 0,0.31 -0.056,0.545 -0.17,0.7 -0.113,0.155 -0.299,0.232 -0.558,0.232 -0.196,0 -0.378,-0.051 -0.544,-0.155 -0.167,-0.103 -0.288,-0.256 -0.362,-0.456 -0.075,-0.199 -0.113,-0.486 -0.113,-0.861 l 0,-2.14 -0.696,0"
           style="fill:#231f20;fill-opacity:1;fill-rule:nonzero;stroke:none"
           id="path496"
           inkscape:connector-curvature="0" /><path
           d="m 113.158,557.802 0.695,0 0,-0.792 -0.695,0 0,0.792 z m 0,-1.558 0.695,0 0,-4.121 -0.695,0 0,4.121 z"
           style="fill:#231f20;fill-opacity:1;fill-rule:nonzero;stroke:none"
           id="path498"
           inkscape:connector-curvature="0" /><path
           d="m 114.908,552.123 0,4.121 0.626,0 0,-0.586 c 0.303,0.454 0.74,0.678 1.315,0.678 0.248,0 0.477,-0.044 0.685,-0.132 0.209,-0.09 0.366,-0.207 0.469,-0.352 0.104,-0.146 0.177,-0.318 0.22,-0.516 0.024,-0.129 0.037,-0.357 0.037,-0.68 l 0,-2.533 -0.696,0 0,2.507 c 0,0.285 -0.028,0.499 -0.083,0.641 -0.054,0.14 -0.15,0.254 -0.289,0.338 -0.139,0.084 -0.301,0.126 -0.49,0.126 -0.298,0 -0.556,-0.093 -0.774,-0.283 -0.215,-0.189 -0.324,-0.55 -0.324,-1.078 l 0,-2.251 -0.696,0"
           style="fill:#231f20;fill-opacity:1;fill-rule:nonzero;stroke:none"
           id="path500"
           inkscape:connector-curvature="0" /><path
           d="M 97.138,555.911 98,555.695 c -0.181,-0.708 -0.505,-1.246 -0.974,-1.615 -0.469,-0.368 -1.042,-0.553 -1.719,-0.553 -0.701,0 -1.271,0.141 -1.71,0.423 -0.439,0.281 -0.774,0.693 -1.003,1.235 -0.229,0.539 -0.344,1.119 -0.344,1.739 0,0.677 0.13,1.266 0.389,1.771 0.259,0.503 0.627,0.885 1.106,1.146 0.478,0.263 1.004,0.392 1.578,0.392 0.651,0 1.198,-0.165 1.643,-0.494 0.444,-0.331 0.753,-0.795 0.928,-1.394 l -0.851,-0.199 c -0.15,0.474 -0.369,0.818 -0.657,1.032 -0.287,0.215 -0.648,0.323 -1.083,0.323 -0.5,0 -0.919,-0.119 -1.255,-0.358 -0.336,-0.24 -0.572,-0.56 -0.708,-0.962 -0.136,-0.405 -0.204,-0.82 -0.204,-1.248 0,-0.55 0.08,-1.033 0.242,-1.445 0.161,-0.411 0.412,-0.718 0.752,-0.924 0.34,-0.203 0.708,-0.305 1.104,-0.305 0.483,0 0.891,0.139 1.225,0.417 0.334,0.278 0.561,0.69 0.679,1.235"
           style="fill:#231f20;fill-opacity:1;fill-rule:nonzero;stroke:none"
           id="path502"
           inkscape:connector-curvature="0" /><path
           d="m 99.023,553.633 0,6.494 1.285,0 1.539,-4.595 c 0.142,-0.428 0.245,-0.748 0.311,-0.961 0.074,0.237 0.19,0.582 0.348,1.039 l 1.57,4.517 1.145,0 0,-6.494 -0.827,0 0,5.431 -1.897,-5.431 -0.773,0 -1.875,5.526 0,-5.526 -0.826,0"
           style="fill:#231f20;fill-opacity:1;fill-rule:nonzero;stroke:none"
           id="path504"
           inkscape:connector-curvature="0" /><path
           d="m 79.083,516.309 0,-2.314 18.323,0 0,6.895 1.417,0 0,12.277 1.416,0 0,-5.572 1.322,0 0,-5.95 1.417,0 0,2.928 1.416,0 0,0.708 1.417,0 0,-1.323 1.417,0 0,1.749 1.417,0 0,-4.062 1.417,0 0,-0.755 1.416,0 0,-0.945 1.323,0 0,-1.322 1.417,0 0,4.156 1.416,0 0,-1.134 1.418,0 0,-3.022 1.415,0 0,3.022 2.834,0 0,-1.7 1.417,0 0,-3.636 1.416,0 0,2.314 1.323,0 0,1.322 1.417,0 0,1.7 1.416,0 0,-0.755 1.417,0 0,-2.267 1.416,0 0,-4.628 1.418,0 0,6.895 1.416,0 0,-2.267 1.417,0 0,1.322 1.323,0 0,1.7 1.416,0 0,-3.022 2.832,0 0,2.267 4.251,0 0,0.755 2.739,0 0,-5.336 1.417,0 0,6.47 1.416,0 0,-1.889 2.833,0 0,1.889 1.418,0 0,-0.52 1.416,0 0,-1.369 1.418,0 0,-0.945 1.32,0 0,2.834 2.835,0 0,0.424 1.417,0 0,0.755 1.417,0 0,0.851 1.416,0 0,0.472 1.417,0 0,-0.472 1.416,0 0,-0.567 1.418,0 0,-0.284 1.321,0 0,0.851 1.417,0 0,-1.228 1.418,0 0,-2.691 1.416,0 0,3.683 1.417,0 0,-0.331 1.416,0 0,-2.597 1.418,0 0,2.313 1.415,0 0,-2.313 1.322,0 0,1.134 1.419,0 0,-1.889 1.415,0 0,4.155 1.417,0 0,-2.266 1.416,0 0,-1.134 1.417,0 0,1.134 1.417,0 0,0.802 1.417,0 0,1.464 2.739,0 0,-0.236 1.417,0 0,1.275 1.416,0 0,-0.188 1.417,0 0,0.188 1.416,0 0,0.143 1.418,0 0,-2.269 1.416,0 0,1.749 1.322,0 0,1.132 1.419,0 0,-0.943 1.415,0 0,0.331 1.418,0 0,1.368 1.415,0 0,-1.699 1.418,0 0,1.37 1.416,0 0,0.424 1.417,0 0,-0.19 1.417,0 0,1.653 1.322,0 0,1.842 1.417,0 0,5.951 1.416,0"
           style="fill:none;stroke:#231f20;stroke-width:0.5;stroke-linecap:butt;stroke-linejoin:miter;stroke-miterlimit:10;stroke-dasharray:none;stroke-opacity:1"
           id="path506"
           inkscape:connector-curvature="0" /><path
           d="m 221.038,536.946 0,9.539 1.417,0 0,9.349 1.416,0 0,4.108 1.418,0 0,-0.236 1.416,0 0,-4.816 1.418,0 0,-13.269 1.322,0 0,-10.154 1.415,0 0,-4.628 1.419,0 0,-4.06 1.414,0 0,2.737 1.418,0 0,1.183 1.416,0 0,0.424 1.418,0 0,-3.92 1.416,0 0,-9.208 4.156,0 0,2.314 1.417,0 0,-2.314 5.667,0 0,2.314 m -171.518,-2.314 0,48.213 m 3.022,-48.213 -3.022,0 m 5.95,2.314 -5.95,0 m 3.022,5.336 -3.022,0 m 5.95,2.313 -5.95,0 m 3.022,5.338 -3.022,0 m 5.95,2.312 -5.95,0 m 3.022,5.338 -3.022,0 m 5.95,2.266 -5.95,0 m 3.022,5.336 -3.022,0 m 5.95,2.313 -5.95,0 m 3.022,5.337 -3.022,0 m 5.95,2.313 -5.95,0 m 3.022,5.338 -3.022,0 m 5.95,2.266 -5.95,0 m 0,-48.12 171.518,0 m -167.93,2.974 0,-2.974 m 5.951,1.511 0,-1.511 m 6.045,1.511 0,-1.511 m 5.95,1.511 0,-1.511 m 5.95,2.974 0,-2.974 m 5.95,1.511 0,-1.511 m 5.95,1.511 0,-1.511 m 5.951,1.511 0,-1.511 m 5.95,2.974 0,-2.974 m 5.95,1.511 0,-1.511 m 5.95,1.511 0,-1.511 m 5.95,1.511 0,-1.511 m 5.951,2.974 0,-2.974 m 5.951,1.511 0,-1.511 m 5.949,1.511 0,-1.511 m 5.95,1.511 0,-1.511 m 5.952,2.974 0,-2.974 m 5.95,1.511 0,-1.511 m 5.949,1.511 0,-1.511 m 5.95,1.511 0,-1.511 m 5.951,2.974 0,-2.974 m 5.952,1.511 0,-1.511 m 5.949,1.511 0,-1.511 m 6.044,1.511 0,-1.511 m 5.95,2.974 0,-2.974 m 5.949,1.511 0,-1.511 m 5.951,1.511 0,-1.511 m 5.951,1.511 0,-1.511 m 5.95,2.974 0,-2.974 m -166.796,2.974 0,-2.974 m 166.796,2.974 0,-2.974"
           style="fill:none;stroke:#231f20;stroke-width:0.5;stroke-linecap:butt;stroke-linejoin:miter;stroke-miterlimit:10;stroke-dasharray:none;stroke-opacity:1"
           id="path508"
           inkscape:connector-curvature="0" /><path
           d="m 72.036,504.502 2.455,0 0,0.804 -2.455,0 0,-0.804 z"
           style="fill:#231f20;fill-opacity:1;fill-rule:nonzero;stroke:none"
           id="path510"
           inkscape:connector-curvature="0" /><path
           d="m 78.149,502.554 -0.803,0 0,5.078 c -0.19,-0.185 -0.44,-0.368 -0.749,-0.551 -0.31,-0.183 -0.587,-0.32 -0.833,-0.411 l 0,0.77 c 0.443,0.21 0.831,0.464 1.163,0.763 0.331,0.298 0.566,0.587 0.704,0.869 l 0.518,0 0,-6.518"
           style="fill:#231f20;fill-opacity:1;fill-rule:nonzero;stroke:none"
           id="path512"
           inkscape:connector-curvature="0" /><path
           d="m 84.369,503.321 0,-0.767 -4.285,0 c -0.006,0.189 0.025,0.371 0.093,0.55 0.109,0.293 0.284,0.582 0.523,0.865 0.241,0.283 0.588,0.61 1.04,0.981 0.703,0.582 1.179,1.043 1.428,1.38 0.25,0.336 0.374,0.656 0.374,0.958 0,0.315 -0.112,0.58 -0.338,0.798 -0.226,0.215 -0.52,0.324 -0.882,0.324 -0.384,0 -0.691,-0.116 -0.921,-0.345 -0.23,-0.23 -0.346,-0.549 -0.349,-0.954 l -0.815,0.082 c 0.056,0.611 0.266,1.077 0.631,1.398 0.365,0.32 0.856,0.481 1.471,0.481 0.621,0 1.113,-0.174 1.475,-0.52 0.362,-0.344 0.543,-0.772 0.543,-1.284 0,-0.26 -0.053,-0.514 -0.158,-0.765 -0.106,-0.25 -0.282,-0.515 -0.528,-0.792 -0.245,-0.278 -0.652,-0.658 -1.223,-1.143 -0.478,-0.4 -0.784,-0.673 -0.92,-0.816 -0.135,-0.142 -0.247,-0.287 -0.336,-0.431 l 3.177,0"
           style="fill:#231f20;fill-opacity:1;fill-rule:nonzero;stroke:none"
           id="path514"
           inkscape:connector-curvature="0" /><path
           d="m 86.46,507.945 c 0.22,0.309 0.514,0.465 0.88,0.465 0.374,0 0.686,-0.176 0.934,-0.527 0.249,-0.352 0.373,-1.061 0.373,-2.13 0,-1.066 -0.124,-1.776 -0.374,-2.129 -0.25,-0.351 -0.558,-0.526 -0.924,-0.526 -0.367,0 -0.674,0.173 -0.924,0.524 -0.25,0.352 -0.375,1.061 -0.375,2.131 0,1.065 0.137,1.797 0.41,2.192 z m -0.584,-4.838 c 0.357,-0.44 0.848,-0.659 1.473,-0.659 0.474,0 0.867,0.124 1.178,0.375 0.311,0.25 0.545,0.611 0.701,1.081 0.156,0.47 0.234,1.087 0.234,1.848 0,0.644 -0.048,1.156 -0.146,1.536 -0.097,0.379 -0.23,0.701 -0.4,0.966 -0.168,0.263 -0.385,0.466 -0.649,0.608 -0.265,0.138 -0.57,0.21 -0.918,0.21 -0.472,0 -0.863,-0.127 -1.174,-0.379 -0.311,-0.252 -0.545,-0.613 -0.703,-1.083 -0.158,-0.47 -0.236,-1.09 -0.236,-1.858 0,-1.218 0.213,-2.102 0.64,-2.645"
           style="fill:#231f20;fill-opacity:1;fill-rule:nonzero;stroke:none"
           id="path516"
           inkscape:connector-curvature="0" /><path
           d="m 96.309,504.502 2.456,0 0,0.804 -2.456,0 0,-0.804 z"
           style="fill:#231f20;fill-opacity:1;fill-rule:nonzero;stroke:none"
           id="path518"
           inkscape:connector-curvature="0" /><path
           d="m 102.422,502.554 -0.802,0 0,5.078 c -0.191,-0.185 -0.441,-0.368 -0.75,-0.551 -0.309,-0.183 -0.587,-0.32 -0.833,-0.411 l 0,0.77 c 0.444,0.21 0.831,0.464 1.163,0.763 0.332,0.298 0.567,0.587 0.705,0.869 l 0.517,0 0,-6.518"
           style="fill:#231f20;fill-opacity:1;fill-rule:nonzero;stroke:none"
           id="path520"
           inkscape:connector-curvature="0" /><path
           d="m 105.69,507.945 c 0.221,0.309 0.514,0.465 0.88,0.465 0.375,0 0.686,-0.176 0.935,-0.527 0.248,-0.352 0.373,-1.061 0.373,-2.13 0,-1.066 -0.125,-1.776 -0.375,-2.129 -0.25,-0.351 -0.557,-0.526 -0.924,-0.526 -0.366,0 -0.674,0.173 -0.924,0.524 -0.249,0.352 -0.374,1.061 -0.374,2.131 0,1.065 0.136,1.797 0.409,2.192 z m -0.583,-4.838 c 0.357,-0.44 0.847,-0.659 1.472,-0.659 0.475,0 0.867,0.124 1.179,0.375 0.311,0.25 0.544,0.611 0.7,1.081 0.156,0.47 0.235,1.087 0.235,1.848 0,0.644 -0.049,1.156 -0.146,1.536 -0.098,0.379 -0.231,0.701 -0.4,0.966 -0.169,0.263 -0.385,0.466 -0.65,0.608 -0.264,0.138 -0.57,0.21 -0.918,0.21 -0.472,0 -0.862,-0.127 -1.173,-0.379 -0.312,-0.252 -0.546,-0.613 -0.703,-1.083 -0.159,-0.47 -0.237,-1.09 -0.237,-1.858 0,-1.218 0.214,-2.102 0.641,-2.645"
           style="fill:#231f20;fill-opacity:1;fill-rule:nonzero;stroke:none"
           id="path522"
           inkscape:connector-curvature="0" /><path
           d="m 110.733,507.945 c 0.22,0.309 0.514,0.465 0.881,0.465 0.373,0 0.685,-0.176 0.934,-0.527 0.249,-0.352 0.374,-1.061 0.374,-2.13 0,-1.066 -0.126,-1.776 -0.376,-2.129 -0.25,-0.351 -0.557,-0.526 -0.924,-0.526 -0.366,0 -0.674,0.173 -0.924,0.524 -0.25,0.352 -0.374,1.061 -0.374,2.131 0,1.065 0.136,1.797 0.409,2.192 z m -0.583,-4.838 c 0.356,-0.44 0.847,-0.659 1.472,-0.659 0.475,0 0.868,0.124 1.179,0.375 0.311,0.25 0.545,0.611 0.7,1.081 0.155,0.47 0.235,1.087 0.235,1.848 0,0.644 -0.049,1.156 -0.147,1.536 -0.097,0.379 -0.231,0.701 -0.399,0.966 -0.168,0.263 -0.385,0.466 -0.65,0.608 -0.264,0.138 -0.57,0.21 -0.918,0.21 -0.471,0 -0.863,-0.127 -1.174,-0.379 -0.311,-0.252 -0.545,-0.613 -0.703,-1.083 -0.157,-0.47 -0.236,-1.09 -0.236,-1.858 0,-1.218 0.214,-2.102 0.641,-2.645"
           style="fill:#231f20;fill-opacity:1;fill-rule:nonzero;stroke:none"
           id="path524"
           inkscape:connector-curvature="0" /><path
           d="m 122.896,504.502 2.455,0 0,0.804 -2.455,0 0,-0.804 z"
           style="fill:#231f20;fill-opacity:1;fill-rule:nonzero;stroke:none"
           id="path526"
           inkscape:connector-curvature="0" /><path
           d="m 127.37,508.119 c 0.199,0.193 0.452,0.291 0.759,0.291 0.305,0 0.558,-0.099 0.757,-0.299 0.2,-0.198 0.3,-0.442 0.3,-0.735 0,-0.28 -0.097,-0.516 -0.291,-0.708 -0.194,-0.192 -0.446,-0.289 -0.757,-0.289 -0.318,0 -0.576,0.097 -0.772,0.291 -0.195,0.194 -0.292,0.444 -0.292,0.752 0,0.27 0.098,0.503 0.296,0.697 z m -1.05,-2.627 c -0.214,-0.285 -0.322,-0.641 -0.322,-1.062 0,-0.568 0.197,-1.039 0.589,-1.417 0.391,-0.376 0.909,-0.565 1.549,-0.565 0.638,0 1.157,0.187 1.547,0.562 0.394,0.377 0.59,0.841 0.59,1.397 0,0.402 -0.104,0.748 -0.313,1.038 -0.209,0.288 -0.512,0.499 -0.911,0.628 0.32,0.123 0.56,0.293 0.715,0.517 0.157,0.222 0.236,0.484 0.236,0.786 0,0.472 -0.172,0.873 -0.515,1.202 -0.347,0.329 -0.8,0.494 -1.367,0.494 -0.562,0 -1.014,-0.161 -1.352,-0.483 -0.338,-0.322 -0.508,-0.719 -0.508,-1.191 0,-0.313 0.08,-0.582 0.239,-0.805 0.16,-0.225 0.405,-0.397 0.736,-0.52 -0.395,-0.102 -0.701,-0.298 -0.913,-0.581 z m 0.859,-0.135 c 0.246,0.248 0.557,0.372 0.937,0.372 0.388,0 0.708,-0.126 0.962,-0.376 0.252,-0.251 0.379,-0.569 0.379,-0.953 0,-0.379 -0.122,-0.69 -0.368,-0.935 -0.247,-0.245 -0.561,-0.367 -0.948,-0.367 -0.244,0 -0.473,0.058 -0.689,0.173 -0.214,0.118 -0.375,0.282 -0.481,0.496 -0.104,0.212 -0.157,0.432 -0.157,0.66 0,0.371 0.122,0.682 0.365,0.93"
           style="fill:#231f20;fill-opacity:1;fill-rule:nonzero;stroke:none"
           id="path528"
           inkscape:connector-curvature="0" /><path
           d="m 132.278,507.945 c 0.219,0.309 0.513,0.465 0.879,0.465 0.375,0 0.686,-0.176 0.935,-0.527 0.249,-0.352 0.373,-1.061 0.373,-2.13 0,-1.066 -0.124,-1.776 -0.375,-2.129 -0.248,-0.351 -0.558,-0.526 -0.924,-0.526 -0.365,0 -0.675,0.173 -0.924,0.524 -0.25,0.352 -0.375,1.061 -0.375,2.131 0,1.065 0.138,1.797 0.411,2.192 z m -0.584,-4.838 c 0.357,-0.44 0.847,-0.659 1.472,-0.659 0.474,0 0.867,0.124 1.179,0.375 0.311,0.25 0.544,0.611 0.7,1.081 0.157,0.47 0.234,1.087 0.234,1.848 0,0.644 -0.047,1.156 -0.144,1.536 -0.099,0.379 -0.231,0.701 -0.401,0.966 -0.168,0.263 -0.386,0.466 -0.649,0.608 -0.265,0.138 -0.571,0.21 -0.919,0.21 -0.471,0 -0.863,-0.127 -1.174,-0.379 -0.311,-0.252 -0.545,-0.613 -0.703,-1.083 -0.156,-0.47 -0.236,-1.09 -0.236,-1.858 0,-1.218 0.213,-2.102 0.641,-2.645"
           style="fill:#231f20;fill-opacity:1;fill-rule:nonzero;stroke:none"
           id="path530"
           inkscape:connector-curvature="0" /><path
           d="m 146.32,504.502 2.455,0 0,0.804 -2.455,0 0,-0.804 z"
           style="fill:#231f20;fill-opacity:1;fill-rule:nonzero;stroke:none"
           id="path532"
           inkscape:connector-curvature="0" /><path
           d="m 150.695,505.673 c 0.25,0.258 0.554,0.387 0.914,0.387 0.367,0 0.668,-0.129 0.905,-0.387 0.237,-0.258 0.354,-0.613 0.354,-1.061 0,-0.466 -0.119,-0.836 -0.358,-1.109 -0.24,-0.27 -0.531,-0.405 -0.869,-0.405 -0.234,0 -0.456,0.065 -0.662,0.195 -0.207,0.132 -0.37,0.324 -0.485,0.575 -0.118,0.25 -0.176,0.514 -0.176,0.788 0,0.419 0.127,0.759 0.377,1.017 z m 2.294,2.969 c -0.326,0.285 -0.746,0.43 -1.257,0.43 -0.688,0 -1.233,-0.249 -1.637,-0.745 -0.464,-0.57 -0.697,-1.483 -0.697,-2.738 0,-1.123 0.208,-1.927 0.627,-2.413 0.421,-0.487 0.963,-0.728 1.627,-0.728 0.389,0 0.737,0.091 1.044,0.275 0.308,0.182 0.549,0.45 0.725,0.8 0.175,0.35 0.263,0.731 0.263,1.139 0,0.621 -0.187,1.126 -0.562,1.518 -0.373,0.393 -0.824,0.588 -1.356,0.588 -0.305,0 -0.595,-0.071 -0.874,-0.211 -0.278,-0.143 -0.512,-0.359 -0.704,-0.652 0.006,0.65 0.082,1.147 0.227,1.497 0.147,0.349 0.343,0.614 0.591,0.797 0.196,0.141 0.423,0.211 0.677,0.211 0.318,0 0.585,-0.114 0.801,-0.339 0.13,-0.141 0.23,-0.366 0.302,-0.677 l 0.792,0.059 c -0.066,0.504 -0.262,0.902 -0.589,1.189"
           style="fill:#231f20;fill-opacity:1;fill-rule:nonzero;stroke:none"
           id="path534"
           inkscape:connector-curvature="0" /><path
           d="m 155.7,507.945 c 0.221,0.309 0.514,0.465 0.881,0.465 0.374,0 0.686,-0.176 0.934,-0.527 0.248,-0.352 0.372,-1.061 0.372,-2.13 0,-1.066 -0.124,-1.776 -0.372,-2.129 -0.251,-0.351 -0.559,-0.526 -0.926,-0.526 -0.366,0 -0.674,0.173 -0.925,0.524 -0.248,0.352 -0.374,1.061 -0.374,2.131 0,1.065 0.137,1.797 0.41,2.192 z m -0.582,-4.838 c 0.355,-0.44 0.847,-0.659 1.471,-0.659 0.475,0 0.869,0.124 1.18,0.375 0.311,0.25 0.542,0.611 0.7,1.081 0.155,0.47 0.234,1.087 0.234,1.848 0,0.644 -0.049,1.156 -0.146,1.536 -0.097,0.379 -0.231,0.701 -0.399,0.966 -0.17,0.263 -0.385,0.466 -0.651,0.608 -0.264,0.138 -0.569,0.21 -0.918,0.21 -0.47,0 -0.862,-0.127 -1.173,-0.379 -0.311,-0.252 -0.547,-0.613 -0.704,-1.083 -0.157,-0.47 -0.236,-1.09 -0.236,-1.858 0,-1.218 0.214,-2.102 0.642,-2.645"
           style="fill:#231f20;fill-opacity:1;fill-rule:nonzero;stroke:none"
           id="path536"
           inkscape:connector-curvature="0" /><path
           d="m 170.12,504.502 2.455,0 0,0.804 -2.455,0 0,-0.804 z"
           style="fill:#231f20;fill-opacity:1;fill-rule:nonzero;stroke:none"
           id="path538"
           inkscape:connector-curvature="0" /><path
           d="m 173.749,504.845 2.035,2.908 0,-2.908 -2.035,0 z m 2.838,-2.291 0,1.558 0.872,0 0,0.733 -0.872,0 0,4.19 -0.65,0 -2.975,-4.19 0,-0.733 2.822,0 0,-1.558 0.803,0"
           style="fill:#231f20;fill-opacity:1;fill-rule:nonzero;stroke:none"
           id="path540"
           inkscape:connector-curvature="0" /><path
           d="m 179.501,507.945 c 0.222,0.309 0.515,0.465 0.88,0.465 0.375,0 0.685,-0.176 0.934,-0.527 0.248,-0.352 0.373,-1.061 0.373,-2.13 0,-1.066 -0.125,-1.776 -0.375,-2.129 -0.249,-0.351 -0.557,-0.526 -0.923,-0.526 -0.367,0 -0.675,0.173 -0.924,0.524 -0.25,0.352 -0.374,1.061 -0.374,2.131 0,1.065 0.136,1.797 0.409,2.192 z m -0.583,-4.838 c 0.355,-0.44 0.847,-0.659 1.472,-0.659 0.473,0 0.867,0.124 1.177,0.375 0.312,0.25 0.547,0.611 0.701,1.081 0.159,0.47 0.234,1.087 0.234,1.848 0,0.644 -0.047,1.156 -0.144,1.536 -0.098,0.379 -0.231,0.701 -0.4,0.966 -0.169,0.263 -0.385,0.466 -0.649,0.608 -0.266,0.138 -0.572,0.21 -0.919,0.21 -0.472,0 -0.864,-0.127 -1.174,-0.379 -0.311,-0.252 -0.545,-0.613 -0.702,-1.083 -0.158,-0.47 -0.237,-1.09 -0.237,-1.858 0,-1.218 0.214,-2.102 0.641,-2.645"
           style="fill:#231f20;fill-opacity:1;fill-rule:nonzero;stroke:none"
           id="path542"
           inkscape:connector-curvature="0" /><path
           d="m 193.921,504.502 2.455,0 0,0.804 -2.455,0 0,-0.804 z"
           style="fill:#231f20;fill-opacity:1;fill-rule:nonzero;stroke:none"
           id="path544"
           inkscape:connector-curvature="0" /><path
           d="m 201.212,503.321 0,-0.767 -4.286,0 c -0.005,0.189 0.025,0.371 0.093,0.55 0.108,0.293 0.284,0.582 0.523,0.865 0.24,0.283 0.588,0.61 1.039,0.981 0.705,0.582 1.181,1.043 1.429,1.38 0.251,0.336 0.375,0.656 0.375,0.958 0,0.315 -0.114,0.58 -0.339,0.798 -0.225,0.215 -0.52,0.324 -0.884,0.324 -0.381,0 -0.689,-0.116 -0.919,-0.345 -0.229,-0.23 -0.347,-0.549 -0.35,-0.954 l -0.814,0.082 c 0.057,0.611 0.266,1.077 0.631,1.398 0.366,0.32 0.856,0.481 1.472,0.481 0.622,0 1.111,-0.174 1.475,-0.52 0.36,-0.344 0.542,-0.772 0.542,-1.284 0,-0.26 -0.052,-0.514 -0.158,-0.765 -0.106,-0.25 -0.281,-0.515 -0.527,-0.792 -0.247,-0.278 -0.654,-0.658 -1.224,-1.143 -0.477,-0.4 -0.784,-0.673 -0.919,-0.816 -0.137,-0.142 -0.248,-0.287 -0.336,-0.431 l 3.177,0"
           style="fill:#231f20;fill-opacity:1;fill-rule:nonzero;stroke:none"
           id="path546"
           inkscape:connector-curvature="0" /><path
           d="m 203.303,507.945 c 0.218,0.309 0.514,0.465 0.879,0.465 0.375,0 0.687,-0.176 0.935,-0.527 0.248,-0.352 0.373,-1.061 0.373,-2.13 0,-1.066 -0.125,-1.776 -0.375,-2.129 -0.249,-0.351 -0.558,-0.526 -0.924,-0.526 -0.366,0 -0.674,0.173 -0.924,0.524 -0.25,0.352 -0.375,1.061 -0.375,2.131 0,1.065 0.137,1.797 0.411,2.192 z m -0.584,-4.838 c 0.356,-0.44 0.847,-0.659 1.472,-0.659 0.474,0 0.867,0.124 1.178,0.375 0.312,0.25 0.546,0.611 0.701,1.081 0.157,0.47 0.234,1.087 0.234,1.848 0,0.644 -0.047,1.156 -0.145,1.536 -0.099,0.379 -0.23,0.701 -0.4,0.966 -0.168,0.263 -0.386,0.466 -0.65,0.608 -0.265,0.138 -0.57,0.21 -0.918,0.21 -0.472,0 -0.863,-0.127 -1.174,-0.379 -0.311,-0.252 -0.545,-0.613 -0.702,-1.083 -0.159,-0.47 -0.237,-1.09 -0.237,-1.858 0,-1.218 0.212,-2.102 0.641,-2.645"
           style="fill:#231f20;fill-opacity:1;fill-rule:nonzero;stroke:none"
           id="path548"
           inkscape:connector-curvature="0" /><path
           d="m 224.533,507.945 c 0.222,0.309 0.515,0.465 0.88,0.465 0.375,0 0.687,-0.176 0.935,-0.527 0.249,-0.352 0.374,-1.061 0.374,-2.13 0,-1.066 -0.125,-1.776 -0.375,-2.129 -0.25,-0.351 -0.559,-0.526 -0.925,-0.526 -0.365,0 -0.674,0.173 -0.924,0.524 -0.25,0.352 -0.375,1.061 -0.375,2.131 0,1.065 0.138,1.797 0.41,2.192 z m -0.583,-4.838 c 0.357,-0.44 0.847,-0.659 1.472,-0.659 0.474,0 0.867,0.124 1.179,0.375 0.31,0.25 0.545,0.611 0.7,1.081 0.158,0.47 0.234,1.087 0.234,1.848 0,0.644 -0.048,1.156 -0.146,1.536 -0.097,0.379 -0.229,0.701 -0.399,0.966 -0.168,0.263 -0.386,0.466 -0.649,0.608 -0.266,0.138 -0.571,0.21 -0.919,0.21 -0.472,0 -0.863,-0.127 -1.174,-0.379 -0.311,-0.252 -0.545,-0.613 -0.702,-1.083 -0.157,-0.47 -0.237,-1.09 -0.237,-1.858 0,-1.218 0.212,-2.102 0.641,-2.645"
           style="fill:#231f20;fill-opacity:1;fill-rule:nonzero;stroke:none"
           id="path550"
           inkscape:connector-curvature="0" /><path
           d="m 248.501,503.321 0,-0.767 -4.286,0 c -0.007,0.189 0.024,0.371 0.094,0.55 0.108,0.293 0.282,0.582 0.524,0.865 0.238,0.283 0.587,0.61 1.038,0.981 0.701,0.582 1.18,1.043 1.428,1.38 0.251,0.336 0.375,0.656 0.375,0.958 0,0.315 -0.113,0.58 -0.338,0.798 -0.227,0.215 -0.522,0.324 -0.884,0.324 -0.384,0 -0.689,-0.116 -0.919,-0.345 -0.231,-0.23 -0.347,-0.549 -0.349,-0.954 l -0.815,0.082 c 0.055,0.611 0.265,1.077 0.631,1.398 0.364,0.32 0.854,0.481 1.472,0.481 0.621,0 1.111,-0.174 1.473,-0.52 0.363,-0.344 0.542,-0.772 0.542,-1.284 0,-0.26 -0.052,-0.514 -0.158,-0.765 -0.105,-0.25 -0.281,-0.515 -0.526,-0.792 -0.245,-0.278 -0.654,-0.658 -1.222,-1.143 -0.48,-0.4 -0.784,-0.673 -0.921,-0.816 -0.137,-0.142 -0.248,-0.287 -0.336,-0.431 l 3.177,0"
           style="fill:#231f20;fill-opacity:1;fill-rule:nonzero;stroke:none"
           id="path552"
           inkscape:connector-curvature="0" /><path
           d="m 250.59,507.945 c 0.221,0.309 0.515,0.465 0.882,0.465 0.373,0 0.686,-0.176 0.934,-0.527 0.248,-0.352 0.374,-1.061 0.374,-2.13 0,-1.066 -0.126,-1.776 -0.375,-2.129 -0.251,-0.351 -0.558,-0.526 -0.925,-0.526 -0.367,0 -0.674,0.173 -0.924,0.524 -0.249,0.352 -0.374,1.061 -0.374,2.131 0,1.065 0.135,1.797 0.408,2.192 z m -0.581,-4.838 c 0.356,-0.44 0.846,-0.659 1.471,-0.659 0.475,0 0.868,0.124 1.179,0.375 0.311,0.25 0.543,0.611 0.7,1.081 0.156,0.47 0.235,1.087 0.235,1.848 0,0.644 -0.05,1.156 -0.147,1.536 -0.096,0.379 -0.229,0.701 -0.399,0.966 -0.167,0.263 -0.385,0.466 -0.649,0.608 -0.265,0.138 -0.57,0.21 -0.919,0.21 -0.471,0 -0.863,-0.127 -1.173,-0.379 -0.311,-0.252 -0.545,-0.613 -0.703,-1.083 -0.159,-0.47 -0.238,-1.09 -0.238,-1.858 0,-1.218 0.214,-2.102 0.643,-2.645"
           style="fill:#231f20;fill-opacity:1;fill-rule:nonzero;stroke:none"
           id="path554"
           inkscape:connector-curvature="0" /><path
           d="m 109.882,493.367 0.862,-0.219 c -0.18,-0.705 -0.505,-1.243 -0.974,-1.612 -0.468,-0.368 -1.041,-0.554 -1.718,-0.554 -0.702,0 -1.271,0.142 -1.711,0.424 -0.439,0.281 -0.773,0.693 -1.002,1.233 -0.229,0.541 -0.344,1.121 -0.344,1.741 0,0.677 0.129,1.265 0.388,1.768 0.259,0.505 0.628,0.888 1.106,1.149 0.478,0.26 1.004,0.392 1.578,0.392 0.652,0 1.199,-0.165 1.643,-0.496 0.444,-0.329 0.753,-0.794 0.928,-1.392 l -0.85,-0.2 c -0.151,0.472 -0.37,0.816 -0.657,1.032 -0.287,0.216 -0.648,0.324 -1.084,0.324 -0.5,0 -0.918,-0.121 -1.254,-0.359 -0.336,-0.24 -0.572,-0.559 -0.709,-0.964 -0.136,-0.402 -0.203,-0.817 -0.203,-1.245 0,-0.553 0.08,-1.034 0.241,-1.445 0.162,-0.412 0.412,-0.721 0.752,-0.924 0.34,-0.203 0.709,-0.305 1.105,-0.305 0.482,0 0.891,0.138 1.225,0.417 0.334,0.276 0.56,0.687 0.678,1.235"
           style="fill:#231f20;fill-opacity:1;fill-rule:nonzero;stroke:none"
           id="path556"
           inkscape:connector-curvature="0" /><path
           d="m 112.609,494.795 c 0.263,0.3 0.593,0.45 0.99,0.45 0.393,0 0.72,-0.15 0.985,-0.452 0.263,-0.3 0.395,-0.743 0.395,-1.326 0,-0.618 -0.132,-1.079 -0.393,-1.381 -0.263,-0.304 -0.591,-0.454 -0.987,-0.454 -0.397,0 -0.727,0.15 -0.99,0.452 -0.262,0.3 -0.393,0.751 -0.393,1.357 0,0.604 0.131,1.056 0.393,1.354 z m -0.601,-3.181 c 0.405,-0.421 0.935,-0.632 1.591,-0.632 0.409,0 0.787,0.096 1.133,0.284 0.346,0.19 0.609,0.459 0.79,0.807 0.181,0.348 0.271,0.826 0.271,1.434 0,0.749 -0.205,1.335 -0.612,1.762 -0.411,0.424 -0.937,0.636 -1.582,0.636 -0.579,0 -1.071,-0.174 -1.474,-0.523 -0.482,-0.421 -0.724,-1.068 -0.724,-1.943 0,-0.796 0.202,-1.404 0.607,-1.825"
           style="fill:#231f20;fill-opacity:1;fill-rule:nonzero;stroke:none"
           id="path558"
           inkscape:connector-curvature="0" /><path
           d="m 116.739,491.089 0,4.71 0.72,0 0,-0.666 c 0.149,0.232 0.344,0.419 0.589,0.56 0.245,0.143 0.525,0.212 0.838,0.212 0.35,0 0.635,-0.072 0.858,-0.218 0.223,-0.146 0.381,-0.349 0.472,-0.61 0.373,0.552 0.861,0.828 1.461,0.828 0.469,0 0.831,-0.128 1.083,-0.388 0.252,-0.26 0.379,-0.658 0.379,-1.196 l 0,-3.232 -0.803,0 0,2.963 c 0,0.318 -0.026,0.549 -0.079,0.69 -0.051,0.141 -0.146,0.252 -0.282,0.338 -0.135,0.086 -0.296,0.13 -0.479,0.13 -0.333,0 -0.607,-0.111 -0.827,-0.331 -0.218,-0.221 -0.329,-0.573 -0.329,-1.057 l 0,-2.733 -0.803,0 0,3.056 c 0,0.355 -0.063,0.621 -0.194,0.798 -0.13,0.177 -0.342,0.267 -0.638,0.267 -0.223,0 -0.43,-0.06 -0.62,-0.177 -0.19,-0.12 -0.329,-0.293 -0.415,-0.52 -0.084,-0.228 -0.128,-0.556 -0.128,-0.984 l 0,-2.44 -0.803,0"
           style="fill:#231f20;fill-opacity:1;fill-rule:nonzero;stroke:none"
           id="path560"
           inkscape:connector-curvature="0" /><path
           d="m 124.293,491.089 0,4.71 0.721,0 0,-0.666 c 0.146,0.232 0.344,0.419 0.589,0.56 0.245,0.143 0.523,0.212 0.836,0.212 0.349,0 0.635,-0.072 0.858,-0.218 0.223,-0.146 0.38,-0.349 0.471,-0.61 0.375,0.552 0.862,0.828 1.462,0.828 0.47,0 0.831,-0.128 1.083,-0.388 0.252,-0.26 0.379,-0.658 0.379,-1.196 l 0,-3.232 -0.804,0 0,2.963 c 0,0.318 -0.025,0.549 -0.076,0.69 -0.053,0.141 -0.147,0.252 -0.283,0.338 -0.136,0.086 -0.297,0.13 -0.48,0.13 -0.331,0 -0.607,-0.111 -0.827,-0.331 -0.219,-0.221 -0.329,-0.573 -0.329,-1.057 l 0,-2.733 -0.803,0 0,3.056 c 0,0.355 -0.064,0.621 -0.194,0.798 -0.13,0.177 -0.342,0.267 -0.636,0.267 -0.226,0 -0.432,-0.06 -0.622,-0.177 -0.19,-0.12 -0.328,-0.293 -0.414,-0.52 -0.086,-0.228 -0.128,-0.556 -0.128,-0.984 l 0,-2.44 -0.803,0"
           style="fill:#231f20;fill-opacity:1;fill-rule:nonzero;stroke:none"
           id="path562"
           inkscape:connector-curvature="0" /><path
           d="m 132.759,494.795 c 0.263,0.3 0.592,0.45 0.991,0.45 0.391,0 0.719,-0.15 0.982,-0.452 0.264,-0.3 0.395,-0.743 0.395,-1.326 0,-0.618 -0.13,-1.079 -0.393,-1.381 -0.262,-0.304 -0.591,-0.454 -0.984,-0.454 -0.399,0 -0.728,0.15 -0.991,0.452 -0.262,0.3 -0.394,0.751 -0.394,1.357 0,0.604 0.132,1.056 0.394,1.354 z m -0.6,-3.181 c 0.404,-0.421 0.935,-0.632 1.591,-0.632 0.407,0 0.785,0.096 1.131,0.284 0.345,0.19 0.609,0.459 0.789,0.807 0.182,0.348 0.273,0.826 0.273,1.434 0,0.749 -0.204,1.335 -0.615,1.762 -0.407,0.424 -0.935,0.636 -1.578,0.636 -0.58,0 -1.072,-0.174 -1.474,-0.523 -0.483,-0.421 -0.724,-1.068 -0.724,-1.943 0,-0.796 0.2,-1.404 0.607,-1.825"
           style="fill:#231f20;fill-opacity:1;fill-rule:nonzero;stroke:none"
           id="path564"
           inkscape:connector-curvature="0" /><path
           d="m 136.889,491.089 0,4.71 0.721,0 0,-0.667 c 0.344,0.515 0.84,0.773 1.49,0.773 0.282,0 0.542,-0.051 0.78,-0.152 0.235,-0.102 0.413,-0.236 0.532,-0.403 0.117,-0.166 0.199,-0.361 0.246,-0.59 0.03,-0.148 0.044,-0.406 0.044,-0.778 l 0,-2.893 -0.802,0 0,2.861 c 0,0.325 -0.031,0.568 -0.093,0.73 -0.061,0.161 -0.171,0.289 -0.326,0.385 -0.157,0.096 -0.34,0.145 -0.551,0.145 -0.337,0 -0.627,-0.11 -0.872,-0.324 -0.243,-0.217 -0.366,-0.625 -0.366,-1.229 l 0,-2.568 -0.803,0"
           style="fill:#231f20;fill-opacity:1;fill-rule:nonzero;stroke:none"
           id="path566"
           inkscape:connector-curvature="0" /><path
           d="m 144.522,491.089 0,6.494 1.284,0 1.54,-4.596 c 0.141,-0.428 0.245,-0.747 0.311,-0.961 0.073,0.236 0.19,0.583 0.347,1.04 l 1.57,4.517 1.145,0 0,-6.494 -0.825,0 0,5.431 -1.897,-5.431 -0.775,0 -1.873,5.526 0,-5.526 -0.827,0"
           style="fill:#231f20;fill-opacity:1;fill-rule:nonzero;stroke:none"
           id="path568"
           inkscape:connector-curvature="0" /><path
           d="m 152.917,494.795 c 0.263,0.3 0.591,0.45 0.99,0.45 0.392,0 0.719,-0.15 0.984,-0.452 0.264,-0.3 0.396,-0.743 0.396,-1.326 0,-0.618 -0.132,-1.079 -0.394,-1.381 -0.264,-0.304 -0.591,-0.454 -0.986,-0.454 -0.399,0 -0.727,0.15 -0.99,0.452 -0.263,0.3 -0.393,0.751 -0.393,1.357 0,0.604 0.13,1.056 0.393,1.354 z m -0.601,-3.181 c 0.404,-0.421 0.934,-0.632 1.591,-0.632 0.41,0 0.787,0.096 1.132,0.284 0.346,0.19 0.609,0.459 0.791,0.807 0.181,0.348 0.271,0.826 0.271,1.434 0,0.749 -0.206,1.335 -0.613,1.762 -0.41,0.424 -0.937,0.636 -1.581,0.636 -0.579,0 -1.071,-0.174 -1.474,-0.523 -0.483,-0.421 -0.724,-1.068 -0.724,-1.943 0,-0.796 0.203,-1.404 0.607,-1.825"
           style="fill:#231f20;fill-opacity:1;fill-rule:nonzero;stroke:none"
           id="path570"
           inkscape:connector-curvature="0" /><path
           d="m 157.924,494.809 c 0.238,0.291 0.534,0.436 0.889,0.436 0.364,0 0.671,-0.152 0.919,-0.454 0.248,-0.302 0.372,-0.775 0.372,-1.421 0,-0.587 -0.122,-1.022 -0.366,-1.31 -0.242,-0.285 -0.541,-0.428 -0.888,-0.428 -0.348,0 -0.648,0.15 -0.902,0.448 -0.254,0.3 -0.382,0.752 -0.382,1.355 0,0.626 0.12,1.083 0.358,1.374 z m 2.901,-3.72 0,6.494 -0.803,0 0,-2.326 c -0.137,0.193 -0.317,0.35 -0.538,0.469 -0.221,0.119 -0.471,0.179 -0.754,0.179 -0.383,0 -0.733,-0.1 -1.044,-0.305 -0.311,-0.206 -0.544,-0.5 -0.701,-0.882 -0.155,-0.384 -0.234,-0.812 -0.234,-1.283 0,-0.482 0.086,-0.91 0.259,-1.282 0.173,-0.371 0.415,-0.66 0.729,-0.863 0.314,-0.205 0.657,-0.308 1.03,-0.308 0.579,0 1.015,0.231 1.311,0.694 l 0,-0.587 0.745,0"
           style="fill:#231f20;fill-opacity:1;fill-rule:nonzero;stroke:none"
           id="path572"
           inkscape:connector-curvature="0" /><path
           d="m 163.095,494.879 c 0.251,0.243 0.558,0.366 0.925,0.366 0.406,0 0.736,-0.154 0.99,-0.459 0.167,-0.198 0.267,-0.493 0.302,-0.888 l -2.632,0 c 0.027,0.41 0.165,0.736 0.415,0.981 z m 1.716,-3.016 c -0.209,-0.154 -0.458,-0.231 -0.752,-0.231 -0.393,0 -0.722,0.137 -0.985,0.414 -0.264,0.276 -0.411,0.673 -0.441,1.192 l 3.513,0 c 0.004,0.095 0.006,0.165 0.006,0.212 0,0.78 -0.199,1.383 -0.599,1.811 -0.398,0.43 -0.911,0.644 -1.54,0.644 -0.649,0 -1.176,-0.22 -1.583,-0.657 -0.408,-0.439 -0.612,-1.055 -0.612,-1.849 0,-0.766 0.201,-1.361 0.604,-1.783 0.403,-0.423 0.948,-0.634 1.635,-0.634 0.547,0 0.995,0.132 1.347,0.396 0.351,0.262 0.591,0.635 0.72,1.116 l -0.819,0.106 c -0.123,-0.336 -0.288,-0.584 -0.494,-0.737"
           style="fill:#231f20;fill-opacity:1;fill-rule:nonzero;stroke:none"
           id="path574"
           inkscape:connector-curvature="0" /><path
           d="m 169.664,489.284 0,8.299 1.759,0 0,-0.663 -0.956,0 0,-6.976 0.956,0 0,-0.66 -1.759,0"
           style="fill:#231f20;fill-opacity:1;fill-rule:nonzero;stroke:none"
           id="path576"
           inkscape:connector-curvature="0" /><path
           d="m 174.134,495.657 c 0.15,0.411 0.27,0.828 0.36,1.252 0.108,-0.358 0.266,-0.812 0.47,-1.358 l 0.683,-1.806 -2.228,0 0.715,1.912 z m -1.664,-4.568 0.705,1.959 2.744,0 0.741,-1.959 0.979,0 -2.656,6.494 -0.942,0 -2.484,-6.494 0.913,0"
           style="fill:#231f20;fill-opacity:1;fill-rule:nonzero;stroke:none"
           id="path578"
           inkscape:connector-curvature="0" /><path
           d="m 179.176,496.814 1.364,0 c 0.512,0 0.882,-0.044 1.111,-0.131 0.322,-0.125 0.592,-0.37 0.815,-0.734 0.221,-0.364 0.336,-0.886 0.336,-1.564 0,-0.49 -0.06,-0.907 -0.173,-1.251 -0.114,-0.344 -0.274,-0.618 -0.476,-0.821 -0.144,-0.145 -0.34,-0.258 -0.583,-0.337 -0.244,-0.08 -0.58,-0.119 -1.008,-0.119 l -1.386,0 0,4.957 z m 1.483,-5.725 c 0.393,0 0.741,0.036 1.042,0.108 0.304,0.073 0.563,0.181 0.775,0.323 0.214,0.143 0.414,0.341 0.593,0.591 0.18,0.249 0.328,0.564 0.444,0.946 0.115,0.381 0.173,0.817 0.173,1.311 0,0.581 -0.085,1.095 -0.256,1.546 -0.17,0.45 -0.427,0.82 -0.768,1.11 -0.264,0.223 -0.582,0.379 -0.953,0.465 -0.266,0.063 -0.651,0.094 -1.158,0.094 l -2.238,0 0,-6.494 2.346,0"
           style="fill:#231f20;fill-opacity:1;fill-rule:nonzero;stroke:none"
           id="path580"
           inkscape:connector-curvature="0" /><path
           d="m 189.501,493.367 0.863,-0.219 c -0.18,-0.705 -0.507,-1.243 -0.974,-1.612 -0.468,-0.368 -1.042,-0.554 -1.719,-0.554 -0.7,0 -1.273,0.142 -1.711,0.424 -0.44,0.281 -0.772,0.693 -1.003,1.233 -0.228,0.541 -0.344,1.121 -0.344,1.741 0,0.677 0.13,1.265 0.391,1.768 0.257,0.505 0.627,0.888 1.103,1.149 0.478,0.26 1.005,0.392 1.579,0.392 0.652,0 1.199,-0.165 1.643,-0.496 0.444,-0.329 0.754,-0.794 0.928,-1.392 l -0.849,-0.2 c -0.151,0.472 -0.372,0.816 -0.659,1.032 -0.287,0.216 -0.648,0.324 -1.082,0.324 -0.501,0 -0.919,-0.121 -1.256,-0.359 -0.336,-0.24 -0.571,-0.559 -0.707,-0.964 -0.137,-0.402 -0.205,-0.817 -0.205,-1.245 0,-0.553 0.081,-1.034 0.241,-1.445 0.163,-0.412 0.413,-0.721 0.755,-0.924 0.339,-0.203 0.707,-0.305 1.104,-0.305 0.481,0 0.89,0.138 1.223,0.417 0.335,0.276 0.563,0.687 0.679,1.235"
           style="fill:#231f20;fill-opacity:1;fill-rule:nonzero;stroke:none"
           id="path582"
           inkscape:connector-curvature="0" /><path
           d="m 193.072,489.284 -1.759,0 0,0.66 0.955,0 0,6.976 -0.955,0 0,0.663 1.759,0 0,-8.299"
           style="fill:#231f20;fill-opacity:1;fill-rule:nonzero;stroke:none"
           id="path596"
           inkscape:connector-curvature="0" /><path
           d="m 72.08,513.979 -0.803,0 0,5.076 c -0.19,-0.184 -0.44,-0.366 -0.749,-0.549 -0.309,-0.183 -0.587,-0.32 -0.833,-0.412 l 0,0.771 c 0.444,0.21 0.831,0.464 1.163,0.762 0.332,0.298 0.566,0.588 0.705,0.869 l 0.517,0 0,-6.517"
           style="fill:#231f20;fill-opacity:1;fill-rule:nonzero;stroke:none"
           id="path616"
           inkscape:connector-curvature="0" /><path
           d="m 63.934,528.705 -0.802,0 0,5.078 c -0.191,-0.183 -0.441,-0.368 -0.75,-0.551 -0.309,-0.182 -0.586,-0.32 -0.833,-0.411 l 0,0.772 c 0.444,0.208 0.831,0.463 1.163,0.76 0.332,0.299 0.566,0.588 0.705,0.87 l 0.517,0 0,-6.518"
           style="fill:#231f20;fill-opacity:1;fill-rule:nonzero;stroke:none"
           id="path618"
           inkscape:connector-curvature="0" /><path
           d="m 67.202,534.096 c 0.221,0.311 0.514,0.464 0.881,0.464 0.374,0 0.686,-0.175 0.934,-0.526 0.249,-0.352 0.374,-1.061 0.374,-2.13 0,-1.066 -0.125,-1.776 -0.376,-2.127 -0.249,-0.353 -0.556,-0.528 -0.924,-0.528 -0.366,0 -0.673,0.175 -0.924,0.526 -0.249,0.35 -0.374,1.059 -0.374,2.129 0,1.067 0.136,1.797 0.409,2.192 z m -0.583,-4.838 c 0.357,-0.439 0.847,-0.658 1.472,-0.658 0.475,0 0.868,0.125 1.179,0.374 0.311,0.251 0.544,0.611 0.701,1.081 0.156,0.47 0.234,1.086 0.234,1.849 0,0.645 -0.049,1.154 -0.146,1.535 -0.097,0.379 -0.23,0.701 -0.399,0.966 -0.169,0.264 -0.386,0.466 -0.651,0.608 -0.263,0.14 -0.569,0.21 -0.918,0.21 -0.471,0 -0.862,-0.126 -1.173,-0.379 -0.311,-0.253 -0.546,-0.613 -0.704,-1.083 -0.157,-0.47 -0.236,-1.09 -0.236,-1.857 0,-1.22 0.214,-2.103 0.641,-2.646"
           style="fill:#231f20;fill-opacity:1;fill-rule:nonzero;stroke:none"
           id="path620"
           inkscape:connector-curvature="0" /><path
           d="m 74.094,534.812 0,-0.529 -3.009,0 c -0.004,0.132 0.018,0.26 0.065,0.384 0.077,0.203 0.2,0.403 0.37,0.601 0.169,0.197 0.413,0.425 0.731,0.684 0.493,0.408 0.826,0.73 0.999,0.966 0.173,0.236 0.26,0.461 0.26,0.673 0,0.22 -0.079,0.407 -0.237,0.56 -0.159,0.152 -0.365,0.228 -0.619,0.228 -0.269,0 -0.484,-0.081 -0.645,-0.241 -0.161,-0.16 -0.243,-0.382 -0.245,-0.666 l -0.575,0.057 c 0.039,0.427 0.187,0.752 0.444,0.975 0.256,0.224 0.6,0.337 1.034,0.337 0.437,0 0.782,-0.121 1.037,-0.363 0.254,-0.243 0.381,-0.542 0.381,-0.9 0,-0.182 -0.037,-0.36 -0.111,-0.537 -0.075,-0.175 -0.198,-0.361 -0.37,-0.555 -0.172,-0.193 -0.458,-0.461 -0.858,-0.8 -0.336,-0.281 -0.551,-0.472 -0.647,-0.571 -0.095,-0.101 -0.174,-0.202 -0.236,-0.303 l 2.231,0"
           style="fill:#231f20;fill-opacity:1;fill-rule:nonzero;stroke:none"
           id="path622"
           inkscape:connector-curvature="0" /><path
           d="m 63.556,543.345 -0.803,0 0,5.075 c -0.19,-0.182 -0.44,-0.365 -0.749,-0.549 -0.309,-0.183 -0.586,-0.32 -0.832,-0.411 l 0,0.77 c 0.443,0.21 0.83,0.464 1.162,0.763 0.332,0.298 0.567,0.586 0.705,0.866 l 0.517,0 0,-6.514"
           style="fill:#231f20;fill-opacity:1;fill-rule:nonzero;stroke:none"
           id="path624"
           inkscape:connector-curvature="0" /><path
           d="m 66.825,548.734 c 0.22,0.31 0.513,0.466 0.88,0.466 0.374,0 0.685,-0.176 0.935,-0.528 0.248,-0.351 0.372,-1.06 0.372,-2.129 0,-1.066 -0.124,-1.776 -0.374,-2.129 -0.25,-0.351 -0.558,-0.528 -0.925,-0.528 -0.366,0 -0.674,0.175 -0.924,0.526 -0.249,0.352 -0.374,1.061 -0.374,2.131 0,1.065 0.136,1.797 0.41,2.191 z m -0.583,-4.837 c 0.356,-0.441 0.846,-0.661 1.471,-0.661 0.476,0 0.868,0.127 1.179,0.377 0.311,0.25 0.545,0.611 0.701,1.081 0.156,0.47 0.234,1.087 0.234,1.848 0,0.643 -0.049,1.156 -0.146,1.534 -0.097,0.381 -0.23,0.702 -0.399,0.966 -0.169,0.266 -0.386,0.469 -0.65,0.607 -0.265,0.141 -0.57,0.21 -0.919,0.21 -0.471,0 -0.862,-0.126 -1.173,-0.376 -0.311,-0.253 -0.545,-0.615 -0.703,-1.085 -0.157,-0.47 -0.237,-1.088 -0.237,-1.856 0,-1.221 0.214,-2.103 0.642,-2.645"
           style="fill:#231f20;fill-opacity:1;fill-rule:nonzero;stroke:none"
           id="path626"
           inkscape:connector-curvature="0" /><path
           d="m 71.05,550.458 1.552,2.209 0,-2.209 -1.552,0 z m 2.155,-1.728 0,1.175 0.665,0 0,0.553 -0.665,0 0,3.189 -0.49,0 -2.259,-3.189 0,-0.553 2.146,0 0,-1.175 0.603,0"
           style="fill:#231f20;fill-opacity:1;fill-rule:nonzero;stroke:none"
           id="path628"
           inkscape:connector-curvature="0" /><path
           d="m 63.934,559.209 -0.802,0 0,5.077 c -0.191,-0.182 -0.441,-0.365 -0.75,-0.548 -0.309,-0.183 -0.586,-0.32 -0.833,-0.412 l 0,0.771 c 0.444,0.208 0.831,0.463 1.163,0.76 0.332,0.298 0.566,0.589 0.705,0.869 l 0.517,0 0,-6.517"
           style="fill:#231f20;fill-opacity:1;fill-rule:nonzero;stroke:none"
           id="path630"
           inkscape:connector-curvature="0" /><path
           d="m 67.202,564.601 c 0.221,0.309 0.514,0.465 0.881,0.465 0.374,0 0.686,-0.176 0.934,-0.527 0.249,-0.351 0.374,-1.061 0.374,-2.131 0,-1.066 -0.125,-1.774 -0.376,-2.127 -0.249,-0.353 -0.556,-0.529 -0.924,-0.529 -0.366,0 -0.673,0.176 -0.924,0.527 -0.249,0.349 -0.374,1.061 -0.374,2.129 0,1.067 0.136,1.796 0.409,2.193 z m -0.583,-4.84 c 0.357,-0.439 0.847,-0.658 1.472,-0.658 0.475,0 0.868,0.126 1.179,0.376 0.311,0.251 0.544,0.612 0.701,1.081 0.156,0.47 0.234,1.085 0.234,1.848 0,0.644 -0.049,1.156 -0.146,1.534 -0.097,0.381 -0.23,0.703 -0.399,0.967 -0.169,0.264 -0.386,0.465 -0.651,0.607 -0.263,0.14 -0.569,0.21 -0.918,0.21 -0.471,0 -0.862,-0.126 -1.173,-0.378 -0.311,-0.251 -0.546,-0.614 -0.704,-1.083 -0.157,-0.471 -0.236,-1.089 -0.236,-1.857 0,-1.22 0.214,-2.102 0.641,-2.647"
           style="fill:#231f20;fill-opacity:1;fill-rule:nonzero;stroke:none"
           id="path632"
           inkscape:connector-curvature="0" /><path
           d="m 72.049,566.582 c 0.175,0.182 0.39,0.273 0.642,0.273 0.257,0 0.469,-0.091 0.635,-0.273 0.166,-0.182 0.249,-0.43 0.249,-0.746 0,-0.328 -0.084,-0.588 -0.252,-0.779 -0.168,-0.191 -0.371,-0.286 -0.611,-0.286 -0.164,0 -0.318,0.046 -0.464,0.138 -0.145,0.092 -0.259,0.227 -0.341,0.404 -0.081,0.176 -0.122,0.361 -0.122,0.555 0,0.295 0.088,0.532 0.264,0.714 z m 1.616,2.083 c -0.23,0.201 -0.525,0.302 -0.884,0.302 -0.483,0 -0.866,-0.175 -1.151,-0.522 -0.326,-0.401 -0.489,-1.042 -0.489,-1.923 0,-0.788 0.147,-1.354 0.442,-1.695 0.294,-0.341 0.675,-0.511 1.142,-0.511 0.274,0 0.518,0.065 0.734,0.192 0.216,0.13 0.386,0.316 0.509,0.563 0.123,0.246 0.185,0.511 0.185,0.798 0,0.436 -0.131,0.791 -0.393,1.066 -0.262,0.275 -0.58,0.412 -0.953,0.412 -0.214,0 -0.418,-0.05 -0.613,-0.148 -0.195,-0.1 -0.359,-0.253 -0.494,-0.458 0.004,0.456 0.056,0.807 0.159,1.052 0.101,0.246 0.239,0.433 0.413,0.56 0.138,0.101 0.295,0.15 0.474,0.15 0.222,0 0.409,-0.08 0.561,-0.24 0.091,-0.1 0.162,-0.26 0.212,-0.48 l 0.558,0.047 c -0.045,0.355 -0.183,0.634 -0.412,0.835"
           style="fill:#231f20;fill-opacity:1;fill-rule:nonzero;stroke:none"
           id="path634"
           inkscape:connector-curvature="0" /><path
           inkscape:connector-curvature="0"
           id="path4912"
           style="fill:none;stroke:#000000;stroke-width:0.35580647;stroke-linecap:butt;stroke-linejoin:miter;stroke-miterlimit:10;stroke-dasharray:none;stroke-opacity:1"
           d="m 79.305151,596.13351 171.296779,0 0,60.2379 -171.296779,0 0,-60.2379 z" /><path
           inkscape:connector-curvature="0"
           id="path4922"
           style="fill:none;stroke:#000000;stroke-width:0.35580647;stroke-linecap:butt;stroke-linejoin:miter;stroke-miterlimit:10;stroke-dasharray:none;stroke-opacity:1"
           d="m 79.305151,599.03551 0,-2.902 6.796397,0 0,26.375 1.760052,0 0,-10.508 1.763543,0 0,-10.059 3.396565,0 0,-2.902 1.636402,0 0,-2.906 3.527085,0 0,18.328 1.63291,0 0,14.081 1.763545,0 0,11.29 1.76005,0 0,7.82 1.6364,0 0,4.36 1.76366,0 0,1.339 1.63595,0 0,-1.675 1.7605,0 0,-4.469 1.76354,0 0,-6.93 1.63595,0 0,-9.277 1.7649,0 0,-10.617 1.63595,0 0,-6.93 1.75926,0 0,-2.348 1.76478,0 0,-1.563 1.63168,0 0,-0.671 1.76354,0 0,0.336 1.6364,0 0,0.335 1.76444,0 0,-0.335 1.75915,0 0,-1.34 1.63731,0 0,-1.23 1.76354,0 0,2.905 1.75915,0 0,-0.335 1.63741,0 0,-1.899 1.76355,0 0,-0.671 1.6364,0 0,-2.907 1.76005,0 0,2.907 1.76354,0 0,-0.782 1.6364,0 0,-0.894 1.76006,0 0,2.347 1.6364,0 0,-2.347 1.76365,0 0,0.894 1.75994,0 0,-2.125 1.63652,0 0,1.231 1.76331,0 0,-3.02 3.39646,0 0,3.02 3.39983,0 0,1.676 1.76016,0 0,-1.676 1.76355,0 0,0.894 1.63628,0 0,1.453 1.76017,0 0,-3.578 1.63629,0 0,1.231 1.76354,0 0,2.906 1.76016,0 0,-0.559 1.63629,0 0,-5.367 1.76355,0 0,6.485 1.63741,0 0,-9.387 1.75904,0 0,4.691 1.76354,0 0,2.907 1.63742,0 0,-4.696 1.75904,0 0,-5.808 1.63628,0 0,10.504 1.76467,0 0,-4.696 1.75904,0 0,1.789 1.63629,0 0,2.907 1.76467,0 0,0.671 1.63629,0 0,-1.453 1.76354,0 0,0.782 1.76016,0 0,-4.696 3.39533,0 0,5.926 1.76467,0 0,-5.926 1.63629,0 0,1.789 1.76354,0 0,2.125 1.63629,0 0,-0.894 5.16,0 0,-3.02 1.76016,0 0,3.914 3.39983,0 0,2.012 1.76017,0 0,-0.559 1.63629,0 0,-1.453 1.76354,0 0,-9.722 1.63741,0 0,8.828 1.75904,0 0,-3.02 3.40096,0 0,5.367 1.75904,0 0,-3.578 3.40095,0 0,-4.691 1.75904,0 0,2.902 1.63629,0 0,1.789 3.52371,0 0,1.231 1.63629,0 0,-3.02 3.40096,0 0,-2.902 1.75903,0" /><path
           inkscape:connector-curvature="0"
           id="path4924"
           style="fill:none;stroke:#000000;stroke-width:0.11860181;stroke-linecap:butt;stroke-linejoin:miter;stroke-miterlimit:10;stroke-dasharray:none;stroke-opacity:1"
           d="m 79.305151,596.13351 0,60.238" /><path
           inkscape:connector-curvature="0"
           id="path4926"
           style="fill:none;stroke:#000000;stroke-width:0.11860181;stroke-linecap:butt;stroke-linejoin:miter;stroke-miterlimit:10;stroke-dasharray:none;stroke-opacity:1"
           d="m 81.064302,596.13351 -1.759151,0" /><path
           inkscape:connector-curvature="0"
           id="path4928"
           style="fill:none;stroke:#000000;stroke-width:0.11860181;stroke-linecap:butt;stroke-linejoin:miter;stroke-miterlimit:10;stroke-dasharray:none;stroke-opacity:1"
           d="m 81.064302,596.91451 -1.759151,0" /><path
           inkscape:connector-curvature="0"
           id="path4930"
           style="fill:none;stroke:#000000;stroke-width:0.11860181;stroke-linecap:butt;stroke-linejoin:miter;stroke-miterlimit:10;stroke-dasharray:none;stroke-opacity:1"
           d="m 81.064302,597.58651 -1.759151,0" /><path
           inkscape:connector-curvature="0"
           id="path4932"
           style="fill:none;stroke:#000000;stroke-width:0.11860181;stroke-linecap:butt;stroke-linejoin:miter;stroke-miterlimit:10;stroke-dasharray:none;stroke-opacity:1"
           d="m 81.064302,598.14451 -1.759151,0" /><path
           inkscape:connector-curvature="0"
           id="path4934"
           style="fill:none;stroke:#000000;stroke-width:0.11860181;stroke-linecap:butt;stroke-linejoin:miter;stroke-miterlimit:10;stroke-dasharray:none;stroke-opacity:1"
           d="m 81.064302,598.59051 -1.759151,0" /><path
           inkscape:connector-curvature="0"
           id="path4936"
           style="fill:none;stroke:#000000;stroke-width:0.11860181;stroke-linecap:butt;stroke-linejoin:miter;stroke-miterlimit:10;stroke-dasharray:none;stroke-opacity:1"
           d="m 82.829196,599.03551 -3.524045,0" /><text
           transform="scale(1.0611997,-0.94232966)"
           style="font-variant:normal;font-size:8.30215836px;font-family:f-0;-inkscape-font-specification:f-0-0;writing-mode:lr-tb;fill:#000000;fill-opacity:1;fill-rule:nonzero;stroke:none"
           id="text4940"
           x="60.7453"
           y="-632.73236"><tspan
             x="60.7453"
             y="-632.73236"
             id="tspan4942">1</tspan></text>
<path
           inkscape:connector-curvature="0"
           id="path4944"
           style="fill:none;stroke:#000000;stroke-width:0.11860181;stroke-linecap:butt;stroke-linejoin:miter;stroke-miterlimit:10;stroke-dasharray:none;stroke-opacity:1"
           d="m 81.064302,601.94151 -1.759151,0" /><path
           inkscape:connector-curvature="0"
           id="path4946"
           style="fill:none;stroke:#000000;stroke-width:0.11860181;stroke-linecap:butt;stroke-linejoin:miter;stroke-miterlimit:10;stroke-dasharray:none;stroke-opacity:1"
           d="m 81.064302,603.73051 -1.759151,0" /><path
           inkscape:connector-curvature="0"
           id="path4948"
           style="fill:none;stroke:#000000;stroke-width:0.11860181;stroke-linecap:butt;stroke-linejoin:miter;stroke-miterlimit:10;stroke-dasharray:none;stroke-opacity:1"
           d="m 81.064302,604.96151 -1.759151,0" /><path
           inkscape:connector-curvature="0"
           id="path4950"
           style="fill:none;stroke:#000000;stroke-width:0.11860181;stroke-linecap:butt;stroke-linejoin:miter;stroke-miterlimit:10;stroke-dasharray:none;stroke-opacity:1"
           d="m 81.064302,605.85551 -1.759151,0" /><path
           inkscape:connector-curvature="0"
           id="path4952"
           style="fill:none;stroke:#000000;stroke-width:0.11860181;stroke-linecap:butt;stroke-linejoin:miter;stroke-miterlimit:10;stroke-dasharray:none;stroke-opacity:1"
           d="m 81.064302,606.63751 -1.759151,0" /><path
           inkscape:connector-curvature="0"
           id="path4954"
           style="fill:none;stroke:#000000;stroke-width:0.11860181;stroke-linecap:butt;stroke-linejoin:miter;stroke-miterlimit:10;stroke-dasharray:none;stroke-opacity:1"
           d="m 81.064302,607.30851 -1.759151,0" /><path
           inkscape:connector-curvature="0"
           id="path4956"
           style="fill:none;stroke:#000000;stroke-width:0.11860181;stroke-linecap:butt;stroke-linejoin:miter;stroke-miterlimit:10;stroke-dasharray:none;stroke-opacity:1"
           d="m 81.064302,607.86751 -1.759151,0" /><path
           inkscape:connector-curvature="0"
           id="path4958"
           style="fill:none;stroke:#000000;stroke-width:0.11860181;stroke-linecap:butt;stroke-linejoin:miter;stroke-miterlimit:10;stroke-dasharray:none;stroke-opacity:1"
           d="m 81.064302,608.42651 -1.759151,0" /><path
           inkscape:connector-curvature="0"
           id="path4960"
           style="fill:none;stroke:#000000;stroke-width:0.11860181;stroke-linecap:butt;stroke-linejoin:miter;stroke-miterlimit:10;stroke-dasharray:none;stroke-opacity:1"
           d="m 82.829196,608.87151 -3.524045,0" /><text
           transform="scale(1.0611997,-0.94232966)"
           style="font-variant:normal;font-size:8.30215836px;font-family:f-0;-inkscape-font-specification:f-0-0;writing-mode:lr-tb;fill:#000000;fill-opacity:1;fill-rule:nonzero;stroke:none"
           id="text4964"
           x="56.129074"
           y="-643.05151"><tspan
             x="56.129074 60.74509"
             y="-643.05151"
             sodipodi:role="line"
             id="tspan4966">10</tspan></text>
<path
           inkscape:connector-curvature="0"
           id="path4968"
           style="fill:none;stroke:#000000;stroke-width:0.11860181;stroke-linecap:butt;stroke-linejoin:miter;stroke-miterlimit:10;stroke-dasharray:none;stroke-opacity:1"
           d="m 81.064302,611.77751 -1.759151,0" /><path
           inkscape:connector-curvature="0"
           id="path4970"
           style="fill:none;stroke:#000000;stroke-width:0.11860181;stroke-linecap:butt;stroke-linejoin:miter;stroke-miterlimit:10;stroke-dasharray:none;stroke-opacity:1"
           d="m 81.064302,613.45351 -1.759151,0" /><path
           inkscape:connector-curvature="0"
           id="path4972"
           style="fill:none;stroke:#000000;stroke-width:0.11860181;stroke-linecap:butt;stroke-linejoin:miter;stroke-miterlimit:10;stroke-dasharray:none;stroke-opacity:1"
           d="m 81.064302,614.68351 -1.759151,0" /><path
           inkscape:connector-curvature="0"
           id="path4974"
           style="fill:none;stroke:#000000;stroke-width:0.11860181;stroke-linecap:butt;stroke-linejoin:miter;stroke-miterlimit:10;stroke-dasharray:none;stroke-opacity:1"
           d="m 81.064302,615.69151 -1.759151,0" /><path
           inkscape:connector-curvature="0"
           id="path4976"
           style="fill:none;stroke:#000000;stroke-width:0.11860181;stroke-linecap:butt;stroke-linejoin:miter;stroke-miterlimit:10;stroke-dasharray:none;stroke-opacity:1"
           d="m 81.064302,616.47351 -1.759151,0" /><path
           inkscape:connector-curvature="0"
           id="path4978"
           style="fill:none;stroke:#000000;stroke-width:0.11860181;stroke-linecap:butt;stroke-linejoin:miter;stroke-miterlimit:10;stroke-dasharray:none;stroke-opacity:1"
           d="m 81.064302,617.03151 -1.759151,0" /><path
           inkscape:connector-curvature="0"
           id="path4980"
           style="fill:none;stroke:#000000;stroke-width:0.11860181;stroke-linecap:butt;stroke-linejoin:miter;stroke-miterlimit:10;stroke-dasharray:none;stroke-opacity:1"
           d="m 81.064302,617.70351 -1.759151,0" /><path
           inkscape:connector-curvature="0"
           id="path4982"
           style="fill:none;stroke:#000000;stroke-width:0.11860181;stroke-linecap:butt;stroke-linejoin:miter;stroke-miterlimit:10;stroke-dasharray:none;stroke-opacity:1"
           d="m 81.064302,618.14851 -1.759151,0" /><path
           inkscape:connector-curvature="0"
           id="path4984"
           style="fill:none;stroke:#000000;stroke-width:0.11860181;stroke-linecap:butt;stroke-linejoin:miter;stroke-miterlimit:10;stroke-dasharray:none;stroke-opacity:1"
           d="m 82.829196,618.59451 -3.524045,0" /><text
           transform="scale(1.0611997,-0.94232966)"
           style="font-variant:normal;font-size:8.30215836px;font-family:f-0;-inkscape-font-specification:f-0-0;writing-mode:lr-tb;fill:#000000;fill-opacity:1;fill-rule:nonzero;stroke:none"
           id="text4988"
           x="56.129074"
           y="-653.36957"><tspan
             x="56.129074 60.74509"
             y="-653.36957"
             sodipodi:role="line"
             id="tspan4990">10</tspan></text>
<text
           transform="scale(1.0611997,-0.94232966)"
           style="font-variant:normal;font-size:6.64173079px;font-family:f-0;-inkscape-font-specification:f-0-0;writing-mode:lr-tb;fill:#000000;fill-opacity:1;fill-rule:nonzero;stroke:none"
           id="text4992"
           x="67.717278"
           y="-657.75781"><tspan
             x="67.717278"
             y="-657.75781"
             id="tspan4994">2</tspan></text>
<path
           inkscape:connector-curvature="0"
           id="path4996"
           style="fill:none;stroke:#000000;stroke-width:0.11860181;stroke-linecap:butt;stroke-linejoin:miter;stroke-miterlimit:10;stroke-dasharray:none;stroke-opacity:1"
           d="m 81.064302,621.50051 -1.759151,0" /><path
           inkscape:connector-curvature="0"
           id="path4998"
           style="fill:none;stroke:#000000;stroke-width:0.11860181;stroke-linecap:butt;stroke-linejoin:miter;stroke-miterlimit:10;stroke-dasharray:none;stroke-opacity:1"
           d="m 81.064302,623.28951 -1.759151,0" /><path
           inkscape:connector-curvature="0"
           id="path5000"
           style="fill:none;stroke:#000000;stroke-width:0.11860181;stroke-linecap:butt;stroke-linejoin:miter;stroke-miterlimit:10;stroke-dasharray:none;stroke-opacity:1"
           d="m 81.064302,624.51951 -1.759151,0" /><path
           inkscape:connector-curvature="0"
           id="path5002"
           style="fill:none;stroke:#000000;stroke-width:0.11860181;stroke-linecap:butt;stroke-linejoin:miter;stroke-miterlimit:10;stroke-dasharray:none;stroke-opacity:1"
           d="m 81.064302,625.41451 -1.759151,0" /><path
           inkscape:connector-curvature="0"
           id="path5004"
           style="fill:none;stroke:#000000;stroke-width:0.11860181;stroke-linecap:butt;stroke-linejoin:miter;stroke-miterlimit:10;stroke-dasharray:none;stroke-opacity:1"
           d="m 81.064302,626.19551 -1.759151,0" /><path
           inkscape:connector-curvature="0"
           id="path5006"
           style="fill:none;stroke:#000000;stroke-width:0.11860181;stroke-linecap:butt;stroke-linejoin:miter;stroke-miterlimit:10;stroke-dasharray:none;stroke-opacity:1"
           d="m 81.064302,626.86751 -1.759151,0" /><path
           inkscape:connector-curvature="0"
           id="path5008"
           style="fill:none;stroke:#000000;stroke-width:0.11860181;stroke-linecap:butt;stroke-linejoin:miter;stroke-miterlimit:10;stroke-dasharray:none;stroke-opacity:1"
           d="m 81.064302,627.42651 -1.759151,0" /><path
           inkscape:connector-curvature="0"
           id="path5010"
           style="fill:none;stroke:#000000;stroke-width:0.11860181;stroke-linecap:butt;stroke-linejoin:miter;stroke-miterlimit:10;stroke-dasharray:none;stroke-opacity:1"
           d="m 81.064302,627.87151 -1.759151,0" /><path
           inkscape:connector-curvature="0"
           id="path5012"
           style="fill:none;stroke:#000000;stroke-width:0.11860181;stroke-linecap:butt;stroke-linejoin:miter;stroke-miterlimit:10;stroke-dasharray:none;stroke-opacity:1"
           d="m 82.829196,628.32051 -3.524045,0" /><text
           transform="scale(1.0611997,-0.94232966)"
           style="font-variant:normal;font-size:8.30215836px;font-family:f-0;-inkscape-font-specification:f-0-0;writing-mode:lr-tb;fill:#000000;fill-opacity:1;fill-rule:nonzero;stroke:none"
           id="text5016"
           x="56.129074"
           y="-663.8075"><tspan
             x="56.129074 60.74509"
             y="-663.8075"
             sodipodi:role="line"
             id="tspan5018">10</tspan></text>
<text
           transform="scale(1.0611997,-0.94232966)"
           style="font-variant:normal;font-size:6.64173079px;font-family:f-0;-inkscape-font-specification:f-0-0;writing-mode:lr-tb;fill:#000000;fill-opacity:1;fill-rule:nonzero;stroke:none"
           id="text5020"
           x="67.717278"
           y="-668.19531"><tspan
             x="67.717278"
             y="-668.19531"
             id="tspan5022">3</tspan></text>
<path
           inkscape:connector-curvature="0"
           id="path5024"
           style="fill:none;stroke:#000000;stroke-width:0.11860181;stroke-linecap:butt;stroke-linejoin:miter;stroke-miterlimit:10;stroke-dasharray:none;stroke-opacity:1"
           d="m 81.064302,631.33651 -1.759151,0" /><path
           inkscape:connector-curvature="0"
           id="path5026"
           style="fill:none;stroke:#000000;stroke-width:0.11860181;stroke-linecap:butt;stroke-linejoin:miter;stroke-miterlimit:10;stroke-dasharray:none;stroke-opacity:1"
           d="m 81.064302,633.01251 -1.759151,0" /><path
           inkscape:connector-curvature="0"
           id="path5028"
           style="fill:none;stroke:#000000;stroke-width:0.11860181;stroke-linecap:butt;stroke-linejoin:miter;stroke-miterlimit:10;stroke-dasharray:none;stroke-opacity:1"
           d="m 81.064302,634.24251 -1.759151,0" /><path
           inkscape:connector-curvature="0"
           id="path5030"
           style="fill:none;stroke:#000000;stroke-width:0.11860181;stroke-linecap:butt;stroke-linejoin:miter;stroke-miterlimit:10;stroke-dasharray:none;stroke-opacity:1"
           d="m 81.064302,635.24651 -1.759151,0" /><path
           inkscape:connector-curvature="0"
           id="path5032"
           style="fill:none;stroke:#000000;stroke-width:0.11860181;stroke-linecap:butt;stroke-linejoin:miter;stroke-miterlimit:10;stroke-dasharray:none;stroke-opacity:1"
           d="m 81.064302,635.91751 -1.759151,0" /><path
           inkscape:connector-curvature="0"
           id="path5034"
           style="fill:none;stroke:#000000;stroke-width:0.11860181;stroke-linecap:butt;stroke-linejoin:miter;stroke-miterlimit:10;stroke-dasharray:none;stroke-opacity:1"
           d="m 81.064302,636.59051 -1.759151,0" /><path
           inkscape:connector-curvature="0"
           id="path5036"
           style="fill:none;stroke:#000000;stroke-width:0.11860181;stroke-linecap:butt;stroke-linejoin:miter;stroke-miterlimit:10;stroke-dasharray:none;stroke-opacity:1"
           d="m 81.064302,637.14851 -1.759151,0" /><path
           inkscape:connector-curvature="0"
           id="path5038"
           style="fill:none;stroke:#000000;stroke-width:0.11860181;stroke-linecap:butt;stroke-linejoin:miter;stroke-miterlimit:10;stroke-dasharray:none;stroke-opacity:1"
           d="m 81.064302,637.70751 -1.759151,0" /><path
           inkscape:connector-curvature="0"
           id="path5040"
           style="fill:none;stroke:#000000;stroke-width:0.11860181;stroke-linecap:butt;stroke-linejoin:miter;stroke-miterlimit:10;stroke-dasharray:none;stroke-opacity:1"
           d="m 82.829196,638.15251 -3.524045,0" /><text
           transform="scale(1.0611997,-0.94232966)"
           style="font-variant:normal;font-size:8.30215836px;font-family:f-0;-inkscape-font-specification:f-0-0;writing-mode:lr-tb;fill:#000000;fill-opacity:1;fill-rule:nonzero;stroke:none"
           id="text5044"
           x="56.129074"
           y="-674.12451"><tspan
             x="56.129074 60.74509"
             y="-674.12451"
             sodipodi:role="line"
             id="tspan5046">10</tspan></text>
<text
           transform="scale(1.0611997,-0.94232966)"
           style="font-variant:normal;font-size:6.64173079px;font-family:f-0;-inkscape-font-specification:f-0-0;writing-mode:lr-tb;fill:#000000;fill-opacity:1;fill-rule:nonzero;stroke:none"
           id="text5048"
           x="67.717278"
           y="-678.5127"><tspan
             x="67.717278"
             y="-678.5127"
             id="tspan5050">4</tspan></text>
<path
           inkscape:connector-curvature="0"
           id="path5052"
           style="fill:none;stroke:#000000;stroke-width:0.11860181;stroke-linecap:butt;stroke-linejoin:miter;stroke-miterlimit:10;stroke-dasharray:none;stroke-opacity:1"
           d="m 81.064302,641.05851 -1.759151,0" /><path
           inkscape:connector-curvature="0"
           id="path5054"
           style="fill:none;stroke:#000000;stroke-width:0.11860181;stroke-linecap:butt;stroke-linejoin:miter;stroke-miterlimit:10;stroke-dasharray:none;stroke-opacity:1"
           d="m 81.064302,642.84851 -1.759151,0" /><path
           inkscape:connector-curvature="0"
           id="path5056"
           style="fill:none;stroke:#000000;stroke-width:0.11860181;stroke-linecap:butt;stroke-linejoin:miter;stroke-miterlimit:10;stroke-dasharray:none;stroke-opacity:1"
           d="m 81.064302,644.07851 -1.759151,0" /><path
           inkscape:connector-curvature="0"
           id="path5058"
           style="fill:none;stroke:#000000;stroke-width:0.11860181;stroke-linecap:butt;stroke-linejoin:miter;stroke-miterlimit:10;stroke-dasharray:none;stroke-opacity:1"
           d="m 81.064302,644.97351 -1.759151,0" /><path
           inkscape:connector-curvature="0"
           id="path5060"
           style="fill:none;stroke:#000000;stroke-width:0.11860181;stroke-linecap:butt;stroke-linejoin:miter;stroke-miterlimit:10;stroke-dasharray:none;stroke-opacity:1"
           d="m 81.064302,645.75451 -1.759151,0" /><path
           inkscape:connector-curvature="0"
           id="path5062"
           style="fill:none;stroke:#000000;stroke-width:0.11860181;stroke-linecap:butt;stroke-linejoin:miter;stroke-miterlimit:10;stroke-dasharray:none;stroke-opacity:1"
           d="m 81.064302,646.42651 -1.759151,0" /><path
           inkscape:connector-curvature="0"
           id="path5064"
           style="fill:none;stroke:#000000;stroke-width:0.11860181;stroke-linecap:butt;stroke-linejoin:miter;stroke-miterlimit:10;stroke-dasharray:none;stroke-opacity:1"
           d="m 81.064302,646.98351 -1.759151,0" /><path
           inkscape:connector-curvature="0"
           id="path5066"
           style="fill:none;stroke:#000000;stroke-width:0.11860181;stroke-linecap:butt;stroke-linejoin:miter;stroke-miterlimit:10;stroke-dasharray:none;stroke-opacity:1"
           d="m 81.064302,647.43051 -1.759151,0" /><path
           inkscape:connector-curvature="0"
           id="path5068"
           style="fill:none;stroke:#000000;stroke-width:0.11860181;stroke-linecap:butt;stroke-linejoin:miter;stroke-miterlimit:10;stroke-dasharray:none;stroke-opacity:1"
           d="m 82.829196,647.87951 -3.524045,0" /><text
           transform="scale(1.0611997,-0.94232966)"
           style="font-variant:normal;font-size:8.30215836px;font-family:f-0;-inkscape-font-specification:f-0-0;writing-mode:lr-tb;fill:#000000;fill-opacity:1;fill-rule:nonzero;stroke:none"
           id="text5072"
           x="56.129074"
           y="-684.5614"><tspan
             x="56.129074 60.74509"
             y="-684.5614"
             sodipodi:role="line"
             id="tspan5074">10</tspan></text>
<text
           transform="scale(1.0611997,-0.94232966)"
           style="font-variant:normal;font-size:6.64173079px;font-family:f-0;-inkscape-font-specification:f-0-0;writing-mode:lr-tb;fill:#000000;fill-opacity:1;fill-rule:nonzero;stroke:none"
           id="text5076"
           x="67.717278"
           y="-688.95044"><tspan
             x="67.717278"
             y="-688.95044"
             id="tspan5078">5</tspan></text>
<path
           inkscape:connector-curvature="0"
           id="path5080"
           style="fill:none;stroke:#000000;stroke-width:0.11860181;stroke-linecap:butt;stroke-linejoin:miter;stroke-miterlimit:10;stroke-dasharray:none;stroke-opacity:1"
           d="m 81.064302,650.89451 -1.759151,0" /><path
           inkscape:connector-curvature="0"
           id="path5082"
           style="fill:none;stroke:#000000;stroke-width:0.11860181;stroke-linecap:butt;stroke-linejoin:miter;stroke-miterlimit:10;stroke-dasharray:none;stroke-opacity:1"
           d="m 81.064302,652.57051 -1.759151,0" /><path
           inkscape:connector-curvature="0"
           id="path5084"
           style="fill:none;stroke:#000000;stroke-width:0.11860181;stroke-linecap:butt;stroke-linejoin:miter;stroke-miterlimit:10;stroke-dasharray:none;stroke-opacity:1"
           d="m 81.064302,653.80151 -1.759151,0" /><path
           inkscape:connector-curvature="0"
           id="path5086"
           style="fill:none;stroke:#000000;stroke-width:0.11860181;stroke-linecap:butt;stroke-linejoin:miter;stroke-miterlimit:10;stroke-dasharray:none;stroke-opacity:1"
           d="m 81.064302,654.69551 -1.759151,0" /><path
           inkscape:connector-curvature="0"
           id="path5088"
           style="fill:none;stroke:#000000;stroke-width:0.11860181;stroke-linecap:butt;stroke-linejoin:miter;stroke-miterlimit:10;stroke-dasharray:none;stroke-opacity:1"
           d="m 81.064302,655.47751 -1.759151,0" /><path
           inkscape:connector-curvature="0"
           id="path5090"
           style="fill:none;stroke:#000000;stroke-width:0.11860181;stroke-linecap:butt;stroke-linejoin:miter;stroke-miterlimit:10;stroke-dasharray:none;stroke-opacity:1"
           d="m 81.064302,656.14851 -1.759151,0" /><path
           inkscape:connector-curvature="0"
           id="path5092"
           style="fill:none;stroke:#000000;stroke-width:0.11860181;stroke-linecap:butt;stroke-linejoin:miter;stroke-miterlimit:10;stroke-dasharray:none;stroke-opacity:1"
           d="m 79.305151,596.13351 171.296889,0" /><path
           inkscape:connector-curvature="0"
           id="path5094"
           style="fill:none;stroke:#000000;stroke-width:0.11860181;stroke-linecap:butt;stroke-linejoin:miter;stroke-miterlimit:10;stroke-dasharray:none;stroke-opacity:1"
           d="m 79.305151,599.26251 0,-3.129" /><path
           inkscape:connector-curvature="0"
           id="path5096"
           style="fill:none;stroke:#000000;stroke-width:0.11860181;stroke-linecap:butt;stroke-linejoin:miter;stroke-miterlimit:10;stroke-dasharray:none;stroke-opacity:1"
           d="m 87.8616,597.69551 0,-1.562" /><path
           inkscape:connector-curvature="0"
           id="path5098"
           style="fill:none;stroke:#000000;stroke-width:0.11860181;stroke-linecap:butt;stroke-linejoin:miter;stroke-miterlimit:10;stroke-dasharray:none;stroke-opacity:1"
           d="m 96.421652,599.26251 0,-3.129" /><path
           inkscape:connector-curvature="0"
           id="path5100"
           style="fill:none;stroke:#000000;stroke-width:0.11860181;stroke-linecap:butt;stroke-linejoin:miter;stroke-miterlimit:10;stroke-dasharray:none;stroke-opacity:1"
           d="m 104.9781,597.69551 0,-1.562" /><path
           inkscape:connector-curvature="0"
           id="path5102"
           style="fill:none;stroke:#000000;stroke-width:0.11860181;stroke-linecap:butt;stroke-linejoin:miter;stroke-miterlimit:10;stroke-dasharray:none;stroke-opacity:1"
           d="m 113.5377,599.26251 0,-3.129" /><path
           inkscape:connector-curvature="0"
           id="path5104"
           style="fill:none;stroke:#000000;stroke-width:0.11860181;stroke-linecap:butt;stroke-linejoin:miter;stroke-miterlimit:10;stroke-dasharray:none;stroke-opacity:1"
           d="m 122.09866,597.69551 0,-1.562" /><path
           inkscape:connector-curvature="0"
           id="path5106"
           style="fill:none;stroke:#000000;stroke-width:0.11860181;stroke-linecap:butt;stroke-linejoin:miter;stroke-miterlimit:10;stroke-dasharray:none;stroke-opacity:1"
           d="m 130.65511,599.26251 0,-3.129" /><path
           inkscape:connector-curvature="0"
           id="path5108"
           style="fill:none;stroke:#000000;stroke-width:0.11860181;stroke-linecap:butt;stroke-linejoin:miter;stroke-miterlimit:10;stroke-dasharray:none;stroke-opacity:1"
           d="m 139.21516,597.69551 0,-1.562" /><path
           inkscape:connector-curvature="0"
           id="path5110"
           style="fill:none;stroke:#000000;stroke-width:0.11860181;stroke-linecap:butt;stroke-linejoin:miter;stroke-miterlimit:10;stroke-dasharray:none;stroke-opacity:1"
           d="m 147.77161,599.26251 0,-3.129" /><path
           inkscape:connector-curvature="0"
           id="path5112"
           style="fill:none;stroke:#000000;stroke-width:0.11860181;stroke-linecap:butt;stroke-linejoin:miter;stroke-miterlimit:10;stroke-dasharray:none;stroke-opacity:1"
           d="m 156.33132,597.69551 0,-1.562" /><path
           inkscape:connector-curvature="0"
           id="path5114"
           style="fill:none;stroke:#000000;stroke-width:0.11860181;stroke-linecap:butt;stroke-linejoin:miter;stroke-miterlimit:10;stroke-dasharray:none;stroke-opacity:1"
           d="m 165.01503,599.26251 0,-3.129" /><path
           inkscape:connector-curvature="0"
           id="path5116"
           style="fill:none;stroke:#000000;stroke-width:0.11860181;stroke-linecap:butt;stroke-linejoin:miter;stroke-miterlimit:10;stroke-dasharray:none;stroke-opacity:1"
           d="m 173.57598,597.69551 0,-1.562" /><path
           inkscape:connector-curvature="0"
           id="path5118"
           style="fill:none;stroke:#000000;stroke-width:0.11860181;stroke-linecap:butt;stroke-linejoin:miter;stroke-miterlimit:10;stroke-dasharray:none;stroke-opacity:1"
           d="m 182.1313,599.26251 0,-3.129" /><path
           inkscape:connector-curvature="0"
           id="path5120"
           style="fill:none;stroke:#000000;stroke-width:0.11860181;stroke-linecap:butt;stroke-linejoin:miter;stroke-miterlimit:10;stroke-dasharray:none;stroke-opacity:1"
           d="m 190.69226,597.69551 0,-1.562" /><path
           inkscape:connector-curvature="0"
           id="path5122"
           style="fill:none;stroke:#000000;stroke-width:0.11860181;stroke-linecap:butt;stroke-linejoin:miter;stroke-miterlimit:10;stroke-dasharray:none;stroke-opacity:1"
           d="m 199.2487,599.26251 0,-3.129" /><path
           inkscape:connector-curvature="0"
           id="path5124"
           style="fill:none;stroke:#000000;stroke-width:0.11860181;stroke-linecap:butt;stroke-linejoin:miter;stroke-miterlimit:10;stroke-dasharray:none;stroke-opacity:1"
           d="m 207.80853,597.69551 0,-1.562" /><path
           inkscape:connector-curvature="0"
           id="path5126"
           style="fill:none;stroke:#000000;stroke-width:0.11860181;stroke-linecap:butt;stroke-linejoin:miter;stroke-miterlimit:10;stroke-dasharray:none;stroke-opacity:1"
           d="m 216.36498,599.26251 0,-3.129" /><path
           inkscape:connector-curvature="0"
           id="path5128"
           style="fill:none;stroke:#000000;stroke-width:0.11860181;stroke-linecap:butt;stroke-linejoin:miter;stroke-miterlimit:10;stroke-dasharray:none;stroke-opacity:1"
           d="m 224.92481,597.69551 0,-1.562" /><path
           inkscape:connector-curvature="0"
           id="path5130"
           style="fill:none;stroke:#000000;stroke-width:0.11860181;stroke-linecap:butt;stroke-linejoin:miter;stroke-miterlimit:10;stroke-dasharray:none;stroke-opacity:1"
           d="m 233.48126,599.26251 0,-3.129" /><path
           inkscape:connector-curvature="0"
           id="path5132"
           style="fill:none;stroke:#000000;stroke-width:0.11860181;stroke-linecap:butt;stroke-linejoin:miter;stroke-miterlimit:10;stroke-dasharray:none;stroke-opacity:1"
           d="m 242.04221,597.69551 0,-1.562" /><path
           inkscape:connector-curvature="0"
           id="path5134"
           style="fill:none;stroke:#000000;stroke-width:0.11860181;stroke-linecap:butt;stroke-linejoin:miter;stroke-miterlimit:10;stroke-dasharray:none;stroke-opacity:1"
           d="m 250.60204,599.26251 0,-3.129" /><text
           transform="scale(1.0611997,-0.94232966)"
           style="font-variant:normal;font-size:8.30215836px;font-family:f-0;-inkscape-font-specification:f-0-0;writing-mode:lr-tb;fill:#000000;fill-opacity:1;fill-rule:nonzero;stroke:none"
           id="text5138"
           x="72.422646"
           y="-622.53424"><tspan
             x="72.422646 88.553734 104.68482 120.81592 136.94701 153.19417 169.32526 185.45634 201.5808 217.7119 231.53482 236.15082"
             y="-622.53424"
             sodipodi:role="line"
             id="tspan5140">012345678910</tspan></text>
<text
           transform="scale(1.0611997,-0.94232966)"
           style="font-variant:normal;font-size:9.25097752px;font-family:f-1;-inkscape-font-specification:f-1-1;writing-mode:lr-tb;fill:#000000;fill-opacity:1;fill-rule:nonzero;stroke:none"
           id="text5166"
           x="128.44022"
           y="-608.41956"><tspan
             x="128.44022"
             y="-608.41956"
             id="tspan5168"></tspan></text>
<text
           transform="scale(1.0611997,-0.94232966)"
           style="font-variant:normal;font-size:6.52313137px;font-family:f-0;-inkscape-font-specification:f-0-0;writing-mode:lr-tb;fill:#000000;fill-opacity:1;fill-rule:nonzero;stroke:none"
           id="text5170"
           x="134.01857"
           y="-605.33545"><tspan
             x="134.01857 136.19077 139.81764"
             y="-605.33545"
             sodipodi:role="line"
             id="tspan5172">raw</tspan></text>
<path
           d="m 156.63753,572.29024 0,8.299 1.98089,0 0,-0.663 -1.07659,0 0,-6.976 1.07659,0 0,-0.66 -1.98089,0"
           style="fill:#231f20;fill-opacity:1;fill-rule:nonzero;stroke:none"
           id="path576-3"
           inkscape:connector-curvature="0" /><path
           d="m 161.6714,578.66324 c 0.16892,0.411 0.30406,0.828 0.40541,1.252 0.12163,-0.358 0.29956,-0.812 0.52929,-1.358 l 0.76916,-1.806 -2.50905,0 0.80519,1.912 z m -1.87391,-4.568 0.79394,1.959 3.09014,0 0.83447,-1.959 1.1025,0 -2.99104,6.494 -1.06083,0 -2.79735,-6.494 1.02817,0"
           style="fill:#231f20;fill-opacity:1;fill-rule:nonzero;stroke:none"
           id="path578-6"
           inkscape:connector-curvature="0" /><path
           d="m 167.34942,579.82024 1.53606,0 c 0.57659,0 0.99326,-0.044 1.25115,-0.131 0.36262,-0.125 0.66668,-0.37 0.91781,-0.734 0.24888,-0.364 0.37838,-0.886 0.37838,-1.564 0,-0.49 -0.0676,-0.907 -0.19482,-1.251 -0.12838,-0.344 -0.30856,-0.618 -0.53604,-0.821 -0.16217,-0.145 -0.38289,-0.258 -0.65655,-0.337 -0.27478,-0.08 -0.65316,-0.119 -1.13515,-0.119 l -1.56084,0 0,4.957 z m 1.67007,-5.725 c 0.44258,0 0.83448,0.036 1.17345,0.108 0.34235,0.073 0.63402,0.181 0.87276,0.323 0.241,0.143 0.46622,0.341 0.6678,0.591 0.20271,0.249 0.36938,0.564 0.50001,0.946 0.12951,0.381 0.19483,0.817 0.19483,1.311 0,0.581 -0.0957,1.095 -0.2883,1.546 -0.19144,0.45 -0.48086,0.82 -0.86488,1.11 -0.2973,0.223 -0.65541,0.379 -1.07321,0.465 -0.29956,0.063 -0.73312,0.094 -1.30408,0.094 l -2.52031,0 0,-6.494 2.64193,0"
           style="fill:#231f20;fill-opacity:1;fill-rule:nonzero;stroke:none"
           id="path580-7"
           inkscape:connector-curvature="0" /><path
           d="m 178.97687,576.37324 0.97186,-0.219 c -0.2027,-0.705 -0.57095,-1.243 -1.09686,-1.612 -0.52704,-0.368 -1.17345,-0.554 -1.93585,-0.554 -0.7883,0 -1.43358,0.142 -1.92683,0.424 -0.4955,0.281 -0.86938,0.693 -1.12952,1.233 -0.25677,0.541 -0.3874,1.121 -0.3874,1.741 0,0.677 0.1464,1.265 0.44032,1.768 0.28942,0.505 0.7061,0.888 1.24214,1.149 0.5383,0.26 1.13178,0.392 1.77819,0.392 0.73424,0 1.35024,-0.165 1.85025,-0.496 0.50001,-0.329 0.84911,-0.794 1.04506,-1.392 l -0.95609,-0.2 c -0.17005,0.472 -0.41893,0.816 -0.74213,1.032 -0.32321,0.216 -0.72974,0.324 -1.21849,0.324 -0.5642,0 -1.03493,-0.121 -1.41444,-0.359 -0.37838,-0.24 -0.64303,-0.559 -0.79618,-0.964 -0.15429,-0.402 -0.23086,-0.817 -0.23086,-1.245 0,-0.553 0.0912,-1.034 0.2714,-1.445 0.18356,-0.412 0.4651,-0.721 0.85024,-0.924 0.38176,-0.203 0.79618,-0.305 1.24326,-0.305 0.54168,0 1.00227,0.138 1.37728,0.417 0.37725,0.276 0.63402,0.687 0.76465,1.235"
           style="fill:#231f20;fill-opacity:1;fill-rule:nonzero;stroke:none"
           id="path582-5"
           inkscape:connector-curvature="0" /><path
           d="m 181.8313,572.29024 -1.98088,0 0,0.66 1.07546,0 0,6.976 -1.07546,0 0,0.663 1.98088,0 0,-8.299"
           style="fill:#231f20;fill-opacity:1;fill-rule:nonzero;stroke:none"
           id="path596-2"
           inkscape:connector-curvature="0" /></g><flowRoot
         transform="matrix(0,0.8,0.8,0,-234.97844,484.67143)"
         style="font-style:normal;font-weight:normal;font-size:17.5px;line-height:125%;font-family:sans-serif;letter-spacing:0px;word-spacing:0px;fill:#000000;fill-opacity:1;stroke:none;stroke-width:1px;stroke-linecap:butt;stroke-linejoin:miter;stroke-opacity:1"
         id="flowRoot7179"
         xml:space="preserve"><flowRegion
           id="flowRegion7181"><rect
             y="352.94531"
             x="170.72743"
             height="34.600758"
             width="86.501892"
             id="rect7183" /></flowRegion><flowPara
           style="font-size:11.25px"
           id="flowPara7185">#APVs</flowPara></flowRoot><flowRoot
         transform="matrix(0,0.8,0.8,0,-234.7132,399.00654)"
         style="font-style:normal;font-weight:normal;font-size:17.5px;line-height:125%;font-family:sans-serif;letter-spacing:0px;word-spacing:0px;fill:#000000;fill-opacity:1;stroke:none;stroke-width:1px;stroke-linecap:butt;stroke-linejoin:miter;stroke-opacity:1"
         id="flowRoot7179-7"
         xml:space="preserve"><flowRegion
           id="flowRegion7181-0"><rect
             y="352.94531"
             x="170.72743"
             height="34.600758"
             width="86.501892"
             id="rect7183-9" /></flowRegion><flowPara
           style="font-size:11.25px"
           id="flowPara7185-3">#APVs</flowPara></flowRoot></g></g></svg>