<?xml version="1.0" encoding="UTF-8" standalone="no"?>
<!-- Created with Inkscape (http://www.inkscape.org/) -->

<svg
   xmlns:dc="http://purl.org/dc/elements/1.1/"
   xmlns:cc="http://creativecommons.org/ns#"
   xmlns:rdf="http://www.w3.org/1999/02/22-rdf-syntax-ns#"
   xmlns:svg="http://www.w3.org/2000/svg"
   xmlns="http://www.w3.org/2000/svg"
   xmlns:sodipodi="http://sodipodi.sourceforge.net/DTD/sodipodi-0.dtd"
   xmlns:inkscape="http://www.inkscape.org/namespaces/inkscape"
   id="svg2"
   version="1.1"
   inkscape:version="0.91 r13725"
   xml:space="preserve"
   width="257.5"
   height="152.5"
   viewBox="0 0 257.5 152.5"
   sodipodi:docname="dtTiming.svg"><metadata
     id="metadata8"><rdf:RDF><cc:Work
         rdf:about=""><dc:format>image/svg+xml</dc:format><dc:type
           rdf:resource="http://purl.org/dc/dcmitype/StillImage" /><dc:title></dc:title></cc:Work></rdf:RDF></metadata><defs
     id="defs6"><marker
       inkscape:isstock="true"
       style="overflow:visible"
       id="marker10935"
       refX="0"
       refY="0"
       orient="auto"
       inkscape:stockid="Arrow1Mend"><path
         transform="matrix(-0.4,0,0,-0.4,-4,0)"
         style="fill:#0099d7;fill-opacity:1;fill-rule:evenodd;stroke:#0099d7;stroke-width:1pt;stroke-opacity:1"
         d="M 0,0 5,-5 -12.5,0 5,5 0,0 Z"
         id="path10937"
         inkscape:connector-curvature="0" /></marker><marker
       inkscape:isstock="true"
       style="overflow:visible"
       id="marker10754"
       refX="0"
       refY="0"
       orient="auto"
       inkscape:stockid="Arrow1Mend"><path
         transform="matrix(-0.4,0,0,-0.4,-4,0)"
         style="fill:#0099d7;fill-opacity:1;fill-rule:evenodd;stroke:#0099d7;stroke-width:1pt;stroke-opacity:1"
         d="M 0,0 5,-5 -12.5,0 5,5 0,0 Z"
         id="path10756"
         inkscape:connector-curvature="0" /></marker><marker
       inkscape:stockid="Arrow1Mend"
       orient="auto"
       refY="0.0"
       refX="0.0"
       id="Arrow1Mend"
       style="overflow:visible;"
       inkscape:isstock="true"><path
         id="path4897"
         d="M 0.0,0.0 L 5.0,-5.0 L -12.5,0.0 L 5.0,5.0 L 0.0,0.0 z "
         style="fill-rule:evenodd;stroke:#0099d7;stroke-width:1pt;stroke-opacity:1;fill:#0099d7;fill-opacity:1"
         transform="scale(0.4) rotate(180) translate(10,0)" /></marker><marker
       inkscape:isstock="true"
       style="overflow:visible;"
       id="marker5474"
       refX="0.0"
       refY="0.0"
       orient="auto"
       inkscape:stockid="Arrow1Lend"><path
         transform="scale(0.8) rotate(180) translate(12.5,0)"
         style="fill-rule:evenodd;stroke:#0099d7;stroke-width:1pt;stroke-opacity:1;fill:#0099d7;fill-opacity:1"
         d="M 0.0,0.0 L 5.0,-5.0 L -12.5,0.0 L 5.0,5.0 L 0.0,0.0 z "
         id="path5476" /></marker><marker
       inkscape:stockid="Arrow1Lend"
       orient="auto"
       refY="0.0"
       refX="0.0"
       id="Arrow1Lend"
       style="overflow:visible;"
       inkscape:isstock="true"
       inkscape:collect="always"><path
         id="path4891"
         d="M 0.0,0.0 L 5.0,-5.0 L -12.5,0.0 L 5.0,5.0 L 0.0,0.0 z "
         style="fill-rule:evenodd;stroke:#005400;stroke-width:1pt;stroke-opacity:1;fill:#005400;fill-opacity:1"
         transform="scale(0.8) rotate(180) translate(12.5,0)" /></marker><clipPath
       clipPathUnits="userSpaceOnUse"
       id="clipPath18"><path
         d="m 0,9.85156 2060,0 0,1210.00004 -2060,0 L 0,9.85156 Z"
         id="path20"
         inkscape:connector-curvature="0" /></clipPath><clipPath
       clipPathUnits="userSpaceOnUse"
       id="clipPath36"><path
         d="m 1303.59,1219.85 756.41,0 0,-3.4 -756.41,0 0,3.4 z m -1303.59,0 1258.59,0 0,-3.4 -1258.59,0 0,3.4 z m 1279.57,-5.39 1.02,0 0,-1.99 -1.02,0 0,1.99 z m -0.98,-1.99 2,0 0,-2.03 -2,0 0,2.03 z m 0,-2.03 3.01,0 0,-0.98 -3.01,0 0,0.98 z m 23.99,6.01 757.42,0 0,-6.99 -757.42,0 0,6.99 z m -1302.58,0 1257.58,0 0,-6.99 -1257.58,0 0,6.99 z m 1277.58,-6.99 4.02,0 0,-3.01 -4.02,0 0,3.01 z m -0.98,-3.01 5,0 0,-3 -5,0 0,3 z m 25,3.01 758.4,0 0,-6.99 -758.4,0 0,6.99 z m -1301.6,0 1256.6,0 0,-6.99 -1256.6,0 0,6.99 z m 1275.59,-6.01 6.01,0 0,-3.01 -6.01,0 0,3.01 z m -1.02,-3.01 7.03,0 0,-1.99 -7.03,0 0,1.99 z m -0.98,-1.99 8.01,0 0,-3.01 -8.01,0 0,3.01 z m 27,4.02 759.41,0 0,-7.03 -759.41,0 0,7.03 z m -1300.59,0 1255.59,0 0,-7.03 -1255.59,0 0,7.03 z m 1272.58,-7.03 9.02,0 0,-2.97 -9.02,0 0,2.97 z m -0.98,-2.97 10,0 0,-1.02 -10,0 0,1.02 z m 0,-1.02 10.98,0 0,-1.99 -10.98,0 0,1.99 z m 27.97,3.99 760.43,0 0,-6.99 -760.43,0 0,6.99 z m -1299.57,0 1254.57,0 0,-6.99 -1254.57,0 0,6.99 z m 1270.59,-5.98 11.99,0 0,-3.01 -11.99,0 0,3.01 z m -1.02,-3.01 13.01,0 0,-3 -13.01,0 0,3 z m -0.98,-3 13.99,0 0,-2 -13.99,0 0,2 z m 30,5 761.41,0 0,-7 -761.41,0 0,7 z m -1298.59,0 1253.59,0 0,-8.01 -1253.59,0 0,8.01 z m 1267.58,-7 15,0 0,-3 -15,0 0,3 z m -0.98,-3 15.98,0 0,-3.01 -15.98,0 0,3.01 z m 30.98,3 762.42,0 0,-6.99 -762.42,0 0,6.99 z M 0,1180.44 l 1252.58,0 0,-6.99 -1252.58,0 0,6.99 z m 1265.59,-5 16.99,0 0,-1.99 -16.99,0 0,1.99 z m 0,-1.99 18,0 0,-0.98 -18,0 0,0.98 z m -1.02,-0.98 19.02,0 0,-3.01 -19.02,0 0,3.01 z m 32.03,1.99 763.4,0 0,-6.01 -763.4,0 0,6.01 z m -33.01,-5 20,0 0,-1.99 -20,0 0,1.99 z M 0,1173.45 l 1251.6,0 0,-7 -1251.6,0 0,7 z m 1262.58,-5.98 21.01,0 0,-3.01 -21.01,0 0,3.01 z m -0.98,-3.01 21.99,0 0,-3.01 -21.99,0 0,3.01 z m 33.99,3.99 764.41,0 0,-7 -764.41,0 0,7 z m -1295.59,-2 1250.59,0 0,-6.99 -1250.59,0 0,6.99 z m 1260.59,-5 23,0 0,-3 -23,0 0,3 z m -1.02,-3 24.02,0 0,-3.01 -24.02,0 0,3.01 z m 35,3 765.43,0 0,-6.99 -765.43,0 0,6.99 z m -35.98,-6.01 25,0 0,-0.98 -25,0 0,0.98 z m 0,-0.98 25.98,0 0,-1.99 -25.98,0 0,1.99 z m -1258.59,5 1249.57,0 0,-6.99 -1249.57,0 0,6.99 z m 1257.58,-6.99 26.99,0 0,-2.03 -26.99,0 0,2.03 z m -0.98,-2.03 27.97,0 0,-2.97 -27.97,0 0,2.97 z m 36.99,4.02 766.41,0 0,-6.99 -766.41,0 0,6.99 z M 0,1152.47 l 1248.59,0 0,-7.03 -1248.59,0 0,7.03 z m 1255.59,-5 28.98,0 0,-3.01 -28.98,0 0,3.01 z m -1.02,-3.01 30,0 0,-3.01 -30,0 0,3.01 z m 38.01,3.01 767.42,0 0,-7.03 -767.42,0 0,7.03 z m -38.99,-6.02 30.98,0 0,-3 -30.98,0 0,3 z M 0,1145.44 l 1247.58,0 0,-6.99 -1247.58,0 0,6.99 z m 1252.58,-6.99 31.99,0 0,-2 -31.99,0 0,2 z m 0,-2 33.01,0 0,-1.01 -33.01,0 0,1.01 z m -0.98,-1.01 33.99,0 0,-1.99 -33.99,0 0,1.99 z m 40,5 768.4,0 0,-6.99 -768.4,0 0,6.99 z M 0,1138.45 l 1246.6,0 0,-7 -1246.6,0 0,7 z m 1250.59,-5 35,0 0,-3.01 -35,0 0,3.01 z m -1.02,-3.01 36.02,0 0,-2.97 -36.02,0 0,2.97 z m 41.02,3.01 769.41,0 0,-7 -769.41,0 0,7 z m -42,-5.98 37,0 0,-3.01 -37,0 0,3.01 z M 0,1131.45 l 1245.59,0 0,-6.99 -1245.59,0 0,6.99 z m 1247.58,-6.99 38.01,0 0,-3.01 -38.01,0 0,3.01 z m -0.98,-3.01 38.99,0 0,-1.99 -38.99,0 0,1.99 z m 42.97,5 770.43,0 0,-6.99 -770.43,0 0,6.99 z M 0,1124.46 l 1244.57,0 0,-6.99 -1244.57,0 0,6.99 z m 1245.59,-5 40,0 0,-1.99 -40,0 0,1.99 z m 0,-1.99 41.01,0 0,-1.02 -41.01,0 0,1.02 z m -1.02,-1.02 42.03,0 0,-3 -42.03,0 0,3 z M 0,1117.47 l 1243.59,0 0,-4.02 -1243.59,0 0,4.02 z m 1288.59,1.99 771.41,0 0,-6.99 -771.41,0 0,6.99 z m -1.01,-6.99 772.42,0 0,-7.03 -772.42,0 0,7.03 z M 0,1113.45 l 1286.6,0 0,-8.01 -1286.6,0 0,8.01 z m 0,-8.01 2060,0 0,-1095.58844 -2060,0 L 0,1105.44 Z"
         id="path38"
         inkscape:connector-curvature="0" /></clipPath><clipPath
       clipPathUnits="userSpaceOnUse"
       id="clipPath42"><path
         d="m 0,1219.85 2060,0 0,-1209.99844 -2060,0 L 0,1219.85 Z"
         id="path44"
         inkscape:connector-curvature="0" /></clipPath><clipPath
       clipPathUnits="userSpaceOnUse"
       id="clipPath56"><path
         d="m 0,9.85156 2060,0 0,1210.00004 -2060,0 L 0,9.85156 Z"
         id="path58"
         inkscape:connector-curvature="0" /></clipPath><clipPath
       clipPathUnits="userSpaceOnUse"
       id="clipPath178"><path
         d="m 0,1219.85 2060,0 0,-840.389 -2060,0 0,840.389 z m 0,-840.389 1323.59,0 0,-1.012 -1323.59,0 0,1.012 z m 0,-1.012 1327.58,0 0,-0.98 -1327.58,0 0,0.98 z m 0,-0.98 1330.59,0 0,-1.02 -1330.59,0 0,1.02 z m 0,-1.02 1333.59,0 0,-1.008 -1333.59,0 0,1.008 z m 0,-1.008 1337.58,0 0,-0.98 -1337.58,0 0,0.98 z m 0,-0.98 1340.59,0 0,-1.012 -1340.59,0 0,1.012 z m 0,-1.012 1343.59,0 0,-0.98 -1343.59,0 0,0.98 z m 0,-0.98 1347.58,0 0,-1.02 -1347.58,0 0,1.02 z m 0,-1.02 1350.59,0 0,-1.008 -1350.59,0 0,1.008 z m 0,-1.008 1353.59,0 0,-0.98 -1353.59,0 0,0.98 z m 0,-0.98 1357.58,0 0,-1.012 -1357.58,0 0,1.012 z m 0,-1.012 1360.59,0 0,-0.98 -1360.59,0 0,0.98 z m 0,-0.98 1362.58,0 0,-1.02 -1362.58,0 0,1.02 z m 0,-1.02 1361.6,0 0,-1.008 -1361.6,0 0,1.008 z m 0,-1.008 1358.59,0 0,-0.98 -1358.59,0 0,0.98 z m 0,-0.98 1355.59,0 0,-1.012 -1355.59,0 0,1.012 z m 0,-1.012 1351.6,0 0,-0.98 -1351.6,0 0,0.98 z m 0,-0.98 1348.59,0 0,-1.02 -1348.59,0 0,1.02 z m 0,-1.02 1345.59,0 0,-1.008 -1345.59,0 0,1.008 z m 0,-1.008 1341.6,0 0,-0.98 -1341.6,0 0,0.98 z m 0,-0.98 1338.59,0 0,-1.012 -1338.59,0 0,1.012 z m 0,-1.012 1335.59,0 0,-0.98 -1335.59,0 0,0.98 z m 0,-0.98 1331.6,0 0,-1.02 -1331.6,0 0,1.02 z m 0,-1.02 1328.59,0 0,-1.008 -1328.59,0 0,1.008 z m 1370.59,23.012 689.41,0 0,-25 -689.41,0 0,25 z M 0,355.441 l 1325.59,0 0,-0.98 -1325.59,0 0,0.98 z m 0,-0.98 2060,0 0,-344.60944 -2060,0 0,344.60944 z"
         id="path180"
         inkscape:connector-curvature="0" /></clipPath><clipPath
       clipPathUnits="userSpaceOnUse"
       id="clipPath184"><path
         d="m 0,1219.85 2060,0 0,-1209.99844 -2060,0 L 0,1219.85 Z"
         id="path186"
         inkscape:connector-curvature="0" /></clipPath><clipPath
       clipPathUnits="userSpaceOnUse"
       id="clipPath196"><path
         d="m 0,9.85156 2060,0 0,1210.00004 -2060,0 L 0,9.85156 Z"
         id="path198"
         inkscape:connector-curvature="0" /></clipPath><clipPath
       clipPathUnits="userSpaceOnUse"
       id="clipPath222"><path
         d="m 0,1219.85 2060,0 0,-499.409 -2060,0 0,499.409 z m 0,-499.409 1324.57,0 0,-0.98 -1324.57,0 0,0.98 z m 0,-0.98 1327.58,0 0,-1.012 -1327.58,0 0,1.012 z m 0,-1.012 1331.6,0 0,-0.98 -1331.6,0 0,0.98 z m 0,-0.98 1334.57,0 0,-1.02 -1334.57,0 0,1.02 z m 0,-1.02 1337.58,0 0,-1.008 -1337.58,0 0,1.008 z m 0,-1.008 1341.6,0 0,-0.98 -1341.6,0 0,0.98 z m 0,-0.98 1344.57,0 0,-1.012 -1344.57,0 0,1.012 z m 0,-1.012 1347.58,0 0,-0.98 -1347.58,0 0,0.98 z m 0,-0.98 1351.6,0 0,-1.02 -1351.6,0 0,1.02 z m 0,-1.02 1354.57,0 0,-1.008 -1354.57,0 0,1.008 z m 0,-1.008 1357.58,0 0,-0.98 -1357.58,0 0,0.98 z m 0,-0.98 1361.6,0 0,-1.012 -1361.6,0 0,1.012 z m 0,-1.012 1362.58,0 0,-0.98 -1362.58,0 0,0.98 z m 0,-0.98 1361.6,0 0,-1.02 -1361.6,0 0,1.02 z m 0,-1.02 1358.59,0 0,-1.008 -1358.59,0 0,1.008 z m 0,-1.008 1354.57,0 0,-0.98 -1354.57,0 0,0.98 z m 0,-0.98 1351.6,0 0,-1.012 -1351.6,0 0,1.012 z m 0,-1.012 1348.59,0 0,-0.98 -1348.59,0 0,0.98 z m 0,-0.98 1344.57,0 0,-1.02 -1344.57,0 0,1.02 z m 0,-1.02 1341.6,0 0,-1.008 -1341.6,0 0,1.008 z m 0,-1.008 1338.59,0 0,-0.98 -1338.59,0 0,0.98 z m 0,-0.98 1334.57,0 0,-1.012 -1334.57,0 0,1.012 z m 0,-1.012 1331.6,0 0,-0.98 -1331.6,0 0,0.98 z m 0,-0.98 1328.59,0 0,-1.02 -1328.59,0 0,1.02 z m 1370.59,22.972 689.41,0 0,-25 -689.41,0 0,25 z M 0,696.449 l 1324.57,0 0,-1.008 -1324.57,0 0,1.008 z m 0,-1.008 2060,0 0,-685.58944 -2060,0 0,685.58944 z"
         id="path224"
         inkscape:connector-curvature="0" /></clipPath><clipPath
       clipPathUnits="userSpaceOnUse"
       id="clipPath228"><path
         d="m 0,1219.85 2060,0 0,-1209.99844 -2060,0 L 0,1219.85 Z"
         id="path230"
         inkscape:connector-curvature="0" /></clipPath><clipPath
       clipPathUnits="userSpaceOnUse"
       id="clipPath240"><path
         d="m 0,9.85156 2060,0 0,1210.00004 -2060,0 L 0,9.85156 Z"
         id="path242"
         inkscape:connector-curvature="0" /></clipPath><clipPath
       clipPathUnits="userSpaceOnUse"
       id="clipPath254"><path
         d="m 0,1219.85 2060,0 0,-670.389 -2060,0 0,670.389 z m 1065.59,-670.389 994.41,0 0,-1.012 -994.41,0 0,1.012 z m -3.01,-1.012 997.42,0 0,-0.98 -997.42,0 0,0.98 z m -3.01,-0.98 1000.43,0 0,-1.02 -1000.43,0 0,1.02 z m -3.98,-1.02 1004.41,0 0,-1.008 -1004.41,0 0,1.008 z m -3.01,-1.008 1007.42,0 0,-0.98 -1007.42,0 0,0.98 z m -3.01,-0.98 1010.43,0 0,-1.012 -1010.43,0 0,1.012 z m -3.98,-1.012 1014.41,0 0,-0.98 -1014.41,0 0,0.98 z m -3.01,-0.98 1017.42,0 0,-1.02 -1017.42,0 0,1.02 z m -3.01,-1.02 1020.43,0 0,-1.008 -1020.43,0 0,1.008 z m -3.98,-1.008 1024.41,0 0,-0.98 -1024.41,0 0,0.98 z m -3.01,-0.98 1027.42,0 0,-1.012 -1027.42,0 0,1.012 z m -3.01,-1.012 1030.43,0 0,-0.98 -1030.43,0 0,0.98 z m -0.98,-0.98 1031.41,0 0,-1.02 -1031.41,0 0,1.02 z m 3.01,-1.02 1028.4,0 0,-1.008 -1028.4,0 0,1.008 z m 3.99,-1.008 1024.41,0 0,-0.98 -1024.41,0 0,0.98 z m 3,-0.98 1021.41,0 0,-1.012 -1021.41,0 0,1.012 z m 3.01,-1.012 1018.4,0 0,-0.98 -1018.4,0 0,0.98 z m 3.99,-0.98 1014.41,0 0,-1.02 -1014.41,0 0,1.02 z m 3,-1.02 1011.41,0 0,-1.008 -1011.41,0 0,1.008 z m 3.01,-1.008 1008.4,0 0,-0.98 -1008.4,0 0,0.98 z m 3.99,-0.98 1004.41,0 0,-1.012 -1004.41,0 0,1.012 z m 3,-1.012 1001.41,0 0,-0.98 -1001.41,0 0,0.98 z m 3.01,-0.98 998.4,0 0,-1.02 -998.4,0 0,1.02 z m 3.99,-1.02 994.41,0 0,-1.008 -994.41,0 0,1.008 z M 0,549.461 l 1021.6,0 0,-24.02 -1021.6,0 0,24.02 z m 0,-24.02 2060,0 0,-515.58944 -2060,0 0,515.58944 z"
         id="path256"
         inkscape:connector-curvature="0" /></clipPath><clipPath
       clipPathUnits="userSpaceOnUse"
       id="clipPath260"><path
         d="m 0,1219.85 2060,0 0,-1209.99844 -2060,0 L 0,1219.85 Z"
         id="path262"
         inkscape:connector-curvature="0" /></clipPath><clipPath
       clipPathUnits="userSpaceOnUse"
       id="clipPath272"><path
         d="m 0,9.85156 2060,0 0,1210.00004 -2060,0 L 0,9.85156 Z"
         id="path274"
         inkscape:connector-curvature="0" /></clipPath><clipPath
       clipPathUnits="userSpaceOnUse"
       id="clipPath290"><path
         d="m 0,1219.85 2060,0 0,-329.409 -2060,0 0,329.409 z m 1065.59,-329.409 994.41,0 0,-0.98 -994.41,0 0,0.98 z m -3.01,-0.98 997.42,0 0,-1.012 -997.42,0 0,1.012 z m -3.99,-1.012 1001.41,0 0,-0.98 -1001.41,0 0,0.98 z m -3,-0.98 1004.41,0 0,-1.02 -1004.41,0 0,1.02 z m -3.01,-1.02 1007.42,0 0,-1.008 -1007.42,0 0,1.008 z m -3.99,-1.008 1011.41,0 0,-0.98 -1011.41,0 0,0.98 z m -3,-0.98 1014.41,0 0,-1.012 -1014.41,0 0,1.012 z m -3.01,-1.012 1017.42,0 0,-0.98 -1017.42,0 0,0.98 z m -3.99,-0.98 1021.41,0 0,-1.02 -1021.41,0 0,1.02 z m -3,-1.02 1024.41,0 0,-1.008 -1024.41,0 0,1.008 z m -3.01,-1.008 1027.42,0 0,-0.98 -1027.42,0 0,0.98 z m -3.99,-0.98 1031.41,0 0,-1.992 -1031.41,0 0,1.992 z m 3.99,-1.992 1027.42,0 0,-1.02 -1027.42,0 0,1.02 z m 3.01,-1.02 1024.41,0 0,-1.008 -1024.41,0 0,1.008 z m 3,-1.008 1021.41,0 0,-0.98 -1021.41,0 0,0.98 z m 3.99,-0.98 1017.42,0 0,-1.012 -1017.42,0 0,1.012 z m 3.01,-1.012 1014.41,0 0,-0.98 -1014.41,0 0,0.98 z m 3,-0.98 1011.41,0 0,-1.02 -1011.41,0 0,1.02 z m 3.99,-1.02 1007.42,0 0,-1.008 -1007.42,0 0,1.008 z m 3.01,-1.008 1004.41,0 0,-0.98 -1004.41,0 0,0.98 z m 3,-0.98 1001.41,0 0,-1.012 -1001.41,0 0,1.012 z m 3.99,-1.012 997.42,0 0,-0.98 -997.42,0 0,0.98 z m 3.01,-0.98 994.41,0 0,-1.02 -994.41,0 0,1.02 z M 0,890.441 l 1021.6,0 0,-23.992 -1021.6,0 0,23.992 z m 0,-23.992 2060,0 0,-856.59744 -2060,0 0,856.59744 z"
         id="path292"
         inkscape:connector-curvature="0" /></clipPath><clipPath
       clipPathUnits="userSpaceOnUse"
       id="clipPath296"><path
         d="m 0,1219.85 2060,0 0,-1209.99844 -2060,0 L 0,1219.85 Z"
         id="path298"
         inkscape:connector-curvature="0" /></clipPath><clipPath
       clipPathUnits="userSpaceOnUse"
       id="clipPath308"><path
         d="m 0,9.85156 2060,0 0,1210.00004 -2060,0 L 0,9.85156 Z"
         id="path310"
         inkscape:connector-curvature="0" /></clipPath><marker
       inkscape:stockid="Arrow1Mend"
       orient="auto"
       refY="0"
       refX="0"
       id="Arrow1Mend-3"
       style="overflow:visible"
       inkscape:isstock="true"
       inkscape:collect="always"><path
         inkscape:connector-curvature="0"
         id="path4897-6"
         d="M 0,0 5,-5 -12.5,0 5,5 0,0 Z"
         style="fill:#000000;fill-opacity:1;fill-rule:evenodd;stroke:#000000;stroke-width:1pt;stroke-opacity:1"
         transform="matrix(-0.4,0,0,-0.4,-4,0)" /></marker><marker
       inkscape:stockid="Arrow1Mend"
       orient="auto"
       refY="0"
       refX="0"
       id="Arrow1Mend-5"
       style="overflow:visible"
       inkscape:isstock="true"><path
         inkscape:connector-curvature="0"
         id="path4897-3"
         d="M 0,0 5,-5 -12.5,0 5,5 0,0 Z"
         style="fill:#0099d7;fill-opacity:1;fill-rule:evenodd;stroke:#0099d7;stroke-width:1pt;stroke-opacity:1"
         transform="matrix(-0.4,0,0,-0.4,-4,0)" /></marker><marker
       inkscape:stockid="Arrow1Mend"
       orient="auto"
       refY="0"
       refX="0"
       id="Arrow1Mend-6"
       style="overflow:visible"
       inkscape:isstock="true"><path
         inkscape:connector-curvature="0"
         id="path4897-2"
         d="M 0,0 5,-5 -12.5,0 5,5 0,0 Z"
         style="fill:#0099d7;fill-opacity:1;fill-rule:evenodd;stroke:#0099d7;stroke-width:1pt;stroke-opacity:1"
         transform="matrix(-0.4,0,0,-0.4,-4,0)" /></marker><marker
       inkscape:stockid="Arrow1Mend"
       orient="auto"
       refY="0"
       refX="0"
       id="Arrow1Mend-1"
       style="overflow:visible"
       inkscape:isstock="true"><path
         inkscape:connector-curvature="0"
         id="path4897-27"
         d="M 0,0 5,-5 -12.5,0 5,5 0,0 Z"
         style="fill:#0099d7;fill-opacity:1;fill-rule:evenodd;stroke:#0099d7;stroke-width:1pt;stroke-opacity:1"
         transform="matrix(-0.4,0,0,-0.4,-4,0)" /></marker><marker
       inkscape:stockid="Arrow1Mend"
       orient="auto"
       refY="0"
       refX="0"
       id="Arrow1Mend-3-9"
       style="overflow:visible"
       inkscape:isstock="true"><path
         inkscape:connector-curvature="0"
         id="path4897-6-3"
         d="M 0,0 5,-5 -12.5,0 5,5 0,0 Z"
         style="fill:#000000;fill-opacity:1;fill-rule:evenodd;stroke:#000000;stroke-width:1pt;stroke-opacity:1"
         transform="matrix(-0.4,0,0,-0.4,-4,0)" /></marker><marker
       inkscape:stockid="Arrow1Mend"
       orient="auto"
       refY="0"
       refX="0"
       id="Arrow1Mend-61"
       style="overflow:visible"
       inkscape:isstock="true"><path
         inkscape:connector-curvature="0"
         id="path4897-8"
         d="M 0,0 5,-5 -12.5,0 5,5 0,0 Z"
         style="fill:#0099d7;fill-opacity:1;fill-rule:evenodd;stroke:#0099d7;stroke-width:1pt;stroke-opacity:1"
         transform="matrix(-0.4,0,0,-0.4,-4,0)" /></marker><marker
       inkscape:isstock="true"
       style="overflow:visible"
       id="marker10754-2"
       refX="0"
       refY="0"
       orient="auto"
       inkscape:stockid="Arrow1Mend"><path
         transform="matrix(-0.4,0,0,-0.4,-4,0)"
         style="fill:#0099d7;fill-opacity:1;fill-rule:evenodd;stroke:#0099d7;stroke-width:1pt;stroke-opacity:1"
         d="M 0,0 5,-5 -12.5,0 5,5 0,0 Z"
         id="path10756-2"
         inkscape:connector-curvature="0" /></marker><marker
       inkscape:stockid="Arrow1Mend"
       orient="auto"
       refY="0"
       refX="0"
       id="Arrow1Mend-3-3"
       style="overflow:visible"
       inkscape:isstock="true"
       inkscape:collect="always"><path
         inkscape:connector-curvature="0"
         id="path4897-6-1"
         d="M 0,0 5,-5 -12.5,0 5,5 0,0 Z"
         style="fill:#000000;fill-opacity:1;fill-rule:evenodd;stroke:#000000;stroke-width:1pt;stroke-opacity:1"
         transform="matrix(-0.4,0,0,-0.4,-4,0)" /></marker><marker
       inkscape:stockid="Arrow1Mend"
       orient="auto"
       refY="0"
       refX="0"
       id="Arrow1Mend-3-3-4"
       style="overflow:visible"
       inkscape:isstock="true"
       inkscape:collect="always"><path
         inkscape:connector-curvature="0"
         id="path4897-6-1-7"
         d="M 0,0 5,-5 -12.5,0 5,5 0,0 Z"
         style="fill:#000000;fill-opacity:1;fill-rule:evenodd;stroke:#000000;stroke-width:1pt;stroke-opacity:1"
         transform="matrix(-0.4,0,0,-0.4,-4,0)" /></marker></defs><sodipodi:namedview
     pagecolor="#ffffff"
     bordercolor="#666666"
     borderopacity="1"
     objecttolerance="10"
     gridtolerance="10"
     guidetolerance="10"
     inkscape:pageopacity="0"
     inkscape:pageshadow="2"
     inkscape:window-width="1600"
     inkscape:window-height="863"
     id="namedview4"
     showgrid="false"
     inkscape:zoom="4.6027433"
     inkscape:cx="107.9817"
     inkscape:cy="74.86036"
     inkscape:window-x="1920"
     inkscape:window-y="0"
     inkscape:window-maximized="1"
     inkscape:current-layer="g10" /><g
     id="g10"
     inkscape:groupmode="layer"
     inkscape:label="ink_ext_XXXXXX"
     transform="matrix(1.25,0,0,-1.25,0,152.5)"><text
       transform="scale(1.000355,-0.99964513)"
       style="font-variant:normal;font-size:10.64436817px;font-family:f-0;-inkscape-font-specification:f-0-1;writing-mode:lr-tb;fill:#ff0000;fill-opacity:1;fill-rule:nonzero;stroke:none"
       id="text24"
       x="155.06021"
       y="-30.964233"><tspan
         x="155.06021"
         y="-30.964233"
         id="tspan26">δ</tspan></text>
<text
       transform="scale(1.000355,-0.99964513)"
       style="font-variant:normal;font-size:10.22794437px;font-family:f-1;-inkscape-font-specification:f-1-0;writing-mode:lr-tb;fill:#ff0000;fill-opacity:1;fill-rule:nonzero;stroke:none"
       id="text28"
       x="161.16029"
       y="-30.964233"><tspan
         x="161.16029"
         y="-30.964233"
         id="tspan30">t</tspan></text>
<path
       d="m 104.34565,92.66796 5.38722,0"
       style="fill:none;stroke:#ff0000;stroke-width:1.07760727;stroke-linecap:butt;stroke-linejoin:miter;stroke-miterlimit:10;stroke-dasharray:none;stroke-opacity:1"
       id="path68"
       inkscape:connector-curvature="0" /><text
       transform="scale(0.9999575,-1.0000425)"
       style="font-variant:normal;font-size:4.31041861px;font-family:f-2;-inkscape-font-specification:f-2-0;writing-mode:lr-tb;fill:#ff0000;fill-opacity:1;fill-rule:nonzero;stroke:none"
       id="text72"
       x="107.94008"
       y="-90.868408"><tspan
         x="107.94008"
         y="-90.868408"
         id="tspan74">X</tspan></text>
<text
       transform="scale(0.9999575,-1.0000425)"
       style="font-variant:normal;font-size:4.31041861px;font-family:f-2;-inkscape-font-specification:f-2-0;writing-mode:lr-tb;fill:#0000ff;fill-opacity:1;fill-rule:nonzero;stroke:none"
       id="text78"
       x="102.55155"
       y="-90.868408"><tspan
         x="102.55155"
         y="-90.868408"
         id="tspan80">X</tspan></text>
<path
       inkscape:connector-curvature="0"
       id="path82"
       style="fill:#000000;fill-opacity:1;fill-rule:evenodd;stroke:none"
       d="m 30.111191,92.668032 c 0,-0.661405 -0.536724,-1.197202 -1.198213,-1.197202 -0.661069,0 -1.194507,0.535797 -1.194507,1.197202 0,0.662164 0.533438,1.197876 1.194507,1.197876 0.661489,0 1.198213,-0.535712 1.198213,-1.197876" /><path
       d="m 30.11119,92.66796 c 0,-0.661433 -0.536785,-1.197166 -1.197911,-1.197166 -0.661462,0 -1.19454,0.535733 -1.19454,1.197166 0,0.662105 0.533078,1.197839 1.19454,1.197839 0.661126,0 1.197911,-0.535734 1.197911,-1.197839 z"
       style="fill:none;stroke:#000000;stroke-width:0.17960039;stroke-linecap:butt;stroke-linejoin:miter;stroke-miterlimit:10;stroke-dasharray:none;stroke-opacity:1"
       id="path86"
       inkscape:connector-curvature="0" /><path
       inkscape:connector-curvature="0"
       id="path88"
       style="fill:#000000;fill-opacity:1;fill-rule:evenodd;stroke:none"
       d="m 87.581954,92.668032 c 0,-0.661405 -0.536639,-1.197202 -1.197961,-1.197202 -0.661321,0 -1.19796,0.535797 -1.19796,1.197202 0,0.662164 0.536639,1.197876 1.19796,1.197876 0.661322,0 1.197961,-0.535712 1.197961,-1.197876" /><path
       d="m 87.582485,92.66796 c 0,-0.661433 -0.536614,-1.197166 -1.19791,-1.197166 -0.66213,0 -1.19791,0.535733 -1.19791,1.197166 0,0.662105 0.53578,1.197839 1.19791,1.197839 0.661296,0 1.19791,-0.535734 1.19791,-1.197839 z"
       style="fill:none;stroke:#000000;stroke-width:0.17960039;stroke-linecap:butt;stroke-linejoin:miter;stroke-miterlimit:10;stroke-dasharray:none;stroke-opacity:1"
       id="path92"
       inkscape:connector-curvature="0" /><path
       inkscape:connector-curvature="0"
       id="path94"
       style="fill:#000000;fill-opacity:1;fill-rule:evenodd;stroke:none"
       d="m 145.05289,92.668032 c 0,-0.661405 -0.53664,-1.197202 -1.19796,-1.197202 -0.66133,0 -1.19797,0.535797 -1.19797,1.197202 0,0.662164 0.53664,1.197876 1.19797,1.197876 0.66132,0 1.19796,-0.535712 1.19796,-1.197876" /><path
       d="m 145.05269,92.66796 c 0,-0.661433 -0.53662,-1.197166 -1.19791,-1.197166 -0.66129,0 -1.19791,0.535733 -1.19791,1.197166 0,0.662105 0.53662,1.197839 1.19791,1.197839 0.66129,0 1.19791,-0.535734 1.19791,-1.197839 z"
       style="fill:none;stroke:#000000;stroke-width:0.17960039;stroke-linecap:butt;stroke-linejoin:miter;stroke-miterlimit:10;stroke-dasharray:none;stroke-opacity:1"
       id="path98"
       inkscape:connector-curvature="0" /><path
       inkscape:connector-curvature="0"
       id="path100"
       style="fill:#000000;fill-opacity:1;fill-rule:evenodd;stroke:none"
       d="m 116.317,78.301015 c 0,-0.661405 -0.5358,-1.198129 -1.19796,-1.198129 -0.66132,0 -1.19712,0.536724 -1.19712,1.198129 0,0.661153 0.5358,1.194591 1.19712,1.194591 0.66216,0 1.19796,-0.533438 1.19796,-1.194591" /><path
       d="m 116.31717,78.300957 c 0,-0.661431 -0.53662,-1.201462 -1.19707,-1.201462 -0.66214,0 -1.19791,0.540031 -1.19791,1.201462 0,0.65781 0.53577,1.194555 1.19791,1.194555 0.66045,0 1.19707,-0.536745 1.19707,-1.194555 z"
       style="fill:none;stroke:#000000;stroke-width:0.17960039;stroke-linecap:butt;stroke-linejoin:miter;stroke-miterlimit:10;stroke-dasharray:none;stroke-opacity:1"
       id="path104"
       inkscape:connector-curvature="0" /><path
       inkscape:connector-curvature="0"
       id="path106"
       style="fill:#000000;fill-opacity:1;fill-rule:evenodd;stroke:none"
       d="m 58.846909,78.301015 c 0,-0.661405 -0.536807,-1.198129 -1.197876,-1.198129 -0.66149,0 -1.198213,0.536724 -1.198213,1.198129 0,0.661153 0.536723,1.194591 1.198213,1.194591 0.661069,0 1.197876,-0.533438 1.197876,-1.194591" /><path
       d="m 58.846207,78.300957 c 0,-0.661431 -0.535774,-1.201462 -1.19791,-1.201462 -0.661125,0 -1.197826,0.540031 -1.197826,1.201462 0,0.65781 0.536701,1.194555 1.197826,1.194555 0.662136,0 1.19791,-0.536745 1.19791,-1.194555 z"
       style="fill:none;stroke:#000000;stroke-width:0.17960039;stroke-linecap:butt;stroke-linejoin:miter;stroke-miterlimit:10;stroke-dasharray:none;stroke-opacity:1"
       id="path110"
       inkscape:connector-curvature="0" /><path
       inkscape:connector-curvature="0"
       id="path112"
       style="fill:#000000;fill-opacity:1;fill-rule:evenodd;stroke:none"
       d="m 30.111191,63.929786 c 0,-0.66149 -0.536724,-1.19459 -1.198213,-1.19459 -0.661069,0 -1.194507,0.5331 -1.194507,1.19459 0,0.661069 0.533438,1.197792 1.194507,1.197792 0.661489,0 1.198213,-0.536723 1.198213,-1.197792" /><path
       d="m 30.11119,63.929659 c 0,-0.661432 -0.536785,-1.198177 -1.197911,-1.198177 -0.661462,0 -1.19454,0.536745 -1.19454,1.198177 0,0.66118 0.533078,1.19784 1.19454,1.19784 0.661126,0 1.197911,-0.53666 1.197911,-1.19784 z"
       style="fill:none;stroke:#000000;stroke-width:0.17960039;stroke-linecap:butt;stroke-linejoin:miter;stroke-miterlimit:10;stroke-dasharray:none;stroke-opacity:1"
       id="path116"
       inkscape:connector-curvature="0" /><path
       inkscape:connector-curvature="0"
       id="path118"
       style="fill:#000000;fill-opacity:1;fill-rule:evenodd;stroke:none"
       d="m 87.581954,63.929786 c 0,-0.66149 -0.536639,-1.19459 -1.197961,-1.19459 -0.661321,0 -1.19796,0.5331 -1.19796,1.19459 0,0.661069 0.536639,1.197792 1.19796,1.197792 0.661322,0 1.197961,-0.536723 1.197961,-1.197792" /><path
       d="m 87.582485,63.929659 c 0,-0.661432 -0.536614,-1.198177 -1.19791,-1.198177 -0.66213,0 -1.19791,0.536745 -1.19791,1.198177 0,0.66118 0.53578,1.19784 1.19791,1.19784 0.661296,0 1.19791,-0.53666 1.19791,-1.19784 z"
       style="fill:none;stroke:#000000;stroke-width:0.17960039;stroke-linecap:butt;stroke-linejoin:miter;stroke-miterlimit:10;stroke-dasharray:none;stroke-opacity:1"
       id="path122"
       inkscape:connector-curvature="0" /><path
       inkscape:connector-curvature="0"
       id="path124"
       style="fill:#000000;fill-opacity:1;fill-rule:evenodd;stroke:none"
       d="m 145.05289,63.929786 c 0,-0.66149 -0.53664,-1.19459 -1.19796,-1.19459 -0.66133,0 -1.19797,0.5331 -1.19797,1.19459 0,0.661069 0.53664,1.197792 1.19797,1.197792 0.66132,0 1.19796,-0.536723 1.19796,-1.197792" /><path
       d="m 145.05269,63.929659 c 0,-0.661432 -0.53662,-1.198177 -1.19791,-1.198177 -0.66129,0 -1.19791,0.536745 -1.19791,1.198177 0,0.66118 0.53662,1.19784 1.19791,1.19784 0.66129,0 1.19791,-0.53666 1.19791,-1.19784 z"
       style="fill:none;stroke:#000000;stroke-width:0.17960039;stroke-linecap:butt;stroke-linejoin:miter;stroke-miterlimit:10;stroke-dasharray:none;stroke-opacity:1"
       id="path128"
       inkscape:connector-curvature="0" /><path
       inkscape:connector-curvature="0"
       id="path130"
       style="fill:#000000;fill-opacity:1;fill-rule:evenodd;stroke:none"
       d="m 116.317,49.561759 c 0,-0.66149 -0.5358,-1.197203 -1.19796,-1.197203 -0.66132,0 -1.19712,0.535713 -1.19712,1.197203 0,0.662079 0.5358,1.197792 1.19712,1.197792 0.66216,0 1.19796,-0.535713 1.19796,-1.197792" /><path
       d="m 116.31717,49.561731 c 0,-0.661516 -0.53662,-1.197251 -1.19707,-1.197251 -0.66214,0 -1.19791,0.535735 -1.19791,1.197251 0,0.662105 0.53577,1.19784 1.19791,1.19784 0.66045,0 1.19707,-0.535735 1.19707,-1.19784 z"
       style="fill:none;stroke:#000000;stroke-width:0.17960039;stroke-linecap:butt;stroke-linejoin:miter;stroke-miterlimit:10;stroke-dasharray:none;stroke-opacity:1"
       id="path134"
       inkscape:connector-curvature="0" /><path
       inkscape:connector-curvature="0"
       id="path136"
       style="fill:#000000;fill-opacity:1;fill-rule:evenodd;stroke:none"
       d="m 58.846909,49.561759 c 0,-0.66149 -0.536807,-1.197203 -1.197876,-1.197203 -0.66149,0 -1.198213,0.535713 -1.198213,1.197203 0,0.662079 0.536723,1.197792 1.198213,1.197792 0.661069,0 1.197876,-0.535713 1.197876,-1.197792" /><path
       d="m 58.846207,49.561731 c 0,-0.661516 -0.535774,-1.197251 -1.19791,-1.197251 -0.661125,0 -1.197826,0.535735 -1.197826,1.197251 0,0.662105 0.536701,1.19784 1.197826,1.19784 0.662136,0 1.19791,-0.535735 1.19791,-1.19784 z"
       style="fill:none;stroke:#000000;stroke-width:0.17960039;stroke-linecap:butt;stroke-linejoin:miter;stroke-miterlimit:10;stroke-dasharray:none;stroke-opacity:1"
       id="path140"
       inkscape:connector-curvature="0" /><path
       d="m 115.1201,99.852472 57.46936,0 0,-14.368013 -57.46936,0 0,14.368013 z"
       style="fill:none;stroke:#000000;stroke-width:0.35919991;stroke-linecap:butt;stroke-linejoin:miter;stroke-miterlimit:10;stroke-dasharray:none;stroke-opacity:1"
       id="path144"
       inkscape:connector-curvature="0" /><path
       d="m 28.913279,85.484459 57.470453,0 0,-14.371299 -57.470453,0 0,14.371299 z"
       style="fill:none;stroke:#000000;stroke-width:0.35919991;stroke-linecap:butt;stroke-linejoin:miter;stroke-miterlimit:10;stroke-dasharray:none;stroke-opacity:1"
       id="path148"
       inkscape:connector-curvature="0" /><path
       d="m 86.384575,85.484459 57.470205,0 0,-14.371299 -57.470205,0 0,14.371299 z"
       style="fill:none;stroke:#000000;stroke-width:0.35919991;stroke-linecap:butt;stroke-linejoin:miter;stroke-miterlimit:10;stroke-dasharray:none;stroke-opacity:1"
       id="path152"
       inkscape:connector-curvature="0" /><path
       d="m 0.18125565,71.11316 57.46805235,0 0,-14.368013 -57.46805235,0 0,14.368013 z"
       style="fill:none;stroke:#000000;stroke-width:0.35919991;stroke-linecap:butt;stroke-linejoin:miter;stroke-miterlimit:10;stroke-dasharray:none;stroke-opacity:1"
       id="path156"
       inkscape:connector-curvature="0" /><path
       d="m 57.648297,71.11316 57.470113,0 0,-14.368013 -57.470113,0 0,14.368013 z"
       style="fill:none;stroke:#000000;stroke-width:0.35919991;stroke-linecap:butt;stroke-linejoin:miter;stroke-miterlimit:10;stroke-dasharray:none;stroke-opacity:1"
       id="path160"
       inkscape:connector-curvature="0" /><path
       d="m 115.1201,71.11316 57.46936,0 0,-14.368013 -57.46936,0 0,14.368013 z"
       style="fill:none;stroke:#000000;stroke-width:0.35919991;stroke-linecap:butt;stroke-linejoin:miter;stroke-miterlimit:10;stroke-dasharray:none;stroke-opacity:1"
       id="path164"
       inkscape:connector-curvature="0" /><path
       d="m 86.384575,56.746158 57.470205,0 0,-14.367928 -57.470205,0 0,14.367928 z"
       style="fill:none;stroke:#000000;stroke-width:0.35919991;stroke-linecap:butt;stroke-linejoin:miter;stroke-miterlimit:10;stroke-dasharray:none;stroke-opacity:1"
       id="path168"
       inkscape:connector-curvature="0" /><path
       d="m 28.913279,56.746158 57.470453,0 0,-14.367928 -57.470453,0 0,14.367928 z"
       style="fill:none;stroke:#000000;stroke-width:0.35919991;stroke-linecap:butt;stroke-linejoin:miter;stroke-miterlimit:10;stroke-dasharray:none;stroke-opacity:1"
       id="path172"
       inkscape:connector-curvature="0" /><path
       d="m 102.30785,78.300957 -5.387221,0"
       style="fill:none;stroke:#ff0000;stroke-width:1.07760727;stroke-linecap:butt;stroke-linejoin:miter;stroke-miterlimit:10;stroke-dasharray:none;stroke-opacity:1"
       id="path208"
       inkscape:connector-curvature="0" /><path
       d="m 100.2709,63.929659 5.39059,0"
       style="fill:none;stroke:#ff0000;stroke-width:1.07760727;stroke-linecap:butt;stroke-linejoin:miter;stroke-miterlimit:10;stroke-dasharray:none;stroke-opacity:1"
       id="path212"
       inkscape:connector-curvature="0" /><path
       d="m 98.237315,49.561731 -5.387225,0"
       style="fill:none;stroke:#ff0000;stroke-width:1.07760727;stroke-linecap:butt;stroke-linejoin:miter;stroke-miterlimit:10;stroke-dasharray:none;stroke-opacity:1"
       id="path216"
       inkscape:connector-curvature="0" /><path
       d="m 57.648297,99.852472 57.470113,0 0,-14.368013 -57.470113,0 0,14.368013 z"
       style="fill:none;stroke:#000000;stroke-width:0.35919991;stroke-linecap:butt;stroke-linejoin:miter;stroke-miterlimit:10;stroke-dasharray:none;stroke-opacity:1"
       id="path284"
       inkscape:connector-curvature="0" /><path
       d="m 0.18125565,99.852472 57.46805235,0 0,-14.368013 -57.46805235,0 0,14.368013 z"
       style="fill:none;stroke:#000000;stroke-width:0.35919991;stroke-linecap:butt;stroke-linejoin:miter;stroke-miterlimit:10;stroke-dasharray:none;stroke-opacity:1"
       id="path320"
       inkscape:connector-curvature="0" /><path
       d="m 140.38888,35.533764 10.43891,0"
       style="fill:none;stroke:#ff0000;stroke-width:2.53065133;stroke-linecap:butt;stroke-linejoin:miter;stroke-miterlimit:10;stroke-dasharray:none;stroke-opacity:1"
       id="path324"
       inkscape:connector-curvature="0" /><text
       transform="scale(0.9999575,-1.0000425)"
       style="font-variant:normal;font-size:4.31041861px;font-family:f-2;-inkscape-font-specification:f-2-0;writing-mode:lr-tb;fill:#ff0000;fill-opacity:1;fill-rule:nonzero;stroke:none"
       id="text328"
       x="95.128433"
       y="-76.500313"><tspan
         x="95.128433"
         y="-76.500313"
         id="tspan330">X</tspan><tspan
         x="103.86921"
         y="-62.132225"
         id="tspan332">X</tspan><tspan
         x="91.057556"
         y="-47.764133"
         id="tspan334">X</tspan></text>
<text
       transform="scale(0.9999575,-1.0000425)"
       style="font-variant:normal;font-size:4.31041861px;font-family:f-2;-inkscape-font-specification:f-2-0;writing-mode:lr-tb;fill:#0000ff;fill-opacity:1;fill-rule:nonzero;stroke:none"
       id="text338"
       x="96.446068"
       y="-47.763885"><tspan
         x="96.446068"
         y="-47.763885"
         id="tspan340">X</tspan><tspan
         x="100.51698"
         y="-76.499977"
         id="tspan342">X</tspan><tspan
         x="98.481522"
         y="-62.131889"
         id="tspan344">X</tspan></text>
<text
       transform="scale(0.9999575,-1.0000425)"
       style="font-variant:normal;font-size:8.54097176px;font-family:f-2;-inkscape-font-specification:f-2-0;writing-mode:lr-tb;fill:#0000ff;fill-opacity:1;fill-rule:nonzero;stroke:none"
       id="text346"
       x="136.9158"
       y="-32.010696"><tspan
         x="136.9158"
         y="-32.010696"
         id="tspan348">X</tspan></text>
<text
       transform="scale(0.9999575,-1.0000425)"
       style="font-variant:normal;font-size:8.54097176px;font-family:f-2;-inkscape-font-specification:f-2-0;writing-mode:lr-tb;fill:#ff0000;fill-opacity:1;fill-rule:nonzero;stroke:none"
       id="text352"
       x="147.987"
       y="-32.010994"><tspan
         x="147.987"
         y="-32.010994"
         id="tspan354">X</tspan></text>
<path
       inkscape:connector-curvature="0"
       id="path356"
       style="fill:none;stroke:#000000;stroke-width:0.35921711;stroke-linecap:butt;stroke-linejoin:bevel;stroke-miterlimit:10;stroke-dasharray:2.15530104, 2.15530104;stroke-dashoffset:0;stroke-opacity:1"
       d="m 104.31212,118.37271 0.385,-0.67143 0.2401,-0.43134 0.31002,-0.54927 0.38163,-0.69418 0.45745,-0.81633 0.50294,-0.93427 0.52653,-1.0042 0.57286,-1.05306 0.57623,-1.12551 0.54928,-1.15163 0.57623,-1.14825 0.52653,-1.12551 0.50295,-1.10277 0.45407,-1.0758 0.40859,-1.03032 0.38163,-0.9806 0.31255,-0.93411 0.26284,-0.88887 0.21735,-0.83554 0.16849,-0.81641 0.0952,-0.743125 0.0691,-0.717682 0,-0.694345 -0.0463,-0.671346 -0.0725,-0.621642 -0.14491,-0.622653 -0.19039,-0.621558 -0.2401,-0.59898 -0.28643,-0.62198 -0.35888,-0.624927 -0.385,-0.595611 -0.45408,-0.622653 -0.47767,-0.62518 -0.52653,-0.621642 -0.55264,-0.621642 -0.59898,-0.622653 -0.62173,-0.624928 -0.64531,-0.621979 -0.67059,-0.621642 -0.69502,-0.622569 -0.72029,-0.621642 -0.69081,-0.625264 -0.69839,-0.621642 -0.69418,-0.622653 -0.69417,-0.598896 -0.66806,-0.575224 -0.6251,-0.599233 -0.62173,-0.572611 -0.576231,-0.552898 -0.52653,-0.549192 -0.500413,-0.52653 -0.431334,-0.52653 -0.407744,-0.503867 -0.335294,-0.503784 -0.286433,-0.476825 -0.240097,-0.480785 -0.16849,-0.476826 -0.0952,-0.480195 -0.07245,-0.526529 0.02359,-0.52653 0.0952,-0.550203 0.167647,-0.552814 0.240098,-0.549276 0.286432,-0.576234 0.335294,-0.549191 0.408587,-0.576234 0.431334,-0.598981 0.454079,-0.575223 0.502941,-0.599233 0.526524,-0.572612 0.52653,-0.599232 0.52653,-0.575224 0.52653,-0.572948 0.50379,-0.576234 0.48019,-0.549192 0.43133,-0.552561 0.40775,-0.52653 0.35888,-0.52653 0.30918,-0.503784 0.26369,-0.476909 0.19376,-0.481122 0.11878,-0.454079 0.0489,-0.454164 -0.0261,-0.457449 -0.0952,-0.404375 -0.16764,-0.408418 -0.21398,-0.407745 -0.28981,-0.431417 -0.33529,-0.430407 -0.40522,-0.431417 -0.45408,-0.431417 -0.50378,-0.453827 -0.52653,-0.480448 -0.59814,-0.477499 -0.62594,-0.480111 -0.64447,-0.500582 -0.648682,-0.52653 -0.694177,-0.529815 -0.668061,-0.549192 -0.694177,-0.552898 -0.67143,-0.572612 -0.648685,-0.57556 -0.644472,-0.572949 -0.622569,-0.598896 -0.575392,-0.624927 -0.52653,-0.599233 -0.503783,-0.621642 -0.431333,-0.645315 -0.407745,-0.621642 -0.358883,-0.671347 -0.286432,-0.671683 -0.216509,-0.694008 -0.16512,-0.598896 -0.09857,-0.598981 -0.06908,-0.645315 0,-0.647926 0.02359,-0.695019 0.07161,-0.717092 0.141531,-0.790131 0.16849,-0.815489 0.240097,-0.862498 0.262844,-0.908243 0.336136,-0.957947 0.381629,-1.029387 0.433861,-1.102764 0.500414,-1.148172 0.526529,-1.198129 0.576234,-1.244295 0.621727,-1.319273 0.648684,-1.316661 0.670589,-1.342019 0.691649,-1.362996 0.694177,-1.319273 0.671431,-1.293334 0.647842,-1.220555 0.622566,-1.125459 0.54928,-1.030356 0.48019,-0.885555 0.43133,-0.766762 0.33614,-0.621634 0.26284,-0.45413 0.19124,-0.335993 0.11794,-0.216534 0.0725,-0.118794 0.0261,-0.0464" /><path
       inkscape:connector-curvature="0"
       id="path358"
       style="fill:none;stroke:#000000;stroke-width:0.35921711;stroke-linecap:butt;stroke-linejoin:miter;stroke-miterlimit:10;stroke-dasharray:none;stroke-opacity:1"
       d="m 108.79141,113.41322 -4.09429,4.26531 1.57959,-5.7" /><path
       style="fill:none;fill-rule:evenodd;stroke:#005400;stroke-width:0.51585853px;stroke-linecap:butt;stroke-linejoin:miter;stroke-opacity:1;marker-end:url(#Arrow1Lend)"
       d="M 96.643329,38.436034 106.81232,110.93604"
       id="path4882"
       inkscape:connector-curvature="0" /><path
       style="fill:none;fill-rule:evenodd;stroke:#0099d7;stroke-width:0.64699709px;stroke-linecap:butt;stroke-linejoin:miter;stroke-opacity:1;marker-end:url(#Arrow1Mend)"
       d="m 98.433125,49.544876 15.860295,0"
       id="path5466"
       inkscape:connector-curvature="0" /><path
       style="fill:none;fill-rule:evenodd;stroke:#0099d7;stroke-width:0.65905845px;stroke-linecap:butt;stroke-linejoin:miter;stroke-opacity:1;marker-end:url(#Arrow1Mend-5)"
       d="m 103.97617,92.810301 -16.457147,0"
       id="path5466-5"
       inkscape:connector-curvature="0" /><path
       style="fill:none;fill-rule:evenodd;stroke:#0099d7;stroke-width:0.5863272px;stroke-linecap:butt;stroke-linejoin:miter;stroke-opacity:1;marker-end:url(#Arrow1Mend-6)"
       d="m 99.955209,64.020298 -13.025276,0"
       id="path5466-9"
       inkscape:connector-curvature="0" /><path
       style="fill:none;fill-rule:evenodd;stroke:#0099d7;stroke-width:0.56581837px;stroke-linecap:butt;stroke-linejoin:miter;stroke-opacity:1;marker-end:url(#Arrow1Mend-1)"
       d="m 102.26961,78.174043 12.12999,0"
       id="path5466-0"
       inkscape:connector-curvature="0" /><path
       style="fill:none;fill-rule:evenodd;stroke:#000000;stroke-width:0.67395806;stroke-linecap:butt;stroke-linejoin:miter;stroke-miterlimit:4;stroke-dasharray:none;stroke-opacity:1;marker-end:url(#Arrow1Mend-3)"
       d="m 105.34916,30.887668 -6.433531,16.0838"
       id="path10146"
       inkscape:connector-curvature="0" /><path
       style="fill:none;fill-rule:evenodd;stroke:#000000;stroke-width:0.67395806;stroke-linecap:butt;stroke-linejoin:miter;stroke-miterlimit:4;stroke-dasharray:none;stroke-opacity:1;marker-end:url(#Arrow1Mend-3-9)"
       d="m 122.64142,31.156837 -6.43353,16.083799"
       id="path10146-6"
       inkscape:connector-curvature="0" /><text
       xml:space="preserve"
       style="font-style:normal;font-weight:normal;font-size:8.919734px;line-height:125%;font-family:sans-serif;letter-spacing:0px;word-spacing:0px;fill:#000000;fill-opacity:1;stroke:none;stroke-width:1px;stroke-linecap:butt;stroke-linejoin:miter;stroke-opacity:1"
       x="103.93211"
       y="-21.678629"
       id="text10593"
       sodipodi:linespacing="125%"
       transform="scale(1,-1)"><tspan
         sodipodi:role="line"
         id="tspan10595"
         x="103.93211"
         y="-21.678629">t<tspan
   style="font-size:4.63826132px;baseline-shift:sub"
   id="tspan10597">cell</tspan></tspan></text>
<text
       xml:space="preserve"
       style="font-style:normal;font-weight:normal;font-size:8.65957546px;line-height:125%;font-family:sans-serif;letter-spacing:0px;word-spacing:0px;fill:#000000;fill-opacity:1;stroke:none;stroke-width:1px;stroke-linecap:butt;stroke-linejoin:miter;stroke-opacity:1"
       x="125.57726"
       y="-21.992289"
       id="text10593-0"
       sodipodi:linespacing="125%"
       transform="scale(1,-1)"><tspan
         sodipodi:role="line"
         id="tspan10595-6"
         x="125.57726"
         y="-21.992289">t<tspan
   style="font-size:4.5029788px;baseline-shift:sub"
   id="tspan10620">read</tspan></tspan></text>
<path
       inkscape:connector-curvature="0"
       id="path130-7"
       style="fill:#000000;fill-opacity:1;fill-rule:evenodd;stroke:none"
       d="m 76.806569,16.074536 c 0,-0.66149 -0.535796,-1.197203 -1.19796,-1.197203 -0.661322,0 -1.197118,0.535713 -1.197118,1.197203 0,0.662079 0.535796,1.197792 1.197118,1.197792 0.662164,0 1.19796,-0.535713 1.19796,-1.197792" /><path
       d="m 76.806738,16.07451 c 0,-0.661515 -0.536614,-1.197252 -1.197068,-1.197252 -0.662138,0 -1.19791,0.535737 -1.19791,1.197252 0,0.662105 0.535772,1.197835 1.19791,1.197835 0.660454,0 1.197068,-0.53573 1.197068,-1.197835 z"
       style="fill:none;stroke:#000000;stroke-width:0.17960039;stroke-linecap:butt;stroke-linejoin:miter;stroke-miterlimit:10;stroke-dasharray:none;stroke-opacity:1"
       id="path134-9"
       inkscape:connector-curvature="0" /><path
       d="m 58.726886,16.07451 -5.387225,0"
       style="fill:none;stroke:#ff0000;stroke-width:1.07760727;stroke-linecap:butt;stroke-linejoin:miter;stroke-miterlimit:10;stroke-dasharray:none;stroke-opacity:1"
       id="path216-2"
       inkscape:connector-curvature="0" /><path
       style="fill:none;fill-rule:evenodd;stroke:#0099d7;stroke-width:0.64699709px;stroke-linecap:butt;stroke-linejoin:miter;stroke-opacity:1;marker-end:url(#marker10754)"
       d="m 58.922696,16.057653 15.860297,0"
       id="path5466-02"
       inkscape:connector-curvature="0" /><text
       transform="scale(0.99995751,-1.0000425)"
       style="font-variant:normal;font-size:9.37005997px;font-family:f-2;-inkscape-font-specification:f-2-0;writing-mode:lr-tb;fill:#0000ff;fill-opacity:1;fill-rule:nonzero;stroke:none"
       id="text346-3"
       x="55.988503"
       y="-12.428244"><tspan
         x="55.988503"
         y="-12.428244"
         id="tspan348-7">X</tspan></text>
<text
       transform="scale(0.99995751,-1.0000425)"
       style="font-variant:normal;font-size:9.37005997px;font-family:f-2;-inkscape-font-specification:f-2-0;writing-mode:lr-tb;fill:#ff0000;fill-opacity:1;fill-rule:nonzero;stroke:none"
       id="text352-5"
       x="49.55471"
       y="-12.589073"><tspan
         x="49.55471"
         y="-12.589073"
         id="tspan354-9">X</tspan></text>
<path
       inkscape:connector-curvature="0"
       id="path130-7-8"
       style="fill:#000000;fill-opacity:1;fill-rule:evenodd;stroke:none"
       d="m 27.828196,16.319378 c 0,-0.66149 -0.535797,-1.197202 -1.197961,-1.197202 -0.661321,0 -1.197118,0.535711 -1.197118,1.197201 0,0.662081 0.535797,1.197793 1.197118,1.197793 0.662164,0 1.197961,-0.535712 1.197961,-1.197793" /><path
       d="m 27.828364,16.319353 c 0,-0.661516 -0.536614,-1.197253 -1.197067,-1.197253 -0.66214,0 -1.19791,0.535737 -1.19791,1.197253 0,0.662105 0.53577,1.197834 1.19791,1.197834 0.660453,0 1.197067,-0.535729 1.197067,-1.197834 z"
       style="fill:none;stroke:#000000;stroke-width:0.17960039;stroke-linecap:butt;stroke-linejoin:miter;stroke-miterlimit:10;stroke-dasharray:none;stroke-opacity:1"
       id="path134-9-9"
       inkscape:connector-curvature="0" /><path
       style="fill:none;fill-rule:evenodd;stroke:#0099d7;stroke-width:0.64699709px;stroke-linecap:butt;stroke-linejoin:miter;stroke-opacity:1;marker-end:url(#marker10935)"
       d="m 9.9443226,16.302495 15.8602974,0"
       id="path5466-02-7"
       inkscape:connector-curvature="0" /><text
       xml:space="preserve"
       style="font-style:normal;font-weight:normal;font-size:12.1948061px;line-height:125%;font-family:sans-serif;letter-spacing:0px;word-spacing:0px;fill:#000000;fill-opacity:1;stroke:none;stroke-width:1px;stroke-linecap:butt;stroke-linejoin:miter;stroke-opacity:1"
       x="53.371834"
       y="-3.4002712"
       id="text11023"
       sodipodi:linespacing="125%"
       transform="scale(1,-1)"
       inkscape:transform-center-x="0.4912953"
       inkscape:transform-center-y="-10.071528"><tspan
         sodipodi:role="line"
         id="tspan11025"
         x="53.371834"
         y="-3.4002712"
         style="font-size:8.27168465px">t<tspan
   style="font-size:4.30127621px;baseline-shift:sub"
   id="tspan13463">IP</tspan> ≠0</tspan></text>
<text
       xml:space="preserve"
       style="font-style:normal;font-weight:normal;font-size:11.79426575px;line-height:125%;font-family:sans-serif;letter-spacing:0px;word-spacing:0px;fill:#000000;fill-opacity:1;stroke:none;stroke-width:1px;stroke-linecap:butt;stroke-linejoin:miter;stroke-opacity:1"
       x="7.9708924"
       y="-2.9145241"
       id="text11023-1"
       sodipodi:linespacing="125%"
       inkscape:transform-center-x="0.4751574"
       inkscape:transform-center-y="-9.7407266"
       transform="scale(1,-1)"><tspan
         sodipodi:role="line"
         id="tspan11025-2"
         x="7.9708924"
         y="-2.9145241"
         style="font-size:8px">t<tspan
   style="font-size:52%;baseline-shift:sub"
   id="tspan13459">IP</tspan> =0</tspan></text>
<text
       xml:space="preserve"
       style="font-style:normal;font-weight:normal;font-size:9.27868366px;line-height:125%;font-family:sans-serif;letter-spacing:0px;word-spacing:0px;fill:#000000;fill-opacity:1;stroke:none;stroke-width:1px;stroke-linecap:butt;stroke-linejoin:miter;stroke-opacity:1"
       x="19.146921"
       y="-31.901861"
       id="text11050"
       sodipodi:linespacing="125%"
       transform="scale(1,-1)"><tspan
         sodipodi:role="line"
         id="tspan11052"
         x="19.146921"
         y="-31.901861">v<tspan
   style="font-size:4.82491541px;baseline-shift:sub"
   id="tspan11054">drift</tspan>(t<tspan
   style="font-size:4.82491541px;baseline-shift:sub"
   id="tspan11056">read</tspan>-t<tspan
   style="font-size:4.82491541px;baseline-shift:sub"
   id="tspan11060">cell</tspan>)</tspan></text>
<path
       style="fill:none;fill-rule:evenodd;stroke:#000000;stroke-width:0.36220407;stroke-linecap:butt;stroke-linejoin:miter;stroke-miterlimit:4;stroke-dasharray:none;stroke-opacity:1;marker-end:url(#Arrow1Mend-3-3)"
       d="M 23.715429,28.512593 19.23878,20.349802"
       id="path10146-9"
       inkscape:connector-curvature="0" /><path
       style="fill:none;fill-rule:evenodd;stroke:#000000;stroke-width:0.36220407;stroke-linecap:butt;stroke-linejoin:miter;stroke-miterlimit:4;stroke-dasharray:none;stroke-opacity:1;marker-end:url(#Arrow1Mend-3-3-4)"
       d="m 62.306043,28.484432 4.295608,-8.259506"
       id="path10146-9-8"
       inkscape:connector-curvature="0" /><text
       transform="scale(0.99995751,-1.0000425)"
       style="font-variant:normal;font-size:9.37005997px;font-family:f-2;-inkscape-font-specification:f-2-0;writing-mode:lr-tb;fill:#ff0000;fill-opacity:1;fill-rule:nonzero;stroke:none"
       id="text352-5-4"
       x="6.681035"
       y="-12.929315"><tspan
         x="6.681035"
         y="-12.929315"
         id="tspan354-9-5">X</tspan></text>
</g></svg>