<?xml version="1.0" encoding="UTF-8" standalone="no"?>
<!-- Created with Inkscape (http://www.inkscape.org/) -->

<svg
   xmlns:dc="http://purl.org/dc/elements/1.1/"
   xmlns:cc="http://creativecommons.org/ns#"
   xmlns:rdf="http://www.w3.org/1999/02/22-rdf-syntax-ns#"
   xmlns:svg="http://www.w3.org/2000/svg"
   xmlns="http://www.w3.org/2000/svg"
   xmlns:sodipodi="http://sodipodi.sourceforge.net/DTD/sodipodi-0.dtd"
   xmlns:inkscape="http://www.inkscape.org/namespaces/inkscape"
   id="svg2"
   version="1.1"
   inkscape:version="0.91 r13725"
   xml:space="preserve"
   width="744.09497"
   height="1052.3625"
   viewBox="0 0 744.09497 1052.3625"
   sodipodi:docname="mexicanHat.svg"><metadata
     id="metadata8"><rdf:RDF><cc:Work
         rdf:about=""><dc:format>image/svg+xml</dc:format><dc:type
           rdf:resource="http://purl.org/dc/dcmitype/StillImage" /><dc:title></dc:title></cc:Work></rdf:RDF></metadata><defs
     id="defs6"><clipPath
       clipPathUnits="userSpaceOnUse"
       id="clipPath30"><path
         d="M 0,0 123,0 123,82 0,82 0,0 Z"
         id="path32"
         inkscape:connector-curvature="0" /></clipPath><clipPath
       clipPathUnits="userSpaceOnUse"
       id="clipPath40"><path
         d="m 0,0 128.09,0 0,85.94 L 0,85.94 0,0 Z"
         id="path42"
         inkscape:connector-curvature="0" /></clipPath></defs><sodipodi:namedview
     pagecolor="#ffffff"
     bordercolor="#666666"
     borderopacity="1"
     objecttolerance="10"
     gridtolerance="10"
     guidetolerance="10"
     inkscape:pageopacity="0"
     inkscape:pageshadow="2"
     inkscape:window-width="1920"
     inkscape:window-height="981"
     id="namedview4"
     showgrid="false"
     inkscape:zoom="5.3415407"
     inkscape:cx="387.60467"
     inkscape:cy="870.49631"
     inkscape:window-x="0"
     inkscape:window-y="28"
     inkscape:window-maximized="1"
     inkscape:current-layer="g36" /><g
     id="g10"
     inkscape:groupmode="layer"
     inkscape:label="CERN-THESIS-2015-290"
     transform="matrix(1.25,0,0,-1.25,0,1052.3625)"><g
       transform="matrix(1.475,0,0,1.475,214.728,632.95)"
       id="g36"><path
         d="m 116.541,35.7883 1.447,1.0332 -1.447,1.0332 0.579,-1.0332"
         style="fill:#000000;fill-opacity:1;fill-rule:nonzero;stroke:none"
         id="path46"
         inkscape:connector-curvature="0" /><path
         d="M 3.83984,36.8301 117.12,36.8215"
         style="fill:none;stroke:#000000;stroke-width:0.28329799;stroke-linecap:butt;stroke-linejoin:miter;stroke-miterlimit:10;stroke-dasharray:none;stroke-opacity:1"
         id="path48"
         inkscape:connector-curvature="0" /><path
         d="m 82.3781,46.5977 0.8321,1.5711 -1.7563,0.2773 0.9797,-0.6652"
         style="fill:#000000;fill-opacity:1;fill-rule:nonzero;stroke:none"
         id="path50"
         inkscape:connector-curvature="0" /><path
         d="M 37.8555,25.4918 82.4336,47.7809"
         style="fill:none;stroke:#000000;stroke-width:0.28329799;stroke-linecap:butt;stroke-linejoin:miter;stroke-miterlimit:10;stroke-dasharray:none;stroke-opacity:1"
         id="path52"
         inkscape:connector-curvature="0" /><path
         d="m 61.566,77.9031 -1.0332,1.4465 -1.0332,-1.4465 1.0332,0.5785"
         style="fill:#000000;fill-opacity:1;fill-rule:nonzero;stroke:none"
         id="path54"
         inkscape:connector-curvature="0" /><path
         d="m 60.5328,8.48359 0,69.99801"
         style="fill:none;stroke:#000000;stroke-width:0.28329799;stroke-linecap:butt;stroke-linejoin:miter;stroke-miterlimit:10;stroke-dasharray:none;stroke-opacity:1"
         id="path56"
         inkscape:connector-curvature="0" /><path
         d="m 89.4992,8.475 0,0 -0.1457,0.56484 -0.4273,0.54883 -0.6953,0.52973 -0.9485,0.5078 -1.1875,0.4832 -1.4129,0.4558 -1.6234,0.4254 -1.8207,0.3926 -2.0027,0.3566 -2.1715,0.3184 -2.3254,0.277 -2.4656,0.2324 -2.5911,0.1859 -2.7031,0.1363 -2.8004,0.0836 -2.8836,0.0289 -2.884,-0.0289 L 55.6102,13.8898 52.907,13.7535 50.316,13.5676 47.8504,13.3352 45.525,13.0582 43.3535,12.7398 41.3508,12.3832 39.5301,11.9906 37.9066,11.5652 36.4938,11.1094 35.3063,10.6262 34.3578,10.1184 33.6625,9.58867 33.2352,9.03984 33.0898,8.475 33.2352,7.90977 33.6625,7.36094 34.3578,6.83125 35.3063,6.32305 36.4938,5.83984 37.9066,5.38438 39.5301,4.95859 41.3508,4.56602 43.3535,4.20938 45.525,3.89102 47.8504,3.61445 50.316,3.38164 52.907,3.1957 l 2.7032,-0.13632 2.8003,-0.0836 2.884,-0.02851 2.8836,0.02851 2.8004,0.0836 2.7031,0.13632 2.5911,0.18594 2.4656,0.23281 2.3254,0.27657 2.1715,0.31836 2.0027,0.35664 1.8207,0.39257 1.6234,0.42579 1.4129,0.45546 1.1875,0.48321 0.9485,0.5082 0.6953,0.52969 0.4273,0.54883 0.1457,0.56523 z"
         style="fill:none;stroke:#000000;stroke-width:0.28329799;stroke-linecap:butt;stroke-linejoin:miter;stroke-miterlimit:10;stroke-dasharray:5.281, 3.16861;stroke-dashoffset:25.00029945;stroke-opacity:1"
         id="path58"
         inkscape:connector-curvature="0" /><path
         d="m 15.1785,77.4684 c 0,0 1.143,-11.0555 1.8453,-16.8696 0.5825,-4.8215 1.136,-9.1476 1.8453,-13.9523 0.5778,-3.9145 1.1274,-7.4262 1.8454,-11.3176 0.5722,-3.1016 1.1164,-5.8836 1.8453,-8.9519 0.5656,-2.3801 1.1015,-4.5145 1.8457,-6.845 0.5574,-1.7465 1.0828,-3.3152 1.8453,-4.982 0.5492,-1.2012 1.0668,-2.2879 1.8453,-3.3535 0.5453,-0.7465 1.0824,-1.42541 1.8453,-1.94494 0.5664,-0.38593 1.166,-0.66172 1.8453,-0.7457 0.636,-0.07852 1.2391,0.04766 1.8457,0.25742 0.6953,0.24102 1.2539,0.63672 1.8453,1.07656 0.6985,0.51956 1.2465,1.09026 1.8453,1.72306 0.6829,0.7215 1.2352,1.4258 1.8454,2.2098 0.6668,0.8574 1.2246,1.6582 1.8453,2.5496 0.6539,0.9382 1.2148,1.7988 1.8453,2.7531 0.6433,0.9738 1.2062,1.8578 1.8457,2.8344 0.6344,0.9691 1.198,1.8433 1.8453,2.8043 0.6266,0.93 1.1902,1.7648 1.8453,2.6754 0.6199,0.8613 1.1828,1.6308 1.8453,2.4601 0.6137,0.768 1.1762,1.4504 1.8453,2.1707 0.6086,0.6551 1.1715,1.2317 1.8454,1.8192 0.6054,0.5273 1.1703,0.9835 1.8457,1.4175 0.6058,0.3899 1.1761,0.7118 1.8453,0.9789 0.6136,0.245 1.1918,0.4184 1.8453,0.5141 0.6297,0.0926 1.2125,0.1055 1.8453,0.0371 0.6504,-0.0703 1.2301,-0.2195 1.8453,-0.4418 0.6676,-0.2406 1.2387,-0.5406 1.8457,-0.9086 0.6746,-0.4094 1.2399,-0.8457 1.8453,-1.3523 0.6746,-0.5649 1.2375,-1.1242 1.8453,-1.7606 0.67,-0.7011 1.2325,-1.3683 1.8453,-2.1203 0.6637,-0.814 1.2266,-1.5715 1.8454,-2.4203 0.6562,-0.8996 1.2199,-1.7262 1.8453,-2.6477 0.6488,-0.955 1.2125,-1.825 1.8457,-2.7906 0.6402,-0.9761 1.2035,-1.8609 1.8453,-2.8363 0.6316,-0.9606 1.1933,-1.827 1.8453,-2.7734 0.6223,-0.9036 1.1809,-1.7164 1.8453,-2.5895 0.6117,-0.8035 1.1652,-1.525 1.8453,-2.2715 0.6004,-0.6586 1.1489,-1.2519 1.8453,-1.8078 0.5918,-0.47187 1.1469,-0.89843 1.8457,-1.18632 0.6008,-0.24805 1.1969,-0.42539 1.8454,-0.39492 0.6644,0.03086 1.2714,0.24179 1.8453,0.5789 0.7543,0.44297 1.2992,1.06254 1.8453,1.74764 0.7797,0.9778 1.2972,1.9977 1.8453,3.1227 0.7652,1.5711 1.2891,3.0605 1.8457,4.7172 0.7465,2.2238 1.2809,4.266 1.8453,6.5429 0.7313,2.95 1.2738,5.627 1.8453,8.6121 0.72,3.759 1.268,7.1532 1.845,10.9368 0.711,4.6582 1.264,8.8535 1.846,13.5296 0.703,5.6524 1.845,16.4028 1.845,16.4028"
         style="fill:none;stroke:#000000;stroke-width:0.56704301;stroke-linecap:butt;stroke-linejoin:miter;stroke-miterlimit:10;stroke-dasharray:none;stroke-opacity:1"
         id="path60"
         inkscape:connector-curvature="0" /><g
         id="g62"><text
           transform="matrix(1,0,0,-1,104.432,29.6766)"
           style="font-variant:normal;font-weight:normal;font-size:7.97010994px;font-family:CMMI8;-inkscape-font-specification:CMMI8;writing-mode:lr-tb;fill:#000000;fill-opacity:1;fill-rule:nonzero;stroke:none"
           id="text64"><tspan
             x="0 6.3599992"
             y="0"
             sodipodi:role="line"
             id="tspan66">Re</tspan></text>
<text
           transform="matrix(1,0,0,-1,114.7519,29.6766)"
           style="font-variant:normal;font-weight:normal;font-size:7.97010994px;font-family:CMR8;-inkscape-font-specification:CMR8;writing-mode:lr-tb;fill:#000000;fill-opacity:1;fill-rule:nonzero;stroke:none"
           id="text68"><tspan
             x="0"
             y="0"
             id="tspan70">(</tspan></text>
<text
           transform="matrix(1,0,0,-1,117.99174,29.6766)"
           style="font-variant:normal;font-weight:normal;font-size:7.97010994px;font-family:CMMI8;-inkscape-font-specification:CMMI8;writing-mode:lr-tb;fill:#000000;fill-opacity:1;fill-rule:nonzero;stroke:none"
           id="text72"><tspan
             x="0"
             y="0"
             id="tspan74">φ</tspan></text>
<text
           transform="matrix(1,0,0,-1,123.03158,29.6766)"
           style="font-variant:normal;font-weight:normal;font-size:7.97010994px;font-family:CMR8;-inkscape-font-specification:CMR8;writing-mode:lr-tb;fill:#000000;fill-opacity:1;fill-rule:nonzero;stroke:none"
           id="text76"><tspan
             x="0"
             y="0"
             id="tspan78">)</tspan></text>
<text
           transform="matrix(1,0,0,-1,64.28708,51.6645)"
           style="font-variant:normal;font-weight:normal;font-size:7.97010994px;font-family:CMMI8;-inkscape-font-specification:CMMI8;writing-mode:lr-tb;fill:#000000;fill-opacity:1;fill-rule:nonzero;stroke:none"
           id="text80"><tspan
             x="0"
             sodipodi:role="line"
             id="tspan82"
             y="0">Im</tspan></text>
<text
           transform="matrix(1,0,0,-1,76.04688,51.6645)"
           style="font-variant:normal;font-weight:normal;font-size:7.97010994px;font-family:CMR8;-inkscape-font-specification:CMR8;writing-mode:lr-tb;fill:#000000;fill-opacity:1;fill-rule:nonzero;stroke:none"
           id="text84"><tspan
             x="0"
             y="0"
             id="tspan86">(</tspan></text>
<text
           transform="matrix(1,0,0,-1,79.28672,51.6645)"
           style="font-variant:normal;font-weight:normal;font-size:7.97010994px;font-family:CMMI8;-inkscape-font-specification:CMMI8;writing-mode:lr-tb;fill:#000000;fill-opacity:1;fill-rule:nonzero;stroke:none"
           id="text88"><tspan
             x="0"
             y="0"
             id="tspan90">φ</tspan></text>
<text
           transform="matrix(1,0,0,-1,84.32656,51.6645)"
           style="font-variant:normal;font-weight:normal;font-size:7.97010994px;font-family:CMR8;-inkscape-font-specification:CMR8;writing-mode:lr-tb;fill:#000000;fill-opacity:1;fill-rule:nonzero;stroke:none"
           id="text92"><tspan
             x="0"
             y="0"
             id="tspan94">)</tspan></text>
<text
           transform="matrix(1,0,0,-1,38.00896,77.1766)"
           style="font-variant:normal;font-weight:normal;font-size:7.97010994px;font-family:CMMI8;-inkscape-font-specification:CMMI8;writing-mode:lr-tb;fill:#000000;fill-opacity:1;fill-rule:nonzero;stroke:none"
           id="text96"><tspan
             x="0"
             y="0"
             id="tspan98">V</tspan></text>
<text
           transform="matrix(1,0,0,-1,44.8488,77.1766)"
           style="font-variant:normal;font-weight:normal;font-size:7.97010994px;font-family:CMR8;-inkscape-font-specification:CMR8;writing-mode:lr-tb;fill:#000000;fill-opacity:1;fill-rule:nonzero;stroke:none"
           id="text100"><tspan
             x="0"
             y="0"
             id="tspan102">(</tspan></text>
<text
           transform="matrix(1,0,0,-1,48.08864,77.1766)"
           style="font-variant:normal;font-weight:normal;font-size:7.97010994px;font-family:CMMI8;-inkscape-font-specification:CMMI8;writing-mode:lr-tb;fill:#000000;fill-opacity:1;fill-rule:nonzero;stroke:none"
           id="text104"><tspan
             x="0"
             y="0"
             id="tspan106">φ</tspan></text>
<text
           transform="matrix(1,0,0,-1,53.12848,77.1766)"
           style="font-variant:normal;font-weight:normal;font-size:7.97010994px;font-family:CMR8;-inkscape-font-specification:CMR8;writing-mode:lr-tb;fill:#000000;fill-opacity:1;fill-rule:nonzero;stroke:none"
           id="text108"><tspan
             x="0"
             y="0"
             id="tspan110">)</tspan></text>
</g><path
         d="m 88.8793,38.2477 0,-3.1067"
         style="fill:none;stroke:#000000;stroke-width:0.39705101;stroke-linecap:butt;stroke-linejoin:miter;stroke-miterlimit:10;stroke-dasharray:none;stroke-opacity:1"
         id="path112"
         inkscape:connector-curvature="0" /><g
         id="g114"><text
           transform="matrix(1,0,0,-1,87.1785,39.6648)"
           style="font-variant:normal;font-weight:normal;font-size:7.97010994px;font-family:CMMI8;-inkscape-font-specification:CMMI8;writing-mode:lr-tb;fill:#000000;fill-opacity:1;fill-rule:nonzero;stroke:none"
           id="text116"><tspan
             x="0"
             y="0"
             id="tspan118">v</tspan></text>
</g><g
         id="g126"><text
           transform="matrix(1,0,0,-1,84.3438,16.9875)"
           style="font-variant:normal;font-weight:normal;font-size:7.97010994px;font-family:CMMI8;-inkscape-font-specification:CMMI8;writing-mode:lr-tb;fill:#000000;fill-opacity:1;fill-rule:nonzero;stroke:none"
           id="text128"><tspan
             x="0"
             y="0"
             id="tspan130" /></text>
</g></g></g></svg>