<?xml version="1.0" encoding="UTF-8" standalone="no"?>
<!-- Generator: Adobe Illustrator 12.0.1, SVG Export Plug-In . SVG Version: 6.00 Build 51448)  -->

<svg
   xmlns:dc="http://purl.org/dc/elements/1.1/"
   xmlns:cc="http://creativecommons.org/ns#"
   xmlns:rdf="http://www.w3.org/1999/02/22-rdf-syntax-ns#"
   xmlns:svg="http://www.w3.org/2000/svg"
   xmlns="http://www.w3.org/2000/svg"
   xmlns:sodipodi="http://sodipodi.sourceforge.net/DTD/sodipodi-0.dtd"
   xmlns:inkscape="http://www.inkscape.org/namespaces/inkscape"
   version="1.1"
   id="Layer_2"
   width="300.068"
   height="234.054"
   viewBox="0 0 300.068 234.054"
   overflow="visible"
   enable-background="new 0 0 300.068 234.054"
   xml:space="preserve"
   inkscape:version="0.91 r13725"
   sodipodi:docname="naturalness1.svg"><metadata
     id="metadata137"><rdf:RDF><cc:Work
         rdf:about=""><dc:format>image/svg+xml</dc:format><dc:type
           rdf:resource="http://purl.org/dc/dcmitype/StillImage" /><dc:title></dc:title></cc:Work></rdf:RDF></metadata><defs
     id="defs135" /><sodipodi:namedview
     pagecolor="#ffffff"
     bordercolor="#666666"
     borderopacity="1"
     objecttolerance="10"
     gridtolerance="10"
     guidetolerance="10"
     inkscape:pageopacity="0"
     inkscape:pageshadow="2"
     inkscape:window-width="1920"
     inkscape:window-height="981"
     id="namedview133"
     showgrid="false"
     inkscape:zoom="5.5200292"
     inkscape:cx="151.9395"
     inkscape:cy="181.94595"
     inkscape:window-x="0"
     inkscape:window-y="28"
     inkscape:window-maximized="1"
     inkscape:current-layer="Layer_2" /><g
     id="g5"><path
       fill="#231F20"
       d="M118.048,60.417c0,18.623,15.151,33.773,33.773,33.773c18.623,0,33.773-15.15,33.773-33.773   s-15.15-33.773-33.773-33.773C133.199,26.643,118.048,41.794,118.048,60.417z M121.048,60.417   c0-16.969,13.805-30.773,30.773-30.773s30.773,13.805,30.773,30.773c0,16.968-13.805,30.773-30.773,30.773   S121.048,77.385,121.048,60.417z"
       id="path7" /></g><g
     id="g25"><path
       fill="#231F20"
       d="M146.053,24.496c0,0,2.374,2.375,3.647,3.647c-1.273,1.273-3.647,3.648-3.647,3.648l2.121,2.121   l5.769-5.769l-5.769-5.769L146.053,24.496z"
       id="path27" /></g><g
     id="g57"><path
       fill="#231F20"
       d="M149.701,92.689l5.769,5.769l2.121-2.121c0,0-2.374-2.374-3.647-3.647c1.273-1.273,3.647-3.648,3.647-3.648   l-2.121-2.121L149.701,92.689z"
       id="path59" /></g><rect
     x="25.038"
     y="58.256"
     fill="#231F20"
     width="9.5"
     height="3.182"
     id="rect103" /><rect
     x="38.61"
     y="58.256"
     fill="#231F20"
     width="9.5"
     height="3.182"
     id="rect105" /><rect
     x="52.183"
     y="58.256"
     fill="#231F20"
     width="9.5"
     height="3.182"
     id="rect107" /><rect
     x="65.755"
     y="58.256"
     fill="#231F20"
     width="9.5"
     height="3.182"
     id="rect109" /><rect
     x="79.327"
     y="58.256"
     fill="#231F20"
     width="9.5"
     height="3.182"
     id="rect111" /><rect
     x="92.9"
     y="58.256"
     fill="#231F20"
     width="9.5"
     height="3.182"
     id="rect113" /><rect
     x="106.472"
     y="58.256"
     fill="#231F20"
     width="12.135"
     height="3.182"
     id="rect115" /><rect
     x="185.038"
     y="58.256"
     fill="#231F20"
     width="12.369"
     height="3.182"
     id="rect117" /><rect
     x="201.479"
     y="58.256"
     fill="#231F20"
     width="9.5"
     height="3.182"
     id="rect119" /><rect
     x="215.051"
     y="58.256"
     fill="#231F20"
     width="9.5"
     height="3.182"
     id="rect121" /><rect
     x="228.624"
     y="58.256"
     fill="#231F20"
     width="9.5"
     height="3.182"
     id="rect123" /><rect
     x="242.197"
     y="58.256"
     fill="#231F20"
     width="9.5"
     height="3.182"
     id="rect125" /><rect
     x="255.769"
     y="58.256"
     fill="#231F20"
     width="9.5"
     height="3.182"
     id="rect127" /><rect
     x="269.341"
     y="58.256"
     fill="#231F20"
     width="9.5"
     height="3.182"
     id="rect129" /><text
     xml:space="preserve"
     style="font-style:normal;font-weight:normal;font-size:17.5px;line-height:125%;font-family:sans-serif;letter-spacing:0px;word-spacing:0px;fill:#000000;fill-opacity:1;stroke:none;stroke-width:1px;stroke-linecap:butt;stroke-linejoin:miter;stroke-opacity:1"
     x="46.282471"
     y="54.054001"
     id="text4265"
     sodipodi:linespacing="125%"><tspan
       sodipodi:role="line"
       id="tspan4267"
       x="46.282471"
       y="54.054001">H</tspan></text>
<text
     xml:space="preserve"
     style="font-style:normal;font-weight:normal;font-size:17.50029564px;line-height:125%;font-family:sans-serif;letter-spacing:0px;word-spacing:0px;fill:#000000;fill-opacity:1;stroke:none;stroke-width:1px;stroke-linecap:butt;stroke-linejoin:miter;stroke-opacity:1"
     x="246.28664"
     y="54.053089"
     id="text4265-3"
     sodipodi:linespacing="125%"
     transform="scale(0.9999831,1.0000169)"><tspan
       sodipodi:role="line"
       id="tspan4267-6"
       x="246.28664"
       y="54.053089">H</tspan></text>
<text
     xml:space="preserve"
     style="font-style:normal;font-weight:normal;font-size:17.5px;line-height:125%;font-family:sans-serif;letter-spacing:0px;word-spacing:0px;fill:#000000;fill-opacity:1;stroke:none;stroke-width:1px;stroke-linecap:butt;stroke-linejoin:miter;stroke-opacity:1"
     x="145.59839"
     y="19.054001"
     id="text4287"
     sodipodi:linespacing="125%"><tspan
       sodipodi:role="line"
       id="tspan4289"
       x="145.59839"
       y="19.054001">f</tspan></text>
</svg>