<?xml version="1.0" encoding="UTF-8" standalone="no"?>
<!-- Generator: Adobe Illustrator 12.0.1, SVG Export Plug-In . SVG Version: 6.00 Build 51448)  -->

<svg
   xmlns:dc="http://purl.org/dc/elements/1.1/"
   xmlns:cc="http://creativecommons.org/ns#"
   xmlns:rdf="http://www.w3.org/1999/02/22-rdf-syntax-ns#"
   xmlns:svg="http://www.w3.org/2000/svg"
   xmlns="http://www.w3.org/2000/svg"
   xmlns:sodipodi="http://sodipodi.sourceforge.net/DTD/sodipodi-0.dtd"
   xmlns:inkscape="http://www.inkscape.org/namespaces/inkscape"
   version="1.1"
   id="Layer_2"
   width="300.068"
   height="234.054"
   viewBox="0 0 300.068 234.054"
   overflow="visible"
   enable-background="new 0 0 300.068 234.054"
   xml:space="preserve"
   inkscape:version="0.91 r13725"
   sodipodi:docname="naturalness.svg"><metadata
     id="metadata137"><rdf:RDF><cc:Work
         rdf:about=""><dc:format>image/svg+xml</dc:format><dc:type
           rdf:resource="http://purl.org/dc/dcmitype/StillImage" /><dc:title></dc:title></cc:Work></rdf:RDF></metadata><defs
     id="defs135" /><sodipodi:namedview
     pagecolor="#ffffff"
     bordercolor="#666666"
     borderopacity="1"
     objecttolerance="10"
     gridtolerance="10"
     guidetolerance="10"
     inkscape:pageopacity="0"
     inkscape:pageshadow="2"
     inkscape:window-width="1920"
     inkscape:window-height="981"
     id="namedview133"
     showgrid="false"
     inkscape:zoom="3.3838345"
     inkscape:cx="150.034"
     inkscape:cy="117.027"
     inkscape:window-x="0"
     inkscape:window-y="28"
     inkscape:window-maximized="1"
     inkscape:current-layer="Layer_2" /><rect
     width="300.068"
     height="234.054"
     id="rect3"
     fill="#FFFFFF" /><g
     id="g5"><path
       fill="#231F20"
       d="M118.048,60.417c0,18.623,15.151,33.773,33.773,33.773c18.623,0,33.773-15.15,33.773-33.773   s-15.15-33.773-33.773-33.773C133.199,26.643,118.048,41.794,118.048,60.417z M121.048,60.417   c0-16.969,13.805-30.773,30.773-30.773s30.773,13.805,30.773,30.773c0,16.968-13.805,30.773-30.773,30.773   S121.048,77.385,121.048,60.417z"
       id="path7" /></g><g
     id="g25"><path
       fill="#231F20"
       d="M146.053,24.496c0,0,2.374,2.375,3.647,3.647c-1.273,1.273-3.647,3.648-3.647,3.648l2.121,2.121   l5.769-5.769l-5.769-5.769L146.053,24.496z"
       id="path27" /></g><g
     id="g53"
     transform="translate(0,12)"><path
       d="m 178.325,159.077 5.77,5.769 5.768,-5.769 -2.121,-2.121 c 0,0 -2.374,2.374 -3.646,3.647 -1.273,-1.273 -3.648,-3.647 -3.648,-3.647 l -2.123,2.121 z"
       id="path55"
       inkscape:connector-curvature="0"
       style="fill:#231f20" /></g><g
     id="g57"><path
       fill="#231F20"
       d="M149.701,92.689l5.769,5.769l2.121-2.121c0,0-2.374-2.374-3.647-3.647c1.273-1.273,3.647-3.648,3.647-3.648   l-2.121-2.121L149.701,92.689z"
       id="path59" /></g><g
     id="g61"
     transform="translate(0,12)"><path
       d="m 113.779,166.372 2.121,2.121 c 0,0 2.375,-2.374 3.647,-3.647 1.273,1.273 3.648,3.647 3.648,3.647 l 2.121,-2.121 -5.77,-5.769 -5.767,5.769 z"
       id="path63"
       inkscape:connector-curvature="0"
       style="fill:#231f20" /></g><rect
     x="25.038"
     y="205.65601"
     width="9.5"
     height="3.1819999"
     id="rect65"
     style="fill:#231f20" /><rect
     x="38.610001"
     y="205.65601"
     width="9.5"
     height="3.1819999"
     id="rect67"
     style="fill:#231f20" /><rect
     x="52.182999"
     y="205.65601"
     width="9.5"
     height="3.1819999"
     id="rect69"
     style="fill:#231f20" /><rect
     x="65.754997"
     y="205.65601"
     width="9.5"
     height="3.1819999"
     id="rect71"
     style="fill:#231f20" /><rect
     x="79.327003"
     y="205.65601"
     width="9.5"
     height="3.1819999"
     id="rect73"
     style="fill:#231f20" /><rect
     x="92.900002"
     y="205.65601"
     width="9.5"
     height="3.1819999"
     id="rect75"
     style="fill:#231f20" /><rect
     x="106.472"
     y="205.65601"
     width="9.5"
     height="3.1819999"
     id="rect77"
     style="fill:#231f20" /><rect
     x="187.907"
     y="205.65601"
     width="9.5"
     height="3.1819999"
     id="rect79"
     style="fill:#231f20" /><rect
     x="201.479"
     y="205.65601"
     width="9.5"
     height="3.1819999"
     id="rect81"
     style="fill:#231f20" /><rect
     x="215.05099"
     y="205.65601"
     width="9.5"
     height="3.1819999"
     id="rect83"
     style="fill:#231f20" /><rect
     x="228.62399"
     y="205.65601"
     width="9.5"
     height="3.1819999"
     id="rect85"
     style="fill:#231f20" /><rect
     x="242.19701"
     y="205.65601"
     width="9.5"
     height="3.1819999"
     id="rect87"
     style="fill:#231f20" /><rect
     x="120.044"
     y="205.65601"
     width="9.5"
     height="3.1819999"
     id="rect89"
     style="fill:#231f20" /><rect
     x="133.617"
     y="205.65601"
     width="9.5"
     height="3.1819999"
     id="rect91"
     style="fill:#231f20" /><rect
     x="147.189"
     y="205.65601"
     width="9.5"
     height="3.1819999"
     id="rect93"
     style="fill:#231f20" /><rect
     x="160.76199"
     y="205.65601"
     width="9.5"
     height="3.1819999"
     id="rect95"
     style="fill:#231f20" /><rect
     x="174.334"
     y="205.65601"
     width="9.5"
     height="3.1819999"
     id="rect97"
     style="fill:#231f20" /><rect
     x="255.769"
     y="205.65601"
     width="9.5"
     height="3.1819999"
     id="rect99"
     style="fill:#231f20" /><rect
     x="269.341"
     y="205.65601"
     width="9.5"
     height="3.1819999"
     id="rect101"
     style="fill:#231f20" /><rect
     x="25.038"
     y="58.256"
     fill="#231F20"
     width="9.5"
     height="3.182"
     id="rect103" /><rect
     x="38.61"
     y="58.256"
     fill="#231F20"
     width="9.5"
     height="3.182"
     id="rect105" /><rect
     x="52.183"
     y="58.256"
     fill="#231F20"
     width="9.5"
     height="3.182"
     id="rect107" /><rect
     x="65.755"
     y="58.256"
     fill="#231F20"
     width="9.5"
     height="3.182"
     id="rect109" /><rect
     x="79.327"
     y="58.256"
     fill="#231F20"
     width="9.5"
     height="3.182"
     id="rect111" /><rect
     x="92.9"
     y="58.256"
     fill="#231F20"
     width="9.5"
     height="3.182"
     id="rect113" /><rect
     x="106.472"
     y="58.256"
     fill="#231F20"
     width="12.135"
     height="3.182"
     id="rect115" /><rect
     x="185.038"
     y="58.256"
     fill="#231F20"
     width="12.369"
     height="3.182"
     id="rect117" /><rect
     x="201.479"
     y="58.256"
     fill="#231F20"
     width="9.5"
     height="3.182"
     id="rect119" /><rect
     x="215.051"
     y="58.256"
     fill="#231F20"
     width="9.5"
     height="3.182"
     id="rect121" /><rect
     x="228.624"
     y="58.256"
     fill="#231F20"
     width="9.5"
     height="3.182"
     id="rect123" /><rect
     x="242.197"
     y="58.256"
     fill="#231F20"
     width="9.5"
     height="3.182"
     id="rect125" /><rect
     x="255.769"
     y="58.256"
     fill="#231F20"
     width="9.5"
     height="3.182"
     id="rect127" /><rect
     x="269.341"
     y="58.256"
     fill="#231F20"
     width="9.5"
     height="3.182"
     id="rect129" /><path
     d="m 177.386,157.614 2.599,-1.5 c -2.511,-3.787 -5.763,-7.04 -9.55,-9.551 l -1.501,2.599 c 3.336,2.241 6.211,5.116 8.452,8.452 z m 5.134,15.074 3.008,0 c -0.279,-4.667 -1.511,-9.078 -3.502,-13.049 l -2.601,1.502 c 1.742,3.524 2.825,7.425 3.095,11.547 z m -28.661,-28.661 c 4.122,0.271 8.024,1.354 11.549,3.096 l 1.501,-2.601 c -3.971,-1.991 -8.383,-3.224 -13.05,-3.503 l 0,3.008 z m -19.148,5.134 -1.501,-2.6 c -3.788,2.512 -7.041,5.765 -9.552,9.552 l 2.6,1.501 c 2.241,-3.337 5.117,-6.212 8.453,-8.453 z m -8.452,42.677 -2.6,1.5 c 2.512,3.788 5.765,7.04 9.552,9.551 l 1.501,-2.6 c -3.337,-2.24 -6.212,-5.115 -8.453,-8.451 z m 42.674,8.45 1.501,2.6 c 3.787,-2.512 7.04,-5.764 9.551,-9.551 l -2.6,-1.501 c -2.24,3.336 -5.115,6.212 -8.452,8.452 z m -15.074,5.135 0,3.008 c 4.667,-0.279 9.079,-1.511 13.049,-3.503 l -1.501,-2.6 c -3.524,1.741 -7.426,2.824 -11.548,3.095 z m -15.622,-58.301 c 3.524,-1.741 7.426,-2.824 11.548,-3.095 l 0,-3.008 c -4.667,0.278 -9.079,1.511 -13.05,3.502 l 1.502,2.601 z m -1.499,57.808 c 3.97,1.99 8.382,3.223 13.048,3.501 l 0,-3.008 c -4.121,-0.271 -8.023,-1.353 -11.547,-3.094 l -1.501,2.601 z m 42.687,-16.62 2.601,1.501 c 1.991,-3.97 3.224,-8.382 3.502,-13.049 l -3.008,0 c -0.27,4.122 -1.353,8.024 -3.095,11.548 z m -58.302,-11.547 -3.008,0 c 0.279,4.667 1.512,9.079 3.503,13.05 l 2.601,-1.501 c -1.741,-3.525 -2.825,-7.427 -3.096,-11.549 z m 3.096,-15.622 -2.6,-1.502 c -1.992,3.971 -3.224,8.383 -3.503,13.051 l 3.008,0 c 0.27,-4.124 1.353,-8.026 3.095,-11.549 z"
     id="path131"
     inkscape:connector-curvature="0"
     style="fill:#231f20" /><text
     xml:space="preserve"
     style="font-style:normal;font-weight:normal;font-size:17.5px;line-height:125%;font-family:sans-serif;letter-spacing:0px;word-spacing:0px;fill:#000000;fill-opacity:1;stroke:none;stroke-width:1px;stroke-linecap:butt;stroke-linejoin:miter;stroke-opacity:1"
     x="46.282471"
     y="54.054001"
     id="text4265"
     sodipodi:linespacing="125%"><tspan
       sodipodi:role="line"
       id="tspan4267"
       x="46.282471"
       y="54.054001">H</tspan></text>
<text
     xml:space="preserve"
     style="font-style:normal;font-weight:normal;font-size:17.50029564px;line-height:125%;font-family:sans-serif;letter-spacing:0px;word-spacing:0px;fill:#000000;fill-opacity:1;stroke:none;stroke-width:1px;stroke-linecap:butt;stroke-linejoin:miter;stroke-opacity:1"
     x="246.28664"
     y="54.053089"
     id="text4265-3"
     sodipodi:linespacing="125%"
     transform="scale(0.9999831,1.0000169)"><tspan
       sodipodi:role="line"
       id="tspan4267-6"
       x="246.28664"
       y="54.053089">H</tspan></text>
<text
     xml:space="preserve"
     style="font-style:normal;font-weight:normal;font-size:17.5px;line-height:125%;font-family:sans-serif;letter-spacing:0px;word-spacing:0px;fill:#000000;fill-opacity:1;stroke:none;stroke-width:1px;stroke-linecap:butt;stroke-linejoin:miter;stroke-opacity:1"
     x="145.59839"
     y="19.054001"
     id="text4287"
     sodipodi:linespacing="125%"><tspan
       sodipodi:role="line"
       id="tspan4289"
       x="145.59839"
       y="19.054001">f</tspan></text>
<text
     xml:space="preserve"
     style="font-style:normal;font-weight:normal;font-size:17.5px;line-height:125%;font-family:sans-serif;letter-spacing:0px;word-spacing:0px;fill:#000000;fill-opacity:1;stroke:none;stroke-width:1px;stroke-linecap:butt;stroke-linejoin:miter;stroke-opacity:1"
     x="145.59839"
     y="135.59717"
     id="text4291"
     sodipodi:linespacing="125%"><tspan
       sodipodi:role="line"
       id="tspan4293"
       x="145.59839"
       y="135.59717">f</tspan></text>
<text
     xml:space="preserve"
     style="font-style:normal;font-weight:normal;font-size:17.5px;line-height:125%;font-family:sans-serif;letter-spacing:0px;word-spacing:0px;fill:#000000;fill-opacity:1;stroke:none;stroke-width:1px;stroke-linecap:butt;stroke-linejoin:miter;stroke-opacity:1"
     x="46.282471"
     y="203.054"
     id="text4265-7"
     sodipodi:linespacing="125%"><tspan
       sodipodi:role="line"
       id="tspan4267-5"
       x="46.282471"
       y="203.054">H</tspan></text>
<text
     xml:space="preserve"
     style="font-style:normal;font-weight:normal;font-size:17.5px;line-height:125%;font-family:sans-serif;letter-spacing:0px;word-spacing:0px;fill:#000000;fill-opacity:1;stroke:none;stroke-width:1px;stroke-linecap:butt;stroke-linejoin:miter;stroke-opacity:1"
     x="246.28247"
     y="203.054"
     id="text4265-7-3"
     sodipodi:linespacing="125%"><tspan
       sodipodi:role="line"
       id="tspan4267-5-5"
       x="246.28247"
       y="203.054">H</tspan></text>
<text
     xml:space="preserve"
     style="font-style:normal;font-weight:normal;font-size:17.5px;line-height:125%;font-family:sans-serif;letter-spacing:0px;word-spacing:0px;fill:#000000;fill-opacity:1;stroke:none;stroke-width:1px;stroke-linecap:butt;stroke-linejoin:miter;stroke-opacity:1"
     x="142.73749"
     y="125.82403"
     id="text4331"
     sodipodi:linespacing="125%"><tspan
       sodipodi:role="line"
       id="tspan4333"
       x="142.73749"
       y="125.82403">~</tspan></text>
</svg>