<?xml version="1.0" encoding="UTF-8" standalone="no"?>
<!-- Created with Inkscape (http://www.inkscape.org/) -->

<svg
   xmlns:dc="http://purl.org/dc/elements/1.1/"
   xmlns:cc="http://creativecommons.org/ns#"
   xmlns:rdf="http://www.w3.org/1999/02/22-rdf-syntax-ns#"
   xmlns:svg="http://www.w3.org/2000/svg"
   xmlns="http://www.w3.org/2000/svg"
   xmlns:xlink="http://www.w3.org/1999/xlink"
   xmlns:sodipodi="http://sodipodi.sourceforge.net/DTD/sodipodi-0.dtd"
   xmlns:inkscape="http://www.inkscape.org/namespaces/inkscape"
   id="svg2"
   version="1.1"
   inkscape:version="0.91 r13725"
   xml:space="preserve"
   width="1152.5"
   height="685"
   viewBox="0 0 1152.5 685"
   sodipodi:docname="T2ttV.svg"><metadata
     id="metadata8"><rdf:RDF><cc:Work
         rdf:about=""><dc:format>image/svg+xml</dc:format><dc:type
           rdf:resource="http://purl.org/dc/dcmitype/StillImage" /><dc:title></dc:title></cc:Work></rdf:RDF></metadata><defs
     id="defs6"><pattern
       inkscape:collect="always"
       xlink:href="#pattern214"
       id="pattern4679"
       patternTransform="matrix(-0.00159751,0.00149334,0.00159751,0.00149334,191.34879,275.89926)" /><pattern
       inkscape:collect="always"
       xlink:href="#pattern388"
       id="pattern4594"
       patternTransform="matrix(-0.00159751,0.00149334,0.00159751,0.00149334,191.34879,275.89926)" /><pattern
       patternTransform="matrix(-0.0176777,0.0176777,0.0176777,0.0176777,1701.25,2847)"
       patternUnits="userSpaceOnUse"
       x="0"
       y="0"
       width="4200"
       height="14200"
       id="pattern214"><g
         transform="scale(0.1,0.1)"
         id="g216"><g
           transform="scale(11.7791,11.7791)"
           id="g218"><path
             d="M 0,16300 0,7810.42"
             style="fill:none;stroke:#000000;stroke-opacity:1;stroke-width:34.033;stroke-linecap:butt;stroke-linejoin:miter;stroke-miterlimit:10;stroke-dasharray:none"
             id="path220" /></g></g></pattern><pattern
       patternTransform="matrix(-0.0176777,0.0176777,0.0176777,0.0176777,1701.25,2847)"
       patternUnits="userSpaceOnUse"
       x="0"
       y="0"
       width="4200"
       height="14200"
       id="pattern388"><g
         transform="scale(0.1,0.1)"
         id="g390"><g
           transform="scale(11.7791,11.7791)"
           id="g392"><path
             d="M 0,16300 0,7810.42"
             style="fill:none;stroke:#000000;stroke-opacity:1;stroke-width:34.033;stroke-linecap:butt;stroke-linejoin:miter;stroke-miterlimit:10;stroke-dasharray:none"
             id="path394" /></g></g></pattern></defs><sodipodi:namedview
     pagecolor="#ffffff"
     bordercolor="#666666"
     borderopacity="1"
     objecttolerance="10"
     gridtolerance="10"
     guidetolerance="10"
     inkscape:pageopacity="0"
     inkscape:pageshadow="2"
     inkscape:window-width="1920"
     inkscape:window-height="981"
     id="namedview4"
     showgrid="false"
     inkscape:zoom="1.1562044"
     inkscape:cx="576.25"
     inkscape:cy="342.5"
     inkscape:window-x="0"
     inkscape:window-y="28"
     inkscape:window-maximized="1"
     inkscape:current-layer="g10" /><g
     id="g10"
     inkscape:groupmode="layer"
     inkscape:label="ink_ext_XXXXXX"
     transform="matrix(1.25,0,0,-1.25,0,685)"><path
       inkscape:connector-curvature="0"
       id="path14"
       style="fill:none;stroke:#000000;stroke-width:1.9813664;stroke-linecap:butt;stroke-linejoin:miter;stroke-miterlimit:10;stroke-dasharray:none;stroke-opacity:1"
       d="M 51.979606,94.667006 186.00077,245.00471" /><path
       inkscape:connector-curvature="0"
       id="path16"
       style="fill:none;stroke:#000000;stroke-width:1.9813664;stroke-linecap:butt;stroke-linejoin:miter;stroke-miterlimit:10;stroke-dasharray:none;stroke-opacity:1"
       d="M 65.365728,94.673933 196.55222,241.83686" /><path
       inkscape:connector-curvature="0"
       id="path18"
       style="fill:#000000;fill-opacity:1;fill-rule:nonzero;stroke:none"
       d="m 196.5486,241.83686 0.0108,0.004 -0.004,-0.007 -0.004,0.004 -0.004,0 z" /><path
       inkscape:connector-curvature="0"
       id="path20"
       style="fill:none;stroke:#000000;stroke-width:1.9813664;stroke-linecap:butt;stroke-linejoin:miter;stroke-miterlimit:10;stroke-dasharray:none;stroke-opacity:1"
       d="M 38.632894,94.703328 182.94,256.58046" /><path
       inkscape:connector-curvature="0"
       id="path22"
       style="fill:#000000;fill-opacity:1;fill-rule:nonzero;stroke:none"
       d="m 182.93638,256.58384 0.0108,0.004 -0.004,-0.009 -0.008,0.006 z" /><path
       inkscape:connector-curvature="0"
       id="path24"
       style="fill:none;stroke:#000000;stroke-width:1.9813664;stroke-linecap:butt;stroke-linejoin:miter;stroke-miterlimit:10;stroke-dasharray:none;stroke-opacity:1"
       d="M 51.979606,439.49117 186.00077,289.15354" /><path
       inkscape:connector-curvature="0"
       id="path26"
       style="fill:none;stroke:#000000;stroke-width:1.9813664;stroke-linecap:butt;stroke-linejoin:miter;stroke-miterlimit:10;stroke-dasharray:none;stroke-opacity:1"
       d="M 38.632894,439.45483 182.94,277.57779" /><path
       inkscape:connector-curvature="0"
       id="path28"
       style="fill:#000000;fill-opacity:1;fill-rule:nonzero;stroke:none"
       d="m 182.94361,277.58117 0.004,-0.0101 -0.0108,0.007 0.004,0 0.004,0.004 z" /><path
       inkscape:connector-curvature="0"
       id="path30"
       style="fill:none;stroke:#000000;stroke-width:1.9813664;stroke-linecap:butt;stroke-linejoin:miter;stroke-miterlimit:10;stroke-dasharray:none;stroke-opacity:1"
       d="M 65.365728,439.4844 196.55222,292.32477" /><path
       inkscape:connector-curvature="0"
       id="path32"
       style="fill:#000000;fill-opacity:1;fill-rule:nonzero;stroke:none"
       d="m 196.55583,292.32814 0.004,-0.0101 -0.0108,0.004 0.008,0.007 z" /><path
       inkscape:connector-curvature="0"
       id="path34"
       style="fill:none;stroke:#000000;stroke-width:1.9813664;stroke-linecap:butt;stroke-linejoin:miter;stroke-miterlimit:10;stroke-dasharray:none;stroke-opacity:1"
       d="m 233.17229,279.93045 170.56353,79.72081" /><g
       id="g36"
       transform="matrix(0.90368614,0,0,0.84475951,37.609189,35.396229)"><text
         id="text38"
         style="font-variant:normal;font-weight:normal;font-size:39.8506012px;font-family:'DejaVu Sans';-inkscape-font-specification:DejaVuSans;writing-mode:lr-tb;fill:#000000;fill-opacity:1;fill-rule:nonzero;stroke:none"
         transform="matrix(1,0,0,-1,266.039,363.839)"><tspan
           id="tspan40"
           y="0"
           x="0">˜</tspan></text>
<text
         id="text42"
         style="font-style:oblique;font-variant:normal;font-size:39.8506012px;font-family:'DejaVu Sans';-inkscape-font-specification:DejaVuSans-Oblique;writing-mode:lr-tb;fill:#000000;fill-opacity:1;fill-rule:nonzero;stroke:none"
         transform="matrix(1,0,0,-1,265.48548,356.48548)"><tspan
           id="tspan44"
           y="0"
           x="0">t</tspan></text>
<text
         id="text46"
         style="font-variant:normal;font-weight:normal;font-size:27.89539909px;font-family:'DejaVu Sans';-inkscape-font-specification:DejaVuSans;writing-mode:lr-tb;fill:#000000;fill-opacity:1;fill-rule:nonzero;stroke:none"
         transform="matrix(1,0,0,-1,279.87608,348.18353)"><tspan
           id="tspan48"
           y="0"
           x="0">1</tspan></text>
</g><path
       inkscape:connector-curvature="0"
       id="path50"
       style="fill:none;stroke:#000000;stroke-width:1.9813664;stroke-linecap:butt;stroke-linejoin:miter;stroke-miterlimit:10;stroke-dasharray:none;stroke-opacity:1"
       d="m 413.19289,369.63039 48.64724,127.3306" /><path
       inkscape:connector-curvature="0"
       id="path52"
       style="fill:none;stroke:#000000;stroke-width:1.9813664;stroke-linecap:butt;stroke-linejoin:miter;stroke-miterlimit:10;stroke-dasharray:none;stroke-opacity:1"
       d="m 413.19289,369.63039 c -2.13902,1.5476 -4.52837,3.28612 -6.20561,4.68251 -1.67634,1.39216 -3.03187,2.7877 -3.49816,3.77438 -0.46269,0.99006 -0.14459,1.82807 0.88561,2.31717 1.0311,0.48828 3.02554,0.76536 5.26759,0.85068 2.24114,0.0862 5.2703,0.0169 7.97412,-0.049 2.70383,-0.0693 5.73299,-0.13854 7.97413,-0.0532 2.24114,0.0862 4.23648,0.36324 5.26669,0.85152 1.0311,0.49165 1.34829,1.32627 0.88289,2.31633 -0.46629,0.99006 -1.82183,2.38307 -3.49455,3.77861 -1.67724,1.39216 -4.06659,3.13153 -6.20652,4.67912 -2.13902,1.55098 -4.52837,3.29034 -6.20562,4.6825 -1.67633,1.39554 -3.03186,2.78856 -3.49816,3.7786 -0.4663,0.98922 -0.14459,1.82469 0.88652,2.31634 1.03019,0.48827 3.02464,0.76535 5.26668,0.85151 2.24114,0.0854 5.27029,0.0161 7.97412,-0.0532 2.70383,-0.0658 5.73299,-0.13515 7.97413,-0.049 2.24205,0.0854 4.23287,0.3624 5.26306,0.85067 1.03111,0.48828 1.35192,1.32712 0.88652,2.31718 -0.46629,0.98583 -1.82182,2.38222 -3.49816,3.77439 -1.67724,1.39638 -4.06659,3.1349 -6.20561,4.6825 -2.13632,1.54759 -4.52928,3.29033 -6.20291,4.6825 -1.67634,1.39639 -3.03187,2.78854 -3.49817,3.7786 -0.4654,0.99007 -0.1482,1.82469 0.8829,2.31634 1.03021,0.48827 3.02464,0.76534 5.26668,0.85151 2.24115,0.0854 5.27031,0.0161 7.97414,-0.0532 2.70382,-0.0693 5.73297,-0.13516 7.97412,-0.049 2.24205,0.0854 4.23648,0.35987 5.26668,0.85152 1.03111,0.48828 1.35192,1.32627 0.88652,2.31296 -0.4663,0.99005 -1.82183,2.3856 -3.49816,3.77861 -1.67725,1.39554 -4.0666,3.13405 -6.20562,4.68165 -2.13993,1.54844 -4.52928,3.29034 -6.20652,4.6825 -1.67634,1.393 -3.03187,2.78855 -3.49816,3.77861 -0.46179,0.99006 -0.1446,1.82468 0.8865,2.31634 1.03021,0.48826 3.02465,0.76619 5.26669,0.85151 2.24113,0.0861 5.2703,0.0169 7.97412,-0.0524 2.70383,-0.0693 5.73299,-0.13853 7.97413,-0.0532 2.24205,0.0862 4.23648,0.36324 5.26669,0.8549 1.03111,0.48826 1.34919,1.32288 0.8829,2.31295 -0.46631,0.99005 -1.82184,2.38559 -3.49456,3.7786 -1.67723,1.39554 -4.06658,3.1349 -6.2056,4.6825 -2.13994,1.5476 -4.52928,3.2895 -6.20653,4.6825 -1.67633,1.39217 -3.03187,2.78771 -3.49817,3.77777 -0.4654,0.99006 -0.14458,1.82553 0.88652,2.3138 1.0302,0.49165 3.02464,0.76872 5.26668,0.85405 2.24114,0.0862 5.2703,0.0168 7.97413,-0.0524 2.70383,-0.0693 5.73298,-0.13854 7.97412,-0.0532 2.24206,0.0862 4.23287,0.36325 5.26398,0.8549 1.03019,0.48826 1.35191,1.32289 0.88561,2.31294 -0.4663,0.99007 -1.82183,2.38645 -3.49817,3.77861 -1.67724,1.39216 -4.06659,3.1349 -6.20561,4.68251 -2.13542,1.54759 -4.52927,3.29033 -6.20199,4.6825 -1.67725,1.39216 -3.03278,2.78855 -3.49908,3.77861 -0.4654,0.9892 -0.1482,1.82467 0.8829,2.31295 1.0311,0.49165 3.02554,0.76873 5.26668,0.8549 2.24205,0.0854 5.2703,0.0161 7.97413,-0.0532" /><g
       id="g54"
       transform="matrix(0.90368614,0,0,0.84475951,21.609189,35.396229)"><text
         id="text56"
         style="font-variant:normal;font-weight:normal;font-size:39.8506012px;font-family:'DejaVu Sans';-inkscape-font-specification:DejaVuSans;writing-mode:lr-tb;fill:#000000;fill-opacity:1;fill-rule:nonzero;stroke:none"
         transform="matrix(1,0,0,-1,393.413,493.258)"><tspan
           id="tspan58"
           y="0"
           x="0">˜</tspan></text>
</g><path
       inkscape:connector-curvature="0"
       id="path60"
       style="fill:#000000;fill-opacity:1;fill-rule:nonzero;stroke:none"
       d="m 383.69905,448.00211 -1.3013,6.30276 -7.30721,-9.21633 -3.82078,0 10.35263,13.03463 -1.60314,7.75236 c -0.28195,1.38119 -1.32571,2.07304 -3.13308,2.07304 l -0.86211,0 0.52774,2.60018 1.23263,-0.0329 c 3.0156,-0.0761 4.71181,-1.03061 5.08775,-2.8629 l 1.30312,-6.30359 7.3054,9.21548 3.82079,0 -10.35082,-13.03464 1.60133,-7.75151 c 0.28014,-1.38202 1.3257,-2.07388 3.13397,-2.07388 l 0.86303,0 -0.52776,-2.60018 -1.23262,0.0329 c -3.01831,0.0777 -4.71362,1.03229 -5.08957,2.86457" /><g
       id="g62"
       transform="matrix(0.90368614,0,0,0.84475951,21.609189,35.396229)"><text
         id="text64"
         style="font-variant:normal;font-weight:normal;font-size:27.89539909px;font-family:'DejaVu Sans';-inkscape-font-specification:DejaVuSans;writing-mode:lr-tb;fill:#000000;fill-opacity:1;fill-rule:nonzero;stroke:none"
         transform="matrix(1,0,0,-1,413.629,512.63)"><tspan
           id="tspan66"
           y="0"
           x="0">0</tspan><tspan
           id="tspan68"
           y="27.6738"
           x="0">1</tspan></text>
</g><path
       inkscape:connector-curvature="0"
       id="path70"
       style="fill:none;stroke:#000000;stroke-width:1.9813664;stroke-linecap:butt;stroke-linejoin:miter;stroke-miterlimit:10;stroke-dasharray:none;stroke-opacity:1"
       d="m 418.29421,362.86218 148.57504,0" /><g
       id="g72"
       transform="matrix(0.90368614,0,0,0.84475951,37.609189,35.396229)"><text
         id="text74"
         style="font-style:oblique;font-variant:normal;font-size:39.8506012px;font-family:'DejaVu Sans';-inkscape-font-specification:DejaVuSans-Oblique;writing-mode:lr-tb;fill:#000000;fill-opacity:1;fill-rule:nonzero;stroke:none"
         transform="matrix(1,0,0,-1,523.479,431.541)"><tspan
           id="tspan76"
           y="0"
           x="0">t</tspan></text>
</g><path
       inkscape:connector-curvature="0"
       id="path78"
       style="fill:none;stroke:#000000;stroke-width:1.9813664;stroke-linecap:butt;stroke-linejoin:miter;stroke-miterlimit:10;stroke-dasharray:none;stroke-opacity:1"
       d="m 581.30383,359.4333 111.082,-56.43331" /><g
       id="g80"
       transform="matrix(0.90368614,0,0,0.84475951,37.609189,44.996229)"><text
         id="text82"
         style="font-style:oblique;font-variant:normal;font-size:39.8506012px;font-family:'DejaVu Sans';-inkscape-font-specification:DejaVuSans-Oblique;writing-mode:lr-tb;fill:#000000;fill-opacity:1;fill-rule:nonzero;stroke:none"
         transform="matrix(1,0,0,-1,747.512,302.616)"><tspan
           id="tspan84"
           y="0"
           x="0">b</tspan></text>
</g><path
       inkscape:connector-curvature="0"
       id="path86"
       style="fill:none;stroke:#000000;stroke-width:1.9813664;stroke-linecap:butt;stroke-linejoin:miter;stroke-miterlimit:10;stroke-dasharray:none;stroke-opacity:1"
       d="m 581.11676,366.59771 c 0.0778,2.52752 0.23586,6.36526 0.53589,8.54643 0.30002,2.18117 1.14045,4.97309 2.03328,6.24699 0.89014,1.27306 2.83125,2.37885 4.45157,2.53091 1.6203,0.15459 4.65579,-0.42914 6.86982,-1.18182 2.20951,-0.75184 5.92638,-2.37884 8.36542,-3.47788 2.43634,-1.09903 6.1532,-2.72857 8.36272,-3.48125 2.21403,-0.7493 5.24951,-1.33642 6.86981,-1.18182 1.62032,0.15544 3.56143,1.25785 4.45156,2.53428 0.89284,1.27389 1.73328,4.06583 2.0333,6.247 0.30002,2.18116 0.45907,6.01552 0.53678,8.54305 0.0741,2.52752 0.23587,6.36273 0.53589,8.54389 0.30003,2.18118 1.14046,4.97226 2.02968,6.24953 0.89375,1.27391 2.83125,2.37547 4.45156,2.53091 1.62031,0.15543 4.6594,-0.42914 6.86982,-1.18097 2.21314,-0.75269 5.92999,-2.38307 8.36542,-3.48127 2.43634,-1.09564 6.1532,-2.72603 8.36633,-3.47871 2.21041,-0.75183 5.24952,-1.33641 6.86983,-1.18097 1.6203,0.15543 3.55781,1.257 4.45155,2.53089 0.88923,1.27728 1.72965,4.06836 2.02967,6.24954 0.30004,2.18116 0.4618,6.01637 0.5368,8.54389 0.0768,2.52752 0.23586,6.36189 0.53589,8.54306 0.30002,2.18117 1.14044,4.9731 2.03328,6.247 0.89014,1.27642 2.83126,2.37883 4.45157,2.53427 1.62031,0.15459 4.65579,-0.43251 6.86981,-1.1852 2.20951,-0.75183 5.92638,-2.37884 8.36182,-3.47787" /><g
       id="g88"
       transform="matrix(0.90368614,0,0,0.84475951,37.609189,35.396229)"><text
         id="text90"
         style="font-style:oblique;font-variant:normal;font-size:39.8506012px;font-family:'DejaVu Sans';-inkscape-font-specification:DejaVuSans-Oblique;writing-mode:lr-tb;fill:#000000;fill-opacity:1;fill-rule:nonzero;stroke:none"
         transform="matrix(1,0,0,-1,602.446,453.688)"><tspan
           id="tspan92"
           y="0"
           x="0">W</tspan></text>
<text
         id="text94"
         style="font-variant:normal;font-weight:normal;font-size:27.89539909px;font-family:'DejaVu Sans';-inkscape-font-specification:DejaVuSans;writing-mode:lr-tb;fill:#000000;fill-opacity:1;fill-rule:nonzero;stroke:none"
         transform="matrix(1,0,0,-1,645.6175,473.0599)"><tspan
           id="tspan96"
           y="0"
           x="0">+</tspan></text>
</g><path
       inkscape:connector-curvature="0"
       id="path98"
       style="fill:none;stroke:#000000;stroke-width:1.9813664;stroke-linecap:butt;stroke-linejoin:miter;stroke-miterlimit:10;stroke-dasharray:none;stroke-opacity:1"
       d="M 692.38583,429.91159 820.46978,391.59752" /><g
       id="g100"
       transform="matrix(0.90368614,0,0,0.84475951,37.609189,35.396229)"><text
         id="text102"
         style="font-style:oblique;font-variant:normal;font-size:39.8506012px;font-family:'DejaVu Sans';-inkscape-font-specification:DejaVuSans-Oblique;writing-mode:lr-tb;fill:#000000;fill-opacity:1;fill-rule:nonzero;stroke:none"
         transform="matrix(1,0,0,-1,888.661,389.55)"><tspan
           id="tspan104"
           y="0"
           x="0">q</tspan></text>
</g><path
       inkscape:connector-curvature="0"
       id="path106"
       style="fill:none;stroke:#000000;stroke-width:1.9813664;stroke-linecap:butt;stroke-linejoin:miter;stroke-miterlimit:10;stroke-dasharray:none;stroke-opacity:1"
       d="m 692.38583,429.91159 128.08395,38.31406" /><g
       id="g108"
       transform="matrix(0.90368614,0,0,0.84475951,37.609189,35.396229)"><text
         id="text110"
         style="font-variant:normal;font-weight:normal;font-size:39.8506012px;font-family:'DejaVu Sans';-inkscape-font-specification:DejaVuSans;writing-mode:lr-tb;fill:#000000;fill-opacity:1;fill-rule:nonzero;stroke:none"
         transform="matrix(1,0,0,-1,880.539,493.968)"><tspan
           id="tspan112"
           y="0"
           x="0">¯</tspan></text>
<text
         id="text114"
         style="font-style:oblique;font-variant:normal;font-size:39.8506012px;font-family:'DejaVu Sans';-inkscape-font-specification:DejaVuSans-Oblique;writing-mode:lr-tb;fill:#000000;fill-opacity:1;fill-rule:nonzero;stroke:none"
         transform="matrix(1,0,0,-1,877.59017,493.968)"><tspan
           id="tspan116"
           y="0"
           x="0">q</tspan></text>
<text
         id="text118"
         style="font-style:oblique;font-variant:normal;font-size:27.89539909px;font-family:'DejaVu Sans';-inkscape-font-specification:DejaVuSans-Oblique;writing-mode:lr-tb;fill:#000000;fill-opacity:1;fill-rule:nonzero;stroke:none"
         transform="matrix(1,0,0,-1,896.79057,513.3395)"><tspan
           id="tspan120"
           y="0"
           x="0">0</tspan></text>
</g><path
       inkscape:connector-curvature="0"
       id="path122"
       style="fill:none;stroke:#000000;stroke-width:1.9813664;stroke-linecap:butt;stroke-linejoin:miter;stroke-miterlimit:10;stroke-dasharray:none;stroke-opacity:1"
       d="M 403.73582,174.50699 233.17229,254.2278" /><g
       id="g124"
       transform="matrix(0.90368614,0,0,0.84475951,37.609189,35.396229)"><text
         id="text126"
         style="font-variant:normal;font-weight:normal;font-size:39.8506012px;font-family:'DejaVu Sans';-inkscape-font-specification:DejaVuSans;writing-mode:lr-tb;fill:#000000;fill-opacity:1;fill-rule:nonzero;stroke:none"
         transform="matrix(1,0,0,-1,263.283,174.391)"><tspan
           id="tspan128"
           y="0"
           x="0">˜</tspan></text>
<text
         id="text130"
         style="font-style:oblique;font-variant:normal;font-size:39.8506012px;font-family:'DejaVu Sans';-inkscape-font-specification:DejaVuSans-Oblique;writing-mode:lr-tb;fill:#000000;fill-opacity:1;fill-rule:nonzero;stroke:none"
         transform="matrix(1,0,0,-1,262.72948,167.03787)"><tspan
           id="tspan132"
           y="0"
           x="0">t</tspan></text>
</g><path
       inkscape:connector-curvature="0"
       id="path134"
       style="fill:#000000;fill-opacity:1;fill-rule:nonzero;stroke:none"
       d="m 291.23413,197.40505 5.26848,2.84177 -5.26848,2.84346 1.04647,1.69206 5.26849,-2.84347 0,5.69706 2.06853,0 0,-5.69706 5.2694,2.84347 1.04647,-1.69206 -5.2694,-2.84346 5.2694,-2.84177 -1.04647,-1.69205 -5.2694,2.84346 0,-5.69706 -2.06853,0 0,5.69706 -5.26849,-2.84346 -1.04647,1.69205" /><g
       id="g136"
       transform="matrix(0.90368614,0,0,0.84475951,37.609189,35.396229)"><text
         id="text138"
         style="font-variant:normal;font-weight:normal;font-size:27.89539909px;font-family:'DejaVu Sans';-inkscape-font-specification:DejaVuSans;writing-mode:lr-tb;fill:#000000;fill-opacity:1;fill-rule:nonzero;stroke:none"
         transform="matrix(1,0,0,-1,277.12,158.736)"><tspan
           id="tspan140"
           y="0"
           x="0">1</tspan></text>
</g><path
       inkscape:connector-curvature="0"
       id="path142"
       style="fill:none;stroke:#000000;stroke-width:1.9813664;stroke-linecap:butt;stroke-linejoin:miter;stroke-miterlimit:10;stroke-dasharray:none;stroke-opacity:1"
       d="M 413.19289,164.53208 461.84013,37.197281" /><path
       inkscape:connector-curvature="0"
       id="path144"
       style="fill:none;stroke:#000000;stroke-width:1.9813664;stroke-linecap:butt;stroke-linejoin:miter;stroke-miterlimit:10;stroke-dasharray:none;stroke-opacity:1"
       d="m 413.19289,164.53208 c 2.70383,0.0693 5.73299,0.13516 7.97503,0.049 2.24115,-0.0853 4.23558,-0.35986 5.26668,-0.85152 1.03021,-0.48827 1.34831,-1.32627 0.882,-2.31295 -0.46268,-0.99005 -1.81821,-2.38559 -3.49455,-3.77861 -1.67634,-1.39554 -4.06658,-3.13491 -6.20561,-4.6825 -2.13902,-1.54759 -4.52928,-3.28949 -6.20561,-4.6825 -1.67725,-1.39216 -3.03277,-2.7877 -3.49817,-3.77776 -0.46631,-0.99006 -0.14549,-1.82468 0.88561,-2.31633 1.03111,-0.48827 3.02554,-0.76619 5.26669,-0.85152 2.24204,-0.0861 5.27029,-0.0169 7.97412,0.0523 2.70473,0.0693 5.73299,0.13854 7.97503,0.0532 2.24114,-0.0861 4.23558,-0.36325 5.26668,-0.8549 1.0302,-0.48826 1.34831,-1.32289 0.882,-2.31294 -0.4654,-0.99007 -1.82093,-2.38561 -3.49816,-3.77861 -1.67273,-1.39554 -4.0666,-3.1349 -6.20201,-4.68251 -2.13902,-1.54759 -4.52928,-3.28949 -6.20561,-4.6825 -1.67724,-1.39216 -3.03276,-2.78855 -3.49816,-3.77777 -0.46631,-0.99005 -0.1455,-1.8256 0.8856,-2.31371 1.03111,-0.49165 3.02193,-0.76881 5.26308,-0.85397 2.24204,-0.0864 5.27029,-0.0171 7.97503,0.0521 2.70383,0.0693 5.73208,0.13863 7.97412,0.0534 2.24114,-0.0864 4.23558,-0.36333 5.26668,-0.85498 1.03021,-0.48835 1.35192,-1.32391 0.88561,-2.31287 -0.4654,-0.99031 -1.82092,-2.38645 -3.49817,-3.77869 -1.67633,-1.39318 -4.06658,-3.13516 -6.2056,-4.68242 -2.13903,-1.54768 -4.52928,-3.29059 -6.20562,-4.68283 -1.67362,-1.39183 -3.02915,-2.788387 -3.49455,-3.778277 -0.46631,-0.990314 -0.14821,-1.824853 0.882,-2.31321 1.0311,-0.491731 3.02554,-0.76856 5.26668,-0.85464 2.24204,-0.08545 5.27029,-0.01618 7.97503,0.05308 2.70383,0.06935 5.73208,0.138622 7.97412,0.05253 2.24115,-0.08545 4.23558,-0.362656 5.26668,-0.850761 1.03111,-0.492661 1.3483,-1.3272 0.88562,-2.317089 -0.4654,-0.990312 -1.82092,-2.385855 -3.49817,-3.778019 -1.67634,-1.392839 -4.06659,-3.134817 -6.20562,-4.682501 -2.13901,-1.5476 -4.52927,-3.286959 -6.2056,-4.682417 -1.67725,-1.392924 -3.03278,-2.788383 -3.49818,-3.778694 -0.4663,-0.986679 -0.14458,-1.824512 0.88562,-2.312868 1.03111,-0.49165 3.02554,-0.765182 5.26669,-0.851687 2.24204,-0.08608 5.27029,-0.01909 7.97503,0.05018 2.70382,0.06894 5.73208,0.138288 7.97412,0.05212 2.24113,-0.08516 4.23558,-0.363331 5.26668,-0.851349 1.03111,-0.491649 1.3483,-1.326187 0.88291,-2.316499 -0.46631,-0.989973 -1.82185,-2.382137 -3.49908,-3.778609 -1.67272,-1.392248 -4.06659,-3.134903 -6.202,-4.682502 -2.13902,-1.547599 -4.52928,-3.28603 -6.20561,-4.682502 -1.67634,-1.392164 -3.03186,-2.787706 -3.49816,-3.774302 -0.46631,-0.989972 -0.1446,-1.828143 0.8856,-2.316161 1.03111,-0.489368 3.02192,-0.766281 5.26398,-0.851686 2.24113,-0.08617 5.27029,-0.0169 7.97412,0.04917 2.70383,0.06927 5.73299,0.138203 7.97412,0.05305 2.24115,-0.08609 4.23559,-0.363248 5.26669,-0.851687 1.03111,-0.49165 1.35192,-1.326187 0.88652,-2.316162 -0.46631,-0.989889 -1.82184,-2.382111 -3.49908,-3.778609 -1.67634,-1.392206 -4.06658,-3.131549 -6.20561,-4.682477" /><g
       id="g146"
       transform="matrix(0.90368614,0,0,0.84475951,28.009189,35.396229)"><text
         id="text148"
         style="font-variant:normal;font-weight:normal;font-size:39.8506012px;font-family:'DejaVu Sans';-inkscape-font-specification:DejaVuSans;writing-mode:lr-tb;fill:#000000;fill-opacity:1;fill-rule:nonzero;stroke:none"
         transform="matrix(1,0,0,-1,383.813,35.3363)"><tspan
           id="tspan150"
           y="0"
           x="0">˜</tspan></text>
</g><path
       inkscape:connector-curvature="0"
       id="path152"
       style="fill:#000000;fill-opacity:1;fill-rule:nonzero;stroke:none"
       d="m 381.42367,61.102007 -1.30131,6.302666 -7.30721,-9.215736 -3.82078,0 10.35263,13.034303 -1.60314,7.752019 c -0.28196,1.381943 -1.32571,2.073632 -3.13308,2.073632 l -0.86211,0 0.52775,2.600254 1.23262,-0.03295 c 3.01561,-0.07662 4.71183,-1.030945 5.08776,-2.862975 l 1.30311,-6.304018 7.3054,9.215819 3.82079,0 -10.35082,-13.034385 1.60132,-7.75202 c 0.28015,-1.381943 1.32571,-2.073632 3.13399,-2.073632 l 0.86302,0 -0.52775,-2.600253 -1.23263,0.03303 c -3.01831,0.07788 -4.71363,1.032127 -5.08956,2.864242" /><g
       id="g154"
       transform="matrix(0.90368614,0,0,0.84475951,28.009189,35.396229)"><text
         id="text156"
         style="font-variant:normal;font-weight:normal;font-size:27.89539909px;font-family:'DejaVu Sans';-inkscape-font-specification:DejaVuSans;writing-mode:lr-tb;fill:#000000;fill-opacity:1;fill-rule:nonzero;stroke:none"
         transform="matrix(1,0,0,-1,404.029,54.7078)"><tspan
           id="tspan158"
           y="0"
           x="0">0</tspan><tspan
           id="tspan160"
           y="27.6738"
           x="0">1</tspan></text>
</g><path
       inkscape:connector-curvature="0"
       id="path162"
       style="fill:none;stroke:#000000;stroke-width:1.9813664;stroke-linecap:butt;stroke-linejoin:miter;stroke-miterlimit:10;stroke-dasharray:none;stroke-opacity:1"
       d="m 418.29421,171.29607 148.57504,0" /><g
       id="g164"
       transform="matrix(0.90368614,0,0,0.84475951,37.609189,35.396229)"><text
         id="text166"
         style="font-variant:normal;font-weight:normal;font-size:39.8506012px;font-family:'DejaVu Sans';-inkscape-font-specification:DejaVuSans;writing-mode:lr-tb;fill:#000000;fill-opacity:1;fill-rule:nonzero;stroke:none"
         transform="matrix(1,0,0,-1,524.033,104.407)"><tspan
           id="tspan168"
           y="0"
           x="0">¯</tspan></text>
<text
         id="text170"
         style="font-style:oblique;font-variant:normal;font-size:39.8506012px;font-family:'DejaVu Sans';-inkscape-font-specification:DejaVuSans-Oblique;writing-mode:lr-tb;fill:#000000;fill-opacity:1;fill-rule:nonzero;stroke:none"
         transform="matrix(1,0,0,-1,523.47948,97.05348)"><tspan
           id="tspan172"
           y="0"
           x="0">t</tspan></text>
</g><path
       inkscape:connector-curvature="0"
       id="path174"
       style="fill:none;stroke:#000000;stroke-width:1.9813664;stroke-linecap:butt;stroke-linejoin:miter;stroke-miterlimit:10;stroke-dasharray:none;stroke-opacity:1"
       d="m 581.30383,174.72494 111.082,56.43754" /><g
       id="g176"
       transform="matrix(0.90368614,0,0,0.84475951,37.609189,35.396229)"><text
         id="text178"
         style="font-variant:normal;font-weight:normal;font-size:39.8506012px;font-family:'DejaVu Sans';-inkscape-font-specification:DejaVuSans;writing-mode:lr-tb;fill:#000000;fill-opacity:1;fill-rule:nonzero;stroke:none"
         transform="matrix(1,0,0,-1,753.973,237.547)"><tspan
           id="tspan180"
           y="0"
           x="0">¯</tspan></text>
<text
         id="text182"
         style="font-style:oblique;font-variant:normal;font-size:39.8506012px;font-family:'DejaVu Sans';-inkscape-font-specification:DejaVuSans-Oblique;writing-mode:lr-tb;fill:#000000;fill-opacity:1;fill-rule:nonzero;stroke:none"
         transform="matrix(1,0,0,-1,755.38433,227.031)"><tspan
           id="tspan184"
           y="0"
           x="0">b</tspan></text>
</g><path
       inkscape:connector-curvature="0"
       id="path186"
       style="fill:none;stroke:#000000;stroke-width:1.9813664;stroke-linecap:butt;stroke-linejoin:miter;stroke-miterlimit:10;stroke-dasharray:none;stroke-opacity:1"
       d="m 581.11676,167.56139 c 2.43544,1.09818 6.15591,2.72519 8.36542,3.47787 2.21042,0.75184 5.24952,1.33641 6.86983,1.18435 1.6203,-0.15543 3.56142,-1.257 4.45155,-2.53428 0.88923,-1.27389 1.72965,-4.06498 2.03329,-6.24614 0.30003,-2.18202 0.45908,-6.01639 0.53589,-8.5439 0.075,-2.52753 0.23315,-6.36527 0.53318,-8.54644 0.30363,-2.18116 1.14406,-4.97309 2.03329,-6.24615 0.89013,-1.2739 2.83124,-2.37969 4.45157,-2.53174 1.6203,-0.15459 4.65939,0.42914 6.8698,1.18182 2.20952,0.75183 5.93,2.37885 8.36633,3.47787 2.43544,1.09904 6.15231,2.72941 8.36182,3.48126 2.21402,0.7493 5.25312,1.33641 6.87343,1.18182 1.62031,-0.15544 3.55782,-1.25785 4.45155,-2.53428 0.88924,-1.2739 1.72966,-4.06584 2.02969,-6.24701 0.30002,-2.18116 0.46178,-6.01552 0.53588,-8.54304 0.075,-2.52753 0.23678,-6.36188 0.5368,-8.5439 0.30002,-2.18125 1.14044,-4.97225 2.02967,-6.24962 0.89374,-1.27373 2.83125,-2.37521 4.45155,-2.53065 1.62031,-0.15543 4.65942,0.42897 6.87345,1.18064 2.20951,0.75269 5.92637,2.38315 8.36271,3.48134 2.43543,1.09591 6.15591,2.72605 8.36542,3.47881 2.21042,0.75183 5.24952,1.33641 6.86982,1.18098 1.62031,-0.1546 3.56143,-1.25701 4.45156,-2.53108 0.88922,-1.27702 1.72966,-4.06836 2.03329,-6.2492 0.30003,-2.18116 0.45818,-6.01662 0.53228,-8.54397" /><g
       id="g188"
       transform="matrix(0.90368614,0,0,0.84475951,37.609189,35.396229)"><text
         id="text190"
         style="font-style:oblique;font-variant:normal;font-size:39.8506012px;font-family:'DejaVu Sans';-inkscape-font-specification:DejaVuSans-Oblique;writing-mode:lr-tb;fill:#000000;fill-opacity:1;fill-rule:nonzero;stroke:none"
         transform="matrix(1,0,0,-1,607.043,66.4637)"><tspan
           id="tspan192"
           y="0"
           x="0">W</tspan></text>
</g><path
       inkscape:connector-curvature="0"
       id="path194"
       style="fill:#000000;fill-opacity:1;fill-rule:nonzero;stroke:none"
       d="m 627.89697,114.29677 15.81451,0 0,1.94295 -15.81451,0 0,-1.94295 z" /><path
       inkscape:connector-curvature="0"
       id="path196"
       style="fill:none;stroke:#000000;stroke-width:1.9813664;stroke-linecap:butt;stroke-linejoin:miter;stroke-miterlimit:10;stroke-dasharray:none;stroke-opacity:1"
       d="m 692.38583,104.24675 128.08395,38.31482" /><g
       id="g198"
       transform="matrix(0.90368614,0,0,0.84475951,37.609189,35.396229)"><text
         id="text200"
         style="font-style:oblique;font-variant:normal;font-size:39.8506012px;font-family:'DejaVu Sans';-inkscape-font-specification:DejaVuSans-Oblique;writing-mode:lr-tb;fill:#000000;fill-opacity:1;fill-rule:nonzero;stroke:none"
         transform="matrix(1,0,0,-1,898.852,117.424)"><tspan
           id="tspan202"
           y="0"
           x="0">l</tspan></text>
</g><path
       inkscape:connector-curvature="0"
       id="path204"
       style="fill:none;stroke:#000000;stroke-width:1.9813664;stroke-linecap:butt;stroke-linejoin:miter;stroke-miterlimit:10;stroke-dasharray:none;stroke-opacity:1"
       d="M 692.38583,104.24675 820.46978,65.932596" /><g
       id="g206"
       transform="matrix(0.90368614,0,0,0.84475951,37.609189,35.396229)"><text
         id="text208"
         style="font-style:oblique;font-variant:normal;font-size:39.8506012px;font-family:'DejaVu Sans';-inkscape-font-specification:DejaVuSans-Oblique;writing-mode:lr-tb;fill:#000000;fill-opacity:1;fill-rule:nonzero;stroke:none"
         transform="matrix(1,0,0,-1,887.159,4.03828)"><tspan
           id="tspan210"
           y="0"
           x="0">ν</tspan></text>
</g><path
       inkscape:connector-curvature="0"
       id="path212"
       style="fill:#ffffff;fill-opacity:1;fill-rule:nonzero;stroke:none"
       d="m 236.41652,267.08082 0,0.0498 c -0.0144,7.6155 -3.26139,14.91507 -9.02963,20.29364 -5.77184,5.37859 -13.58692,8.39861 -21.73455,8.39185 -8.14674,-0.007 -15.9591,-3.03945 -21.72009,-8.42817 -5.75739,-5.38534 -8.99439,-12.69082 -8.99439,-20.30717 0,-7.61889 3.237,-14.92183 8.99439,-20.31055 5.76099,-5.38872 13.57335,-8.41803 21.72009,-8.42479 8.14763,-0.006 15.96271,3.00988 21.73455,8.38846 5.76824,5.37858 9.01517,12.67815 9.02963,20.29451 l 0,0.0523 z" /><path
       inkscape:connector-curvature="0"
       id="path222"
       style="fill:url(#pattern4679);fill-opacity:1;fill-rule:nonzero;stroke:none"
       d="m 236.41652,267.08082 0,0.0498 c -0.0144,7.6155 -3.26139,14.91507 -9.02963,20.29364 -5.77184,5.37859 -13.58692,8.39861 -21.73455,8.39185 -8.14674,-0.007 -15.9591,-3.03945 -21.72009,-8.42817 -5.75739,-5.38534 -8.99439,-12.69082 -8.99439,-20.30717 0,-7.61889 3.237,-14.92183 8.99439,-20.31055 5.76099,-5.38872 13.57335,-8.41803 21.72009,-8.42479 8.14763,-0.006 15.96271,3.00988 21.73455,8.38846 5.76824,5.37858 9.01517,12.67815 9.02963,20.29451 l 0,0.0523 z" /><path
       inkscape:connector-curvature="0"
       id="path224"
       style="fill:none;stroke:#000000;stroke-width:1.9813664;stroke-linecap:butt;stroke-linejoin:miter;stroke-miterlimit:10;stroke-dasharray:none;stroke-opacity:1"
       d="m 236.41652,267.08082 0,0.0498 c -0.0144,7.6155 -3.26139,14.91507 -9.02963,20.29364 -5.77184,5.37859 -13.58692,8.39861 -21.73455,8.39185 -8.14674,-0.007 -15.9591,-3.03945 -21.72009,-8.42817 -5.75739,-5.38534 -8.99439,-12.69082 -8.99439,-20.30717 0,-7.61889 3.237,-14.92183 8.99439,-20.31055 5.76099,-5.38872 13.57335,-8.41803 21.72009,-8.42479 8.14763,-0.006 15.96271,3.00988 21.73455,8.38846 5.76824,5.37858 9.01517,12.67815 9.02963,20.29451 l 0,0.0523 z" /><path
       inkscape:connector-curvature="0"
       id="path226"
       style="fill:#000000;fill-opacity:1;fill-rule:nonzero;stroke:none"
       d="m 418.29421,362.86218 0,0.0135 c -0.004,1.90324 -0.81603,3.72877 -2.25922,5.07447 -1.44048,1.34317 -3.39606,2.09923 -5.43296,2.09585 -2.03691,0 -3.98887,-0.75943 -5.42935,-2.10514 -1.43957,-1.34655 -2.24837,-3.17461 -2.24837,-5.07869 0,-1.90409 0.8088,-3.72877 2.24837,-5.07532 1.44048,-1.34654 3.39244,-2.10514 5.42935,-2.10852 2.0369,0 3.99248,0.75606 5.43296,2.09838 1.44319,1.34655 2.2556,3.17123 2.25922,5.07532 l 0,0.0101 z" /><path
       inkscape:connector-curvature="0"
       id="path228"
       style="fill:none;stroke:#000000;stroke-width:1.9813664;stroke-linecap:butt;stroke-linejoin:miter;stroke-miterlimit:10;stroke-dasharray:none;stroke-opacity:1"
       d="m 418.29421,362.86218 0,0.0135 c -0.004,1.90324 -0.81603,3.72877 -2.25922,5.07447 -1.44048,1.34317 -3.39606,2.09923 -5.43296,2.09585 -2.03691,0 -3.98887,-0.75943 -5.42935,-2.10514 -1.43957,-1.34655 -2.24837,-3.17461 -2.24837,-5.07869 0,-1.90409 0.8088,-3.72877 2.24837,-5.07532 1.44048,-1.34654 3.39244,-2.10514 5.42935,-2.10852 2.0369,0 3.99248,0.75606 5.43296,2.09838 1.44319,1.34655 2.2556,3.17123 2.25922,5.07532 l 0,0.0101 z" /><path
       inkscape:connector-curvature="0"
       id="path230"
       style="fill:#000000;fill-opacity:1;fill-rule:nonzero;stroke:none"
       d="m 582.23914,362.86218 0,0.0135 c -0.004,1.90324 -0.81603,3.72877 -2.25922,5.07447 -1.44409,1.34317 -3.39605,2.09923 -5.43296,2.09585 -2.03691,0 -3.98888,-0.75943 -5.42934,-2.10514 -1.44048,-1.34655 -2.24837,-3.17461 -2.24837,-5.07869 0,-1.90409 0.80789,-3.72877 2.24837,-5.07532 1.44046,-1.34654 3.39243,-2.10514 5.42934,-2.10852 2.03691,0 3.98887,0.75606 5.43296,2.09838 1.44319,1.34655 2.2556,3.17123 2.25922,5.07532 l 0,0.0101 z" /><path
       inkscape:connector-curvature="0"
       id="path232"
       style="fill:none;stroke:#000000;stroke-width:1.9813664;stroke-linecap:butt;stroke-linejoin:miter;stroke-miterlimit:10;stroke-dasharray:none;stroke-opacity:1"
       d="m 582.23914,362.86218 0,0.0135 c -0.004,1.90324 -0.81603,3.72877 -2.25922,5.07447 -1.44409,1.34317 -3.39605,2.09923 -5.43296,2.09585 -2.03691,0 -3.98888,-0.75943 -5.42934,-2.10514 -1.44048,-1.34655 -2.24837,-3.17461 -2.24837,-5.07869 0,-1.90409 0.80789,-3.72877 2.24837,-5.07532 1.44046,-1.34654 3.39243,-2.10514 5.42934,-2.10852 2.03691,0 3.98887,0.75606 5.43296,2.09838 1.44319,1.34655 2.2556,3.17123 2.25922,5.07532 l 0,0.0101 z" /><path
       inkscape:connector-curvature="0"
       id="path234"
       style="fill:#000000;fill-opacity:1;fill-rule:nonzero;stroke:none"
       d="m 418.29421,171.29607 0,0.0135 c -0.004,1.90409 -0.81603,3.72877 -2.25922,5.07194 -1.44048,1.34655 -3.39606,2.09838 -5.43296,2.09838 -2.03691,-0.004 -3.98887,-0.7586 -5.42935,-2.10514 -1.43957,-1.34993 -2.24837,-3.1746 -2.24837,-5.0787 0,-1.90409 0.8088,-3.73214 2.24837,-5.07785 1.44048,-1.34654 3.39244,-2.10598 5.42935,-2.10598 2.0369,-0.003 3.99248,0.75268 5.43296,2.09923 1.44319,1.34316 2.2556,3.16785 2.25922,5.07193 l 0,0.0127 z" /><path
       inkscape:connector-curvature="0"
       id="path236"
       style="fill:none;stroke:#000000;stroke-width:1.9813664;stroke-linecap:butt;stroke-linejoin:miter;stroke-miterlimit:10;stroke-dasharray:none;stroke-opacity:1"
       d="m 418.29421,171.29607 0,0.0135 c -0.004,1.90409 -0.81603,3.72877 -2.25922,5.07194 -1.44048,1.34655 -3.39606,2.09838 -5.43296,2.09838 -2.03691,-0.004 -3.98887,-0.7586 -5.42935,-2.10514 -1.43957,-1.34993 -2.24837,-3.1746 -2.24837,-5.0787 0,-1.90409 0.8088,-3.73214 2.24837,-5.07785 1.44048,-1.34654 3.39244,-2.10598 5.42935,-2.10598 2.0369,-0.003 3.99248,0.75268 5.43296,2.09923 1.44319,1.34316 2.2556,3.16785 2.25922,5.07193 l 0,0.0127 z" /><path
       inkscape:connector-curvature="0"
       id="path238"
       style="fill:#000000;fill-opacity:1;fill-rule:nonzero;stroke:none"
       d="m 582.23914,171.29607 0,0.0135 c -0.004,1.90409 -0.81603,3.72877 -2.25922,5.07194 -1.44409,1.34655 -3.39605,2.09838 -5.43296,2.09838 -2.03691,-0.004 -3.98888,-0.7586 -5.42934,-2.10514 -1.44048,-1.34993 -2.24837,-3.1746 -2.24837,-5.0787 0,-1.90409 0.80789,-3.73214 2.24837,-5.07785 1.44046,-1.34654 3.39243,-2.10598 5.42934,-2.10598 2.03691,-0.003 3.98887,0.75268 5.43296,2.09923 1.44319,1.34316 2.2556,3.16785 2.25922,5.07193 l 0,0.0127 z" /><path
       inkscape:connector-curvature="0"
       id="path240"
       style="fill:none;stroke:#000000;stroke-width:1.9813664;stroke-linecap:butt;stroke-linejoin:miter;stroke-miterlimit:10;stroke-dasharray:none;stroke-opacity:1"
       d="m 582.23914,171.29607 0,0.0135 c -0.004,1.90409 -0.81603,3.72877 -2.25922,5.07194 -1.44409,1.34655 -3.39605,2.09838 -5.43296,2.09838 -2.03691,-0.004 -3.98888,-0.7586 -5.42934,-2.10514 -1.44048,-1.34993 -2.24837,-3.1746 -2.24837,-5.0787 0,-1.90409 0.80789,-3.73214 2.24837,-5.07785 1.44046,-1.34654 3.39243,-2.10598 5.42934,-2.10598 2.03691,-0.003 3.98887,0.75268 5.43296,2.09923 1.44319,1.34316 2.2556,3.16785 2.25922,5.07193 l 0,0.0127 z" /><path
       inkscape:connector-curvature="0"
       id="path242"
       style="fill:none;stroke:#000000;stroke-width:1.9813664;stroke-linecap:butt;stroke-linejoin:miter;stroke-miterlimit:10;stroke-dasharray:none;stroke-opacity:1"
       d="M 51.979606,94.667006 186.00077,245.00471" /><path
       inkscape:connector-curvature="0"
       id="path244"
       style="fill:none;stroke:#000000;stroke-width:1.9813664;stroke-linecap:butt;stroke-linejoin:miter;stroke-miterlimit:10;stroke-dasharray:none;stroke-opacity:1"
       d="M 65.365728,94.673933 196.55222,241.83686" /><path
       inkscape:connector-curvature="0"
       id="path246"
       style="fill:#000000;fill-opacity:1;fill-rule:nonzero;stroke:none"
       d="m 196.5486,241.83686 0.0108,0.004 -0.004,-0.007 -0.004,0.004 -0.004,0 z" /><path
       inkscape:connector-curvature="0"
       id="path248"
       style="fill:none;stroke:#000000;stroke-width:1.9813664;stroke-linecap:butt;stroke-linejoin:miter;stroke-miterlimit:10;stroke-dasharray:none;stroke-opacity:1"
       d="M 38.632894,94.703328 182.94,256.58046" /><path
       inkscape:connector-curvature="0"
       id="path250"
       style="fill:#000000;fill-opacity:1;fill-rule:nonzero;stroke:none"
       d="m 182.93638,256.58384 0.0108,0.004 -0.004,-0.009 -0.008,0.006 z" /><path
       inkscape:connector-curvature="0"
       id="path252"
       style="fill:none;stroke:#000000;stroke-width:1.9813664;stroke-linecap:butt;stroke-linejoin:miter;stroke-miterlimit:10;stroke-dasharray:none;stroke-opacity:1"
       d="M 51.979606,439.49117 186.00077,289.15354" /><path
       inkscape:connector-curvature="0"
       id="path254"
       style="fill:none;stroke:#000000;stroke-width:1.9813664;stroke-linecap:butt;stroke-linejoin:miter;stroke-miterlimit:10;stroke-dasharray:none;stroke-opacity:1"
       d="M 38.632894,439.45483 182.94,277.57779" /><path
       inkscape:connector-curvature="0"
       id="path256"
       style="fill:#000000;fill-opacity:1;fill-rule:nonzero;stroke:none"
       d="m 182.94361,277.58117 0.004,-0.0101 -0.0108,0.007 0.004,0 0.004,0.004 z" /><path
       inkscape:connector-curvature="0"
       id="path258"
       style="fill:none;stroke:#000000;stroke-width:1.9813664;stroke-linecap:butt;stroke-linejoin:miter;stroke-miterlimit:10;stroke-dasharray:none;stroke-opacity:1"
       d="M 65.365728,439.4844 196.55222,292.32477" /><path
       inkscape:connector-curvature="0"
       id="path260"
       style="fill:#000000;fill-opacity:1;fill-rule:nonzero;stroke:none"
       d="m 196.55583,292.32814 0.004,-0.0101 -0.0108,0.004 0.008,0.007 z" /><path
       inkscape:connector-curvature="0"
       id="path262"
       style="fill:none;stroke:#000000;stroke-width:1.9813664;stroke-linecap:butt;stroke-linejoin:miter;stroke-miterlimit:10;stroke-dasharray:none;stroke-opacity:1"
       d="m 233.17229,279.93045 170.56353,79.72081" /><g
       id="g264"
       transform="matrix(0.90368614,0,0,0.84475951,37.609189,35.396229)"><text
         id="text266"
         style="font-variant:normal;font-weight:normal;font-size:39.8506012px;font-family:'DejaVu Sans';-inkscape-font-specification:DejaVuSans;writing-mode:lr-tb;fill:#000000;fill-opacity:1;fill-rule:nonzero;stroke:none"
         transform="matrix(1,0,0,-1,266.039,363.839)"><tspan
           id="tspan268"
           y="0"
           x="0">˜</tspan></text>
<text
         id="text270"
         style="font-style:oblique;font-variant:normal;font-size:39.8506012px;font-family:'DejaVu Sans';-inkscape-font-specification:DejaVuSans-Oblique;writing-mode:lr-tb;fill:#000000;fill-opacity:1;fill-rule:nonzero;stroke:none"
         transform="matrix(1,0,0,-1,265.48548,356.48548)"><tspan
           id="tspan272"
           y="0"
           x="0">t</tspan></text>
<text
         id="text274"
         style="font-variant:normal;font-weight:normal;font-size:27.89539909px;font-family:'DejaVu Sans';-inkscape-font-specification:DejaVuSans;writing-mode:lr-tb;fill:#000000;fill-opacity:1;fill-rule:nonzero;stroke:none"
         transform="matrix(1,0,0,-1,279.87608,348.18353)"><tspan
           id="tspan276"
           y="0"
           x="0">1</tspan></text>
</g><path
       inkscape:connector-curvature="0"
       id="path278"
       style="fill:none;stroke:#000000;stroke-width:1.9813664;stroke-linecap:butt;stroke-linejoin:miter;stroke-miterlimit:10;stroke-dasharray:none;stroke-opacity:1"
       d="m 413.19289,369.63039 48.64724,127.3306" /><path
       inkscape:connector-curvature="0"
       id="path280"
       style="fill:none;stroke:#000000;stroke-width:1.9813664;stroke-linecap:butt;stroke-linejoin:miter;stroke-miterlimit:10;stroke-dasharray:none;stroke-opacity:1"
       d="m 413.19289,369.63039 c -2.13902,1.5476 -4.52837,3.28612 -6.20561,4.68251 -1.67634,1.39216 -3.03187,2.7877 -3.49816,3.77438 -0.46269,0.99006 -0.14459,1.82807 0.88561,2.31717 1.0311,0.48828 3.02554,0.76536 5.26759,0.85068 2.24114,0.0862 5.2703,0.0169 7.97412,-0.049 2.70383,-0.0693 5.73299,-0.13854 7.97413,-0.0532 2.24114,0.0862 4.23648,0.36324 5.26669,0.85152 1.0311,0.49165 1.34829,1.32627 0.88289,2.31633 -0.46629,0.99006 -1.82183,2.38307 -3.49455,3.77861 -1.67724,1.39216 -4.06659,3.13153 -6.20652,4.67912 -2.13902,1.55098 -4.52837,3.29034 -6.20562,4.6825 -1.67633,1.39554 -3.03186,2.78856 -3.49816,3.7786 -0.4663,0.98922 -0.14459,1.82469 0.88652,2.31634 1.03019,0.48827 3.02464,0.76535 5.26668,0.85151 2.24114,0.0854 5.27029,0.0161 7.97412,-0.0532 2.70383,-0.0658 5.73299,-0.13515 7.97413,-0.049 2.24205,0.0854 4.23287,0.3624 5.26306,0.85067 1.03111,0.48828 1.35192,1.32712 0.88652,2.31718 -0.46629,0.98583 -1.82182,2.38222 -3.49816,3.77439 -1.67724,1.39638 -4.06659,3.1349 -6.20561,4.6825 -2.13632,1.54759 -4.52928,3.29033 -6.20291,4.6825 -1.67634,1.39639 -3.03187,2.78854 -3.49817,3.7786 -0.4654,0.99007 -0.1482,1.82469 0.8829,2.31634 1.03021,0.48827 3.02464,0.76534 5.26668,0.85151 2.24115,0.0854 5.27031,0.0161 7.97414,-0.0532 2.70382,-0.0693 5.73297,-0.13516 7.97412,-0.049 2.24205,0.0854 4.23648,0.35987 5.26668,0.85152 1.03111,0.48828 1.35192,1.32627 0.88652,2.31296 -0.4663,0.99005 -1.82183,2.3856 -3.49816,3.77861 -1.67725,1.39554 -4.0666,3.13405 -6.20562,4.68165 -2.13993,1.54844 -4.52928,3.29034 -6.20652,4.6825 -1.67634,1.393 -3.03187,2.78855 -3.49816,3.77861 -0.46179,0.99006 -0.1446,1.82468 0.8865,2.31634 1.03021,0.48826 3.02465,0.76619 5.26669,0.85151 2.24113,0.0861 5.2703,0.0169 7.97412,-0.0524 2.70383,-0.0693 5.73299,-0.13853 7.97413,-0.0532 2.24205,0.0862 4.23648,0.36324 5.26669,0.8549 1.03111,0.48826 1.34919,1.32288 0.8829,2.31295 -0.46631,0.99005 -1.82184,2.38559 -3.49456,3.7786 -1.67723,1.39554 -4.06658,3.1349 -6.2056,4.6825 -2.13994,1.5476 -4.52928,3.2895 -6.20653,4.6825 -1.67633,1.39217 -3.03187,2.78771 -3.49817,3.77777 -0.4654,0.99006 -0.14458,1.82553 0.88652,2.3138 1.0302,0.49165 3.02464,0.76872 5.26668,0.85405 2.24114,0.0862 5.2703,0.0168 7.97413,-0.0524 2.70383,-0.0693 5.73298,-0.13854 7.97412,-0.0532 2.24206,0.0862 4.23287,0.36325 5.26398,0.8549 1.03019,0.48826 1.35191,1.32289 0.88561,2.31294 -0.4663,0.99007 -1.82183,2.38645 -3.49817,3.77861 -1.67724,1.39216 -4.06659,3.1349 -6.20561,4.68251 -2.13542,1.54759 -4.52927,3.29033 -6.20199,4.6825 -1.67725,1.39216 -3.03278,2.78855 -3.49908,3.77861 -0.4654,0.9892 -0.1482,1.82467 0.8829,2.31295 1.0311,0.49165 3.02554,0.76873 5.26668,0.8549 2.24205,0.0854 5.2703,0.0161 7.97413,-0.0532" /><path
       inkscape:connector-curvature="0"
       id="path282"
       style="fill:none;stroke:#000000;stroke-width:1.9813664;stroke-linecap:butt;stroke-linejoin:miter;stroke-miterlimit:10;stroke-dasharray:none;stroke-opacity:1"
       d="m 418.29421,362.86218 148.57504,0" /><g
       id="g284"
       transform="matrix(0.90368614,0,0,0.84475951,37.609189,35.396229)"><text
         id="text286"
         style="font-style:oblique;font-variant:normal;font-size:39.8506012px;font-family:'DejaVu Sans';-inkscape-font-specification:DejaVuSans-Oblique;writing-mode:lr-tb;fill:#000000;fill-opacity:1;fill-rule:nonzero;stroke:none"
         transform="matrix(1,0,0,-1,523.479,431.541)"><tspan
           id="tspan288"
           y="0"
           x="0">t</tspan></text>
</g><path
       inkscape:connector-curvature="0"
       id="path290"
       style="fill:none;stroke:#000000;stroke-width:1.9813664;stroke-linecap:butt;stroke-linejoin:miter;stroke-miterlimit:10;stroke-dasharray:none;stroke-opacity:1"
       d="m 581.30383,359.4333 111.082,-56.43331" /><g
       id="g292"
       transform="matrix(0.90368614,0,0,0.84475951,37.609189,44.996229)"><text
         id="text294"
         style="font-style:oblique;font-variant:normal;font-size:39.8506012px;font-family:'DejaVu Sans';-inkscape-font-specification:DejaVuSans-Oblique;writing-mode:lr-tb;fill:#000000;fill-opacity:1;fill-rule:nonzero;stroke:none"
         transform="matrix(1,0,0,-1,747.512,302.616)"><tspan
           id="tspan296"
           y="0"
           x="0">b</tspan></text>
</g><path
       inkscape:connector-curvature="0"
       id="path298"
       style="fill:none;stroke:#000000;stroke-width:1.9813664;stroke-linecap:butt;stroke-linejoin:miter;stroke-miterlimit:10;stroke-dasharray:none;stroke-opacity:1"
       d="m 581.11676,366.59771 c 0.0778,2.52752 0.23586,6.36526 0.53589,8.54643 0.30002,2.18117 1.14045,4.97309 2.03328,6.24699 0.89014,1.27306 2.83125,2.37885 4.45157,2.53091 1.6203,0.15459 4.65579,-0.42914 6.86982,-1.18182 2.20951,-0.75184 5.92638,-2.37884 8.36542,-3.47788 2.43634,-1.09903 6.1532,-2.72857 8.36272,-3.48125 2.21403,-0.7493 5.24951,-1.33642 6.86981,-1.18182 1.62032,0.15544 3.56143,1.25785 4.45156,2.53428 0.89284,1.27389 1.73328,4.06583 2.0333,6.247 0.30002,2.18116 0.45907,6.01552 0.53678,8.54305 0.0741,2.52752 0.23587,6.36273 0.53589,8.54389 0.30003,2.18118 1.14046,4.97226 2.02968,6.24953 0.89375,1.27391 2.83125,2.37547 4.45156,2.53091 1.62031,0.15543 4.6594,-0.42914 6.86982,-1.18097 2.21314,-0.75269 5.92999,-2.38307 8.36542,-3.48127 2.43634,-1.09564 6.1532,-2.72603 8.36633,-3.47871 2.21041,-0.75183 5.24952,-1.33641 6.86983,-1.18097 1.6203,0.15543 3.55781,1.257 4.45155,2.53089 0.88923,1.27728 1.72965,4.06836 2.02967,6.24954 0.30004,2.18116 0.4618,6.01637 0.5368,8.54389 0.0768,2.52752 0.23586,6.36189 0.53589,8.54306 0.30002,2.18117 1.14044,4.9731 2.03328,6.247 0.89014,1.27642 2.83126,2.37883 4.45157,2.53427 1.62031,0.15459 4.65579,-0.43251 6.86981,-1.1852 2.20951,-0.75183 5.92638,-2.37884 8.36182,-3.47787" /><g
       id="g300"
       transform="matrix(0.90368614,0,0,0.84475951,37.609189,35.396229)"><text
         id="text302"
         style="font-style:oblique;font-variant:normal;font-size:39.8506012px;font-family:'DejaVu Sans';-inkscape-font-specification:DejaVuSans-Oblique;writing-mode:lr-tb;fill:#000000;fill-opacity:1;fill-rule:nonzero;stroke:none"
         transform="matrix(1,0,0,-1,602.446,453.688)"><tspan
           id="tspan304"
           y="0"
           x="0">W</tspan></text>
<text
         id="text306"
         style="font-variant:normal;font-weight:normal;font-size:27.89539909px;font-family:'DejaVu Sans';-inkscape-font-specification:DejaVuSans;writing-mode:lr-tb;fill:#000000;fill-opacity:1;fill-rule:nonzero;stroke:none"
         transform="matrix(1,0,0,-1,645.6175,473.0599)"><tspan
           id="tspan308"
           y="0"
           x="0">+</tspan></text>
</g><path
       inkscape:connector-curvature="0"
       id="path310"
       style="fill:none;stroke:#000000;stroke-width:1.9813664;stroke-linecap:butt;stroke-linejoin:miter;stroke-miterlimit:10;stroke-dasharray:none;stroke-opacity:1"
       d="M 692.38583,429.91159 820.46978,391.59752" /><g
       id="g312"
       transform="matrix(0.90368614,0,0,0.84475951,37.609189,35.396229)"><text
         id="text314"
         style="font-style:oblique;font-variant:normal;font-size:39.8506012px;font-family:'DejaVu Sans';-inkscape-font-specification:DejaVuSans-Oblique;writing-mode:lr-tb;fill:#000000;fill-opacity:1;fill-rule:nonzero;stroke:none"
         transform="matrix(1,0,0,-1,888.661,389.55)"><tspan
           id="tspan316"
           y="0"
           x="0">q</tspan></text>
</g><path
       inkscape:connector-curvature="0"
       id="path318"
       style="fill:none;stroke:#000000;stroke-width:1.9813664;stroke-linecap:butt;stroke-linejoin:miter;stroke-miterlimit:10;stroke-dasharray:none;stroke-opacity:1"
       d="m 692.38583,429.91159 128.08395,38.31406" /><path
       inkscape:connector-curvature="0"
       id="path320"
       style="fill:none;stroke:#000000;stroke-width:1.9813664;stroke-linecap:butt;stroke-linejoin:miter;stroke-miterlimit:10;stroke-dasharray:none;stroke-opacity:1"
       d="M 403.73582,174.50699 233.17229,254.2278" /><g
       id="g322"
       transform="matrix(0.90368614,0,0,0.84475951,37.609189,35.396229)"><text
         id="text324"
         style="font-variant:normal;font-weight:normal;font-size:39.8506012px;font-family:'DejaVu Sans';-inkscape-font-specification:DejaVuSans;writing-mode:lr-tb;fill:#000000;fill-opacity:1;fill-rule:nonzero;stroke:none"
         transform="matrix(1,0,0,-1,263.283,174.391)"><tspan
           id="tspan326"
           y="0"
           x="0">˜</tspan></text>
<text
         id="text328"
         style="font-style:oblique;font-variant:normal;font-size:39.8506012px;font-family:'DejaVu Sans';-inkscape-font-specification:DejaVuSans-Oblique;writing-mode:lr-tb;fill:#000000;fill-opacity:1;fill-rule:nonzero;stroke:none"
         transform="matrix(1,0,0,-1,262.72948,167.03787)"><tspan
           id="tspan330"
           y="0"
           x="0">t</tspan></text>
<text
         id="text332"
         style="font-style:oblique;font-variant:normal;font-size:27.89539909px;font-family:'DejaVu Sans';-inkscape-font-specification:DejaVuSans-Oblique;writing-mode:lr-tb;fill:#000000;fill-opacity:1;fill-rule:nonzero;stroke:none"
         transform="matrix(1,0,0,-1,277.11968,186.40937)"><tspan
           id="tspan334"
           y="0"
           x="0">∗</tspan></text>
<text
         id="text336"
         style="font-variant:normal;font-weight:normal;font-size:27.89539909px;font-family:'DejaVu Sans';-inkscape-font-specification:DejaVuSans;writing-mode:lr-tb;fill:#000000;fill-opacity:1;fill-rule:nonzero;stroke:none"
         transform="matrix(1,0,0,-1,277.11968,158.73557)"><tspan
           id="tspan338"
           y="0"
           x="0">1</tspan></text>
</g><path
       inkscape:connector-curvature="0"
       id="path340"
       style="fill:none;stroke:#000000;stroke-width:1.9813664;stroke-linecap:butt;stroke-linejoin:miter;stroke-miterlimit:10;stroke-dasharray:none;stroke-opacity:1"
       d="M 413.19289,164.53208 461.84013,37.197281" /><path
       inkscape:connector-curvature="0"
       id="path342"
       style="fill:none;stroke:#000000;stroke-width:1.9813664;stroke-linecap:butt;stroke-linejoin:miter;stroke-miterlimit:10;stroke-dasharray:none;stroke-opacity:1"
       d="m 413.19289,164.53208 c 2.70383,0.0693 5.73299,0.13516 7.97503,0.049 2.24115,-0.0853 4.23558,-0.35986 5.26668,-0.85152 1.03021,-0.48827 1.34831,-1.32627 0.882,-2.31295 -0.46268,-0.99005 -1.81821,-2.38559 -3.49455,-3.77861 -1.67634,-1.39554 -4.06658,-3.13491 -6.20561,-4.6825 -2.13902,-1.54759 -4.52928,-3.28949 -6.20561,-4.6825 -1.67725,-1.39216 -3.03277,-2.7877 -3.49817,-3.77776 -0.46631,-0.99006 -0.14549,-1.82468 0.88561,-2.31633 1.03111,-0.48827 3.02554,-0.76619 5.26669,-0.85152 2.24204,-0.0861 5.27029,-0.0169 7.97412,0.0523 2.70473,0.0693 5.73299,0.13854 7.97503,0.0532 2.24114,-0.0861 4.23558,-0.36325 5.26668,-0.8549 1.0302,-0.48826 1.34831,-1.32289 0.882,-2.31294 -0.4654,-0.99007 -1.82093,-2.38561 -3.49816,-3.77861 -1.67273,-1.39554 -4.0666,-3.1349 -6.20201,-4.68251 -2.13902,-1.54759 -4.52928,-3.28949 -6.20561,-4.6825 -1.67724,-1.39216 -3.03276,-2.78855 -3.49816,-3.77777 -0.46631,-0.99005 -0.1455,-1.8256 0.8856,-2.31371 1.03111,-0.49165 3.02193,-0.76881 5.26308,-0.85397 2.24204,-0.0864 5.27029,-0.0171 7.97503,0.0521 2.70383,0.0693 5.73208,0.13863 7.97412,0.0534 2.24114,-0.0864 4.23558,-0.36333 5.26668,-0.85498 1.03021,-0.48835 1.35192,-1.32391 0.88561,-2.31287 -0.4654,-0.99031 -1.82092,-2.38645 -3.49817,-3.77869 -1.67633,-1.39318 -4.06658,-3.13516 -6.2056,-4.68242 -2.13903,-1.54768 -4.52928,-3.29059 -6.20562,-4.68283 -1.67362,-1.39183 -3.02915,-2.788387 -3.49455,-3.778277 -0.46631,-0.990314 -0.14821,-1.824853 0.882,-2.31321 1.0311,-0.491731 3.02554,-0.76856 5.26668,-0.85464 2.24204,-0.08545 5.27029,-0.01618 7.97503,0.05308 2.70383,0.06935 5.73208,0.138622 7.97412,0.05253 2.24115,-0.08545 4.23558,-0.362656 5.26668,-0.850761 1.03111,-0.492661 1.3483,-1.3272 0.88562,-2.317089 -0.4654,-0.990312 -1.82092,-2.385855 -3.49817,-3.778019 -1.67634,-1.392839 -4.06659,-3.134817 -6.20562,-4.682501 -2.13901,-1.5476 -4.52927,-3.286959 -6.2056,-4.682417 -1.67725,-1.392924 -3.03278,-2.788383 -3.49818,-3.778694 -0.4663,-0.986679 -0.14458,-1.824512 0.88562,-2.312868 1.03111,-0.49165 3.02554,-0.765182 5.26669,-0.851687 2.24204,-0.08608 5.27029,-0.01909 7.97503,0.05018 2.70382,0.06894 5.73208,0.138288 7.97412,0.05212 2.24113,-0.08516 4.23558,-0.363331 5.26668,-0.851349 1.03111,-0.491649 1.3483,-1.326187 0.88291,-2.316499 -0.46631,-0.989973 -1.82185,-2.382137 -3.49908,-3.778609 -1.67272,-1.392248 -4.06659,-3.134903 -6.202,-4.682502 -2.13902,-1.547599 -4.52928,-3.28603 -6.20561,-4.682502 -1.67634,-1.392164 -3.03186,-2.787706 -3.49816,-3.774302 -0.46631,-0.989972 -0.1446,-1.828143 0.8856,-2.316161 1.03111,-0.489368 3.02192,-0.766281 5.26398,-0.851686 2.24113,-0.08617 5.27029,-0.0169 7.97412,0.04917 2.70383,0.06927 5.73299,0.138203 7.97412,0.05305 2.24115,-0.08609 4.23559,-0.363248 5.26669,-0.851687 1.03111,-0.49165 1.35192,-1.326187 0.88652,-2.316162 -0.46631,-0.989889 -1.82184,-2.382111 -3.49908,-3.778609 -1.67634,-1.392206 -4.06658,-3.131549 -6.20561,-4.682477" /><path
       inkscape:connector-curvature="0"
       id="path344"
       style="fill:none;stroke:#000000;stroke-width:1.9813664;stroke-linecap:butt;stroke-linejoin:miter;stroke-miterlimit:10;stroke-dasharray:none;stroke-opacity:1"
       d="m 418.29421,171.29607 148.57504,0" /><g
       id="g346"
       transform="matrix(0.90368614,0,0,0.84475951,37.609189,35.396229)"><text
         id="text348"
         style="font-variant:normal;font-weight:normal;font-size:39.8506012px;font-family:'DejaVu Sans';-inkscape-font-specification:DejaVuSans;writing-mode:lr-tb;fill:#000000;fill-opacity:1;fill-rule:nonzero;stroke:none"
         transform="matrix(1,0,0,-1,524.033,104.407)"><tspan
           id="tspan350"
           y="0"
           x="0">¯</tspan></text>
<text
         id="text352"
         style="font-style:oblique;font-variant:normal;font-size:39.8506012px;font-family:'DejaVu Sans';-inkscape-font-specification:DejaVuSans-Oblique;writing-mode:lr-tb;fill:#000000;fill-opacity:1;fill-rule:nonzero;stroke:none"
         transform="matrix(1,0,0,-1,523.47948,97.05348)"><tspan
           id="tspan354"
           y="0"
           x="0">t</tspan></text>
</g><path
       inkscape:connector-curvature="0"
       id="path356"
       style="fill:none;stroke:#000000;stroke-width:1.9813664;stroke-linecap:butt;stroke-linejoin:miter;stroke-miterlimit:10;stroke-dasharray:none;stroke-opacity:1"
       d="m 581.30383,174.72494 111.082,56.43754" /><g
       id="g358"
       transform="matrix(0.90368614,0,0,0.84475951,37.609189,35.396229)"><text
         id="text360"
         style="font-variant:normal;font-weight:normal;font-size:39.8506012px;font-family:'DejaVu Sans';-inkscape-font-specification:DejaVuSans;writing-mode:lr-tb;fill:#000000;fill-opacity:1;fill-rule:nonzero;stroke:none"
         transform="matrix(1,0,0,-1,753.973,237.547)"><tspan
           id="tspan362"
           y="0"
           x="0">¯</tspan></text>
<text
         id="text364"
         style="font-style:oblique;font-variant:normal;font-size:39.8506012px;font-family:'DejaVu Sans';-inkscape-font-specification:DejaVuSans-Oblique;writing-mode:lr-tb;fill:#000000;fill-opacity:1;fill-rule:nonzero;stroke:none"
         transform="matrix(1,0,0,-1,755.38433,227.031)"><tspan
           id="tspan366"
           y="0"
           x="0">b</tspan></text>
</g><path
       inkscape:connector-curvature="0"
       id="path368"
       style="fill:none;stroke:#000000;stroke-width:1.9813664;stroke-linecap:butt;stroke-linejoin:miter;stroke-miterlimit:10;stroke-dasharray:none;stroke-opacity:1"
       d="m 581.11676,167.56139 c 2.43544,1.09818 6.15591,2.72519 8.36542,3.47787 2.21042,0.75184 5.24952,1.33641 6.86983,1.18435 1.6203,-0.15543 3.56142,-1.257 4.45155,-2.53428 0.88923,-1.27389 1.72965,-4.06498 2.03329,-6.24614 0.30003,-2.18202 0.45908,-6.01639 0.53589,-8.5439 0.075,-2.52753 0.23315,-6.36527 0.53318,-8.54644 0.30363,-2.18116 1.14406,-4.97309 2.03329,-6.24615 0.89013,-1.2739 2.83124,-2.37969 4.45157,-2.53174 1.6203,-0.15459 4.65939,0.42914 6.8698,1.18182 2.20952,0.75183 5.93,2.37885 8.36633,3.47787 2.43544,1.09904 6.15231,2.72941 8.36182,3.48126 2.21402,0.7493 5.25312,1.33641 6.87343,1.18182 1.62031,-0.15544 3.55782,-1.25785 4.45155,-2.53428 0.88924,-1.2739 1.72966,-4.06584 2.02969,-6.24701 0.30002,-2.18116 0.46178,-6.01552 0.53588,-8.54304 0.075,-2.52753 0.23678,-6.36188 0.5368,-8.5439 0.30002,-2.18125 1.14044,-4.97225 2.02967,-6.24962 0.89374,-1.27373 2.83125,-2.37521 4.45155,-2.53065 1.62031,-0.15543 4.65942,0.42897 6.87345,1.18064 2.20951,0.75269 5.92637,2.38315 8.36271,3.48134 2.43543,1.09591 6.15591,2.72605 8.36542,3.47881 2.21042,0.75183 5.24952,1.33641 6.86982,1.18098 1.62031,-0.1546 3.56143,-1.25701 4.45156,-2.53108 0.88922,-1.27702 1.72966,-4.06836 2.03329,-6.2492 0.30003,-2.18116 0.45818,-6.01662 0.53228,-8.54397" /><path
       inkscape:connector-curvature="0"
       id="path370"
       style="fill:none;stroke:#000000;stroke-width:1.9813664;stroke-linecap:butt;stroke-linejoin:miter;stroke-miterlimit:10;stroke-dasharray:none;stroke-opacity:1"
       d="m 692.38583,104.24675 128.08395,38.31482" /><g
       id="g372"
       transform="matrix(0.90368614,0,0,0.84475951,37.609189,35.396229)"><text
         id="text374"
         style="font-style:oblique;font-variant:normal;font-size:39.8506012px;font-family:'DejaVu Sans';-inkscape-font-specification:DejaVuSans-Oblique;writing-mode:lr-tb;fill:#000000;fill-opacity:1;fill-rule:nonzero;stroke:none"
         transform="matrix(1,0,0,-1,898.852,117.424)"><tspan
           id="tspan376"
           y="0"
           x="0">l</tspan></text>
</g><path
       inkscape:connector-curvature="0"
       id="path378"
       style="fill:none;stroke:#000000;stroke-width:1.9813664;stroke-linecap:butt;stroke-linejoin:miter;stroke-miterlimit:10;stroke-dasharray:none;stroke-opacity:1"
       d="M 692.38583,104.24675 820.46978,65.932596" /><g
       id="g380"
       transform="matrix(0.90368614,0,0,0.84475951,37.609189,35.396229)"><text
         id="text382"
         style="font-style:oblique;font-variant:normal;font-size:39.8506012px;font-family:'DejaVu Sans';-inkscape-font-specification:DejaVuSans-Oblique;writing-mode:lr-tb;fill:#000000;fill-opacity:1;fill-rule:nonzero;stroke:none"
         transform="matrix(1,0,0,-1,887.159,4.03828)"><tspan
           id="tspan384"
           y="0"
           x="0">ν</tspan></text>
</g><path
       inkscape:connector-curvature="0"
       id="path386"
       style="fill:#ffffff;fill-opacity:1;fill-rule:nonzero;stroke:none"
       d="m 236.41652,267.08082 0,0.0498 c -0.0144,7.6155 -3.26139,14.91507 -9.02963,20.29364 -5.77184,5.37859 -13.58692,8.39861 -21.73455,8.39185 -8.14674,-0.007 -15.9591,-3.03945 -21.72009,-8.42817 -5.75739,-5.38534 -8.99439,-12.69082 -8.99439,-20.30717 0,-7.61889 3.237,-14.92183 8.99439,-20.31055 5.76099,-5.38872 13.57335,-8.41803 21.72009,-8.42479 8.14763,-0.006 15.96271,3.00988 21.73455,8.38846 5.76824,5.37858 9.01517,12.67815 9.02963,20.29451 l 0,0.0523 z" /><path
       inkscape:connector-curvature="0"
       id="path396"
       style="fill:url(#pattern4594);fill-opacity:1;fill-rule:nonzero;stroke:none"
       d="m 236.41652,267.08082 0,0.0498 c -0.0144,7.6155 -3.26139,14.91507 -9.02963,20.29364 -5.77184,5.37859 -13.58692,8.39861 -21.73455,8.39185 -8.14674,-0.007 -15.9591,-3.03945 -21.72009,-8.42817 -5.75739,-5.38534 -8.99439,-12.69082 -8.99439,-20.30717 0,-7.61889 3.237,-14.92183 8.99439,-20.31055 5.76099,-5.38872 13.57335,-8.41803 21.72009,-8.42479 8.14763,-0.006 15.96271,3.00988 21.73455,8.38846 5.76824,5.37858 9.01517,12.67815 9.02963,20.29451 l 0,0.0523 z" /><path
       inkscape:connector-curvature="0"
       id="path398"
       style="fill:none;stroke:#000000;stroke-width:1.9813664;stroke-linecap:butt;stroke-linejoin:miter;stroke-miterlimit:10;stroke-dasharray:none;stroke-opacity:1"
       d="m 236.41652,267.08082 0,0.0498 c -0.0144,7.6155 -3.26139,14.91507 -9.02963,20.29364 -5.77184,5.37859 -13.58692,8.39861 -21.73455,8.39185 -8.14674,-0.007 -15.9591,-3.03945 -21.72009,-8.42817 -5.75739,-5.38534 -8.99439,-12.69082 -8.99439,-20.30717 0,-7.61889 3.237,-14.92183 8.99439,-20.31055 5.76099,-5.38872 13.57335,-8.41803 21.72009,-8.42479 8.14763,-0.006 15.96271,3.00988 21.73455,8.38846 5.76824,5.37858 9.01517,12.67815 9.02963,20.29451 l 0,0.0523 z" /><path
       inkscape:connector-curvature="0"
       id="path400"
       style="fill:#000000;fill-opacity:1;fill-rule:nonzero;stroke:none"
       d="m 418.29421,362.86218 0,0.0135 c -0.004,1.90324 -0.81603,3.72877 -2.25922,5.07447 -1.44048,1.34317 -3.39606,2.09923 -5.43296,2.09585 -2.03691,0 -3.98887,-0.75943 -5.42935,-2.10514 -1.43957,-1.34655 -2.24837,-3.17461 -2.24837,-5.07869 0,-1.90409 0.8088,-3.72877 2.24837,-5.07532 1.44048,-1.34654 3.39244,-2.10514 5.42935,-2.10852 2.0369,0 3.99248,0.75606 5.43296,2.09838 1.44319,1.34655 2.2556,3.17123 2.25922,5.07532 l 0,0.0101 z" /><path
       inkscape:connector-curvature="0"
       id="path402"
       style="fill:none;stroke:#000000;stroke-width:1.9813664;stroke-linecap:butt;stroke-linejoin:miter;stroke-miterlimit:10;stroke-dasharray:none;stroke-opacity:1"
       d="m 418.29421,362.86218 0,0.0135 c -0.004,1.90324 -0.81603,3.72877 -2.25922,5.07447 -1.44048,1.34317 -3.39606,2.09923 -5.43296,2.09585 -2.03691,0 -3.98887,-0.75943 -5.42935,-2.10514 -1.43957,-1.34655 -2.24837,-3.17461 -2.24837,-5.07869 0,-1.90409 0.8088,-3.72877 2.24837,-5.07532 1.44048,-1.34654 3.39244,-2.10514 5.42935,-2.10852 2.0369,0 3.99248,0.75606 5.43296,2.09838 1.44319,1.34655 2.2556,3.17123 2.25922,5.07532 l 0,0.0101 z" /><path
       inkscape:connector-curvature="0"
       id="path404"
       style="fill:#000000;fill-opacity:1;fill-rule:nonzero;stroke:none"
       d="m 582.23914,362.86218 0,0.0135 c -0.004,1.90324 -0.81603,3.72877 -2.25922,5.07447 -1.44409,1.34317 -3.39605,2.09923 -5.43296,2.09585 -2.03691,0 -3.98888,-0.75943 -5.42934,-2.10514 -1.44048,-1.34655 -2.24837,-3.17461 -2.24837,-5.07869 0,-1.90409 0.80789,-3.72877 2.24837,-5.07532 1.44046,-1.34654 3.39243,-2.10514 5.42934,-2.10852 2.03691,0 3.98887,0.75606 5.43296,2.09838 1.44319,1.34655 2.2556,3.17123 2.25922,5.07532 l 0,0.0101 z" /><path
       inkscape:connector-curvature="0"
       id="path406"
       style="fill:none;stroke:#000000;stroke-width:1.9813664;stroke-linecap:butt;stroke-linejoin:miter;stroke-miterlimit:10;stroke-dasharray:none;stroke-opacity:1"
       d="m 582.23914,362.86218 0,0.0135 c -0.004,1.90324 -0.81603,3.72877 -2.25922,5.07447 -1.44409,1.34317 -3.39605,2.09923 -5.43296,2.09585 -2.03691,0 -3.98888,-0.75943 -5.42934,-2.10514 -1.44048,-1.34655 -2.24837,-3.17461 -2.24837,-5.07869 0,-1.90409 0.80789,-3.72877 2.24837,-5.07532 1.44046,-1.34654 3.39243,-2.10514 5.42934,-2.10852 2.03691,0 3.98887,0.75606 5.43296,2.09838 1.44319,1.34655 2.2556,3.17123 2.25922,5.07532 l 0,0.0101 z" /><path
       inkscape:connector-curvature="0"
       id="path408"
       style="fill:#000000;fill-opacity:1;fill-rule:nonzero;stroke:none"
       d="m 418.29421,171.29607 0,0.0135 c -0.004,1.90409 -0.81603,3.72877 -2.25922,5.07194 -1.44048,1.34655 -3.39606,2.09838 -5.43296,2.09838 -2.03691,-0.004 -3.98887,-0.7586 -5.42935,-2.10514 -1.43957,-1.34993 -2.24837,-3.1746 -2.24837,-5.0787 0,-1.90409 0.8088,-3.73214 2.24837,-5.07785 1.44048,-1.34654 3.39244,-2.10598 5.42935,-2.10598 2.0369,-0.003 3.99248,0.75268 5.43296,2.09923 1.44319,1.34316 2.2556,3.16785 2.25922,5.07193 l 0,0.0127 z" /><path
       inkscape:connector-curvature="0"
       id="path410"
       style="fill:none;stroke:#000000;stroke-width:1.9813664;stroke-linecap:butt;stroke-linejoin:miter;stroke-miterlimit:10;stroke-dasharray:none;stroke-opacity:1"
       d="m 418.29421,171.29607 0,0.0135 c -0.004,1.90409 -0.81603,3.72877 -2.25922,5.07194 -1.44048,1.34655 -3.39606,2.09838 -5.43296,2.09838 -2.03691,-0.004 -3.98887,-0.7586 -5.42935,-2.10514 -1.43957,-1.34993 -2.24837,-3.1746 -2.24837,-5.0787 0,-1.90409 0.8088,-3.73214 2.24837,-5.07785 1.44048,-1.34654 3.39244,-2.10598 5.42935,-2.10598 2.0369,-0.003 3.99248,0.75268 5.43296,2.09923 1.44319,1.34316 2.2556,3.16785 2.25922,5.07193 l 0,0.0127 z" /><path
       inkscape:connector-curvature="0"
       id="path412"
       style="fill:#000000;fill-opacity:1;fill-rule:nonzero;stroke:none"
       d="m 582.23914,171.29607 0,0.0135 c -0.004,1.90409 -0.81603,3.72877 -2.25922,5.07194 -1.44409,1.34655 -3.39605,2.09838 -5.43296,2.09838 -2.03691,-0.004 -3.98888,-0.7586 -5.42934,-2.10514 -1.44048,-1.34993 -2.24837,-3.1746 -2.24837,-5.0787 0,-1.90409 0.80789,-3.73214 2.24837,-5.07785 1.44046,-1.34654 3.39243,-2.10598 5.42934,-2.10598 2.03691,-0.003 3.98887,0.75268 5.43296,2.09923 1.44319,1.34316 2.2556,3.16785 2.25922,5.07193 l 0,0.0127 z" /><path
       inkscape:connector-curvature="0"
       id="path414"
       style="fill:none;stroke:#000000;stroke-width:1.9813664;stroke-linecap:butt;stroke-linejoin:miter;stroke-miterlimit:10;stroke-dasharray:none;stroke-opacity:1"
       d="m 582.23914,171.29607 0,0.0135 c -0.004,1.90409 -0.81603,3.72877 -2.25922,5.07194 -1.44409,1.34655 -3.39605,2.09838 -5.43296,2.09838 -2.03691,-0.004 -3.98888,-0.7586 -5.42934,-2.10514 -1.44048,-1.34993 -2.24837,-3.1746 -2.24837,-5.0787 0,-1.90409 0.80789,-3.73214 2.24837,-5.07785 1.44046,-1.34654 3.39243,-2.10598 5.42934,-2.10598 2.03691,-0.003 3.98887,0.75268 5.43296,2.09923 1.44319,1.34316 2.2556,3.16785 2.25922,5.07193 l 0,0.0127 z" /><path
       inkscape:connector-curvature="0"
       id="path416"
       style="fill:#ffffff;fill-opacity:1;fill-rule:nonzero;stroke:none"
       d="m 848.70636,468.67169 14.33897,0 0,19.81223 -14.33897,0 0,-19.81223 z" /><path
       inkscape:connector-curvature="0"
       id="path418"
       style="fill:#ffffff;fill-opacity:1;fill-rule:nonzero;stroke:none"
       d="m 291.66157,190.67992 14.33897,0 0,19.81553 -14.33897,0 0,-19.81553 z" /><path
       inkscape:connector-curvature="0"
       id="path420"
       style="fill:#ffffff;fill-opacity:1;fill-rule:nonzero;stroke:none"
       d="m 280.72517,219.44736 c 1.7685,-0.15121 3.49545,-0.49756 5.23143,-0.82111 1.33474,-0.24751 2.69388,-0.31002 4.04942,-0.34381 1.23172,-0.0693 2.48514,0.11235 3.69608,-0.12164 1.17569,-0.26695 2.27999,-0.78901 3.33912,-1.3229 0.77625,-0.34044 0.38496,-0.18838 1.17569,-0.46208 l -7.68134,-4.805 c -0.82235,0.33368 -0.41658,0.15882 -1.22178,0.52461 -1.00941,0.46208 -2.04052,0.94696 -3.17284,1.07284 -1.21094,0.0591 -2.42188,0.004 -3.63282,0.0625 -1.38353,0.0625 -2.76076,0.18837 -4.11268,0.47221 -1.69801,0.33959 -3.4096,0.64962 -5.15371,0.65975 l 7.48343,5.08462 z" /><path
       inkscape:connector-curvature="0"
       id="path422"
       style="fill:none;stroke:#000000;stroke-width:2.73962092;stroke-linecap:butt;stroke-linejoin:miter;stroke-miterlimit:4;stroke-dasharray:none;stroke-opacity:1"
       d="m 278.88254,213.99275 13.71435,0" /><g
       id="g424"
       transform="matrix(0.90368614,0,0,0.84475951,37.609189,35.396229)"><text
         id="text426"
         style="font-variant:normal;font-weight:normal;font-size:36px;font-family:'DejaVu Sans';-inkscape-font-specification:DejaVuSans;writing-mode:lr-tb;fill:#000000;fill-opacity:1;fill-rule:nonzero;stroke:none"
         transform="matrix(1,0,0,-1,44.3137,341.796)"><tspan
           id="tspan428"
           y="0"
           x="0">p</tspan><tspan
           id="tspan430"
           y="169.702"
           x="-1.88867">p</tspan></text>
</g><path
       inkscape:connector-curvature="0"
       id="path432"
       style="fill:none;stroke:#1d26ff;stroke-width:2.53831434;stroke-linecap:butt;stroke-linejoin:miter;stroke-miterlimit:4;stroke-dasharray:none;stroke-opacity:1"
       d="m 865.48058,459.79496 c 0,-16.62149 -10.64994,-30.09456 -23.78863,-30.09456 -13.1387,0 -23.78863,13.47307 -23.78863,30.09456 0,16.62148 10.64993,30.09456 23.78863,30.09456 13.13869,0 23.78863,-13.47308 23.78863,-30.09456 z" /><path
       inkscape:connector-curvature="0"
       id="path434"
       style="fill:none;stroke:#1d26ff;stroke-width:2.53831434;stroke-linecap:butt;stroke-linejoin:miter;stroke-miterlimit:4;stroke-dasharray:none;stroke-opacity:1"
       d="m 870.15806,374.39146 c 0,-16.62065 -10.64994,-30.09456 -23.78863,-30.09456 -13.1387,0 -23.78864,13.47391 -23.78864,30.09456 0,16.62149 10.64994,30.09455 23.78864,30.09455 13.13869,0 23.78863,-13.47306 23.78863,-30.09455 z" /><path
       inkscape:connector-curvature="0"
       id="path436"
       style="fill:none;stroke:#1d26ff;stroke-width:2.53831434;stroke-linecap:butt;stroke-linejoin:miter;stroke-miterlimit:4;stroke-dasharray:none;stroke-opacity:1"
       d="m 748.70445,315.05824 c 0,-16.62149 -10.64994,-30.09456 -23.78863,-30.09456 -13.1387,0 -23.78954,13.47307 -23.78954,30.09456 0,16.62149 10.65084,30.09455 23.78954,30.09455 13.13869,0 23.78863,-13.47306 23.78863,-30.09455 z" /><path
       inkscape:connector-curvature="0"
       id="path438"
       style="fill:none;stroke:#1d26ff;stroke-width:2.53831434;stroke-linecap:butt;stroke-linejoin:miter;stroke-miterlimit:4;stroke-dasharray:none;stroke-opacity:1"
       d="m 753.04305,240.57986 c 0,-16.61811 -10.65085,-30.09455 -23.78955,-30.09455 -13.13869,0 -23.78862,13.47644 -23.78862,30.09455 0,16.62149 10.64993,30.09794 23.78862,30.09794 13.1387,0 23.78955,-13.47645 23.78955,-30.09794 z" /><path
       inkscape:connector-curvature="0"
       id="path440"
       style="fill:none;stroke:#1da31a;stroke-width:2.79592371;stroke-linecap:butt;stroke-linejoin:miter;stroke-miterlimit:4;stroke-dasharray:none;stroke-opacity:1"
       d="m 740.26763,313.91275 c 0,-10.89909 -6.72523,-19.73612 -15.01654,-19.73612 -8.29585,0 -15.02018,8.83703 -15.02018,19.73612 0,10.89993 6.72433,19.73696 15.02018,19.73696 8.29131,0 15.01654,-8.83703 15.01654,-19.73696 z" /><path
       inkscape:connector-curvature="0"
       id="path442"
       style="fill:none;stroke:#1da31a;stroke-width:3.02124929;stroke-linecap:butt;stroke-linejoin:miter;stroke-miterlimit:4;stroke-dasharray:none;stroke-opacity:1"
       d="m 745.42859,242.96209 c 0,-12.82598 -6.67191,-23.22751 -14.89998,-23.22751 -8.23257,0 -14.90449,10.40153 -14.90449,23.22751 0,12.82683 6.67192,23.2275 14.90449,23.2275 8.22807,0 14.89998,-10.40067 14.89998,-23.2275 z" /><path
       inkscape:connector-curvature="0"
       id="path436-3"
       style="fill:none;stroke:#ee260b;stroke-width:2.7936;stroke-linecap:butt;stroke-linejoin:miter;stroke-miterlimit:4;stroke-dasharray:none;stroke-opacity:1"
       d="m 865.9571,51.164926 c 0,-11.495206 -7.35137,-20.813019 -16.42063,-20.813019 -9.06928,0 -16.42127,9.317813 -16.42127,20.813019 0,11.495216 7.35199,20.813012 16.42127,20.813012 9.06926,0 16.42063,-9.317796 16.42063,-20.813012 z" /><path
       inkscape:connector-curvature="0"
       id="path436-3-6"
       style="fill:none;stroke:#ee260b;stroke-width:2.73938656;stroke-linecap:butt;stroke-linejoin:miter;stroke-miterlimit:4;stroke-dasharray:none;stroke-opacity:1"
       d="m 417.10174,463.51961 c 0,-17.2972 -11.91949,-31.31801 -26.62435,-31.31801 -14.7049,0 -26.6254,14.02081 -26.6254,31.31801 0,17.29721 11.9205,31.318 26.6254,31.318 14.70486,0 26.62435,-14.02079 26.62435,-31.318 z" /><path
       inkscape:connector-curvature="0"
       id="path436-3-7"
       style="fill:none;stroke:#ee260b;stroke-width:2.70303512;stroke-linecap:butt;stroke-linejoin:miter;stroke-miterlimit:4;stroke-dasharray:none;stroke-opacity:1"
       d="m 412.88329,75.128813 c 0,-18.28507 -10.97825,-33.10662 -24.52198,-33.10662 -13.54371,0 -24.52291,14.82155 -24.52291,33.10662 0,18.285065 10.9792,33.106597 24.52291,33.106597 13.54373,0 24.52198,-14.821532 24.52198,-33.106597 z" /><path
       inkscape:connector-curvature="0"
       id="path436-3-5"
       style="fill:none;stroke:#aa26e3;stroke-width:2.63594985;stroke-linecap:butt;stroke-linejoin:miter;stroke-miterlimit:4;stroke-dasharray:none;stroke-opacity:1"
       d="m 887.57763,92.760162 c 0,-42.473485 -14.66399,-76.901729 -32.75466,-76.901729 -18.09075,0 -32.75596,34.428244 -32.75596,76.901729 0,42.473498 14.66521,76.901698 32.75596,76.901698 18.09067,0 32.75466,-34.4282 32.75466,-76.901698 z" /><path
       inkscape:connector-curvature="0"
       id="path436-3-5-3"
       style="fill:none;stroke:#aa26e3;stroke-width:2.72000003;stroke-linecap:butt;stroke-linejoin:miter;stroke-miterlimit:4;stroke-dasharray:none;stroke-opacity:1"
       d="m 421.90025,76.088977 c 0,-22.833051 -14.81913,-41.341107 -33.10119,-41.341107 -18.28214,0 -33.10251,18.508056 -33.10251,41.341107 0,22.833052 14.82037,41.341093 33.10251,41.341093 18.28206,0 33.10119,-18.508041 33.10119,-41.341093 z" /><path
       inkscape:connector-curvature="0"
       id="path436-3-5-3-5"
       style="fill:none;stroke:#aa26e3;stroke-width:2.65129018;stroke-linecap:butt;stroke-linejoin:miter;stroke-miterlimit:4;stroke-dasharray:none;stroke-opacity:1"
       d="m 423.22899,462.12877 c 0,-21.67155 -14.83451,-39.23813 -33.13554,-39.23813 -18.30111,0 -33.13686,17.56658 -33.13686,39.23813 0,21.67156 14.83575,39.23811 33.13686,39.23811 18.30103,0 33.13554,-17.56655 33.13554,-39.23811 z" /><path
       inkscape:connector-curvature="0"
       id="path436-3-5-3-6"
       style="fill:none;stroke:#582609;stroke-width:2.72000003;stroke-linecap:butt;stroke-linejoin:miter;stroke-miterlimit:4;stroke-dasharray:none;stroke-opacity:1"
       d="m 427.52685,79.936159 c 0,-31.842982 -16.95532,-57.654347 -37.87277,-57.654347 -20.91752,0 -37.87426,25.811365 -37.87426,57.654347 0,31.843011 16.95674,57.654341 37.87426,57.654341 20.91745,0 37.87277,-25.81133 37.87277,-57.654341 z" /><path
       inkscape:connector-curvature="0"
       id="path436-3-5-3-6-2"
       style="fill:none;stroke:#582609;stroke-width:2.64045215;stroke-linecap:butt;stroke-linejoin:miter;stroke-miterlimit:4;stroke-dasharray:none;stroke-opacity:1"
       d="m 428.86102,463.37325 c 0,-29.9762 -16.97314,-54.2744 -37.91255,-54.2744 -20.93948,0 -37.91404,24.2982 -37.91404,54.2744 0,29.97623 16.97456,54.27439 37.91404,54.27439 20.93941,0 37.91255,-24.29816 37.91255,-54.27439 z" /><path
       inkscape:connector-curvature="0"
       id="path436-3-5-3-6-2-9"
       style="fill:none;stroke:#582609;stroke-width:3.21147633;stroke-linecap:butt;stroke-linejoin:miter;stroke-miterlimit:4;stroke-dasharray:none;stroke-opacity:1"
       d="M 845.8463,129.62366 C 876.84535,57.166795 875.76726,5.9733248 843.4382,15.273736 811.10904,24.574229 759.77414,90.845927 728.77507,163.30276 c -30.99905,72.45692 -29.91873,123.64971 2.41046,114.34922 32.32906,-9.30045 83.66169,-75.5714 114.66077,-148.02832 z" /><path
       inkscape:connector-curvature="0"
       id="path436-3-5-3-6-2-9-1"
       style="fill:none;stroke:#cd7709;stroke-width:2.62729359;stroke-linecap:butt;stroke-linejoin:miter;stroke-miterlimit:4;stroke-dasharray:none;stroke-opacity:1"
       d="m 853.84717,183.82927 c 26.31849,-40.60863 16.37005,-67.60114 -22.22161,-60.29269 -38.59177,7.3085 -91.20947,46.14977 -117.52797,86.75839 -26.31847,40.60865 -16.36739,67.60064 22.22443,60.29215 38.59165,-7.30848 91.20668,-46.14919 117.52515,-86.75785 z" /></g></svg>