<?xml version="1.0" encoding="UTF-8" standalone="no"?>
<!-- Created with Inkscape (http://www.inkscape.org/) -->

<svg
   xmlns:dc="http://purl.org/dc/elements/1.1/"
   xmlns:cc="http://creativecommons.org/ns#"
   xmlns:rdf="http://www.w3.org/1999/02/22-rdf-syntax-ns#"
   xmlns:svg="http://www.w3.org/2000/svg"
   xmlns="http://www.w3.org/2000/svg"
   xmlns:sodipodi="http://sodipodi.sourceforge.net/DTD/sodipodi-0.dtd"
   xmlns:inkscape="http://www.inkscape.org/namespaces/inkscape"
   id="svg2"
   version="1.1"
   inkscape:version="0.91 r13725"
   xml:space="preserve"
   width="1151.7361"
   height="683.2854"
   viewBox="0 0 1151.7361 683.2854"
   sodipodi:docname="T2ttlep.svg"><metadata
     id="metadata8"><rdf:RDF><cc:Work
         rdf:about=""><dc:format>image/svg+xml</dc:format><dc:type
           rdf:resource="http://purl.org/dc/dcmitype/StillImage" /><dc:title></dc:title></cc:Work></rdf:RDF></metadata><defs
     id="defs6"><pattern
       patternTransform="matrix(-0.17677675,0.17677675,-0.17677675,-0.17677675,9.2828493,35.492639)"
       patternUnits="userSpaceOnUse"
       x="0"
       y="0"
       width="42"
       height="142"
       id="pattern324"><g
         id="g326"><g
           id="g328"><path
             d="M 0,-50 0,50"
             style="fill:none;stroke:#000000;stroke-opacity:1;stroke-width:0.400879;stroke-linecap:butt;stroke-linejoin:miter;stroke-miterlimit:10;stroke-dasharray:none"
             id="path330" /></g></g></pattern><pattern
       patternTransform="matrix(-0.17677675,0.17677675,-0.17677675,-0.17677675,9.2828493,35.492639)"
       patternUnits="userSpaceOnUse"
       x="0"
       y="0"
       width="42"
       height="142"
       id="pattern680"><g
         id="g682"><g
           id="g684"><path
             d="M 0,-50 0,50"
             style="fill:none;stroke:#000000;stroke-opacity:1;stroke-width:0.400879;stroke-linecap:butt;stroke-linejoin:miter;stroke-miterlimit:10;stroke-dasharray:none"
             id="path686" /></g></g></pattern></defs><sodipodi:namedview
     pagecolor="#ffffff"
     bordercolor="#666666"
     borderopacity="1"
     objecttolerance="10"
     gridtolerance="10"
     guidetolerance="10"
     inkscape:pageopacity="0"
     inkscape:pageshadow="2"
     inkscape:window-width="1920"
     inkscape:window-height="981"
     id="namedview4"
     showgrid="false"
     inkscape:zoom="1.1596092"
     inkscape:cx="578.63522"
     inkscape:cy="341.79132"
     inkscape:window-x="0"
     inkscape:window-y="28"
     inkscape:window-maximized="1"
     inkscape:current-layer="g10" /><g
     id="g10"
     inkscape:groupmode="layer"
     inkscape:label="T2ttlep"
     transform="matrix(1.25,0,0,-1.25,232.47715,341.71057)"><path
       inkscape:connector-curvature="0"
       id="path14"
       style="fill:none;stroke:#000000;stroke-width:2.26771688;stroke-linecap:butt;stroke-linejoin:miter;stroke-miterlimit:10;stroke-dasharray:none;stroke-opacity:1"
       d="M -170.07874,-204.09449 -21.77603,-26.131236" /><path
       inkscape:connector-curvature="0"
       id="path30"
       style="fill:none;stroke:#000000;stroke-width:2.26771688;stroke-linecap:butt;stroke-linejoin:miter;stroke-miterlimit:10;stroke-dasharray:none;stroke-opacity:1"
       d="M -155.26849,-204.08675 -10.098178,-29.882381" /><g
       id="g32"><g
         id="g34"><path
           inkscape:connector-curvature="0"
           id="path36"
           style="fill:#000000;fill-opacity:1;fill-rule:nonzero;stroke:none"
           d="m -10.102853,-29.881212 0.01004,0.0053 -0.0034,-0.01083 -0.002,0.0044 -0.0047,0.0012 z" /></g></g><path
       inkscape:connector-curvature="0"
       id="path38"
       style="fill:none;stroke:#000000;stroke-width:2.26771688;stroke-linecap:butt;stroke-linejoin:miter;stroke-miterlimit:10;stroke-dasharray:none;stroke-opacity:1"
       d="M -184.84786,-204.05287 -25.159983,-12.427413" /><g
       id="g40"><g
         id="g42"><path
           inkscape:connector-curvature="0"
           id="path44"
           style="fill:#000000;fill-opacity:1;fill-rule:nonzero;stroke:none"
           d="m -25.164657,-12.426244 0.01004,0.0053 -0.0034,-0.01083 -0.002,0.0044 -0.0047,0.0012 z" /></g></g><path
       inkscape:connector-curvature="0"
       id="path46"
       style="fill:none;stroke:#000000;stroke-width:2.26771688;stroke-linecap:butt;stroke-linejoin:miter;stroke-miterlimit:10;stroke-dasharray:none;stroke-opacity:1"
       d="M -170.07874,204.09449 -21.77603,26.131236" /><path
       inkscape:connector-curvature="0"
       id="path62"
       style="fill:none;stroke:#000000;stroke-width:2.26771688;stroke-linecap:butt;stroke-linejoin:miter;stroke-miterlimit:10;stroke-dasharray:none;stroke-opacity:1"
       d="M -184.84786,204.05287 -25.159983,12.427413" /><g
       id="g64"><g
         id="g66"><path
           inkscape:connector-curvature="0"
           id="path68"
           style="fill:#000000;fill-opacity:1;fill-rule:nonzero;stroke:none"
           d="m -25.157991,12.4318 0.0034,-0.01083 -0.01004,0.0053 0.0047,0.0012 0.002,0.0044 z" /></g></g><path
       inkscape:connector-curvature="0"
       id="path70"
       style="fill:none;stroke:#000000;stroke-width:2.26771688;stroke-linecap:butt;stroke-linejoin:miter;stroke-miterlimit:10;stroke-dasharray:none;stroke-opacity:1"
       d="M -155.26849,204.08675 -10.098178,29.882381" /><g
       id="g72"><g
         id="g74"><path
           inkscape:connector-curvature="0"
           id="path76"
           style="fill:#000000;fill-opacity:1;fill-rule:nonzero;stroke:none"
           d="m -10.096186,29.886768 0.0034,-0.01083 -0.01004,0.0053 0.0047,0.0012 0.002,0.0044 z" /></g></g><path
       inkscape:connector-curvature="0"
       id="path78"
       style="fill:none;stroke:#000000;stroke-width:2.26771688;stroke-linecap:butt;stroke-linejoin:miter;stroke-miterlimit:10;stroke-dasharray:none;stroke-opacity:1"
       d="M 30.424156,15.212078 219.16557,109.58279" /><g
       id="g80"><g
         transform="matrix(4,0,0,4,95.638138,92.188292)"
         id="g82"><g
           id="g84"><text
             id="text86"
             style="font-variant:normal;font-weight:normal;font-size:9.96263981px;font-family:CMR10;-inkscape-font-specification:CMR10;writing-mode:lr-tb;fill:#000000;fill-opacity:1;fill-rule:nonzero;stroke:none"
             transform="matrix(1,0,0,-1,-3.895092,-0.652308)"><tspan
               id="tspan88"
               y="0"
               x="0">˜</tspan></text>
<text
             id="text90"
             style="font-style:italic;font-variant:normal;font-weight:normal;font-size:9.96263981px;font-family:CMMI10;-inkscape-font-specification:CMMI10;writing-mode:lr-tb;fill:#000000;fill-opacity:1;fill-rule:nonzero;stroke:none"
             transform="matrix(1,0,0,-1,-4.033489,-2.49066)"><tspan
               id="tspan92"
               y="0"
               x="0">t</tspan></text>
<text
             id="text94"
             style="font-variant:normal;font-weight:normal;font-size:6.97384787px;font-family:CMR7;-inkscape-font-specification:CMR7;writing-mode:lr-tb;fill:#000000;fill-opacity:1;fill-rule:nonzero;stroke:none"
             transform="matrix(1,0,0,-1,-0.435866,-4.566175)"><tspan
               id="tspan96"
               y="0"
               x="0">1</tspan></text>
</g></g></g><path
       inkscape:connector-curvature="0"
       id="path98"
       style="fill:none;stroke:#000000;stroke-width:2.26771688;stroke-linecap:butt;stroke-linejoin:miter;stroke-miterlimit:10;stroke-dasharray:none;stroke-opacity:1"
       d="m 229.63183,121.39434 53.83274,150.73164" /><path
       inkscape:connector-curvature="0"
       id="path100"
       style="fill:none;stroke:#000000;stroke-width:2.26771688;stroke-linecap:butt;stroke-linejoin:miter;stroke-miterlimit:10;stroke-dasharray:none;stroke-opacity:1"
       d="m 229.63183,121.39434 c -2.36659,1.83243 -5.0118,3.89284 -6.8667,5.54253 -1.85489,1.64969 -3.35474,3.30103 -3.86999,4.47228 -0.51525,1.17124 -0.16187,2.16072 0.97878,2.74057 1.14064,0.57986 3.34726,0.90746 5.82755,1.00887 2.48028,0.10141 5.83226,0.02 8.82425,-0.0614 2.99199,-0.0813 6.34397,-0.16279 8.82425,-0.0614 2.48029,0.10141 4.68691,0.42902 5.82755,1.00887 1.14064,0.57986 1.49403,1.56933 0.97878,2.74058 -0.51525,1.17124 -2.0151,2.82259 -3.87,4.47228 -1.85489,1.64969 -4.5001,3.71009 -6.8667,5.54253 -2.36659,1.83244 -5.0118,3.89284 -6.8667,5.54253 -1.85489,1.64969 -3.35474,3.30104 -3.86999,4.47228 -0.51525,1.17125 -0.16187,2.16072 0.97878,2.74058 1.14064,0.57985 3.34726,0.90746 5.82754,1.00887 2.48029,0.10141 5.83227,0.02 8.82426,-0.0614 2.99199,-0.0813 6.34397,-0.16279 8.82425,-0.0614 2.48029,0.10141 4.68691,0.42901 5.82755,1.00887 1.14064,0.57985 1.49403,1.56933 0.97878,2.74057 -0.51525,1.17125 -2.0151,2.82259 -3.87,4.47228 -1.85489,1.64969 -4.5001,3.71009 -6.8667,5.54253 -2.36659,1.83244 -5.0118,3.89285 -6.8667,5.54254 -1.85489,1.64968 -3.35474,3.30103 -3.86999,4.47227 -0.51525,1.17125 -0.16187,2.16073 0.97878,2.74058 1.14064,0.57986 3.34726,0.90746 5.82754,1.00887 2.48029,0.10141 5.83227,0.02 8.82426,-0.0614 2.99198,-0.0813 6.34396,-0.16279 8.82425,-0.0614 2.48029,0.10141 4.68691,0.42902 5.82755,1.00887 1.14064,0.57986 1.49403,1.56933 0.97878,2.74058 -0.51525,1.17124 -2.0151,2.82259 -3.87,4.47228 -1.85489,1.64969 -4.5001,3.71009 -6.8667,5.54253 -2.36659,1.83244 -5.0118,3.89284 -6.8667,5.54253 -1.85489,1.64969 -3.35474,3.30103 -3.86999,4.47228 -0.51525,1.17124 -0.16187,2.16072 0.97877,2.74057 1.14065,0.57986 3.34727,0.90747 5.82755,1.00888 2.48029,0.10141 5.83227,0.02 8.82426,-0.0614 2.99198,-0.0813 6.34396,-0.1628 8.82425,-0.0614 2.48029,0.10141 4.68691,0.42902 5.82755,1.00888 1.14064,0.57985 1.49403,1.56933 0.97878,2.74057 -0.51525,1.17125 -2.0151,2.82259 -3.87,4.47228 -1.85489,1.64969 -4.5001,3.71009 -6.8667,5.54253 -2.36659,1.83244 -5.0118,3.89284 -6.8667,5.54253 -1.85489,1.64969 -3.35474,3.30104 -3.86999,4.47228 -0.51525,1.17125 -0.16187,2.16072 0.97877,2.74058 1.14065,0.57985 3.34727,0.90746 5.82755,1.00887 2.48029,0.10141 5.83227,0.02 8.82426,-0.0614 2.99198,-0.0813 6.34396,-0.16279 8.82425,-0.0614 2.48029,0.10141 4.68691,0.42902 5.82755,1.00887 1.14064,0.57985 1.49403,1.56933 0.97878,2.74058 -0.51525,1.17124 -2.0151,2.82259 -3.87,4.47228 -1.85489,1.64968 -4.5001,3.71009 -6.8667,5.54253 -2.36659,1.83244 -5.0118,3.89284 -6.8667,5.54253 -1.85489,1.64969 -3.35474,3.30103 -3.86999,4.47228 -0.51525,1.17124 -0.16187,2.16072 0.97877,2.74057 1.14065,0.57986 3.34727,0.90746 5.82755,1.00887 2.48029,0.10141 5.83227,0.02 8.82426,-0.0614" /><g
       id="g102"
       transform="translate(-4.8,0)"><g
         transform="matrix(4,0,0,4,228.91849,228.96106)"
         id="g104"><g
           id="g106"><text
             id="text108"
             style="font-variant:normal;font-weight:normal;font-size:9.96263981px;font-family:CMR10;-inkscape-font-specification:CMR10;writing-mode:lr-tb;fill:#000000;fill-opacity:1;fill-rule:nonzero;stroke:none"
             transform="matrix(1,0,0,-1,-4.171856,-2.49066)"><tspan
               id="tspan110"
               y="0"
               x="0">˜</tspan></text>
<text
             id="text112"
             style="font-style:italic;font-variant:normal;font-weight:normal;font-size:9.96263981px;font-family:CMMI10;-inkscape-font-specification:CMMI10;writing-mode:lr-tb;fill:#000000;fill-opacity:1;fill-rule:nonzero;stroke:none"
             transform="matrix(1,0,0,-1,-5.351453,-2.49066)"><tspan
               id="tspan114"
               y="0"
               x="0">χ</tspan></text>
<text
             id="text116"
             style="font-variant:normal;font-weight:normal;font-size:6.97384787px;font-family:CMR7;-inkscape-font-specification:CMR7;writing-mode:lr-tb;fill:#000000;fill-opacity:1;fill-rule:nonzero;stroke:none"
             transform="matrix(1,0,0,-1,0.882083,2.352248)"><tspan
               id="tspan118"
               y="0"
               x="0">0</tspan></text>
<text
             id="text120"
             style="font-variant:normal;font-weight:normal;font-size:6.97384787px;font-family:CMR7;-inkscape-font-specification:CMR7;writing-mode:lr-tb;fill:#000000;fill-opacity:1;fill-rule:nonzero;stroke:none"
             transform="matrix(1,0,0,-1,0.882083,-4.566175)"><tspan
               id="tspan122"
               y="0"
               x="0">1</tspan></text>
</g></g></g><path
       inkscape:connector-curvature="0"
       id="path124"
       style="fill:none;stroke:#000000;stroke-width:2.26771688;stroke-linecap:butt;stroke-linejoin:miter;stroke-miterlimit:10;stroke-dasharray:none;stroke-opacity:1"
       d="m 235.27559,113.38583 164.40945,0" /><g
       id="g126"><g
         transform="matrix(4,0,0,4,344.69291,167.24409)"
         id="g128"><g
           id="g130"><text
             id="text132"
             style="font-style:italic;font-variant:normal;font-weight:normal;font-size:9.96263981px;font-family:CMMI10;-inkscape-font-specification:CMMI10;writing-mode:lr-tb;fill:#000000;fill-opacity:1;fill-rule:nonzero;stroke:none"
             transform="matrix(1,0,0,-1,-1.798812,-2.49066)"><tspan
               id="tspan134"
               y="0"
               x="0">t</tspan></text>
</g></g></g><path
       inkscape:connector-curvature="0"
       id="path136"
       style="fill:none;stroke:#000000;stroke-width:2.26771688;stroke-linecap:butt;stroke-linejoin:miter;stroke-miterlimit:10;stroke-dasharray:none;stroke-opacity:1"
       d="M 415.66062,109.32515 538.58268,42.519685" /><g
       id="g138"><g
         transform="matrix(4,0,0,4,570.08116,38.318776)"
         id="g140"><g
           id="g142"><text
             id="text144"
             style="font-style:italic;font-variant:normal;font-weight:normal;font-size:9.96263981px;font-family:CMMI10;-inkscape-font-specification:CMMI10;writing-mode:lr-tb;fill:#000000;fill-opacity:1;fill-rule:nonzero;stroke:none"
             transform="matrix(1,0,0,-1,-2.137811,-2.49066)"><tspan
               id="tspan146"
               y="0"
               x="0">b</tspan></text>
</g></g></g><path
       inkscape:connector-curvature="0"
       id="path148"
       style="fill:none;stroke:#000000;stroke-width:2.26771688;stroke-linecap:butt;stroke-linejoin:miter;stroke-miterlimit:10;stroke-dasharray:none;stroke-opacity:1"
       d="m 415.45291,117.80735 c 0.0832,2.99194 0.26092,7.53206 0.59361,10.11412 0.33269,2.58206 1.26227,5.88698 2.24813,7.39597 0.98586,1.509 3.13197,2.81533 4.92519,2.99794 1.79322,0.18262 5.15586,-0.50964 7.60225,-1.40009 2.44639,-0.89045 6.5609,-2.81791 9.25678,-4.11823 2.69588,-1.30032 6.81038,-3.22778 9.25677,-4.11822 2.44639,-0.89045 5.80903,-1.58271 7.60225,-1.4001 1.79322,0.18262 3.93933,1.48895 4.92519,2.99795 0.98586,1.50899 1.91544,4.81391 2.24813,7.39597 0.33269,2.58206 0.51041,7.12218 0.59361,10.11411 0.0832,2.99194 0.26092,7.53205 0.59361,10.11412 0.33269,2.58206 1.26226,5.88698 2.24812,7.39597 0.98586,1.509 3.13197,2.81533 4.92519,2.99794 1.79323,0.18262 5.15587,-0.50964 7.60226,-1.40009 2.44639,-0.89044 6.56089,-2.8179 9.25677,-4.11823 2.69588,-1.30032 6.81038,-3.22778 9.25677,-4.11822 2.44639,-0.89045 5.80904,-1.58271 7.60226,-1.4001 1.79322,0.18262 3.93933,1.48895 4.92519,2.99795 0.98586,1.50899 1.91544,4.81391 2.24813,7.39597 0.33269,2.58206 0.5104,7.12218 0.5936,10.11411 0.0832,2.99194 0.26092,7.53206 0.59361,10.11412 0.33269,2.58206 1.26227,5.88698 2.24813,7.39597 0.98586,1.509 3.13197,2.81533 4.92519,2.99795 1.79322,0.18261 5.15586,-0.50965 7.60225,-1.4001 2.4464,-0.89044 6.5609,-2.8179 9.25678,-4.11822" /><g
       id="g150"><g
         transform="matrix(4,0,0,4,451.27785,189.39112)"
         id="g152"><g
           id="g154"><text
             id="text156"
             style="font-style:italic;font-variant:normal;font-weight:normal;font-size:9.96263981px;font-family:CMMI10;-inkscape-font-specification:CMMI10;writing-mode:lr-tb;fill:#000000;fill-opacity:1;fill-rule:nonzero;stroke:none"
             transform="matrix(1,0,0,-1,-8.703492,-2.49066)"><tspan
               id="tspan158"
               y="0"
               x="0">W</tspan></text>
<text
             id="text160"
             style="font-variant:normal;font-weight:normal;font-size:6.97384787px;font-family:CMR7;-inkscape-font-specification:CMR7;writing-mode:lr-tb;fill:#000000;fill-opacity:1;fill-rule:nonzero;stroke:none"
             transform="matrix(1,0,0,-1,2.089379,2.352248)"><tspan
               id="tspan162"
               y="0"
               x="0">+</tspan></text>
</g></g></g><path
       inkscape:connector-curvature="0"
       id="path164"
       style="fill:none;stroke:#000000;stroke-width:2.26771688;stroke-linecap:butt;stroke-linejoin:miter;stroke-miterlimit:10;stroke-dasharray:none;stroke-opacity:1"
       d="M 538.58268,192.75591 680.31496,147.40157" /><g
       id="g166"><g
         transform="matrix(4,0,0,4,712.28885,125.25305)"
         id="g168"><g
           id="g170"><text
             id="text172"
             style="font-style:italic;font-variant:normal;font-weight:normal;font-size:9.96263981px;font-family:CMMI10;-inkscape-font-specification:CMMI10;writing-mode:lr-tb;fill:#000000;fill-opacity:1;fill-rule:nonzero;stroke:none"
             transform="matrix(1,0,0,-1,-2.402444,-2.49066)"><tspan
               id="tspan174"
               y="0"
               x="0">q</tspan></text>
</g></g></g><path
       inkscape:connector-curvature="0"
       id="path176"
       style="fill:none;stroke:#000000;stroke-width:2.26771688;stroke-linecap:butt;stroke-linejoin:miter;stroke-miterlimit:10;stroke-dasharray:none;stroke-opacity:1"
       d="m 538.58268,192.75591 141.73228,45.35433" /><g
       id="g178"
       transform="translate(-12.417977,-8.9685391)"><g
         transform="matrix(4,0,0,4,719.20721,238.63888)"
         id="g180"><g
           id="g182"><text
             id="text184"
             style="font-variant:normal;font-weight:normal;font-size:9.96263981px;font-family:CMR10;-inkscape-font-specification:CMR10;writing-mode:lr-tb;fill:#000000;fill-opacity:1;fill-rule:nonzero;stroke:none"
             transform="matrix(1,0,0,-1,-3.057945,-2.49066)"><tspan
               id="tspan186"
               y="0"
               x="0">¯</tspan></text>
<text
             id="text188"
             style="font-style:italic;font-variant:normal;font-weight:normal;font-size:9.96263981px;font-family:CMMI10;-inkscape-font-specification:CMMI10;writing-mode:lr-tb;fill:#000000;fill-opacity:1;fill-rule:nonzero;stroke:none"
             transform="matrix(1,0,0,-1,-3.799974,-2.49066)"><tspan
               id="tspan190"
               y="0"
               x="0">q</tspan></text>
<text
             id="text192"
             style="font-style:italic;font-variant:normal;font-weight:normal;font-size:6.97384787px;font-family:CMSY7;-inkscape-font-specification:CMSY7;writing-mode:lr-tb;fill:#000000;fill-opacity:1;fill-rule:nonzero;stroke:none"
             transform="matrix(1,0,0,-1,1.004914,2.352248)"><tspan
               id="tspan194"
               y="0"
               x="0">0</tspan></text>
</g></g></g><path
       inkscape:connector-curvature="0"
       id="path196"
       style="fill:none;stroke:#000000;stroke-width:2.26771688;stroke-linecap:butt;stroke-linejoin:miter;stroke-miterlimit:10;stroke-dasharray:none;stroke-opacity:1"
       d="M 219.16557,-109.58279 30.424156,-15.212078" /><g
       id="g198"><g
         transform="matrix(4,0,0,4,93.102753,-97.25906)"
         id="g200"><g
           id="g202"><text
             id="text204"
             style="font-variant:normal;font-weight:normal;font-size:9.96263981px;font-family:CMR10;-inkscape-font-specification:CMR10;writing-mode:lr-tb;fill:#000000;fill-opacity:1;fill-rule:nonzero;stroke:none"
             transform="matrix(1,0,0,-1,-3.950442,-0.652308)"><tspan
               id="tspan206"
               y="0"
               x="0">˜</tspan></text>
<text
             id="text208"
             style="font-style:italic;font-variant:normal;font-weight:normal;font-size:9.96263981px;font-family:CMMI10;-inkscape-font-specification:CMMI10;writing-mode:lr-tb;fill:#000000;fill-opacity:1;fill-rule:nonzero;stroke:none"
             transform="matrix(1,0,0,-1,-4.088839,-2.49066)"><tspan
               id="tspan210"
               y="0"
               x="0">t</tspan></text>
<text
             id="text212"
             style="font-style:italic;font-variant:normal;font-weight:normal;font-size:6.97384787px;font-family:CMSY7;-inkscape-font-specification:CMSY7;writing-mode:lr-tb;fill:#000000;fill-opacity:1;fill-rule:nonzero;stroke:none"
             transform="matrix(1,0,0,-1,-0.491215,2.352248)"><tspan
               id="tspan214"
               y="0"
               x="0">∗</tspan></text>
<text
             id="text216"
             style="font-variant:normal;font-weight:normal;font-size:6.97384787px;font-family:CMR7;-inkscape-font-specification:CMR7;writing-mode:lr-tb;fill:#000000;fill-opacity:1;fill-rule:nonzero;stroke:none"
             transform="matrix(1,0,0,-1,-0.491215,-4.566175)"><tspan
               id="tspan218"
               y="0"
               x="0">1</tspan></text>
</g></g></g><path
       inkscape:connector-curvature="0"
       id="path220"
       style="fill:none;stroke:#000000;stroke-width:2.26771688;stroke-linecap:butt;stroke-linejoin:miter;stroke-miterlimit:10;stroke-dasharray:none;stroke-opacity:1"
       d="m 229.63183,-121.39434 53.83274,-150.73164" /><path
       inkscape:connector-curvature="0"
       id="path222"
       style="fill:none;stroke:#000000;stroke-width:2.26771688;stroke-linecap:butt;stroke-linejoin:miter;stroke-miterlimit:10;stroke-dasharray:none;stroke-opacity:1"
       d="m 229.63183,-121.39434 c 2.99199,0.0813 6.34397,0.16279 8.82426,0.0614 2.48029,-0.10142 4.68691,-0.42902 5.82755,-1.00888 1.14064,-0.57985 1.49402,-1.56933 0.97877,-2.74057 -0.51525,-1.17125 -2.0151,-2.82259 -3.86999,-4.47228 -1.85489,-1.64969 -4.50011,-3.71009 -6.8667,-5.54253 -2.36659,-1.83244 -5.01181,-3.89284 -6.8667,-5.54253 -1.8549,-1.64969 -3.35475,-3.30104 -3.87,-4.47228 -0.51525,-1.17125 -0.16186,-2.16072 0.97878,-2.74058 1.14064,-0.57985 3.34726,-0.90746 5.82755,-1.00887 2.48029,-0.10141 5.83227,-0.02 8.82425,0.0614 2.99199,0.0813 6.34397,0.16279 8.82426,0.0614 2.48029,-0.10141 4.6869,-0.42902 5.82755,-1.00887 1.14064,-0.57986 1.49402,-1.56933 0.97877,-2.74058 -0.51525,-1.17124 -2.0151,-2.82259 -3.86999,-4.47228 -1.8549,-1.64968 -4.50011,-3.71009 -6.8667,-5.54253 -2.36659,-1.83244 -5.01181,-3.89284 -6.8667,-5.54253 -1.8549,-1.64969 -3.35475,-3.30103 -3.87,-4.47228 -0.51525,-1.17124 -0.16186,-2.16072 0.97878,-2.74057 1.14064,-0.57986 3.34726,-0.90746 5.82755,-1.00887 2.48029,-0.10141 5.83227,-0.02 8.82425,0.0614 2.99199,0.0813 6.34397,0.16279 8.82426,0.0614 2.48029,-0.10141 4.6869,-0.42902 5.82755,-1.00887 1.14064,-0.57986 1.49402,-1.56933 0.97877,-2.74058 -0.51525,-1.17124 -2.0151,-2.82259 -3.86999,-4.47228 -1.8549,-1.64969 -4.50011,-3.71009 -6.8667,-5.54253 -2.3666,-1.83244 -5.01181,-3.89284 -6.8667,-5.54253 -1.8549,-1.64969 -3.35475,-3.30104 -3.87,-4.47228 -0.51525,-1.17125 -0.16186,-2.16072 0.97878,-2.74058 1.14064,-0.57985 3.34726,-0.90746 5.82755,-1.00887 2.48029,-0.10141 5.83227,-0.02 8.82425,0.0614 2.99199,0.0813 6.34397,0.16279 8.82426,0.0614 2.48028,-0.10141 4.6869,-0.42901 5.82755,-1.00887 1.14064,-0.57985 1.49402,-1.56933 0.97877,-2.74057 -0.51525,-1.17125 -2.0151,-2.82259 -3.86999,-4.47228 -1.8549,-1.64969 -4.50011,-3.7101 -6.8667,-5.54254 -2.3666,-1.83243 -5.01181,-3.89284 -6.8667,-5.54253 -1.8549,-1.64969 -3.35475,-3.30103 -3.87,-4.47228 -0.51525,-1.17124 -0.16186,-2.16072 0.97878,-2.74057 1.14064,-0.57986 3.34726,-0.90746 5.82755,-1.00887 2.48029,-0.10141 5.83227,-0.02 8.82425,0.0614 2.99199,0.0813 6.34397,0.16279 8.82426,0.0614 2.48028,-0.10141 4.6869,-0.42902 5.82755,-1.00887 1.14064,-0.57986 1.49402,-1.56933 0.97877,-2.74058 -0.51525,-1.17124 -2.0151,-2.82259 -3.86999,-4.47228 -1.8549,-1.64969 -4.50011,-3.71009 -6.8667,-5.54253 -2.3666,-1.83244 -5.01181,-3.89284 -6.8667,-5.54253 -1.8549,-1.64969 -3.35475,-3.30104 -3.87,-4.47228 -0.51525,-1.17125 -0.16186,-2.16072 0.97878,-2.74058 1.14064,-0.57985 3.34726,-0.90746 5.82755,-1.00887 2.48029,-0.10141 5.83227,-0.02 8.82425,0.0614 2.99199,0.0813 6.34397,0.16279 8.82426,0.0614 2.48028,-0.10141 4.6869,-0.42901 5.82754,-1.00887 1.14065,-0.57985 1.49403,-1.56933 0.97878,-2.74057 -0.51525,-1.17125 -2.0151,-2.82259 -3.86999,-4.47228 -1.8549,-1.64969 -4.50011,-3.71009 -6.8667,-5.54253" /><g
       id="g224"
       transform="translate(-14.4,0)"><g
         transform="matrix(4,0,0,4,228.91849,-228.96106)"
         id="g226"><g
           id="g228"><text
             id="text230"
             style="font-variant:normal;font-weight:normal;font-size:9.96263981px;font-family:CMR10;-inkscape-font-specification:CMR10;writing-mode:lr-tb;fill:#000000;fill-opacity:1;fill-rule:nonzero;stroke:none"
             transform="matrix(1,0,0,-1,-4.171856,-2.49066)"><tspan
               id="tspan232"
               y="0"
               x="0">˜</tspan></text>
<text
             id="text234"
             style="font-style:italic;font-variant:normal;font-weight:normal;font-size:9.96263981px;font-family:CMMI10;-inkscape-font-specification:CMMI10;writing-mode:lr-tb;fill:#000000;fill-opacity:1;fill-rule:nonzero;stroke:none"
             transform="matrix(1,0,0,-1,-5.351453,-2.49066)"><tspan
               id="tspan236"
               y="0"
               x="0">χ</tspan></text>
<text
             id="text238"
             style="font-variant:normal;font-weight:normal;font-size:6.97384787px;font-family:CMR7;-inkscape-font-specification:CMR7;writing-mode:lr-tb;fill:#000000;fill-opacity:1;fill-rule:nonzero;stroke:none"
             transform="matrix(1,0,0,-1,0.882083,2.352248)"><tspan
               id="tspan240"
               y="0"
               x="0">0</tspan></text>
<text
             id="text242"
             style="font-variant:normal;font-weight:normal;font-size:6.97384787px;font-family:CMR7;-inkscape-font-specification:CMR7;writing-mode:lr-tb;fill:#000000;fill-opacity:1;fill-rule:nonzero;stroke:none"
             transform="matrix(1,0,0,-1,0.882083,-4.566175)"><tspan
               id="tspan244"
               y="0"
               x="0">1</tspan></text>
</g></g></g><path
       inkscape:connector-curvature="0"
       id="path246"
       style="fill:none;stroke:#000000;stroke-width:2.26771688;stroke-linecap:butt;stroke-linejoin:miter;stroke-miterlimit:10;stroke-dasharray:none;stroke-opacity:1"
       d="m 235.27559,-113.38583 164.40945,0" /><g
       id="g248"><g
         transform="matrix(4,0,0,4,344.69291,-167.24409)"
         id="g250"><g
           id="g252"><text
             id="text254"
             style="font-variant:normal;font-weight:normal;font-size:9.96263981px;font-family:CMR10;-inkscape-font-specification:CMR10;writing-mode:lr-tb;fill:#000000;fill-opacity:1;fill-rule:nonzero;stroke:none"
             transform="matrix(1,0,0,-1,-1.660415,-0.652308)"><tspan
               id="tspan256"
               y="0"
               x="0">¯</tspan></text>
<text
             id="text258"
             style="font-style:italic;font-variant:normal;font-weight:normal;font-size:9.96263981px;font-family:CMMI10;-inkscape-font-specification:CMMI10;writing-mode:lr-tb;fill:#000000;fill-opacity:1;fill-rule:nonzero;stroke:none"
             transform="matrix(1,0,0,-1,-1.798812,-2.49066)"><tspan
               id="tspan260"
               y="0"
               x="0">t</tspan></text>
</g></g></g><path
       inkscape:connector-curvature="0"
       id="path262"
       style="fill:none;stroke:#000000;stroke-width:2.26771688;stroke-linecap:butt;stroke-linejoin:miter;stroke-miterlimit:10;stroke-dasharray:none;stroke-opacity:1"
       d="m 415.66062,-109.32515 122.92206,66.805465" /><g
       id="g264"><g
         transform="matrix(4,0,0,4,577.95442,-37.266058)"
         id="g266"><g
           id="g268"><text
             id="text270"
             style="font-variant:normal;font-weight:normal;font-size:9.96263981px;font-family:CMR10;-inkscape-font-specification:CMR10;writing-mode:lr-tb;fill:#000000;fill-opacity:1;fill-rule:nonzero;stroke:none"
             transform="matrix(1,0,0,-1,-2.49066,0.138382)"><tspan
               id="tspan272"
               y="0"
               x="0">¯</tspan></text>
<text
             id="text274"
             style="font-style:italic;font-variant:normal;font-weight:normal;font-size:9.96263981px;font-family:CMMI10;-inkscape-font-specification:CMMI10;writing-mode:lr-tb;fill:#000000;fill-opacity:1;fill-rule:nonzero;stroke:none"
             transform="matrix(1,0,0,-1,-2.137811,-2.49066)"><tspan
               id="tspan276"
               y="0"
               x="0">b</tspan></text>
</g></g></g><path
       inkscape:connector-curvature="0"
       id="path278"
       style="fill:none;stroke:#000000;stroke-width:2.26771688;stroke-linecap:butt;stroke-linejoin:miter;stroke-miterlimit:10;stroke-dasharray:none;stroke-opacity:1"
       d="m 415.45291,-117.80735 c 2.69588,1.30032 6.81039,3.22778 9.25678,4.11822 2.44639,0.89045 5.80903,1.58271 7.60225,1.4001 1.79322,-0.18262 3.93933,-1.48895 4.92519,-2.99795 0.98586,-1.50899 1.91544,-4.81391 2.24813,-7.39597 0.33269,-2.58206 0.5104,-7.12218 0.59361,-10.11411 0.0832,-2.99194 0.26092,-7.53205 0.59361,-10.11412 0.33269,-2.58206 1.26226,-5.88698 2.24812,-7.39597 0.98586,-1.509 3.13197,-2.81533 4.92519,-2.99794 1.79322,-0.18262 5.15587,0.50964 7.60226,1.40009 2.44639,0.89044 6.56089,2.81791 9.25677,4.11823 2.69588,1.30032 6.81038,3.22778 9.25677,4.11822 2.44639,0.89045 5.80903,1.58271 7.60226,1.4001 1.79322,-0.18262 3.93933,-1.48895 4.92519,-2.99795 0.98586,-1.50899 1.91543,-4.81391 2.24812,-7.39597 0.33269,-2.58206 0.51041,-7.12218 0.59361,-10.11411 0.0832,-2.99194 0.26092,-7.53206 0.59361,-10.11412 0.33269,-2.58206 1.26227,-5.88698 2.24813,-7.39597 0.98586,-1.509 3.13197,-2.81533 4.92519,-2.99795 1.79322,-0.18261 5.15586,0.50965 7.60225,1.4001 2.44639,0.89044 6.5609,2.8179 9.25677,4.11823 2.69588,1.30032 6.81039,3.22778 9.25678,4.11822 2.44639,0.89045 5.80903,1.58271 7.60225,1.4001 1.79322,-0.18262 3.93933,-1.48895 4.92519,-2.99795 0.98586,-1.50899 1.91544,-4.81391 2.24813,-7.39597 0.33269,-2.58206 0.51041,-7.12218 0.59361,-10.11412" /><g
       id="g280"
       transform="translate(-17.68764,-1.3797752)"><g
         transform="matrix(4,0,0,4,473.78463,-196.45393)"
         id="g282"><g
           id="g284"><text
             id="text286"
             style="font-style:italic;font-variant:normal;font-weight:normal;font-size:9.96263981px;font-family:CMMI10;-inkscape-font-specification:CMMI10;writing-mode:lr-tb;fill:#000000;fill-opacity:1;fill-rule:nonzero;stroke:none"
             transform="matrix(1,0,0,-1,-8.758826,-2.49066)"><tspan
               id="tspan288"
               y="0"
               x="0">W</tspan></text>
<text
             id="text290"
             style="font-style:italic;font-variant:normal;font-weight:normal;font-size:6.97384787px;font-family:CMSY7;-inkscape-font-specification:CMSY7;writing-mode:lr-tb;fill:#000000;fill-opacity:1;fill-rule:nonzero;stroke:none"
             transform="matrix(1,0,0,-1,2.034044,2.352248)"><tspan
               id="tspan292"
               y="0"
               x="0">−</tspan></text>
</g></g></g><path
       inkscape:connector-curvature="0"
       id="path294"
       style="fill:none;stroke:#000000;stroke-width:2.26771688;stroke-linecap:butt;stroke-linejoin:miter;stroke-miterlimit:10;stroke-dasharray:none;stroke-opacity:1"
       d="m 538.58268,-192.75591 141.73228,45.35434" /><g
       id="g296"><g
         transform="matrix(4,0,0,4,719.20721,-146.87293)"
         id="g298"><g
           id="g300"><text
             id="text302"
             style="font-style:italic;font-variant:normal;font-weight:normal;font-size:9.96263981px;font-family:CMMI10;-inkscape-font-specification:CMMI10;writing-mode:lr-tb;fill:#000000;fill-opacity:1;fill-rule:nonzero;stroke:none"
             transform="matrix(1,0,0,-1,-1.584345,-2.49066)"><tspan
               id="tspan304"
               y="0"
               x="0">l</tspan></text>
</g></g></g><path
       inkscape:connector-curvature="0"
       id="path306"
       style="fill:none;stroke:#000000;stroke-width:2.26771688;stroke-linecap:butt;stroke-linejoin:miter;stroke-miterlimit:10;stroke-dasharray:none;stroke-opacity:1"
       d="m 538.58268,-192.75591 141.73228,-45.35433" /><g
       id="g308"><g
         transform="matrix(4,0,0,4,712.28885,-260.25876)"
         id="g310"><g
           id="g312"><text
             id="text314"
             style="font-style:italic;font-variant:normal;font-weight:normal;font-size:9.96263981px;font-family:CMMI10;-inkscape-font-specification:CMMI10;writing-mode:lr-tb;fill:#000000;fill-opacity:1;fill-rule:nonzero;stroke:none"
             transform="matrix(1,0,0,-1,-2.777776,-2.49066)"><tspan
               id="tspan316"
               y="0"
               x="0">ν</tspan></text>
</g></g></g><g
       id="g318"><path
         inkscape:connector-curvature="0"
         id="path320"
         style="fill:#ffffff;fill-opacity:1;fill-rule:nonzero;stroke:none"
         d="m 34.015748,0 -5.2e-5,0.059369 C 33.99996,9.075749 30.405154,17.717028 24.021261,24.08423 17.637367,30.451433 8.986706,34.023603 -0.029684,34.015735 -9.046075,34.007867 -17.690488,30.420604 -24.063259,24.042269 -30.43603,17.663934 -34.015748,9.016394 -34.015748,0 c 0,-9.016394 3.579718,-17.663934 9.952489,-24.042269 6.372771,-6.378335 15.017184,-9.965598 24.033575,-9.973466 9.01639,-0.0079 17.667051,3.564302 24.050945,9.931505 6.383893,6.367202 9.978699,15.008481 9.994435,24.024861 L 34.015748,0 Z" /></g><g
       id="g322"><path
         inkscape:connector-curvature="0"
         id="path332"
         style="fill:url(#pattern324);fill-opacity:1;fill-rule:nonzero;stroke:none"
         d="m 34.015748,0 -5.2e-5,0.059369 C 33.99996,9.075749 30.405154,17.717028 24.021261,24.08423 17.637367,30.451433 8.986706,34.023603 -0.029684,34.015735 -9.046075,34.007867 -17.690488,30.420604 -24.063259,24.042269 -30.43603,17.663934 -34.015748,9.016394 -34.015748,0 c 0,-9.016394 3.579718,-17.663934 9.952489,-24.042269 6.372771,-6.378335 15.017184,-9.965598 24.033575,-9.973466 9.01639,-0.0079 17.667051,3.564302 24.050945,9.931505 6.383893,6.367202 9.978699,15.008481 9.994435,24.024861 L 34.015748,0 Z" /></g><g
       id="g334"><path
         inkscape:connector-curvature="0"
         id="path336"
         style="fill:none;stroke:#000000;stroke-width:2.26771688;stroke-linecap:butt;stroke-linejoin:miter;stroke-miterlimit:10;stroke-dasharray:none;stroke-opacity:1"
         d="m 34.015748,0 -5.2e-5,0.059369 C 33.99996,9.075749 30.405154,17.717028 24.021261,24.08423 17.637367,30.451433 8.986706,34.023603 -0.029684,34.015735 -9.046075,34.007867 -17.690488,30.420604 -24.063259,24.042269 -30.43603,17.663934 -34.015748,9.016394 -34.015748,0 c 0,-9.016394 3.579718,-17.663934 9.952489,-24.042269 6.372771,-6.378335 15.017184,-9.965598 24.033575,-9.973466 9.01639,-0.0079 17.667051,3.564302 24.050945,9.931505 6.383893,6.367202 9.978699,15.008481 9.994435,24.024861 L 34.015748,0 Z" /></g><g
       id="g338"><path
         inkscape:connector-curvature="0"
         id="path340"
         style="fill:#000000;fill-opacity:1;fill-rule:nonzero;stroke:none"
         d="m 235.27559,113.38583 -1e-5,0.0148 c -0.004,2.25409 -0.90264,4.41441 -2.49861,6.00621 -1.59598,1.59181 -3.75864,2.48485 -6.01274,2.48288 -2.2541,-0.002 -4.4152,-0.89878 -6.00839,-2.49337 -1.59319,-1.59458 -2.48812,-3.75646 -2.48812,-6.01056 0,-2.2541 0.89493,-4.41599 2.48812,-6.01057 1.59319,-1.59458 3.75429,-2.4914 6.00839,-2.49337 2.2541,-0.002 4.41676,0.89108 6.01274,2.48288 1.59597,1.5918 2.49467,3.75212 2.49861,6.00621 l 1e-5,0.0148 z" /></g><g
       id="g342"><path
         inkscape:connector-curvature="0"
         id="path344"
         style="fill:none;stroke:#000000;stroke-width:2.26771688;stroke-linecap:butt;stroke-linejoin:miter;stroke-miterlimit:10;stroke-dasharray:none;stroke-opacity:1"
         d="m 235.27559,113.38583 -1e-5,0.0148 c -0.004,2.25409 -0.90264,4.41441 -2.49861,6.00621 -1.59598,1.59181 -3.75864,2.48485 -6.01274,2.48288 -2.2541,-0.002 -4.4152,-0.89878 -6.00839,-2.49337 -1.59319,-1.59458 -2.48812,-3.75646 -2.48812,-6.01056 0,-2.2541 0.89493,-4.41599 2.48812,-6.01057 1.59319,-1.59458 3.75429,-2.4914 6.00839,-2.49337 2.2541,-0.002 4.41676,0.89108 6.01274,2.48288 1.59597,1.5918 2.49467,3.75212 2.49861,6.00621 l 1e-5,0.0148 z" /></g><g
       id="g346"><path
         inkscape:connector-curvature="0"
         id="path348"
         style="fill:#000000;fill-opacity:1;fill-rule:nonzero;stroke:none"
         d="m 416.69291,113.38583 -10e-6,0.0148 c -0.004,2.25409 -0.90264,4.41441 -2.49861,6.00621 -1.59597,1.59181 -3.75864,2.48485 -6.01274,2.48288 -2.25409,-0.002 -4.4152,-0.89878 -6.00839,-2.49337 -1.59319,-1.59458 -2.48812,-3.75646 -2.48812,-6.01056 0,-2.2541 0.89493,-4.41599 2.48812,-6.01057 1.59319,-1.59458 3.7543,-2.4914 6.00839,-2.49337 2.2541,-0.002 4.41677,0.89108 6.01274,2.48288 1.59597,1.5918 2.49468,3.75212 2.49861,6.00621 l 10e-6,0.0148 z" /></g><g
       id="g350"><path
         inkscape:connector-curvature="0"
         id="path352"
         style="fill:none;stroke:#000000;stroke-width:2.26771688;stroke-linecap:butt;stroke-linejoin:miter;stroke-miterlimit:10;stroke-dasharray:none;stroke-opacity:1"
         d="m 416.69291,113.38583 -10e-6,0.0148 c -0.004,2.25409 -0.90264,4.41441 -2.49861,6.00621 -1.59597,1.59181 -3.75864,2.48485 -6.01274,2.48288 -2.25409,-0.002 -4.4152,-0.89878 -6.00839,-2.49337 -1.59319,-1.59458 -2.48812,-3.75646 -2.48812,-6.01056 0,-2.2541 0.89493,-4.41599 2.48812,-6.01057 1.59319,-1.59458 3.7543,-2.4914 6.00839,-2.49337 2.2541,-0.002 4.41677,0.89108 6.01274,2.48288 1.59597,1.5918 2.49468,3.75212 2.49861,6.00621 l 10e-6,0.0148 z" /></g><g
       id="g354"><path
         inkscape:connector-curvature="0"
         id="path356"
         style="fill:#000000;fill-opacity:1;fill-rule:nonzero;stroke:none"
         d="m 235.27559,-113.38583 -1e-5,0.0148 c -0.004,2.25409 -0.90264,4.41441 -2.49861,6.00621 -1.59598,1.5918 -3.75864,2.48484 -6.01274,2.48288 -2.2541,-0.002 -4.4152,-0.89879 -6.00839,-2.49337 -1.59319,-1.59458 -2.48812,-3.75647 -2.48812,-6.01057 0,-2.2541 0.89493,-4.41598 2.48812,-6.01056 1.59319,-1.59459 3.75429,-2.4914 6.00839,-2.49337 2.2541,-0.002 4.41676,0.89107 6.01274,2.48288 1.59597,1.5918 2.49467,3.75212 2.49861,6.00621 l 1e-5,0.0148 z" /></g><g
       id="g358"><path
         inkscape:connector-curvature="0"
         id="path360"
         style="fill:none;stroke:#000000;stroke-width:2.26771688;stroke-linecap:butt;stroke-linejoin:miter;stroke-miterlimit:10;stroke-dasharray:none;stroke-opacity:1"
         d="m 235.27559,-113.38583 -1e-5,0.0148 c -0.004,2.25409 -0.90264,4.41441 -2.49861,6.00621 -1.59598,1.5918 -3.75864,2.48484 -6.01274,2.48288 -2.2541,-0.002 -4.4152,-0.89879 -6.00839,-2.49337 -1.59319,-1.59458 -2.48812,-3.75647 -2.48812,-6.01057 0,-2.2541 0.89493,-4.41598 2.48812,-6.01056 1.59319,-1.59459 3.75429,-2.4914 6.00839,-2.49337 2.2541,-0.002 4.41676,0.89107 6.01274,2.48288 1.59597,1.5918 2.49467,3.75212 2.49861,6.00621 l 1e-5,0.0148 z" /></g><g
       id="g362"><path
         inkscape:connector-curvature="0"
         id="path364"
         style="fill:#000000;fill-opacity:1;fill-rule:nonzero;stroke:none"
         d="m 416.69291,-113.38583 -10e-6,0.0148 c -0.004,2.25409 -0.90264,4.41441 -2.49861,6.00621 -1.59597,1.5918 -3.75864,2.48484 -6.01274,2.48288 -2.25409,-0.002 -4.4152,-0.89879 -6.00839,-2.49337 -1.59319,-1.59458 -2.48812,-3.75647 -2.48812,-6.01057 0,-2.2541 0.89493,-4.41598 2.48812,-6.01056 1.59319,-1.59459 3.7543,-2.4914 6.00839,-2.49337 2.2541,-0.002 4.41677,0.89107 6.01274,2.48288 1.59597,1.5918 2.49468,3.75212 2.49861,6.00621 l 10e-6,0.0148 z" /></g><g
       id="g366"><path
         inkscape:connector-curvature="0"
         id="path368"
         style="fill:none;stroke:#000000;stroke-width:2.26771688;stroke-linecap:butt;stroke-linejoin:miter;stroke-miterlimit:10;stroke-dasharray:none;stroke-opacity:1"
         d="m 416.69291,-113.38583 -10e-6,0.0148 c -0.004,2.25409 -0.90264,4.41441 -2.49861,6.00621 -1.59597,1.5918 -3.75864,2.48484 -6.01274,2.48288 -2.25409,-0.002 -4.4152,-0.89879 -6.00839,-2.49337 -1.59319,-1.59458 -2.48812,-3.75647 -2.48812,-6.01057 0,-2.2541 0.89493,-4.41598 2.48812,-6.01056 1.59319,-1.59459 3.7543,-2.4914 6.00839,-2.49337 2.2541,-0.002 4.41677,0.89107 6.01274,2.48288 1.59597,1.5918 2.49468,3.75212 2.49861,6.00621 l 10e-6,0.0148 z" /></g><path
       inkscape:connector-curvature="0"
       id="path370"
       style="fill:none;stroke:#000000;stroke-width:2.26771688;stroke-linecap:butt;stroke-linejoin:miter;stroke-miterlimit:10;stroke-dasharray:none;stroke-opacity:1"
       d="M -170.07874,-204.09449 -21.77603,-26.131236" /><path
       inkscape:connector-curvature="0"
       id="path386"
       style="fill:none;stroke:#000000;stroke-width:2.26771688;stroke-linecap:butt;stroke-linejoin:miter;stroke-miterlimit:10;stroke-dasharray:none;stroke-opacity:1"
       d="M -155.26849,-204.08675 -10.098178,-29.882381" /><g
       id="g388"><g
         id="g390"><path
           inkscape:connector-curvature="0"
           id="path392"
           style="fill:#000000;fill-opacity:1;fill-rule:nonzero;stroke:none"
           d="m -10.102853,-29.881212 0.01004,0.0053 -0.0034,-0.01083 -0.002,0.0044 -0.0047,0.0012 z" /></g></g><path
       inkscape:connector-curvature="0"
       id="path394"
       style="fill:none;stroke:#000000;stroke-width:2.26771688;stroke-linecap:butt;stroke-linejoin:miter;stroke-miterlimit:10;stroke-dasharray:none;stroke-opacity:1"
       d="M -184.84786,-204.05287 -25.159983,-12.427413" /><g
       id="g396"><g
         id="g398"><path
           inkscape:connector-curvature="0"
           id="path400"
           style="fill:#000000;fill-opacity:1;fill-rule:nonzero;stroke:none"
           d="m -25.164657,-12.426244 0.01004,0.0053 -0.0034,-0.01083 -0.002,0.0044 -0.0047,0.0012 z" /></g></g><path
       inkscape:connector-curvature="0"
       id="path402"
       style="fill:none;stroke:#000000;stroke-width:2.26771688;stroke-linecap:butt;stroke-linejoin:miter;stroke-miterlimit:10;stroke-dasharray:none;stroke-opacity:1"
       d="M -170.07874,204.09449 -21.77603,26.131236" /><path
       inkscape:connector-curvature="0"
       id="path418"
       style="fill:none;stroke:#000000;stroke-width:2.26771688;stroke-linecap:butt;stroke-linejoin:miter;stroke-miterlimit:10;stroke-dasharray:none;stroke-opacity:1"
       d="M -184.84786,204.05287 -25.159983,12.427413" /><g
       id="g420"><g
         id="g422"><path
           inkscape:connector-curvature="0"
           id="path424"
           style="fill:#000000;fill-opacity:1;fill-rule:nonzero;stroke:none"
           d="m -25.157991,12.4318 0.0034,-0.01083 -0.01004,0.0053 0.0047,0.0012 0.002,0.0044 z" /></g></g><path
       inkscape:connector-curvature="0"
       id="path426"
       style="fill:none;stroke:#000000;stroke-width:2.26771688;stroke-linecap:butt;stroke-linejoin:miter;stroke-miterlimit:10;stroke-dasharray:none;stroke-opacity:1"
       d="M -155.26849,204.08675 -10.098178,29.882381" /><g
       id="g428"><g
         id="g430"><path
           inkscape:connector-curvature="0"
           id="path432"
           style="fill:#000000;fill-opacity:1;fill-rule:nonzero;stroke:none"
           d="m -10.096186,29.886768 0.0034,-0.01083 -0.01004,0.0053 0.0047,0.0012 0.002,0.0044 z" /></g></g><path
       inkscape:connector-curvature="0"
       id="path434"
       style="fill:none;stroke:#000000;stroke-width:2.26771688;stroke-linecap:butt;stroke-linejoin:miter;stroke-miterlimit:10;stroke-dasharray:none;stroke-opacity:1"
       d="M 30.424156,15.212078 219.16557,109.58279" /><g
       id="g436"><g
         transform="matrix(4,0,0,4,95.638138,92.188292)"
         id="g438"><g
           id="g440"><text
             id="text442"
             style="font-variant:normal;font-weight:normal;font-size:9.96263981px;font-family:CMR10;-inkscape-font-specification:CMR10;writing-mode:lr-tb;fill:#000000;fill-opacity:1;fill-rule:nonzero;stroke:none"
             transform="matrix(1,0,0,-1,-3.895092,-0.652308)"><tspan
               id="tspan444"
               y="0"
               x="0">˜</tspan></text>
<text
             id="text446"
             style="font-style:italic;font-variant:normal;font-weight:normal;font-size:9.96263981px;font-family:CMMI10;-inkscape-font-specification:CMMI10;writing-mode:lr-tb;fill:#000000;fill-opacity:1;fill-rule:nonzero;stroke:none"
             transform="matrix(1,0,0,-1,-4.033489,-2.49066)"><tspan
               id="tspan448"
               y="0"
               x="0">t</tspan></text>
<text
             id="text450"
             style="font-variant:normal;font-weight:normal;font-size:6.97384787px;font-family:CMR7;-inkscape-font-specification:CMR7;writing-mode:lr-tb;fill:#000000;fill-opacity:1;fill-rule:nonzero;stroke:none"
             transform="matrix(1,0,0,-1,-0.435866,-4.566175)"><tspan
               id="tspan452"
               y="0"
               x="0">1</tspan></text>
</g></g></g><path
       inkscape:connector-curvature="0"
       id="path454"
       style="fill:none;stroke:#000000;stroke-width:2.26771688;stroke-linecap:butt;stroke-linejoin:miter;stroke-miterlimit:10;stroke-dasharray:none;stroke-opacity:1"
       d="m 229.63183,121.39434 53.83274,150.73164" /><path
       inkscape:connector-curvature="0"
       id="path456"
       style="fill:none;stroke:#000000;stroke-width:2.26771688;stroke-linecap:butt;stroke-linejoin:miter;stroke-miterlimit:10;stroke-dasharray:none;stroke-opacity:1"
       d="m 229.63183,121.39434 c -2.36659,1.83243 -5.0118,3.89284 -6.8667,5.54253 -1.85489,1.64969 -3.35474,3.30103 -3.86999,4.47228 -0.51525,1.17124 -0.16187,2.16072 0.97878,2.74057 1.14064,0.57986 3.34726,0.90746 5.82755,1.00887 2.48028,0.10141 5.83226,0.02 8.82425,-0.0614 2.99199,-0.0813 6.34397,-0.16279 8.82425,-0.0614 2.48029,0.10141 4.68691,0.42902 5.82755,1.00887 1.14064,0.57986 1.49403,1.56933 0.97878,2.74058 -0.51525,1.17124 -2.0151,2.82259 -3.87,4.47228 -1.85489,1.64969 -4.5001,3.71009 -6.8667,5.54253 -2.36659,1.83244 -5.0118,3.89284 -6.8667,5.54253 -1.85489,1.64969 -3.35474,3.30104 -3.86999,4.47228 -0.51525,1.17125 -0.16187,2.16072 0.97878,2.74058 1.14064,0.57985 3.34726,0.90746 5.82754,1.00887 2.48029,0.10141 5.83227,0.02 8.82426,-0.0614 2.99199,-0.0813 6.34397,-0.16279 8.82425,-0.0614 2.48029,0.10141 4.68691,0.42901 5.82755,1.00887 1.14064,0.57985 1.49403,1.56933 0.97878,2.74057 -0.51525,1.17125 -2.0151,2.82259 -3.87,4.47228 -1.85489,1.64969 -4.5001,3.71009 -6.8667,5.54253 -2.36659,1.83244 -5.0118,3.89285 -6.8667,5.54254 -1.85489,1.64968 -3.35474,3.30103 -3.86999,4.47227 -0.51525,1.17125 -0.16187,2.16073 0.97878,2.74058 1.14064,0.57986 3.34726,0.90746 5.82754,1.00887 2.48029,0.10141 5.83227,0.02 8.82426,-0.0614 2.99198,-0.0813 6.34396,-0.16279 8.82425,-0.0614 2.48029,0.10141 4.68691,0.42902 5.82755,1.00887 1.14064,0.57986 1.49403,1.56933 0.97878,2.74058 -0.51525,1.17124 -2.0151,2.82259 -3.87,4.47228 -1.85489,1.64969 -4.5001,3.71009 -6.8667,5.54253 -2.36659,1.83244 -5.0118,3.89284 -6.8667,5.54253 -1.85489,1.64969 -3.35474,3.30103 -3.86999,4.47228 -0.51525,1.17124 -0.16187,2.16072 0.97877,2.74057 1.14065,0.57986 3.34727,0.90747 5.82755,1.00888 2.48029,0.10141 5.83227,0.02 8.82426,-0.0614 2.99198,-0.0813 6.34396,-0.1628 8.82425,-0.0614 2.48029,0.10141 4.68691,0.42902 5.82755,1.00888 1.14064,0.57985 1.49403,1.56933 0.97878,2.74057 -0.51525,1.17125 -2.0151,2.82259 -3.87,4.47228 -1.85489,1.64969 -4.5001,3.71009 -6.8667,5.54253 -2.36659,1.83244 -5.0118,3.89284 -6.8667,5.54253 -1.85489,1.64969 -3.35474,3.30104 -3.86999,4.47228 -0.51525,1.17125 -0.16187,2.16072 0.97877,2.74058 1.14065,0.57985 3.34727,0.90746 5.82755,1.00887 2.48029,0.10141 5.83227,0.02 8.82426,-0.0614 2.99198,-0.0813 6.34396,-0.16279 8.82425,-0.0614 2.48029,0.10141 4.68691,0.42902 5.82755,1.00887 1.14064,0.57985 1.49403,1.56933 0.97878,2.74058 -0.51525,1.17124 -2.0151,2.82259 -3.87,4.47228 -1.85489,1.64968 -4.5001,3.71009 -6.8667,5.54253 -2.36659,1.83244 -5.0118,3.89284 -6.8667,5.54253 -1.85489,1.64969 -3.35474,3.30103 -3.86999,4.47228 -0.51525,1.17124 -0.16187,2.16072 0.97877,2.74057 1.14065,0.57986 3.34727,0.90746 5.82755,1.00887 2.48029,0.10141 5.83227,0.02 8.82426,-0.0614" /><path
       inkscape:connector-curvature="0"
       id="path480"
       style="fill:none;stroke:#000000;stroke-width:2.26771688;stroke-linecap:butt;stroke-linejoin:miter;stroke-miterlimit:10;stroke-dasharray:none;stroke-opacity:1"
       d="m 235.27559,113.38583 164.40945,0" /><g
       id="g482"><g
         transform="matrix(4,0,0,4,344.69291,167.24409)"
         id="g484"><g
           id="g486"><text
             id="text488"
             style="font-style:italic;font-variant:normal;font-weight:normal;font-size:9.96263981px;font-family:CMMI10;-inkscape-font-specification:CMMI10;writing-mode:lr-tb;fill:#000000;fill-opacity:1;fill-rule:nonzero;stroke:none"
             transform="matrix(1,0,0,-1,-1.798812,-2.49066)"><tspan
               id="tspan490"
               y="0"
               x="0">t</tspan></text>
</g></g></g><path
       inkscape:connector-curvature="0"
       id="path492"
       style="fill:none;stroke:#000000;stroke-width:2.26771688;stroke-linecap:butt;stroke-linejoin:miter;stroke-miterlimit:10;stroke-dasharray:none;stroke-opacity:1"
       d="M 415.66062,109.32515 538.58268,42.519685" /><g
       id="g494"><g
         transform="matrix(4,0,0,4,570.08116,38.318776)"
         id="g496"><g
           id="g498"><text
             id="text500"
             style="font-style:italic;font-variant:normal;font-weight:normal;font-size:9.96263981px;font-family:CMMI10;-inkscape-font-specification:CMMI10;writing-mode:lr-tb;fill:#000000;fill-opacity:1;fill-rule:nonzero;stroke:none"
             transform="matrix(1,0,0,-1,-2.137811,-2.49066)"><tspan
               id="tspan502"
               y="0"
               x="0">b</tspan></text>
</g></g></g><path
       inkscape:connector-curvature="0"
       id="path504"
       style="fill:none;stroke:#000000;stroke-width:2.26771688;stroke-linecap:butt;stroke-linejoin:miter;stroke-miterlimit:10;stroke-dasharray:none;stroke-opacity:1"
       d="m 415.45291,117.80735 c 0.0832,2.99194 0.26092,7.53206 0.59361,10.11412 0.33269,2.58206 1.26227,5.88698 2.24813,7.39597 0.98586,1.509 3.13197,2.81533 4.92519,2.99794 1.79322,0.18262 5.15586,-0.50964 7.60225,-1.40009 2.44639,-0.89045 6.5609,-2.81791 9.25678,-4.11823 2.69588,-1.30032 6.81038,-3.22778 9.25677,-4.11822 2.44639,-0.89045 5.80903,-1.58271 7.60225,-1.4001 1.79322,0.18262 3.93933,1.48895 4.92519,2.99795 0.98586,1.50899 1.91544,4.81391 2.24813,7.39597 0.33269,2.58206 0.51041,7.12218 0.59361,10.11411 0.0832,2.99194 0.26092,7.53205 0.59361,10.11412 0.33269,2.58206 1.26226,5.88698 2.24812,7.39597 0.98586,1.509 3.13197,2.81533 4.92519,2.99794 1.79323,0.18262 5.15587,-0.50964 7.60226,-1.40009 2.44639,-0.89044 6.56089,-2.8179 9.25677,-4.11823 2.69588,-1.30032 6.81038,-3.22778 9.25677,-4.11822 2.44639,-0.89045 5.80904,-1.58271 7.60226,-1.4001 1.79322,0.18262 3.93933,1.48895 4.92519,2.99795 0.98586,1.50899 1.91544,4.81391 2.24813,7.39597 0.33269,2.58206 0.5104,7.12218 0.5936,10.11411 0.0832,2.99194 0.26092,7.53206 0.59361,10.11412 0.33269,2.58206 1.26227,5.88698 2.24813,7.39597 0.98586,1.509 3.13197,2.81533 4.92519,2.99795 1.79322,0.18261 5.15586,-0.50965 7.60225,-1.4001 2.4464,-0.89044 6.5609,-2.8179 9.25678,-4.11822" /><g
       id="g506"><g
         transform="matrix(4,0,0,4,451.27785,189.39112)"
         id="g508"><g
           id="g510"><text
             id="text512"
             style="font-style:italic;font-variant:normal;font-weight:normal;font-size:9.96263981px;font-family:CMMI10;-inkscape-font-specification:CMMI10;writing-mode:lr-tb;fill:#000000;fill-opacity:1;fill-rule:nonzero;stroke:none"
             transform="matrix(1,0,0,-1,-8.703492,-2.49066)"><tspan
               id="tspan514"
               y="0"
               x="0">W</tspan></text>
<text
             id="text516"
             style="font-variant:normal;font-weight:normal;font-size:6.97384787px;font-family:CMR7;-inkscape-font-specification:CMR7;writing-mode:lr-tb;fill:#000000;fill-opacity:1;fill-rule:nonzero;stroke:none"
             transform="matrix(1,0,0,-1,2.089379,2.352248)"><tspan
               id="tspan518"
               y="0"
               x="0">+</tspan></text>
</g></g></g><path
       inkscape:connector-curvature="0"
       id="path520"
       style="fill:none;stroke:#000000;stroke-width:2.26771688;stroke-linecap:butt;stroke-linejoin:miter;stroke-miterlimit:10;stroke-dasharray:none;stroke-opacity:1"
       d="M 538.58268,192.75591 680.31496,147.40157" /><g
       id="g522"><g
         transform="matrix(4,0,0,4,712.28885,125.25305)"
         id="g524"><g
           id="g526"><text
             id="text528"
             style="font-style:italic;font-variant:normal;font-weight:normal;font-size:9.96263981px;font-family:CMMI10;-inkscape-font-specification:CMMI10;writing-mode:lr-tb;fill:#000000;fill-opacity:1;fill-rule:nonzero;stroke:none"
             transform="matrix(1,0,0,-1,-2.402444,-2.49066)"><tspan
               id="tspan530"
               y="0"
               x="0">q</tspan></text>
</g></g></g><path
       inkscape:connector-curvature="0"
       id="path532"
       style="fill:none;stroke:#000000;stroke-width:2.26771688;stroke-linecap:butt;stroke-linejoin:miter;stroke-miterlimit:10;stroke-dasharray:none;stroke-opacity:1"
       d="m 538.58268,192.75591 141.73228,45.35433" /><path
       inkscape:connector-curvature="0"
       id="path552"
       style="fill:none;stroke:#000000;stroke-width:2.26771688;stroke-linecap:butt;stroke-linejoin:miter;stroke-miterlimit:10;stroke-dasharray:none;stroke-opacity:1"
       d="M 219.16557,-109.58279 30.424156,-15.212078" /><g
       id="g554"><g
         transform="matrix(4,0,0,4,93.102753,-97.25906)"
         id="g556"><g
           id="g558"><text
             id="text560"
             style="font-variant:normal;font-weight:normal;font-size:9.96263981px;font-family:CMR10;-inkscape-font-specification:CMR10;writing-mode:lr-tb;fill:#000000;fill-opacity:1;fill-rule:nonzero;stroke:none"
             transform="matrix(1,0,0,-1,-3.950442,-0.652308)"><tspan
               id="tspan562"
               y="0"
               x="0">˜</tspan></text>
<text
             id="text564"
             style="font-style:italic;font-variant:normal;font-weight:normal;font-size:9.96263981px;font-family:CMMI10;-inkscape-font-specification:CMMI10;writing-mode:lr-tb;fill:#000000;fill-opacity:1;fill-rule:nonzero;stroke:none"
             transform="matrix(1,0,0,-1,-4.088839,-2.49066)"><tspan
               id="tspan566"
               y="0"
               x="0">t</tspan></text>
<text
             id="text568"
             style="font-style:italic;font-variant:normal;font-weight:normal;font-size:6.97384787px;font-family:CMSY7;-inkscape-font-specification:CMSY7;writing-mode:lr-tb;fill:#000000;fill-opacity:1;fill-rule:nonzero;stroke:none"
             transform="matrix(1,0,0,-1,-0.491215,2.352248)"><tspan
               id="tspan570"
               y="0"
               x="0">∗</tspan></text>
<text
             id="text572"
             style="font-variant:normal;font-weight:normal;font-size:6.97384787px;font-family:CMR7;-inkscape-font-specification:CMR7;writing-mode:lr-tb;fill:#000000;fill-opacity:1;fill-rule:nonzero;stroke:none"
             transform="matrix(1,0,0,-1,-0.491215,-4.566175)"><tspan
               id="tspan574"
               y="0"
               x="0">1</tspan></text>
</g></g></g><path
       inkscape:connector-curvature="0"
       id="path576"
       style="fill:none;stroke:#000000;stroke-width:2.26771688;stroke-linecap:butt;stroke-linejoin:miter;stroke-miterlimit:10;stroke-dasharray:none;stroke-opacity:1"
       d="m 229.63183,-121.39434 53.83274,-150.73164" /><path
       inkscape:connector-curvature="0"
       id="path578"
       style="fill:none;stroke:#000000;stroke-width:2.26771688;stroke-linecap:butt;stroke-linejoin:miter;stroke-miterlimit:10;stroke-dasharray:none;stroke-opacity:1"
       d="m 229.63183,-121.39434 c 2.99199,0.0813 6.34397,0.16279 8.82426,0.0614 2.48029,-0.10142 4.68691,-0.42902 5.82755,-1.00888 1.14064,-0.57985 1.49402,-1.56933 0.97877,-2.74057 -0.51525,-1.17125 -2.0151,-2.82259 -3.86999,-4.47228 -1.85489,-1.64969 -4.50011,-3.71009 -6.8667,-5.54253 -2.36659,-1.83244 -5.01181,-3.89284 -6.8667,-5.54253 -1.8549,-1.64969 -3.35475,-3.30104 -3.87,-4.47228 -0.51525,-1.17125 -0.16186,-2.16072 0.97878,-2.74058 1.14064,-0.57985 3.34726,-0.90746 5.82755,-1.00887 2.48029,-0.10141 5.83227,-0.02 8.82425,0.0614 2.99199,0.0813 6.34397,0.16279 8.82426,0.0614 2.48029,-0.10141 4.6869,-0.42902 5.82755,-1.00887 1.14064,-0.57986 1.49402,-1.56933 0.97877,-2.74058 -0.51525,-1.17124 -2.0151,-2.82259 -3.86999,-4.47228 -1.8549,-1.64968 -4.50011,-3.71009 -6.8667,-5.54253 -2.36659,-1.83244 -5.01181,-3.89284 -6.8667,-5.54253 -1.8549,-1.64969 -3.35475,-3.30103 -3.87,-4.47228 -0.51525,-1.17124 -0.16186,-2.16072 0.97878,-2.74057 1.14064,-0.57986 3.34726,-0.90746 5.82755,-1.00887 2.48029,-0.10141 5.83227,-0.02 8.82425,0.0614 2.99199,0.0813 6.34397,0.16279 8.82426,0.0614 2.48029,-0.10141 4.6869,-0.42902 5.82755,-1.00887 1.14064,-0.57986 1.49402,-1.56933 0.97877,-2.74058 -0.51525,-1.17124 -2.0151,-2.82259 -3.86999,-4.47228 -1.8549,-1.64969 -4.50011,-3.71009 -6.8667,-5.54253 -2.3666,-1.83244 -5.01181,-3.89284 -6.8667,-5.54253 -1.8549,-1.64969 -3.35475,-3.30104 -3.87,-4.47228 -0.51525,-1.17125 -0.16186,-2.16072 0.97878,-2.74058 1.14064,-0.57985 3.34726,-0.90746 5.82755,-1.00887 2.48029,-0.10141 5.83227,-0.02 8.82425,0.0614 2.99199,0.0813 6.34397,0.16279 8.82426,0.0614 2.48028,-0.10141 4.6869,-0.42901 5.82755,-1.00887 1.14064,-0.57985 1.49402,-1.56933 0.97877,-2.74057 -0.51525,-1.17125 -2.0151,-2.82259 -3.86999,-4.47228 -1.8549,-1.64969 -4.50011,-3.7101 -6.8667,-5.54254 -2.3666,-1.83243 -5.01181,-3.89284 -6.8667,-5.54253 -1.8549,-1.64969 -3.35475,-3.30103 -3.87,-4.47228 -0.51525,-1.17124 -0.16186,-2.16072 0.97878,-2.74057 1.14064,-0.57986 3.34726,-0.90746 5.82755,-1.00887 2.48029,-0.10141 5.83227,-0.02 8.82425,0.0614 2.99199,0.0813 6.34397,0.16279 8.82426,0.0614 2.48028,-0.10141 4.6869,-0.42902 5.82755,-1.00887 1.14064,-0.57986 1.49402,-1.56933 0.97877,-2.74058 -0.51525,-1.17124 -2.0151,-2.82259 -3.86999,-4.47228 -1.8549,-1.64969 -4.50011,-3.71009 -6.8667,-5.54253 -2.3666,-1.83244 -5.01181,-3.89284 -6.8667,-5.54253 -1.8549,-1.64969 -3.35475,-3.30104 -3.87,-4.47228 -0.51525,-1.17125 -0.16186,-2.16072 0.97878,-2.74058 1.14064,-0.57985 3.34726,-0.90746 5.82755,-1.00887 2.48029,-0.10141 5.83227,-0.02 8.82425,0.0614 2.99199,0.0813 6.34397,0.16279 8.82426,0.0614 2.48028,-0.10141 4.6869,-0.42901 5.82754,-1.00887 1.14065,-0.57985 1.49403,-1.56933 0.97878,-2.74057 -0.51525,-1.17125 -2.0151,-2.82259 -3.86999,-4.47228 -1.8549,-1.64969 -4.50011,-3.71009 -6.8667,-5.54253" /><path
       inkscape:connector-curvature="0"
       id="path602"
       style="fill:none;stroke:#000000;stroke-width:2.26771688;stroke-linecap:butt;stroke-linejoin:miter;stroke-miterlimit:10;stroke-dasharray:none;stroke-opacity:1"
       d="m 235.27559,-113.38583 164.40945,0" /><g
       id="g604"><g
         transform="matrix(4,0,0,4,344.69291,-167.24409)"
         id="g606"><g
           id="g608"><text
             id="text610"
             style="font-variant:normal;font-weight:normal;font-size:9.96263981px;font-family:CMR10;-inkscape-font-specification:CMR10;writing-mode:lr-tb;fill:#000000;fill-opacity:1;fill-rule:nonzero;stroke:none"
             transform="matrix(1,0,0,-1,-1.660415,-0.652308)"><tspan
               id="tspan612"
               y="0"
               x="0">¯</tspan></text>
<text
             id="text614"
             style="font-style:italic;font-variant:normal;font-weight:normal;font-size:9.96263981px;font-family:CMMI10;-inkscape-font-specification:CMMI10;writing-mode:lr-tb;fill:#000000;fill-opacity:1;fill-rule:nonzero;stroke:none"
             transform="matrix(1,0,0,-1,-1.798812,-2.49066)"><tspan
               id="tspan616"
               y="0"
               x="0">t</tspan></text>
</g></g></g><path
       inkscape:connector-curvature="0"
       id="path618"
       style="fill:none;stroke:#000000;stroke-width:2.26771688;stroke-linecap:butt;stroke-linejoin:miter;stroke-miterlimit:10;stroke-dasharray:none;stroke-opacity:1"
       d="m 415.66062,-109.32515 122.92206,66.805465" /><g
       id="g624"
       transform="matrix(4,0,0,4,577.95442,-37.266058)"><text
         id="text626"
         style="font-variant:normal;font-weight:normal;font-size:9.96263981px;font-family:CMR10;-inkscape-font-specification:CMR10;writing-mode:lr-tb;fill:#000000;fill-opacity:1;fill-rule:nonzero;stroke:none"
         transform="matrix(1,0,0,-1,-2.49066,0.138382)"><tspan
           id="tspan628"
           y="0"
           x="0">¯</tspan></text>
<text
         id="text630"
         style="font-style:italic;font-variant:normal;font-weight:normal;font-size:9.96263981px;font-family:CMMI10;-inkscape-font-specification:CMMI10;writing-mode:lr-tb;fill:#000000;fill-opacity:1;fill-rule:nonzero;stroke:none"
         transform="matrix(1,0,0,-1,-2.137811,-2.49066)"><tspan
           id="tspan632"
           y="0"
           x="0">b</tspan></text>
</g><path
       inkscape:connector-curvature="0"
       id="path634"
       style="fill:none;stroke:#000000;stroke-width:2.26771688;stroke-linecap:butt;stroke-linejoin:miter;stroke-miterlimit:10;stroke-dasharray:none;stroke-opacity:1"
       d="m 415.45291,-117.80735 c 2.69588,1.30032 6.81039,3.22778 9.25678,4.11822 2.44639,0.89045 5.80903,1.58271 7.60225,1.4001 1.79322,-0.18262 3.93933,-1.48895 4.92519,-2.99795 0.98586,-1.50899 1.91544,-4.81391 2.24813,-7.39597 0.33269,-2.58206 0.5104,-7.12218 0.59361,-10.11411 0.0832,-2.99194 0.26092,-7.53205 0.59361,-10.11412 0.33269,-2.58206 1.26226,-5.88698 2.24812,-7.39597 0.98586,-1.509 3.13197,-2.81533 4.92519,-2.99794 1.79322,-0.18262 5.15587,0.50964 7.60226,1.40009 2.44639,0.89044 6.56089,2.81791 9.25677,4.11823 2.69588,1.30032 6.81038,3.22778 9.25677,4.11822 2.44639,0.89045 5.80903,1.58271 7.60226,1.4001 1.79322,-0.18262 3.93933,-1.48895 4.92519,-2.99795 0.98586,-1.50899 1.91543,-4.81391 2.24812,-7.39597 0.33269,-2.58206 0.51041,-7.12218 0.59361,-10.11411 0.0832,-2.99194 0.26092,-7.53206 0.59361,-10.11412 0.33269,-2.58206 1.26227,-5.88698 2.24813,-7.39597 0.98586,-1.509 3.13197,-2.81533 4.92519,-2.99795 1.79322,-0.18261 5.15586,0.50965 7.60225,1.4001 2.44639,0.89044 6.5609,2.8179 9.25677,4.11823 2.69588,1.30032 6.81039,3.22778 9.25678,4.11822 2.44639,0.89045 5.80903,1.58271 7.60225,1.4001 1.79322,-0.18262 3.93933,-1.48895 4.92519,-2.99795 0.98586,-1.50899 1.91544,-4.81391 2.24813,-7.39597 0.33269,-2.58206 0.51041,-7.12218 0.59361,-10.11412" /><path
       inkscape:connector-curvature="0"
       id="path650"
       style="fill:none;stroke:#000000;stroke-width:2.26771688;stroke-linecap:butt;stroke-linejoin:miter;stroke-miterlimit:10;stroke-dasharray:none;stroke-opacity:1"
       d="m 538.58268,-192.75591 141.73228,45.35434" /><g
       id="g652"><g
         transform="matrix(4,0,0,4,719.20721,-146.87293)"
         id="g654"><g
           id="g656"><text
             id="text658"
             style="font-style:italic;font-variant:normal;font-weight:normal;font-size:9.96263981px;font-family:CMMI10;-inkscape-font-specification:CMMI10;writing-mode:lr-tb;fill:#000000;fill-opacity:1;fill-rule:nonzero;stroke:none"
             transform="matrix(1,0,0,-1,-1.584345,-2.49066)"><tspan
               id="tspan660"
               y="0"
               x="0">l</tspan></text>
</g></g></g><path
       inkscape:connector-curvature="0"
       id="path662"
       style="fill:none;stroke:#000000;stroke-width:2.26771688;stroke-linecap:butt;stroke-linejoin:miter;stroke-miterlimit:10;stroke-dasharray:none;stroke-opacity:1"
       d="m 538.58268,-192.75591 141.73228,-45.35433" /><g
       id="g664"><g
         transform="matrix(4,0,0,4,712.28885,-260.25876)"
         id="g666"><g
           id="g668"><text
             id="text670"
             style="font-style:italic;font-variant:normal;font-weight:normal;font-size:9.96263981px;font-family:CMMI10;-inkscape-font-specification:CMMI10;writing-mode:lr-tb;fill:#000000;fill-opacity:1;fill-rule:nonzero;stroke:none"
             transform="matrix(1,0,0,-1,-2.777776,-2.49066)"><tspan
               id="tspan672"
               y="0"
               x="0">ν</tspan></text>
</g></g></g><g
       id="g674"><path
         inkscape:connector-curvature="0"
         id="path676"
         style="fill:#ffffff;fill-opacity:1;fill-rule:nonzero;stroke:none"
         d="m 34.015748,0 -5.2e-5,0.059369 C 33.99996,9.075749 30.405154,17.717028 24.021261,24.08423 17.637367,30.451433 8.986706,34.023603 -0.029684,34.015735 -9.046075,34.007867 -17.690488,30.420604 -24.063259,24.042269 -30.43603,17.663934 -34.015748,9.016394 -34.015748,0 c 0,-9.016394 3.579718,-17.663934 9.952489,-24.042269 6.372771,-6.378335 15.017184,-9.965598 24.033575,-9.973466 9.01639,-0.0079 17.667051,3.564302 24.050945,9.931505 6.383893,6.367202 9.978699,15.008481 9.994435,24.024861 L 34.015748,0 Z" /></g><g
       id="g678"><path
         inkscape:connector-curvature="0"
         id="path688"
         style="fill:url(#pattern680);fill-opacity:1;fill-rule:nonzero;stroke:none"
         d="m 34.015748,0 -5.2e-5,0.059369 C 33.99996,9.075749 30.405154,17.717028 24.021261,24.08423 17.637367,30.451433 8.986706,34.023603 -0.029684,34.015735 -9.046075,34.007867 -17.690488,30.420604 -24.063259,24.042269 -30.43603,17.663934 -34.015748,9.016394 -34.015748,0 c 0,-9.016394 3.579718,-17.663934 9.952489,-24.042269 6.372771,-6.378335 15.017184,-9.965598 24.033575,-9.973466 9.01639,-0.0079 17.667051,3.564302 24.050945,9.931505 6.383893,6.367202 9.978699,15.008481 9.994435,24.024861 L 34.015748,0 Z" /></g><g
       id="g690"><path
         inkscape:connector-curvature="0"
         id="path692"
         style="fill:none;stroke:#000000;stroke-width:2.26771688;stroke-linecap:butt;stroke-linejoin:miter;stroke-miterlimit:10;stroke-dasharray:none;stroke-opacity:1"
         d="m 34.015748,0 -5.2e-5,0.059369 C 33.99996,9.075749 30.405154,17.717028 24.021261,24.08423 17.637367,30.451433 8.986706,34.023603 -0.029684,34.015735 -9.046075,34.007867 -17.690488,30.420604 -24.063259,24.042269 -30.43603,17.663934 -34.015748,9.016394 -34.015748,0 c 0,-9.016394 3.579718,-17.663934 9.952489,-24.042269 6.372771,-6.378335 15.017184,-9.965598 24.033575,-9.973466 9.01639,-0.0079 17.667051,3.564302 24.050945,9.931505 6.383893,6.367202 9.978699,15.008481 9.994435,24.024861 L 34.015748,0 Z" /></g><g
       id="g694"><path
         inkscape:connector-curvature="0"
         id="path696"
         style="fill:#000000;fill-opacity:1;fill-rule:nonzero;stroke:none"
         d="m 235.27559,113.38583 -1e-5,0.0148 c -0.004,2.25409 -0.90264,4.41441 -2.49861,6.00621 -1.59598,1.59181 -3.75864,2.48485 -6.01274,2.48288 -2.2541,-0.002 -4.4152,-0.89878 -6.00839,-2.49337 -1.59319,-1.59458 -2.48812,-3.75646 -2.48812,-6.01056 0,-2.2541 0.89493,-4.41599 2.48812,-6.01057 1.59319,-1.59458 3.75429,-2.4914 6.00839,-2.49337 2.2541,-0.002 4.41676,0.89108 6.01274,2.48288 1.59597,1.5918 2.49467,3.75212 2.49861,6.00621 l 1e-5,0.0148 z" /></g><g
       id="g698"><path
         inkscape:connector-curvature="0"
         id="path700"
         style="fill:none;stroke:#000000;stroke-width:2.26771688;stroke-linecap:butt;stroke-linejoin:miter;stroke-miterlimit:10;stroke-dasharray:none;stroke-opacity:1"
         d="m 235.27559,113.38583 -1e-5,0.0148 c -0.004,2.25409 -0.90264,4.41441 -2.49861,6.00621 -1.59598,1.59181 -3.75864,2.48485 -6.01274,2.48288 -2.2541,-0.002 -4.4152,-0.89878 -6.00839,-2.49337 -1.59319,-1.59458 -2.48812,-3.75646 -2.48812,-6.01056 0,-2.2541 0.89493,-4.41599 2.48812,-6.01057 1.59319,-1.59458 3.75429,-2.4914 6.00839,-2.49337 2.2541,-0.002 4.41676,0.89108 6.01274,2.48288 1.59597,1.5918 2.49467,3.75212 2.49861,6.00621 l 1e-5,0.0148 z" /></g><g
       id="g702"><path
         inkscape:connector-curvature="0"
         id="path704"
         style="fill:#000000;fill-opacity:1;fill-rule:nonzero;stroke:none"
         d="m 416.69291,113.38583 -10e-6,0.0148 c -0.004,2.25409 -0.90264,4.41441 -2.49861,6.00621 -1.59597,1.59181 -3.75864,2.48485 -6.01274,2.48288 -2.25409,-0.002 -4.4152,-0.89878 -6.00839,-2.49337 -1.59319,-1.59458 -2.48812,-3.75646 -2.48812,-6.01056 0,-2.2541 0.89493,-4.41599 2.48812,-6.01057 1.59319,-1.59458 3.7543,-2.4914 6.00839,-2.49337 2.2541,-0.002 4.41677,0.89108 6.01274,2.48288 1.59597,1.5918 2.49468,3.75212 2.49861,6.00621 l 10e-6,0.0148 z" /></g><g
       id="g706"><path
         inkscape:connector-curvature="0"
         id="path708"
         style="fill:none;stroke:#000000;stroke-width:2.26771688;stroke-linecap:butt;stroke-linejoin:miter;stroke-miterlimit:10;stroke-dasharray:none;stroke-opacity:1"
         d="m 416.69291,113.38583 -10e-6,0.0148 c -0.004,2.25409 -0.90264,4.41441 -2.49861,6.00621 -1.59597,1.59181 -3.75864,2.48485 -6.01274,2.48288 -2.25409,-0.002 -4.4152,-0.89878 -6.00839,-2.49337 -1.59319,-1.59458 -2.48812,-3.75646 -2.48812,-6.01056 0,-2.2541 0.89493,-4.41599 2.48812,-6.01057 1.59319,-1.59458 3.7543,-2.4914 6.00839,-2.49337 2.2541,-0.002 4.41677,0.89108 6.01274,2.48288 1.59597,1.5918 2.49468,3.75212 2.49861,6.00621 l 10e-6,0.0148 z" /></g><g
       id="g710"><path
         inkscape:connector-curvature="0"
         id="path712"
         style="fill:#000000;fill-opacity:1;fill-rule:nonzero;stroke:none"
         d="m 235.27559,-113.38583 -1e-5,0.0148 c -0.004,2.25409 -0.90264,4.41441 -2.49861,6.00621 -1.59598,1.5918 -3.75864,2.48484 -6.01274,2.48288 -2.2541,-0.002 -4.4152,-0.89879 -6.00839,-2.49337 -1.59319,-1.59458 -2.48812,-3.75647 -2.48812,-6.01057 0,-2.2541 0.89493,-4.41598 2.48812,-6.01056 1.59319,-1.59459 3.75429,-2.4914 6.00839,-2.49337 2.2541,-0.002 4.41676,0.89107 6.01274,2.48288 1.59597,1.5918 2.49467,3.75212 2.49861,6.00621 l 1e-5,0.0148 z" /></g><g
       id="g714"><path
         inkscape:connector-curvature="0"
         id="path716"
         style="fill:none;stroke:#000000;stroke-width:2.26771688;stroke-linecap:butt;stroke-linejoin:miter;stroke-miterlimit:10;stroke-dasharray:none;stroke-opacity:1"
         d="m 235.27559,-113.38583 -1e-5,0.0148 c -0.004,2.25409 -0.90264,4.41441 -2.49861,6.00621 -1.59598,1.5918 -3.75864,2.48484 -6.01274,2.48288 -2.2541,-0.002 -4.4152,-0.89879 -6.00839,-2.49337 -1.59319,-1.59458 -2.48812,-3.75647 -2.48812,-6.01057 0,-2.2541 0.89493,-4.41598 2.48812,-6.01056 1.59319,-1.59459 3.75429,-2.4914 6.00839,-2.49337 2.2541,-0.002 4.41676,0.89107 6.01274,2.48288 1.59597,1.5918 2.49467,3.75212 2.49861,6.00621 l 1e-5,0.0148 z" /></g><g
       id="g718"><path
         inkscape:connector-curvature="0"
         id="path720"
         style="fill:#000000;fill-opacity:1;fill-rule:nonzero;stroke:none"
         d="m 416.69291,-113.38583 -10e-6,0.0148 c -0.004,2.25409 -0.90264,4.41441 -2.49861,6.00621 -1.59597,1.5918 -3.75864,2.48484 -6.01274,2.48288 -2.25409,-0.002 -4.4152,-0.89879 -6.00839,-2.49337 -1.59319,-1.59458 -2.48812,-3.75647 -2.48812,-6.01057 0,-2.2541 0.89493,-4.41598 2.48812,-6.01056 1.59319,-1.59459 3.7543,-2.4914 6.00839,-2.49337 2.2541,-0.002 4.41677,0.89107 6.01274,2.48288 1.59597,1.5918 2.49468,3.75212 2.49861,6.00621 l 10e-6,0.0148 z" /></g><g
       id="g722"><path
         inkscape:connector-curvature="0"
         id="path724"
         style="fill:none;stroke:#000000;stroke-width:2.26771688;stroke-linecap:butt;stroke-linejoin:miter;stroke-miterlimit:10;stroke-dasharray:none;stroke-opacity:1"
         d="m 416.69291,-113.38583 -10e-6,0.0148 c -0.004,2.25409 -0.90264,4.41441 -2.49861,6.00621 -1.59597,1.5918 -3.75864,2.48484 -6.01274,2.48288 -2.25409,-0.002 -4.4152,-0.89879 -6.00839,-2.49337 -1.59319,-1.59458 -2.48812,-3.75647 -2.48812,-6.01057 0,-2.2541 0.89493,-4.41598 2.48812,-6.01056 1.59319,-1.59459 3.7543,-2.4914 6.00839,-2.49337 2.2541,-0.002 4.41677,0.89107 6.01274,2.48288 1.59597,1.5918 2.49468,3.75212 2.49861,6.00621 l 10e-6,0.0148 z" /></g><rect
       style="opacity:1;fill:#ffffff;fill-opacity:1;stroke:#000000;stroke-width:1.20000005;stroke-miterlimit:4;stroke-dasharray:none;stroke-dashoffset:0;stroke-opacity:0"
       id="rect5221"
       width="15.867414"
       height="23.456179"
       x="711.56201"
       y="-262.09293"
       transform="scale(1,-1)" /><rect
       style="opacity:1;fill:#ffffff;fill-opacity:1;stroke:#000000;stroke-width:1.20000005;stroke-miterlimit:4;stroke-dasharray:none;stroke-dashoffset:0;stroke-opacity:0"
       id="rect5221-3"
       width="15.867414"
       height="23.456179"
       x="95.147469"
       y="66.983475"
       transform="scale(1,-1)" /><path
       style="opacity:1;fill:#ffffff;fill-opacity:1;stroke:#000000;stroke-width:1.20000005;stroke-miterlimit:4;stroke-dasharray:none;stroke-dashoffset:0;stroke-opacity:0"
       id="path5249"
       d="m 83.046288,-56.38618 c 1.957656,-0.178464 3.86528,-0.590352 5.788592,-0.973368 1.476488,-0.293328 2.980128,-0.367512 4.480888,-0.403896 1.362944,-0.08157 2.748976,0.130456 4.090656,-0.1448 1.297896,-0.316592 2.521408,-0.934536 3.694036,-1.568248 0.85808,-0.401072 0.42485,-0.219904 1.29903,-0.545128 0,0 -8.497866,-5.68956 -8.497866,-5.68956 l 0,0 c -0.911888,0.39488 -0.46184,0.187144 -1.350272,0.622944 -1.120944,0.544584 -2.259096,1.122144 -3.513168,1.269288 -1.338616,0.06984 -2.681272,0.0024 -4.020488,0.07328 -1.529496,0.0756 -3.055376,0.221776 -4.552024,0.561256 -1.878896,0.399016 -3.771968,0.76584 -5.701144,0.781184 0,0 8.28176,6.017048 8.28176,6.017048 z"
       inkscape:connector-curvature="0" /><path
       style="fill:none;fill-rule:evenodd;stroke:#000000;stroke-width:3.13555789;stroke-linecap:butt;stroke-linejoin:miter;stroke-miterlimit:4;stroke-dasharray:none;stroke-opacity:1"
       d="m 81.004781,-62.84414 15.177523,0"
       id="path5257"
       inkscape:connector-curvature="0" /><flowRoot
       xml:space="preserve"
       id="flowRoot5259"
       style="font-style:normal;font-weight:normal;font-size:17.5px;line-height:125%;font-family:sans-serif;letter-spacing:0px;word-spacing:0px;fill:#000000;fill-opacity:1;stroke:none;stroke-width:1px;stroke-linecap:butt;stroke-linejoin:miter;stroke-opacity:1"
       transform="matrix(0.8,0,0,-0.8,-252.04913,215.4179)"><flowRegion
         id="flowRegion5261"><rect
           id="rect5263"
           width="77.61235"
           height="70.71347"
           x="137.97752"
           y="139.99892" /></flowRegion><flowPara
         id="flowPara5265"
         style="font-size:45px">p</flowPara></flowRoot><flowRoot
       xml:space="preserve"
       id="flowRoot5259-6"
       style="font-style:normal;font-weight:normal;font-size:17.5px;line-height:125%;font-family:sans-serif;letter-spacing:0px;word-spacing:0px;fill:#000000;fill-opacity:1;stroke:none;stroke-width:1px;stroke-linecap:butt;stroke-linejoin:miter;stroke-opacity:1"
       transform="matrix(0.8,0,0,-0.8,-253.93803,45.716078)"><flowRegion
         id="flowRegion5261-7"><rect
           id="rect5263-5"
           width="77.61235"
           height="70.71347"
           x="137.97752"
           y="139.99892" /></flowRegion><flowPara
         id="flowPara5265-3"
         style="font-size:45px">p</flowPara></flowRoot></g></svg>